<?xml version="1.0" encoding="UTF-8" standalone="yes"?>
<svg xmlns="http://www.w3.org/2000/svg" xmlns:xlink="http://www.w3.org/1999/xlink" width="221.772pt" height="491.800pt" version="1.1" viewBox="-224.662 523.140 221.772 491.800">
  <!--
	Exported with Concepts: Smarter Sketching
	Version: 1505 on iOS 15.3
	https://concepts.app/
	-->
  <title>FDB16547-1072-40D6-8ED5-F02B26FBCD7E</title>
  <desc>Drawing exported from Concepts: Smarter Sketching</desc>
  <defs></defs>
  <g id="Stylo" opacity="1.000">
    <path id="STROKE_3aa60a07-989c-409d-b91c-ec24a83efcbe" opacity="1.000" fill="none" stroke="#171612" stroke-width="2.529" stroke-opacity="1.000" stroke-linecap="round" stroke-linejoin="round" d="M -211.341 791.363 Q -211.341 791.160 -211.341 790.957 L -211.341 794.843 Q -211.341 790.416 -211.341 790.078 L -211.341 794.843 Q -211.341 789.385 -211.341 788.167 L -211.341 794.843 Q -211.341 787.356 -211.341 778.429 Q -211.341 780.540 -211.341 794.843 Q -211.341 803.873 -211.341 811.257 Q -211.341 811.007 -211.341 794.843 Q -211.341 785.784 -211.341 778.429 Q -211.341 784.394 -211.341 794.843 Q -211.341 803.535 -211.341 811.257 Q -211.341 820.660 -211.341 827.671 L -211.341 826.983 L -211.341 827.671 Q -211.341 823.247 -211.341 821.877 L -211.341 827.671 "></path>
    <path id="STROKE_850e87e4-c54d-48b0-bbde-0d6035edc99b" opacity="1.000" fill="none" stroke="#171612" stroke-width="2.597" stroke-opacity="1.000" stroke-linecap="round" stroke-linejoin="round" d="M -194.927 782.656 Q -194.927 782.521 -194.927 778.429 Q -194.927 782.185 -194.927 783.417 L -194.927 778.429 Q -194.927 786.054 -194.927 794.843 Q -194.927 806.189 -194.927 811.257 Q -194.927 819.713 -194.927 827.671 Q -194.927 821.501 -194.927 811.257 Q -194.927 801.557 -194.927 794.843 Q -194.927 786.409 -194.927 778.429 Q -194.927 785.987 -194.927 794.843 Q -194.927 803.670 -194.927 811.257 Q -194.927 820.390 -194.927 827.671 "></path>
    <path id="STROKE_2a34b333-d3b5-4526-8d21-3f1b0d463ce0" opacity="1.000" fill="none" stroke="#171612" stroke-width="2.790" stroke-opacity="1.000" stroke-linecap="round" stroke-linejoin="round" d="M -194.927 778.429 L -199.296 778.429 L -194.927 778.429 Q -200.449 778.429 -211.341 778.429 "></path>
    <path id="STROKE_d69d5e24-30dc-4cf4-8b74-af41e1cc48c8" opacity="1.000" fill="none" stroke="#171612" stroke-width="2.790" stroke-opacity="1.000" stroke-linecap="round" stroke-linejoin="round" d="M -194.927 827.671 Q -203.721 827.671 -211.341 827.671 "></path>
    <path id="STROKE_4228485d-ac2d-42ed-8c5d-5fca6bd12708" opacity="1.000" fill="none" stroke="#171612" stroke-width="2.638" stroke-opacity="1.000" stroke-linecap="round" stroke-linejoin="round" d="M -162.099 958.981 Q -162.099 964.224 -162.099 964.697 L -162.099 958.981 L -162.099 965.373 L -162.099 958.981 Q -162.099 966.607 -162.099 975.395 Q -162.099 985.085 -162.099 991.809 Q -162.099 1000.452 -162.099 1008.223 "></path>
    <path id="STROKE_b8a23295-d0c3-42b7-b873-b9c09d5ab1a0" opacity="1.000" fill="none" stroke="#171612" stroke-width="2.258" stroke-opacity="1.000" stroke-linecap="round" stroke-linejoin="round" d="M -143.126 958.981 Q -143.187 958.981 -141.833 958.981 L -145.685 958.981 Q -145.685 967.486 -145.685 975.395 Q -145.685 984.206 -145.685 991.809 Q -145.685 1001.399 -145.685 1008.223 "></path>
    <path id="STROKE_e8288914-82df-4341-98c4-a17a36a9ed70" opacity="1.000" fill="none" stroke="#171612" stroke-width="2.790" stroke-opacity="1.000" stroke-linecap="round" stroke-linejoin="round" d="M -145.685 1008.223 Q -147.366 1008.223 -150.823 1008.223 L -145.685 1008.223 L -162.099 1008.223 "></path>
    <path id="STROKE_720b99fb-89e8-4490-b5c4-20c101c86a08" opacity="1.000" fill="none" stroke="#171612" stroke-width="2.790" stroke-opacity="1.000" stroke-linecap="round" stroke-linejoin="round" d="M -145.685 958.981 L -162.099 958.981 "></path>
    <path id="STROKE_95cc975e-b52e-481e-9d44-5dbe2d50b45a" opacity="1.000" fill="none" stroke="#171612" stroke-width="2.162" stroke-opacity="1.000" stroke-linecap="round" stroke-linejoin="round" d="M -208.433 777.244 Q -208.496 777.239 -209.339 776.828 Q -210.182 776.417 -210.869 775.957 Q -211.556 775.496 -211.864 775.234 Q -212.172 774.972 -212.478 774.771 Q -212.784 774.570 -213.521 773.769 Q -214.258 772.968 -214.604 772.499 Q -214.950 772.031 -215.164 771.738 Q -215.379 771.444 -215.698 770.887 Q -216.017 770.329 -216.163 769.991 Q -216.308 769.653 -216.453 769.423 Q -216.599 769.194 -216.998 767.961 Q -217.396 766.729 -217.611 765.549 Q -217.825 764.369 -217.792 762.864 Q -217.759 761.359 -217.540 759.978 Q -217.322 758.598 -216.630 757.142 Q -215.938 755.686 -215.498 754.979 Q -215.059 754.272 -214.741 753.871 Q -214.423 753.471 -214.260 753.252 Q -214.096 753.034 -213.581 752.487 Q -213.066 751.940 -212.373 751.358 Q -211.681 750.775 -211.183 750.437 Q -210.684 750.100 -210.272 749.878 Q -209.860 749.656 -209.802 749.589 Q -209.743 749.521 -208.642 749.052 Q -207.541 748.582 -206.522 748.288 Q -205.503 747.994 -203.914 747.788 Q -202.325 747.581 -200.627 747.863 Q -198.928 748.146 -197.880 748.447 Q -196.833 748.749 -195.579 749.391 Q -194.326 750.032 -193.540 750.620 Q -192.754 751.208 -192.055 751.861 Q -191.355 752.514 -190.842 753.145 Q -190.330 753.776 -189.857 754.418 Q -189.385 755.061 -188.808 756.242 Q -188.231 757.424 -187.912 758.445 Q -187.592 759.465 -187.363 760.820 Q -187.133 762.175 -187.206 763.666 Q -187.279 765.158 -187.546 766.377 Q -187.814 767.595 -188.342 768.912 Q -188.869 770.230 -189.565 771.332 Q -190.260 772.434 -191.071 773.309 Q -191.882 774.183 -192.497 774.703 Q -193.111 775.223 -193.360 775.384 Q -193.610 775.545 -194.348 776.067 Q -195.086 776.588 -196.486 777.214 Q -197.885 777.839 -199.373 778.121 Q -200.861 778.403 -201.679 778.412 Q -202.496 778.420 -202.789 778.438 Q -203.082 778.456 -204.266 778.339 Q -205.451 778.222 -206.571 777.886 Q -207.692 777.551 -208.528 777.241 Q -209.364 776.931 -212.147 775.015 "></path>
    <path id="STROKE_8aaa9c3c-9c81-4082-b83e-2312398c1fdb" opacity="1.000" fill="none" stroke="#171612" stroke-width="1.653" stroke-opacity="1.000" stroke-linecap="round" stroke-linejoin="round" d="M -162.869 956.312 Q -162.821 956.364 -163.567 955.804 Q -164.313 955.244 -164.827 954.840 Q -165.340 954.436 -166.145 953.504 Q -166.950 952.572 -167.270 952.084 Q -167.591 951.596 -167.866 951.183 Q -168.141 950.770 -168.733 949.627 Q -169.325 948.484 -169.653 947.240 Q -169.980 945.996 -170.133 945.184 Q -170.285 944.373 -170.333 943.113 Q -170.381 941.853 -170.259 940.697 Q -170.137 939.541 -169.849 938.383 Q -169.561 937.226 -169.152 936.254 Q -168.743 935.283 -168.472 934.788 Q -168.201 934.293 -168.037 934.021 Q -167.874 933.749 -167.783 933.598 Q -167.693 933.448 -167.509 933.190 Q -167.325 932.933 -167.161 932.677 Q -166.996 932.420 -166.537 931.915 Q -166.078 931.409 -165.843 931.107 Q -165.608 930.804 -164.650 929.981 Q -163.692 929.157 -163.003 928.724 Q -162.315 928.291 -161.803 927.997 Q -161.290 927.703 -160.258 927.238 Q -159.225 926.774 -158.045 926.493 Q -156.865 926.212 -156.227 926.138 Q -155.589 926.064 -155.207 926.024 Q -154.825 925.984 -153.700 925.951 Q -152.575 925.917 -151.207 926.177 Q -149.839 926.437 -149.098 926.673 Q -148.357 926.908 -147.899 927.093 Q -147.440 927.277 -147.151 927.419 Q -146.862 927.561 -146.713 927.625 Q -146.564 927.690 -145.620 928.164 Q -144.675 928.639 -143.615 929.545 Q -142.555 930.452 -142.103 930.938 Q -141.650 931.425 -141.473 931.632 Q -141.296 931.839 -141.110 932.056 Q -140.924 932.274 -140.565 932.803 Q -140.206 933.332 -139.930 933.736 Q -139.655 934.141 -139.084 935.270 Q -138.514 936.398 -138.125 937.708 Q -137.735 939.017 -137.584 940.162 Q -137.433 941.306 -137.444 942.010 Q -137.456 942.713 -137.449 943.174 Q -137.442 943.634 -137.607 944.915 Q -137.773 946.196 -138.176 947.408 Q -138.579 948.621 -138.857 949.215 Q -139.136 949.809 -139.305 950.131 Q -139.474 950.453 -139.588 950.648 Q -139.702 950.844 -140.002 951.334 Q -140.303 951.824 -140.707 952.360 Q -141.111 952.897 -141.521 953.371 Q -141.932 953.845 -142.415 954.316 Q -142.899 954.787 -143.339 955.138 Q -143.779 955.488 -144.189 955.825 Q -144.598 956.163 -145.366 956.589 Q -146.133 957.015 -146.576 957.264 Q -147.018 957.513 -148.054 957.900 Q -149.089 958.286 -149.745 958.454 Q -150.401 958.623 -151.163 958.748 Q -151.925 958.873 -152.389 958.909 Q -152.854 958.945 -153.687 958.987 Q -154.521 959.029 -155.632 958.880 Q -156.743 958.732 -157.530 958.582 Q -158.317 958.431 -159.453 958.003 Q -160.590 957.575 -160.972 957.369 Q -161.355 957.163 -162.024 956.822 Q -162.692 956.482 -163.797 955.664 Q -164.902 954.846 -165.698 953.984 Q -166.493 953.122 -166.982 952.496 Q -167.471 951.871 -167.915 951.135 Q -168.360 950.400 -168.669 949.758 Q -168.978 949.115 -169.126 948.746 Q -169.274 948.376 -169.327 948.201 Q -169.379 948.025 -169.413 947.968 Q -169.448 947.911 -169.765 946.839 Q -170.082 945.768 -170.238 944.524 Q -170.393 943.280 -170.353 942.076 Q -170.314 940.872 -170.052 939.293 "></path>
    <path id="STROKE_446db491-a81b-42c6-ada1-c71b198293e9" opacity="1.000" fill="none" stroke="#6ac0c8" stroke-width="2.722" stroke-opacity="1.000" stroke-linecap="round" stroke-linejoin="round" d="M -194.927 614.291 Q -194.927 622.507 -194.927 630.705 Q -194.927 639.188 -194.927 647.119 Q -194.927 655.903 -194.927 663.532 Q -194.927 672.144 -194.927 679.946 Q -194.927 689.740 -194.927 696.360 Q -194.927 705.100 -194.927 712.774 Q -194.927 721.066 -194.927 729.188 Q -194.927 734.381 -194.927 739.302 Q -194.927 739.137 -194.927 738.222 "></path>
    <path id="STROKE_ff6e9580-1431-4c3d-9da9-8c874bcc5bf3" opacity="1.000" fill="none" stroke="#6ac0c8" stroke-width="2.100" stroke-opacity="1.000" stroke-linecap="round" stroke-linejoin="round" d="M -145.685 614.291 Q -145.685 617.451 -145.685 630.705 Q -145.685 639.580 -145.685 647.119 Q -145.685 655.738 -145.685 663.532 Q -145.685 674.360 -145.685 679.946 Q -145.685 689.575 -145.685 696.360 Q -145.685 705.210 -145.685 712.774 Q -145.685 721.231 -145.685 729.188 Q -145.685 738.607 -145.685 745.602 Q -145.685 754.049 -145.685 762.015 Q -145.685 771.756 -145.685 778.429 Q -145.685 786.641 -145.685 794.843 Q -145.685 803.384 -145.685 811.257 Q -145.685 820.953 -145.685 827.671 Q -145.685 836.918 -145.685 844.084 Q -145.685 853.159 -145.685 860.498 Q -145.685 868.904 -145.685 876.912 Q -145.685 885.200 -145.685 893.326 Q -145.685 901.825 -145.685 909.740 L -145.685 914.977 Q -145.685 914.867 -145.685 914.199 "></path>
    <path id="STROKE_6d160683-7eb1-4ac0-a3a8-dc87b73bbebe" opacity="1.000" fill="none" stroke="#6ac0c8" stroke-width="2.784" stroke-opacity="1.000" stroke-linecap="round" stroke-linejoin="round" d="M -196.718 613.045 Q -196.781 613.096 -196.455 614.279 Q -196.129 615.461 -196.819 617.799 Q -197.509 620.138 -198.724 623.054 Q -199.938 625.971 -201.709 629.203 Q -201.851 629.452 -201.193 627.613 Q -200.534 625.774 -198.957 622.357 Q -197.379 618.939 -196.558 617.172 Q -195.737 615.404 -195.114 614.330 Q -194.491 613.256 -194.048 612.749 Q -193.604 612.242 -193.326 612.022 Q -193.048 611.802 -192.856 611.811 Q -192.665 611.820 -192.722 611.826 Q -192.779 611.833 -192.458 611.999 Q -192.136 612.166 -191.656 613.736 Q -191.177 615.307 -190.426 625.906 "></path>
    <path id="STROKE_c8561f15-8e14-4907-81c9-caf9a63f149f" opacity="1.000" fill="none" stroke="#6ac0c8" stroke-width="2.763" stroke-opacity="1.000" stroke-linecap="round" stroke-linejoin="round" d="M -194.865 737.059 Q -194.850 737.169 -194.060 738.387 Q -194.383 738.735 -196.543 734.664 Q -198.703 730.594 -201.487 726.461 Q -200.881 726.616 -198.589 730.122 Q -196.296 733.627 -195.276 735.579 Q -194.255 737.530 -193.634 738.454 Q -193.014 739.379 -192.297 739.742 Q -192.188 740.111 -191.515 737.367 Q -190.843 734.623 -190.089 730.950 Q -189.335 727.276 -188.870 725.002 Q -188.406 722.728 -187.908 720.371 Q -188.032 720.402 -188.155 720.433 "></path>
    <path id="STROKE_e606f511-5f37-479f-ae12-7baad44aa6e4" opacity="1.000" fill="none" stroke="#6ac0c8" stroke-width="2.710" stroke-opacity="1.000" stroke-linecap="round" stroke-linejoin="round" d="M -143.810 612.797 Q -143.845 612.819 -143.843 612.825 Q -143.840 612.831 -143.624 612.659 Q -143.408 612.488 -143.325 612.416 Q -143.242 612.345 -143.232 612.322 Q -143.563 612.093 -145.133 615.259 Q -146.703 618.425 -147.710 620.639 Q -148.718 622.852 -150.380 627.407 Q -150.630 628.118 -148.859 624.199 Q -147.089 620.281 -145.985 618.084 Q -144.881 615.886 -144.264 614.682 Q -143.647 613.477 -142.525 613.031 Q -142.387 613.068 -141.629 618.285 Q -140.872 623.503 -139.573 630.448 "></path>
    <path id="STROKE_ab68f5db-b41c-4cd4-a7ae-5be7db1a0d06" opacity="1.000" fill="none" stroke="#6ac0c8" stroke-width="2.790" stroke-opacity="1.000" stroke-linecap="round" stroke-linejoin="round" d="M -146.334 914.894 Q -146.330 914.898 -146.054 914.681 Q -145.779 914.464 -145.745 913.686 Q -145.712 912.908 -146.558 911.333 Q -147.403 909.758 -154.344 899.314 Q -154.475 899.425 -153.382 901.835 Q -152.289 904.246 -151.349 906.171 Q -150.409 908.096 -149.886 909.161 Q -149.362 910.226 -147.895 912.885 Q -146.427 915.544 -145.567 917.029 Q -144.707 918.515 -143.648 919.402 Q -143.147 919.084 -142.851 914.381 Q -142.555 909.678 -142.259 906.187 Q -141.962 902.696 -140.461 896.520 "></path>
    <path id="STROKE_698497c8-2f0f-46d8-9660-7003e2434915" opacity="1.000" fill="none" stroke="#f66640" stroke-width="2.790" stroke-opacity="1.000" stroke-linecap="round" stroke-linejoin="round" d="M -80.030 745.601 L -80.030 747.811 L -80.030 745.601 Q -80.030 747.208 -80.030 749.472 Q -80.030 751.737 -80.030 762.015 Q -80.030 770.935 -80.030 778.429 Q -80.030 786.751 -80.030 794.843 Q -80.030 803.814 -80.030 811.257 Q -80.030 820.588 -80.030 827.671 Q -80.030 835.988 -80.030 844.084 Q -80.030 852.464 -80.030 860.498 Q -80.030 869.350 -80.030 876.912 Q -80.030 885.377 -80.030 893.326 Q -80.030 901.807 -80.030 909.740 "></path>
    <path id="STROKE_14f43414-d2ac-49bf-a89f-6199169768c9" opacity="1.000" fill="none" stroke="#f66640" stroke-width="2.790" stroke-opacity="1.000" stroke-linecap="round" stroke-linejoin="round" d="M -80.030 909.740 Q -80.030 917.683 -80.030 917.868 Q -80.030 917.842 -80.030 909.740 "></path>
    <path id="STROKE_3755764f-c905-48e8-9d02-fd4e435e0aef" opacity="1.000" fill="none" stroke="#f66640" stroke-width="2.790" stroke-opacity="1.000" stroke-linecap="round" stroke-linejoin="round" d="M -80.329 917.868 Q -80.329 917.960 -80.117 918.739 Q -79.743 918.492 -82.000 915.274 Q -84.256 912.057 -85.968 910.037 Q -87.680 908.018 -89.553 904.012 Q -89.093 903.965 -86.447 906.487 Q -83.801 909.009 -81.585 912.072 Q -79.369 915.136 -77.738 918.475 L -77.725 918.475 Q -77.767 918.669 -77.589 917.140 Q -77.411 915.610 -76.567 910.800 Q -75.723 905.990 -75.067 900.930 "></path>
    <path id="STROKE_fce6dcbf-e588-4790-b0e3-af8d2f5d5128" opacity="1.000" fill="none" stroke="#f66640" stroke-width="2.747" stroke-opacity="1.000" stroke-linecap="round" stroke-linejoin="round" d="M -83.651 745.534 Q -83.476 745.296 -80.782 744.246 Q -80.364 744.664 -82.027 748.774 Q -83.690 752.884 -86.285 757.000 Q -86.421 756.896 -85.503 755.091 Q -84.585 753.287 -83.753 751.811 Q -82.921 750.334 -82.035 748.830 Q -81.149 747.326 -80.287 745.955 Q -79.424 744.584 -78.747 743.821 Q -78.069 743.059 -77.454 742.762 Q -76.839 742.464 -76.280 743.474 Q -75.720 744.483 -75.456 745.341 Q -75.192 746.199 -74.866 747.460 Q -74.541 748.721 -73.815 751.102 Q -73.090 753.484 -72.299 756.623 "></path>
    <path id="STROKE_3a1d8537-89df-42db-b520-4b76c663fa63" opacity="1.000" fill="none" stroke="#6ac0c8" stroke-width="2.790" stroke-opacity="1.000" stroke-linecap="round" stroke-linejoin="round" d="M -180.791 668.532 Q -180.568 668.400 -179.951 668.120 Q -179.334 667.839 -179.171 667.181 Q -179.009 666.522 -178.990 666.054 Q -178.970 665.586 -179.115 665.333 Q -179.259 665.079 -179.525 664.893 Q -179.791 664.707 -180.353 664.596 Q -180.914 664.486 -181.647 664.964 Q -182.380 665.443 -182.820 665.944 Q -183.261 666.444 -183.860 667.503 Q -184.459 668.563 -184.684 669.809 Q -184.908 671.056 -184.862 671.923 Q -184.816 672.790 -184.611 673.176 Q -184.406 673.563 -183.895 674.027 Q -183.385 674.491 -182.488 674.354 Q -181.592 674.218 -180.577 672.427 Q -179.562 670.636 -178.914 668.255 Q -178.266 665.873 -178.180 662.747 Q -178.093 659.620 -178.558 654.729 Q -178.527 654.720 -177.682 673.364 Q -177.670 673.364 -177.415 673.100 "></path>
    <path id="STROKE_832b4239-fa46-48f8-b784-e33c09405feb" opacity="1.000" fill="none" stroke="#6ac0c8" stroke-width="2.790" stroke-opacity="1.000" stroke-linecap="round" stroke-linejoin="round" d="M -176.142 677.932 Q -175.982 678.036 -175.656 678.268 Q -175.330 678.500 -175.115 678.578 Q -174.899 678.655 -174.421 677.867 Q -173.942 677.078 -173.454 675.936 Q -172.966 674.795 -170.199 667.416 L -170.172 667.416 Q -169.941 667.523 -170.370 670.232 Q -170.800 672.941 -170.856 675.081 Q -170.911 677.221 -170.893 678.413 Q -170.875 679.605 -170.184 680.533 Q -170.192 680.513 -170.194 680.567 Q -170.196 680.622 -169.840 680.077 "></path>
    <path id="STROKE_a0a4ca92-5260-4c47-8008-90c9e231d7ef" opacity="1.000" fill="none" stroke="#6ac0c8" stroke-width="2.761" stroke-opacity="1.000" stroke-linecap="round" stroke-linejoin="round" d="M -133.179 769.898 Q -132.736 769.479 -132.226 768.309 Q -131.717 767.139 -131.718 766.420 Q -131.719 765.701 -131.764 765.232 Q -131.808 764.763 -132.075 764.745 Q -132.342 764.727 -132.774 765.074 Q -133.206 765.421 -134.113 767.305 Q -135.019 769.188 -135.419 770.961 Q -135.819 772.734 -135.901 773.853 Q -135.983 774.972 -136.006 775.541 Q -136.029 776.111 -135.163 776.805 Q -134.298 777.498 -133.577 776.803 Q -132.855 776.107 -132.581 775.508 Q -132.306 774.908 -131.633 772.818 Q -130.961 770.729 -130.635 767.532 Q -130.310 764.335 -130.311 762.095 Q -130.312 759.855 -130.292 758.744 Q -130.272 757.632 -130.290 756.370 Q -130.307 755.109 -131.068 753.759 Q -131.223 754.463 -131.159 754.475 Q -131.191 755.895 -131.172 760.401 Q -131.152 764.908 -130.829 768.005 Q -130.506 771.101 -130.384 772.876 Q -130.262 774.651 -130.204 777.516 Q -130.216 777.516 -130.229 777.516 "></path>
    <path id="STROKE_75b1c4cb-06c1-4523-b1b3-38c70806f445" opacity="1.000" fill="none" stroke="#6ac0c8" stroke-width="2.790" stroke-opacity="1.000" stroke-linecap="round" stroke-linejoin="round" d="M -125.842 776.321 Q -125.788 776.391 -125.160 775.777 Q -124.532 775.163 -124.401 774.639 Q -124.271 774.115 -124.001 773.722 Q -123.731 773.330 -123.236 773.278 Q -123.262 773.006 -123.069 774.499 Q -122.877 775.992 -123.399 778.906 Q -123.922 781.819 -124.468 783.461 Q -125.015 785.104 -125.449 786.150 Q -125.883 787.196 -126.378 788.069 Q -126.874 788.941 -127.555 789.482 Q -128.236 790.023 -128.766 789.777 Q -129.296 789.531 -129.477 788.277 Q -129.659 787.024 -129.620 786.050 Q -129.581 785.076 -129.262 784.478 Q -128.944 783.880 -128.702 783.669 Q -128.460 783.458 -127.812 783.239 Q -127.163 783.019 -126.194 784.226 Q -125.225 785.433 -124.421 786.740 Q -123.616 788.048 -122.998 788.835 Q -122.380 789.623 -121.835 790.167 Q -121.290 790.710 -120.807 790.928 Q -120.323 791.146 -119.925 791.177 Q -119.527 791.207 -119.102 790.982 Q -118.677 790.757 -117.812 789.087 "></path>
    <path id="STROKE_a4aca76b-ee2a-4c78-9305-593d47afb814" opacity="1.000" fill="none" stroke="#f66640" stroke-width="2.701" stroke-opacity="1.000" stroke-linecap="round" stroke-linejoin="round" d="M -58.284 818.930 Q -58.317 818.840 -57.868 818.365 Q -57.419 817.890 -57.342 817.130 Q -57.265 816.370 -57.385 815.801 Q -57.504 815.232 -57.802 814.915 Q -58.100 814.598 -58.585 814.486 Q -59.071 814.374 -59.482 814.412 Q -59.894 814.451 -60.528 814.918 Q -61.161 815.384 -61.718 816.653 Q -62.275 817.922 -62.441 819.376 Q -62.607 820.830 -62.577 821.911 Q -62.548 822.993 -62.044 823.766 Q -61.540 824.539 -60.725 824.767 Q -59.909 824.996 -59.104 824.137 Q -58.299 823.279 -57.538 820.763 Q -56.776 818.247 -56.468 816.408 Q -56.160 814.569 -55.948 811.796 Q -55.735 809.023 -56.040 800.263 Q -55.722 800.590 -55.685 803.948 Q -55.649 807.307 -55.767 811.881 Q -55.886 816.455 -55.254 822.133 L -55.239 822.133 Q -55.239 822.073 -55.428 820.077 "></path>
    <path id="STROKE_0e82b61d-9b05-4e75-b005-4014a9f24ba4" opacity="1.000" fill="none" stroke="#f66640" stroke-width="2.790" stroke-opacity="1.000" stroke-linecap="round" stroke-linejoin="round" d="M -52.836 822.107 Q -52.412 822.046 -52.023 821.062 Q -51.633 820.078 -51.490 819.480 Q -51.347 818.883 -51.143 818.487 Q -50.939 818.091 -50.408 818.005 Q -49.877 817.918 -49.725 819.939 Q -49.573 821.960 -49.757 823.912 Q -49.940 825.864 -50.458 827.500 Q -50.976 829.136 -51.473 830.049 Q -51.970 830.961 -52.369 831.283 Q -52.767 831.606 -53.123 831.701 Q -53.480 831.796 -53.674 831.760 Q -53.868 831.723 -54.118 831.472 Q -54.367 831.221 -54.394 831.170 Q -54.421 831.118 -54.572 830.681 Q -54.723 830.244 -54.688 830.294 Q -54.652 830.345 -54.745 829.859 Q -54.838 829.374 -54.655 828.879 Q -54.472 828.384 -54.301 828.318 Q -54.130 828.253 -53.745 828.219 Q -53.361 828.186 -53.266 828.269 Q -53.171 828.352 -52.810 828.957 Q -52.449 829.563 -52.010 830.717 Q -51.572 831.872 -51.214 832.652 Q -50.855 833.433 -50.587 833.798 Q -50.319 834.163 -49.998 834.419 Q -49.677 834.674 -49.062 834.682 Q -48.447 834.689 -46.881 830.611 "></path>
    <path id="STROKE_f000cdf8-6e9f-4f12-89b7-71fbaccb694e" opacity="1.000" fill="none" stroke="#f66640" stroke-width="2.790" stroke-opacity="1.000" stroke-linecap="round" stroke-linejoin="round" d="M -42.150 821.729 Q -42.150 821.729 -42.150 821.895 Q -42.150 822.062 -42.150 821.961 Q -42.150 821.987 -42.150 822.160 Q -42.377 822.147 -35.822 822.226 L -35.822 822.240 Q -35.888 822.245 -36.354 822.186 "></path>
    <path id="STROKE_2284d00a-f84d-4298-b1ba-643461fabd75" opacity="1.000" fill="none" stroke="#f66640" stroke-width="2.790" stroke-opacity="1.000" stroke-linecap="round" stroke-linejoin="round" d="M -23.320 818.080 Q -23.669 818.034 -22.409 819.168 Q -22.466 819.243 -22.390 819.242 Q -22.314 819.240 -22.461 818.689 Q -22.607 818.138 -23.465 818.009 Q -24.323 817.880 -25.152 818.000 Q -25.981 818.121 -26.638 818.643 Q -27.295 819.165 -27.619 819.772 Q -27.944 820.379 -28.054 821.080 Q -28.165 821.782 -27.960 822.290 Q -27.754 822.798 -26.979 822.953 Q -26.203 823.108 -25.254 822.925 Q -24.305 822.741 -23.247 821.916 Q -22.189 821.092 -21.303 819.919 Q -20.418 818.747 -20.024 817.016 Q -19.630 815.285 -19.543 813.935 Q -19.457 812.584 -19.536 811.017 Q -19.616 809.450 -19.755 808.674 Q -19.895 807.898 -19.995 807.575 Q -20.096 807.253 -20.190 807.071 Q -20.284 806.889 -20.471 806.864 Q -20.507 807.149 -20.527 807.004 Q -20.547 806.859 -20.661 807.624 Q -20.776 808.390 -20.812 809.373 Q -20.849 810.357 -20.634 811.704 Q -20.420 813.052 -19.951 815.790 Q -19.482 818.528 -18.909 821.517 Q -18.854 821.498 -18.270 820.051 "></path>
    <path id="STROKE_98093055-3222-4252-9b4d-a291e1833c5b" opacity="1.000" fill="none" stroke="#f66640" stroke-width="2.790" stroke-opacity="1.000" stroke-linecap="round" stroke-linejoin="round" d="M -17.708 824.482 Q -17.757 824.731 -17.768 825.322 Q -17.779 825.913 -17.624 826.182 Q -17.469 826.451 -17.323 826.473 Q -17.177 826.495 -16.462 826.528 Q -15.748 826.561 -14.497 825.504 Q -13.245 824.448 -12.222 822.941 Q -11.200 821.435 -10.681 819.301 Q -11.020 818.903 -11.176 823.041 Q -11.332 827.178 -10.937 831.652 Q -10.750 831.931 -9.584 830.319 "></path>
    <path id="STROKE_d2196f9f-a4b3-4458-a0e7-92a76910404f" opacity="1.000" fill="none" stroke="#171612" stroke-width="2.790" stroke-opacity="1.000" stroke-linecap="round" stroke-linejoin="round" d="M -201.377 553.589 L -199.293 553.589 L -201.377 553.589 Q -201.377 546.689 -201.377 541.723 Q -201.377 535.712 -201.377 529.857 "></path>
    <path id="STROKE_e0e46595-cfc7-4e34-958f-638bd393ef43" opacity="1.000" fill="none" stroke="#171612" stroke-width="2.790" stroke-opacity="1.000" stroke-linecap="round" stroke-linejoin="round" d="M -197.640 529.857 Q -196.734 529.857 -196.909 529.857 Q -195.807 529.857 -195.997 529.857 Q -194.948 529.857 -185.232 529.857 Q -177.103 529.857 -169.088 529.857 Q -160.826 529.857 -152.943 529.857 "></path>
    <path id="STROKE_f96ce281-b4d3-4ec5-a1c1-2dc2aa1356b9" opacity="1.000" fill="none" stroke="#171612" stroke-width="2.790" stroke-opacity="1.000" stroke-linecap="round" stroke-linejoin="round" d="M -198.721 553.589 L -198.551 553.589 L -201.377 553.589 Q -198.433 553.589 -185.233 553.589 Q -177.050 553.589 -169.088 553.589 Q -160.826 553.589 -152.943 553.589 "></path>
    <path id="STROKE_a15ad98e-9ee7-4323-b42f-163242965fc0" opacity="1.000" fill="none" stroke="#171612" stroke-width="2.790" stroke-opacity="1.000" stroke-linecap="round" stroke-linejoin="round" d="M -152.943 553.589 Q -144.612 553.589 -136.798 553.589 "></path>
    <path id="STROKE_13c149cb-7108-4c56-863c-a87a2869eb3a" opacity="1.000" fill="none" stroke="#171612" stroke-width="2.790" stroke-opacity="1.000" stroke-linecap="round" stroke-linejoin="round" d="M -136.798 553.589 Q -136.798 546.813 -136.798 541.723 Q -136.798 535.629 -136.798 529.857 Q -144.898 529.857 -152.943 529.857 Q -161.059 529.857 -169.088 529.857 L -152.943 529.857 "></path>
    <path id="STROKE_99facb3b-ce71-4778-9d43-25bfd8127552" opacity="1.000" fill="none" stroke="#171612" stroke-width="2.320" stroke-opacity="1.000" stroke-linecap="round" stroke-linejoin="round" d="M -137.489 551.740 Q -137.511 551.695 -138.313 550.045 Q -138.089 550.506 -137.352 552.022 Q -136.615 553.538 -132.327 562.362 Q -128.038 571.186 -125.280 576.861 Q -122.522 582.536 -121.340 584.966 Q -120.159 587.397 -119.627 588.492 Q -119.095 589.587 -118.854 590.081 "></path>
    <path id="STROKE_cb647d3d-ea64-45f4-9a1c-933caa7b1d92" opacity="1.000" fill="none" stroke="#171612" stroke-width="2.790" stroke-opacity="1.000" stroke-linecap="round" stroke-linejoin="round" d="M -200.825 552.392 Q -200.819 552.380 -200.730 552.188 Q -201.006 552.784 -201.054 552.889 Q -201.102 552.993 -201.097 552.982 Q -201.465 553.780 -201.437 553.718 Q -201.511 553.878 -203.511 558.211 Q -205.511 562.544 -207.066 565.912 Q -208.621 569.280 -209.300 570.750 Q -209.979 572.220 -210.324 572.968 Q -210.669 573.715 -210.772 573.938 Q -210.874 574.161 -210.961 574.347 Q -211.047 574.534 -211.323 575.133 Q -211.600 575.732 -211.665 575.874 Q -211.731 576.016 -211.832 576.235 Q -211.933 576.453 -212.135 576.892 Q -212.337 577.330 -212.358 577.375 Q -212.379 577.420 -212.490 577.660 Q -212.601 577.901 -212.691 578.097 Q -212.782 578.292 -212.879 578.502 Q -212.975 578.712 -213.012 578.791 Q -213.048 578.869 -213.010 578.786 Q -212.971 578.703 -213.267 579.344 Q -213.563 579.984 -213.751 580.393 Q -213.940 580.802 -214.048 581.035 Q -214.155 581.268 -214.156 581.269 Q -214.157 581.271 -214.144 581.243 Q -214.131 581.215 -214.234 581.439 Q -214.338 581.663 -214.521 582.060 Q -214.704 582.457 -214.859 582.793 Q -215.015 583.129 -215.152 583.427 Q -215.290 583.725 -215.307 583.763 Q -215.325 583.801 -215.310 583.769 Q -215.296 583.738 -215.382 583.924 Q -215.467 584.110 -215.703 584.621 Q -215.939 585.132 -216.351 586.024 Q -216.763 586.916 -216.861 587.129 Q -216.959 587.342 -217.155 587.765 Q -217.351 588.189 -217.505 588.524 Q -217.660 588.860 -217.647 588.830 Q -217.633 588.801 -217.652 588.843 Q -217.672 588.885 -217.776 589.110 Q -217.879 589.334 -217.953 589.495 Q -217.896 589.371 -217.385 588.263 "></path>
    <path id="STROKE_597d53df-e5d1-48b1-91c4-4259c0ca618c" opacity="1.000" fill="none" stroke="#171612" stroke-width="1.477" stroke-opacity="1.000" stroke-linecap="round" stroke-linejoin="round" d="M -118.854 590.081 Q -118.975 589.622 -119.477 589.294 Q -119.979 588.966 -122.511 588.379 Q -125.043 587.791 -127.322 587.455 Q -129.601 587.119 -137.011 586.435 Q -144.421 585.751 -155.757 585.408 Q -167.094 585.065 -176.204 585.215 Q -185.315 585.365 -190.328 585.478 Q -195.341 585.590 -200.742 586.081 Q -206.143 586.571 -208.852 586.911 Q -211.562 587.251 -213.089 587.524 Q -214.616 587.797 -215.993 588.233 Q -217.370 588.669 -217.953 589.495 "></path>
    <path id="STROKE_30432b69-c118-4d16-92f4-8df3377fb8d3" opacity="1.000" fill="none" stroke="#171612" stroke-width="1.670" stroke-opacity="1.000" stroke-linecap="round" stroke-linejoin="round" d="M -217.953 590.081 Q -217.489 590.895 -217.461 590.730 Q -216.163 591.414 -213.212 592.051 Q -210.261 592.689 -203.057 593.358 Q -195.852 594.027 -187.783 594.349 Q -179.715 594.672 -172.448 594.685 Q -165.181 594.698 -162.110 594.658 Q -159.040 594.617 -157.113 594.541 Q -155.186 594.464 -153.822 594.460 Q -152.457 594.455 -145.147 594.164 Q -137.836 593.873 -132.527 593.287 Q -127.217 592.701 -124.679 592.238 Q -122.140 591.774 -121.327 591.565 Q -120.514 591.356 -119.875 591.034 Q -119.235 590.712 -118.854 590.081 "></path>
  </g>
</svg>