<?xml version="1.0" encoding="UTF-8" standalone="yes"?>
<svg xmlns="http://www.w3.org/2000/svg" xmlns:xlink="http://www.w3.org/1999/xlink" width="749.608pt" height="625.556pt" version="1.1" viewBox="-457.209 439.653 749.608 625.556">
  <!--
	Exported with Concepts: Smarter Sketching
	Version: 1505 on iOS 15.3
	https://concepts.app/
	-->
  <title>95AB6257-AE03-41EE-83CE-9DBCA93A4DE9</title>
  <desc>Drawing exported from Concepts: Smarter Sketching</desc>
  <defs></defs>
  <g id="Stylo" opacity="1.000">
    <path id="STROKE_6ebf5791-0224-426e-82a8-241e8abdc3ca" opacity="1.000" fill="none" stroke="#171612" stroke-width="1.524" stroke-opacity="1.000" stroke-linecap="round" stroke-linejoin="round" d="M -384.000 493.146 Q -384.000 492.139 -384.000 490.488 L -384.000 496.000 Q -384.000 505.431 -384.000 512.000 Q -384.000 520.498 -384.000 528.000 Q -384.000 536.083 -384.000 544.000 Q -384.000 553.016 -384.000 560.000 Q -384.000 571.431 -384.000 704.000 Q -384.000 717.285 -384.000 976.000 Q -384.000 985.392 -384.000 992.000 Q -384.000 1001.719 -384.000 1008.000 Q -384.000 1019.777 -384.000 1024.000 Q -384.000 1033.842 -384.000 1040.000 Q -384.000 1048.785 -384.000 1056.000 "></path>
    <path id="STROKE_240c651e-3b49-4683-8445-badc07a413b1" opacity="1.000" fill="none" stroke="#171612" stroke-width="1.600" stroke-opacity="1.000" stroke-linecap="round" stroke-linejoin="round" d="M -448.000 768.000 Q -440.110 768.000 -432.000 768.000 Q -423.746 768.000 -416.000 768.000 Q -407.264 768.000 -400.000 768.000 Q -390.408 768.000 -384.000 768.000 Q -373.201 768.000 -352.000 768.000 Q -338.069 768.000 -320.000 768.000 Q -305.671 768.000 -288.000 768.000 Q -277.658 768.000 -240.000 768.000 Q -229.028 768.000 -192.000 768.000 Q -180.756 768.000 -128.000 768.000 Q -117.992 768.000 -80.000 768.000 Q -69.833 768.000 -32.000 768.000 Q -21.387 768.000 16.000 768.000 Q 27.778 768.000 64.000 768.000 Q 77.461 768.000 112.000 768.000 Q 122.582 768.000 128.000 768.000 Q 136.886 768.000 144.000 768.000 Q 152.130 768.000 160.000 768.000 Q 168.428 768.000 176.000 768.000 Q 184.726 768.000 192.000 768.000 Q 200.909 768.000 208.000 768.000 Q 216.268 768.000 224.000 768.000 Q 232.105 768.000 240.000 768.000 "></path>
    <path id="STROKE_5a6f4a71-f297-4a77-b854-3cbca4e47325" opacity="1.000" fill="none" stroke="#171612" stroke-width="2.306" stroke-opacity="1.000" stroke-linecap="round" stroke-linejoin="round" d="M 241.394 769.861 Q 241.161 769.928 241.469 770.944 Q 241.777 771.960 241.195 773.233 Q 240.612 774.506 239.892 774.984 Q 239.172 775.462 236.813 777.233 Q 234.454 779.004 231.463 781.488 Q 228.471 783.971 221.058 790.304 Q 220.513 789.804 227.432 782.140 Q 234.351 774.476 238.720 770.349 Q 243.089 766.221 245.316 764.297 Q 247.543 762.373 249.716 762.062 Q 249.763 761.784 249.815 763.428 Q 247.848 764.839 242.819 762.044 Q 237.789 759.249 232.290 754.423 Q 226.790 749.597 224.085 747.440 Q 221.380 745.283 220.461 744.541 Q 219.542 743.800 219.193 743.431 Q 218.844 743.063 218.574 742.297 Q 218.305 741.531 218.324 741.192 Q 218.343 740.854 218.339 740.896 Q 218.535 740.182 218.677 740.173 Q 218.819 740.164 219.855 739.073 "></path>
    <path id="STROKE_837e4822-8454-4766-aadb-d42e37f543e1" opacity="1.000" fill="none" stroke="#171612" stroke-width="2.174" stroke-opacity="1.000" stroke-linecap="round" stroke-linejoin="round" d="M -388.090 488.333 Q -389.102 488.314 -384.580 488.395 Q -385.150 489.917 -388.543 495.663 Q -391.937 501.409 -393.998 505.735 Q -396.060 510.061 -397.532 518.590 Q -397.112 519.739 -392.861 512.355 Q -388.610 504.970 -376.093 483.080 Q -375.714 485.164 -366.979 506.453 Q -366.881 506.119 -366.221 500.606 "></path>
    <path id="STROKE_d08d133a-6885-4b85-ac19-e07d2c333561" opacity="1.000" fill="none" stroke="#171612" stroke-width="2.356" stroke-opacity="1.000" stroke-linecap="round" stroke-linejoin="round" d="M 243.322 832.094 Q 243.436 832.443 243.798 833.462 Q 244.160 834.481 245.910 833.427 Q 247.659 832.374 248.518 831.243 Q 249.376 830.111 250.539 828.521 Q 251.701 826.932 252.719 825.588 Q 253.738 824.245 256.266 820.283 Q 258.794 816.322 260.537 811.435 Q 262.281 806.548 263.038 803.330 Q 263.794 800.112 264.646 791.480 Q 263.858 791.311 263.957 801.428 Q 264.056 811.545 264.143 817.210 Q 264.231 822.876 264.106 825.537 Q 263.981 828.199 264.893 829.253 Q 265.806 830.307 269.230 829.210 Q 272.654 828.114 276.520 825.458 Q 280.386 822.802 283.202 818.164 "></path>
    <path id="STROKE_00369e60-478a-4a8f-b6ef-bd3458ca1aa6" opacity="1.000" fill="none" stroke="#171612" stroke-width="2.720" stroke-opacity="1.000" stroke-linecap="round" stroke-linejoin="round" d="M 260.543 809.327 Q 260.897 809.758 260.627 809.655 Q 260.357 809.552 261.149 809.844 Q 261.942 810.136 262.190 810.242 Q 262.439 810.348 278.572 801.961 "></path>
    <path id="STROKE_fc0fe419-8045-4b95-a25e-791807e8ecf7" opacity="1.000" fill="none" stroke="#171612" stroke-width="2.180" stroke-opacity="1.000" stroke-linecap="round" stroke-linejoin="round" d="M -419.697 460.044 Q -419.697 460.007 -419.697 459.970 Q -418.505 459.812 -419.388 469.108 Q -420.271 478.405 -419.730 493.094 Q -419.714 494.038 -419.332 489.184 Q -418.950 484.330 -418.573 479.989 Q -418.196 475.649 -417.932 472.309 Q -417.668 468.970 -417.230 464.366 Q -416.792 459.762 -416.183 456.457 Q -415.575 453.153 -414.988 451.576 Q -414.402 449.999 -413.948 449.526 Q -413.494 449.052 -413.307 448.913 Q -413.120 448.774 -413.332 448.948 Q -413.544 449.122 -412.699 448.971 Q -411.853 448.821 -410.680 453.870 Q -409.507 458.918 -409.163 463.388 Q -408.818 467.858 -408.532 474.350 Q -408.245 480.842 -407.931 487.582 Q -407.865 487.582 -407.799 487.582 Q -407.733 487.452 -405.377 478.757 "></path>
    <path id="STROKE_15557154-f591-496e-b779-c0d48d6e5d73" opacity="1.000" fill="none" stroke="#171612" stroke-width="2.720" stroke-opacity="1.000" stroke-linecap="round" stroke-linejoin="round" d="M -406.777 469.598 Q -407.205 470.896 -409.073 472.824 Q -410.941 474.752 -414.279 475.563 Q -417.617 476.375 -426.849 479.548 "></path>
  </g>
  <g id="Nouvelle_couche_1" opacity="1.000">
    <circle id="STROKE_3597ea6c-b485-48e0-bf79-1fa7dedf177a" opacity="1.000" fill="#6ac0c8" stroke="#6ac0c8" stroke-width="0.1" stroke-opacity="1.000" fill-opacity="1.000" cx="-191.500" cy="764.000" r="1.360"></circle>
    <path id="STROKE_6638de9e-9bfc-4408-8c05-1a26214b1d33" opacity="1.000" fill="none" stroke="#6ac0c8" stroke-width="2.248" stroke-opacity="1.000" stroke-linecap="round" stroke-linejoin="round" d="M -383.650 765.682 Q -383.728 764.455 -383.355 756.972 Q -382.981 749.490 -381.226 741.508 Q -379.471 733.525 -377.521 728.546 Q -375.572 723.567 -374.321 720.477 Q -373.069 717.387 -369.950 711.672 Q -366.831 705.957 -362.987 700.993 Q -359.143 696.030 -356.478 693.031 Q -353.813 690.032 -349.139 685.653 Q -344.466 681.274 -338.421 677.460 Q -332.376 673.646 -328.528 671.624 Q -324.680 669.603 -318.683 667.445 Q -312.686 665.287 -307.169 664.047 Q -301.652 662.807 -295.318 662.173 Q -288.985 661.538 -281.462 662.182 Q -273.939 662.826 -269.405 663.767 Q -264.871 664.708 -258.749 666.706 Q -252.628 668.704 -246.064 672.011 Q -239.500 675.319 -233.425 679.784 Q -227.351 684.249 -223.396 688.224 Q -219.442 692.199 -217.440 694.465 Q -215.437 696.731 -213.193 699.856 Q -210.949 702.980 -209.386 704.826 Q -207.824 706.672 -204.715 712.650 Q -201.606 718.628 -200.285 722.027 Q -198.964 725.425 -197.966 727.740 Q -196.969 730.056 -195.209 736.586 Q -193.449 743.117 -192.572 749.769 Q -191.695 756.422 -191.500 764.000 "></path>
    <path id="STROKE_fcbd2b62-2eb7-4f60-82fa-82436bde91e4" opacity="1.000" fill="none" stroke="#6ac0c8" stroke-width="1.971" stroke-opacity="1.000" stroke-linecap="round" stroke-linejoin="round" d="M -192.000 775.500 Q -192.263 774.941 -191.847 780.835 Q -191.430 786.729 -191.092 790.496 Q -190.755 794.262 -189.677 799.654 Q -188.599 805.046 -187.725 808.976 Q -186.851 812.905 -184.443 819.637 Q -182.034 826.368 -180.036 831.052 Q -178.039 835.736 -174.493 841.639 Q -170.947 847.542 -168.944 850.456 Q -166.941 853.371 -163.890 857.038 Q -160.840 860.706 -158.665 862.880 Q -156.491 865.054 -154.837 866.738 Q -153.183 868.422 -148.747 872.214 Q -144.312 876.006 -138.832 879.079 Q -133.352 882.151 -130.749 883.376 Q -128.146 884.600 -125.475 885.677 Q -122.805 886.754 -118.737 887.909 Q -114.669 889.064 -111.002 889.884 Q -107.335 890.704 -101.247 891.013 Q -95.159 891.321 -91.324 891.152 Q -87.488 890.983 -81.408 889.915 Q -75.328 888.847 -70.435 886.987 Q -65.542 885.126 -63.095 884.024 Q -60.648 882.923 -59.795 882.432 Q -58.942 881.942 -55.577 880.141 Q -52.211 878.340 -46.994 874.588 Q -41.776 870.835 -36.914 865.934 Q -32.051 861.033 -28.187 856.668 Q -24.323 852.303 -20.312 845.365 Q -16.301 838.427 -14.618 834.885 Q -12.935 831.343 -11.972 829.241 Q -11.008 827.138 -8.572 820.423 Q -6.136 813.708 -3.900 804.115 Q -1.665 794.521 -1.000 774.000 "></path>
    <path id="STROKE_cdce6e66-c8f4-469e-9174-64744f1a2a42" opacity="1.000" fill="none" stroke="#6ac0c8" stroke-width="1.957" stroke-opacity="1.000" stroke-linecap="round" stroke-linejoin="round" d="M -2.310 762.208 Q -2.475 761.379 -1.817 754.613 Q -1.160 747.847 -0.499 744.067 Q 0.162 740.286 0.450 738.823 Q 0.738 737.359 0.905 736.599 Q 1.071 735.839 1.145 735.562 Q 1.219 735.285 1.811 732.660 Q 2.404 730.035 3.718 725.429 Q 5.032 720.824 6.652 716.519 Q 8.272 712.214 9.232 709.936 Q 10.191 707.657 11.342 705.265 Q 12.492 702.874 13.106 701.632 Q 13.719 700.389 14.283 699.355 Q 14.847 698.320 15.252 697.604 Q 15.657 696.887 16.256 695.724 Q 16.856 694.560 19.070 691.070 Q 21.285 687.580 22.889 685.357 Q 24.493 683.134 25.221 682.215 Q 25.950 681.296 28.371 678.180 Q 30.793 675.064 35.033 670.883 Q 39.274 666.703 41.424 664.902 Q 43.574 663.102 45.558 661.623 Q 47.542 660.145 48.666 659.287 Q 49.789 658.430 53.453 656.171 Q 57.117 653.912 61.062 651.805 Q 65.007 649.699 70.116 648.048 Q 75.226 646.396 77.713 645.716 Q 80.200 645.036 85.161 643.953 Q 90.122 642.870 96.766 642.979 Q 103.410 643.087 106.640 643.506 Q 109.870 643.924 111.568 644.209 Q 113.265 644.494 114.924 644.918 Q 116.582 645.341 118.843 645.783 Q 121.104 646.225 126.649 648.317 Q 132.193 650.408 136.425 652.674 Q 140.656 654.940 143.543 656.813 Q 146.430 658.686 149.432 660.986 Q 152.434 663.286 155.432 665.697 Q 158.430 668.108 163.242 673.451 Q 168.055 678.794 170.640 682.360 Q 173.225 685.927 175.605 689.432 Q 177.984 692.937 181.384 699.367 Q 184.783 705.796 186.906 711.299 Q 189.028 716.801 190.242 720.633 Q 191.457 724.465 192.548 728.220 Q 193.640 731.976 195.326 740.643 Q 197.012 749.311 197.664 769.129 "></path>
    <path id="STROKE_dc6ed38b-a7bd-47b9-a8ba-8804c50cc359" opacity="1.000" fill="none" stroke="#6ac0c8" stroke-width="2.507" stroke-opacity="1.000" stroke-linecap="round" stroke-linejoin="round" d="M -194.240 768.401 Q -194.190 769.070 -191.158 770.496 Q -191.002 769.771 -191.059 769.965 Q -191.108 768.382 -191.125 768.939 Q -191.568 767.714 -191.485 767.925 Q -191.402 768.137 -191.464 767.902 Q -191.526 767.668 -191.660 767.671 Q -191.795 767.674 -191.916 762.036 Q -191.697 762.185 -191.293 769.136 Q -190.890 776.086 -190.961 786.063 Q -190.992 785.932 -190.914 786.014 Q -190.837 786.095 -191.126 786.128 Q -191.416 786.160 -191.914 780.060 Q -192.413 773.959 -191.587 767.610 "></path>
    <path id="STROKE_3874b427-7d33-4b84-a95a-2de6ef18294c" opacity="1.000" fill="none" stroke="#6ac0c8" stroke-width="2.720" stroke-opacity="1.000" stroke-linecap="round" stroke-linejoin="round" d="M -2.321 776.018 Q -2.472 776.293 -1.876 777.341 L -1.843 777.341 Q -1.843 776.190 -1.843 776.383 Q -1.843 775.030 -1.843 775.289 Q -1.811 775.248 -1.921 773.095 Q -2.030 770.942 -2.345 768.350 Q -2.659 765.757 -2.774 764.706 Q -2.889 763.655 -2.979 763.157 Q -3.068 762.659 -3.060 762.715 Q -3.051 762.772 -3.064 762.720 Q -3.078 762.668 -3.097 762.580 Q -3.116 762.491 -3.338 761.690 Q -3.560 760.889 -3.608 760.704 Q -3.657 760.518 -3.640 760.550 Q -3.631 761.077 -3.674 760.152 Q -3.718 759.227 -3.711 758.674 Q -3.703 758.121 -3.705 757.685 Q -3.706 757.250 -3.706 757.351 Q -3.705 757.452 -3.705 757.439 Q -3.706 757.425 -3.707 757.199 Q -3.707 756.974 -3.600 756.517 Q -3.493 756.061 -3.479 756.121 Q -3.465 756.181 -3.574 756.322 Q -3.682 756.464 -3.112 755.575 "></path>
    <path id="STROKE_212a5b61-5bd3-421a-baa1-4a0e07cedb49" opacity="1.000" fill="none" stroke="#f66640" stroke-width="2.720" stroke-opacity="1.000" stroke-linecap="round" stroke-linejoin="round" d="M -383.508 770.839 Q -383.158 771.031 -381.663 771.705 Q -381.439 771.432 -381.596 770.490 Q -381.754 769.547 -382.552 768.934 Q -383.350 768.321 -383.245 768.425 Q -383.140 768.528 -383.021 768.488 Q -382.902 768.448 -383.805 768.553 Q -383.944 768.905 -383.607 770.277 Q -383.026 770.272 -383.159 770.336 Q -383.293 770.401 -383.265 770.389 Q -383.236 770.377 -382.510 770.020 Q -381.783 769.663 -381.907 769.617 Q -382.031 769.571 -382.007 769.638 Q -381.982 769.705 -382.181 769.358 Q -382.380 769.012 -383.533 768.867 Q -384.686 768.723 -385.369 769.170 Q -386.053 769.616 -386.297 770.287 Q -386.541 770.958 -386.491 771.803 Q -386.268 771.933 -384.682 771.939 Q -383.096 771.945 -382.684 767.786 Q -384.681 767.124 -384.442 767.247 Q -384.204 767.369 -384.343 767.344 Q -384.481 767.319 -384.743 767.348 Q -385.005 767.377 -384.878 767.252 Q -384.750 767.128 -385.120 767.300 Q -385.489 767.472 -385.865 767.883 Q -386.241 768.294 -386.182 768.445 Q -386.123 768.595 -386.183 768.451 Q -386.244 768.307 -385.997 769.047 Q -385.626 769.343 -382.651 768.318 "></path>
    <path id="STROKE_a8b960f4-d1fd-4da4-aee3-74b94f8ede82" opacity="1.000" fill="none" stroke="#f66640" stroke-width="2.720" stroke-opacity="1.000" stroke-linecap="round" stroke-linejoin="round" d="M -5.024 770.778 Q -5.024 771.652 -5.024 771.501 Q -5.024 771.705 -5.090 772.434 Q -4.807 773.103 -3.475 769.381 Q -2.674 769.048 -6.557 769.146 Q -7.415 770.733 -4.827 771.244 Q -2.240 771.756 -0.805 771.704 Q 0.630 771.653 1.424 771.405 Q 2.218 771.158 2.412 770.771 Q 2.606 770.385 2.711 769.825 Q 2.815 769.266 2.411 768.976 Q 2.007 768.687 1.599 768.530 Q 1.191 768.374 0.938 768.256 Q 0.685 768.137 -1.283 767.961 Q -3.252 767.784 -4.647 767.958 Q -6.043 768.132 -6.128 770.042 Q -6.132 770.336 -2.453 770.308 "></path>
    <path id="STROKE_f39153b5-d27a-494a-a136-a8106ec64065" opacity="1.000" fill="none" stroke="#f66640" stroke-width="2.110" stroke-opacity="1.000" stroke-linecap="round" stroke-linejoin="round" d="M -7.348 752.000 Q -7.282 752.000 -7.018 752.000 Q -7.285 752.000 -16.000 752.000 Q -25.838 752.000 -32.000 752.000 Q -40.620 752.000 -48.000 752.000 Q -56.259 752.000 -64.000 752.000 Q -73.612 752.000 -80.000 752.000 Q -88.048 752.000 -96.000 752.000 Q -104.956 752.000 -112.000 752.000 Q -122.111 752.000 -128.000 752.000 Q -136.761 752.000 -144.000 752.000 Q -152.268 752.000 -160.000 752.000 Q -169.621 752.000 -176.000 752.000 Q -185.656 752.000 -192.000 752.000 Q -201.017 752.000 -208.000 752.000 Q -216.736 752.000 -224.000 752.000 Q -232.507 752.000 -240.000 752.000 Q -250.123 752.000 -256.000 752.000 Q -264.312 752.000 -272.000 752.000 Q -281.106 752.000 -288.000 752.000 Q -298.639 752.000 -304.000 752.000 Q -312.614 752.000 -320.000 752.000 Q -329.505 752.000 -336.000 752.000 Q -344.024 752.000 -352.000 752.000 Q -360.651 752.000 -368.000 752.000 "></path>
    <path id="STROKE_f527627e-7b84-4d77-9cc6-4dbe3ca3b9b3" opacity="1.000" fill="none" stroke="#f66640" stroke-width="2.552" stroke-opacity="1.000" stroke-linecap="round" stroke-linejoin="round" d="M -364.425 747.875 Q -364.890 749.141 -358.591 743.531 Q -358.865 742.743 -364.210 744.751 Q -369.555 746.759 -372.985 748.898 Q -376.415 751.037 -378.746 753.797 Q -381.076 756.556 -375.370 757.862 Q -369.663 759.168 -365.328 759.560 Q -360.993 759.952 -357.009 761.947 Q -356.601 762.388 -357.998 763.535 "></path>
    <path id="STROKE_9a845d13-394a-497c-9edb-68cbef185bed" opacity="1.000" fill="none" stroke="#f66640" stroke-width="2.570" stroke-opacity="1.000" stroke-linecap="round" stroke-linejoin="round" d="M -13.379 757.763 Q -13.089 757.857 -10.708 757.372 Q -8.327 756.888 -4.497 753.585 Q -6.245 752.679 -19.476 763.275 Q -19.167 763.844 -14.740 761.434 Q -10.313 759.024 -7.931 757.334 Q -5.549 755.643 -4.866 754.905 Q -4.183 754.167 -3.599 752.732 Q -3.014 751.297 -6.802 750.208 Q -10.591 749.120 -13.997 747.760 Q -17.404 746.401 -22.525 740.311 "></path>
    <path id="STROKE_69c9a9eb-0715-4a79-8321-e881a1456b32" opacity="1.000" fill="none" stroke="#f66640" stroke-width="2.452" stroke-opacity="1.000" stroke-linecap="round" stroke-linejoin="round" d="M -175.257 709.721 Q -175.509 709.664 -174.334 703.146 Q -174.669 704.941 -175.097 714.831 Q -175.524 724.720 -174.730 734.996 Q -175.637 734.645 -175.916 725.109 "></path>
    <path id="STROKE_1150fca1-a736-410a-9530-e5249227c1ad" opacity="1.000" fill="none" stroke="#f66640" stroke-width="2.006" stroke-opacity="1.000" stroke-linecap="round" stroke-linejoin="round" d="M -195.197 706.001 Q -195.230 706.001 -195.395 706.001 Q -195.712 706.183 -184.366 704.481 Q -173.020 702.779 -165.179 702.354 Q -157.337 701.929 -146.369 700.655 L -146.369 700.624 Q -147.184 699.883 -152.861 704.406 "></path>
    <path id="STROKE_cbc02711-ec5f-44d4-ba27-33fd6b41ab7b" opacity="1.000" fill="none" stroke="#f66640" stroke-width="2.720" stroke-opacity="1.000" stroke-linecap="round" stroke-linejoin="round" d="M -160.014 731.412 Q -160.014 731.141 -160.014 732.141 Q -159.981 732.141 -159.882 732.110 Q -159.894 731.036 -159.915 731.313 Q -161.598 730.432 -161.456 730.568 Q -161.313 730.704 -162.183 730.662 Q -163.052 730.621 -162.915 730.676 Q -162.777 730.731 -162.895 730.586 Q -163.014 730.440 -164.181 730.829 Q -165.348 731.218 -166.633 732.710 Q -167.919 734.203 -168.262 735.928 Q -168.605 737.652 -167.849 738.799 Q -167.094 739.945 -164.713 740.266 Q -162.332 740.587 -160.554 740.240 Q -158.775 739.893 -157.890 738.684 Q -157.005 737.475 -156.589 735.945 Q -156.173 734.416 -161.348 729.299 "></path>
  </g>
</svg>