<?xml version="1.0" encoding="UTF-8" standalone="yes"?>
<svg xmlns="http://www.w3.org/2000/svg" xmlns:xlink="http://www.w3.org/1999/xlink" width="877.290pt" height="752.464pt" version="1.1" viewBox="-515.645 410.875 877.290 752.464">
  <!--
	Exported with Concepts: Smarter Sketching
	Version: 1505 on iOS 15.3
	https://concepts.app/
	-->
  <title>EADED4E3-D689-43DA-B618-E5C8C5B51B1F</title>
  <desc>Drawing exported from Concepts: Smarter Sketching</desc>
  <defs></defs>
  <g id="Stylo" opacity="1.000">
    <path id="STROKE_39b815d0-a493-4e00-a32d-2992f20cbf76" opacity="1.000" fill="none" stroke="#171612" stroke-width="1.869" stroke-opacity="1.000" stroke-linecap="round" stroke-linejoin="round" d="M -448.000 451.124 L -448.000 448.000 Q -448.000 454.115 -448.000 464.000 Q -448.000 473.124 -448.000 480.000 Q -448.000 489.884 -448.000 496.000 Q -448.000 507.200 -448.000 512.000 Q -448.000 522.266 -448.000 528.000 Q -448.000 539.396 -448.000 544.000 Q -448.000 554.722 -448.000 560.000 Q -448.000 570.258 -448.000 576.000 Q -448.000 584.657 -448.000 592.000 Q -448.000 603.308 -448.000 608.000 Q -448.000 617.373 -448.000 624.000 Q -448.000 635.431 -448.000 640.000 Q -448.000 650.497 -448.000 656.000 Q -448.000 665.019 -448.000 672.000 Q -448.000 683.077 -448.000 688.000 Q -448.000 697.686 -448.000 704.000 Q -448.000 713.346 -448.000 720.000 Q -448.000 728.808 -448.000 736.000 Q -448.000 746.791 -448.000 752.000 Q -448.000 760.263 -448.000 768.000 Q -448.000 776.454 -448.000 784.000 Q -448.000 793.387 -448.000 800.000 Q -448.000 809.244 -448.000 816.000 Q -448.000 826.498 -448.000 832.000 Q -448.000 841.564 -448.000 848.000 Q -448.000 856.965 -448.000 864.000 Q -448.000 875.010 -448.000 880.000 Q -448.000 888.872 -448.000 896.000 Q -448.000 904.863 -448.000 912.000 Q -448.000 920.542 -448.000 928.000 Q -448.000 938.859 -448.000 944.000 Q -448.000 952.836 -448.000 960.000 Q -448.000 970.117 -448.000 976.000 Q -448.000 984.392 -448.000 992.000 Q -448.000 1000.114 -448.000 1008.000 Q -448.000 1016.515 -448.000 1024.000 Q -448.000 1032.175 -448.000 1040.000 Q -448.000 1048.897 -448.000 1056.000 Q -448.000 1064.025 -448.000 1072.000 Q -436.970 1072.000 -432.000 1072.000 "></path>
    <path id="STROKE_e0d528c7-2911-4df3-a8f3-a958acabda4d" opacity="1.000" fill="none" stroke="#171612" stroke-width="2.432" stroke-opacity="1.000" stroke-linecap="round" stroke-linejoin="round" d="M -448.000 1072.000 Q -441.420 1072.000 -432.000 1072.000 Q -423.325 1072.000 -416.000 1072.000 Q -407.357 1072.000 -400.000 1072.000 Q -391.520 1072.000 -384.000 1072.000 Q -375.353 1072.000 -368.000 1072.000 Q -359.912 1072.000 -352.000 1072.000 Q -341.158 1072.000 -336.000 1072.000 Q -327.167 1072.000 -320.000 1072.000 Q -311.940 1072.000 -304.000 1072.000 Q -295.247 1072.000 -288.000 1072.000 Q -277.350 1072.000 -272.000 1072.000 Q -262.040 1072.000 -256.000 1072.000 Q -246.401 1072.000 -240.000 1072.000 Q -230.935 1072.000 -224.000 1072.000 Q -215.667 1072.000 -208.000 1072.000 Q -197.573 1072.000 -192.000 1072.000 Q -182.131 1072.000 -176.000 1072.000 Q -166.624 1072.000 -160.000 1072.000 Q -151.249 1072.000 -144.000 1072.000 Q -133.632 1072.000 -128.000 1072.000 Q -118.818 1072.000 -112.000 1072.000 Q -102.750 1072.000 -96.000 1072.000 Q -87.440 1072.000 -80.000 1072.000 Q -70.285 1072.000 -64.000 1072.000 Q -55.898 1072.000 -48.000 1072.000 Q -39.073 1072.000 -32.000 1072.000 Q -23.895 1072.000 -16.000 1072.000 Q -7.070 1072.000 0.000 1072.000 Q 8.240 1072.000 16.000 1072.000 Q 24.868 1072.000 32.000 1072.000 Q 41.298 1072.000 48.000 1072.000 Q 56.541 1072.000 64.000 1072.000 Q 72.746 1072.000 80.000 1072.000 Q 88.017 1072.000 96.000 1072.000 Q 104.183 1072.000 112.000 1072.000 Q 121.404 1072.000 128.000 1072.000 Q 136.252 1072.000 144.000 1072.000 Q 153.737 1072.000 160.000 1072.000 Q 168.783 1072.000 176.000 1072.000 Q 184.158 1072.000 192.000 1072.000 Q 201.248 1072.000 208.000 1072.000 Q 216.821 1072.000 224.000 1072.000 Q 232.592 1072.000 240.000 1072.000 Q 248.956 1072.000 256.000 1072.000 Q 264.727 1072.000 272.000 1072.000 Q 280.366 1072.000 288.000 1072.000 Q 296.202 1072.000 304.000 1072.000 Q 312.237 1072.000 320.000 1072.000 "></path>
    <path id="STROKE_90380582-e582-43d1-806d-b9ecc2cdff51" opacity="1.000" fill="none" stroke="#171612" stroke-width="2.362" stroke-opacity="1.000" stroke-linecap="round" stroke-linejoin="round" d="M -450.668 451.636 Q -449.294 451.738 -445.911 442.089 Q -446.216 441.506 -450.692 450.164 Q -455.169 458.822 -458.602 468.895 Q -457.284 468.788 -453.349 462.860 Q -449.414 456.931 -446.832 452.594 Q -444.249 448.257 -443.150 446.221 Q -442.050 444.185 -441.047 442.930 Q -440.043 441.674 -439.116 441.988 Q -438.188 442.301 -437.710 443.126 Q -437.232 443.950 -436.054 446.045 Q -434.875 448.139 -427.317 460.181 "></path>
    <path id="STROKE_607bbdb7-7838-4dc3-bfea-fe22fdbc1325" opacity="1.000" fill="none" stroke="#171612" stroke-width="2.365" stroke-opacity="1.000" stroke-linecap="round" stroke-linejoin="round" d="M 317.291 1074.320 Q 318.871 1074.409 318.767 1074.510 Q 319.257 1074.445 320.393 1075.342 Q 319.054 1076.357 304.375 1085.756 Q 304.925 1086.115 310.465 1082.002 Q 316.005 1077.889 319.147 1074.909 Q 322.290 1071.928 323.427 1070.417 Q 324.564 1068.904 324.782 1067.851 Q 325.001 1066.797 325.174 1065.124 Q 325.347 1063.451 320.355 1060.895 Q 315.363 1058.339 311.979 1056.741 Q 308.594 1055.144 304.149 1051.914 "></path>
    <path id="STROKE_6090fea9-1b48-40f1-b9f1-bf4ee31d0d83" opacity="1.000" fill="none" stroke="#f66640" stroke-width="2.713" stroke-opacity="1.000" stroke-linecap="round" stroke-linejoin="round" d="M -320.000 1072.000 Q -320.000 1071.073 -320.000 1056.000 Q -320.000 1047.933 -320.000 1040.000 Q -320.000 1031.491 -320.000 1024.000 Q -320.000 1015.219 -320.000 1008.000 Q -320.000 998.933 -320.000 992.000 Q -320.000 982.590 -320.000 976.000 Q -320.000 966.840 -320.000 960.000 Q -320.000 951.541 -320.000 944.000 Q -320.000 935.790 -320.000 928.000 Q -320.000 918.450 -320.000 912.000 Q -320.000 903.302 -320.000 896.000 Q -320.000 886.875 -320.000 880.000 Q -320.000 870.744 -320.000 864.000 Q -320.000 855.910 -320.000 848.000 Q -320.000 838.991 -320.000 832.000 Q -320.000 822.900 -320.000 816.000 Q -320.000 806.699 -320.000 800.000 Q -320.000 790.840 -320.000 784.000 Q -320.000 775.579 -320.000 768.000 Q -320.000 759.603 -320.000 752.000 Q -320.000 743.697 -320.000 736.000 Q -320.000 727.876 -320.000 720.000 Q -320.000 711.971 -320.000 704.000 "></path>
    <path id="STROKE_1687bacc-ad87-4dff-9db9-d42c6bc71f2e" opacity="1.000" fill="none" stroke="#6ac0c8" stroke-width="2.456" stroke-opacity="1.000" stroke-linecap="round" stroke-linejoin="round" d="M -192.000 733.784 Q -192.000 732.522 -192.000 732.952 Q -192.000 732.797 -192.000 732.346 L -192.000 736.000 Q -192.000 729.540 -192.000 729.385 L -192.000 736.000 Q -192.000 746.122 -192.000 752.000 Q -192.000 762.395 -192.000 768.000 Q -192.000 777.017 -192.000 784.000 Q -192.000 793.063 -192.000 800.000 Q -192.000 809.871 -192.000 816.000 Q -192.000 824.113 -192.000 832.000 Q -192.000 840.470 -192.000 848.000 Q -192.000 856.361 -192.000 864.000 Q -192.000 873.324 -192.000 880.000 Q -192.000 888.398 -192.000 896.000 Q -192.000 904.374 -192.000 912.000 Q -192.000 920.195 -192.000 928.000 Q -192.000 936.848 -192.000 944.000 Q -192.000 952.669 -192.000 960.000 Q -192.000 968.884 -192.000 976.000 Q -192.000 984.325 -192.000 992.000 Q -192.000 1000.230 -192.000 1008.000 Q -192.000 1016.657 -192.000 1024.000 Q -192.000 1032.563 -192.000 1040.000 Q -192.000 1048.454 -192.000 1056.000 Q -192.000 1064.050 -192.000 1072.000 L -192.000 1056.000 "></path>
    <path id="STROKE_8e3be3e4-eae4-4a5b-8156-2d0bad259ffa" opacity="1.000" fill="none" stroke="#6ac0c8" stroke-width="2.428" stroke-opacity="1.000" stroke-linecap="round" stroke-linejoin="round" d="M -64.000 752.000 L -62.451 752.000 L -64.000 752.000 Q -64.000 760.731 -64.000 768.000 Q -64.000 777.623 -64.000 784.000 Q -64.000 793.374 -64.000 800.000 Q -64.000 809.039 -64.000 816.000 Q -64.000 825.551 -64.000 832.000 Q -64.000 842.514 -64.000 848.000 Q -64.000 858.857 -64.000 864.000 Q -64.000 873.324 -64.000 880.000 Q -64.000 889.752 -64.000 896.000 Q -64.000 905.206 -64.000 912.000 Q -64.000 920.801 -64.000 928.000 Q -64.000 937.228 -64.000 944.000 Q -64.000 953.881 -64.000 960.000 Q -64.000 969.561 -64.000 976.000 Q -64.000 985.537 -64.000 992.000 Q -64.000 1000.301 -64.000 1008.000 Q -64.000 1016.587 -64.000 1024.000 Q -64.000 1032.704 -64.000 1040.000 Q -64.000 1048.454 -64.000 1056.000 Q -64.000 1064.205 -64.000 1072.000 "></path>
    <path id="STROKE_6bde20bd-8a8a-4593-8446-3a43a1bbfc5b" opacity="1.000" fill="none" stroke="#6ac0c8" stroke-width="2.625" stroke-opacity="1.000" stroke-linecap="round" stroke-linejoin="round" d="M 64.000 768.000 Q 64.000 774.281 64.000 784.000 Q 64.000 792.908 64.000 800.000 Q 64.000 810.097 64.000 816.000 Q 64.000 825.467 64.000 832.000 Q 64.000 840.695 64.000 848.000 Q 64.000 856.361 64.000 864.000 Q 64.000 872.492 64.000 880.000 Q 64.000 889.681 64.000 896.000 Q 64.000 904.219 64.000 912.000 Q 64.000 921.563 64.000 928.000 Q 64.000 936.848 64.000 944.000 Q 64.000 952.753 64.000 960.000 Q 64.000 969.181 64.000 976.000 Q 64.000 984.325 64.000 992.000 Q 64.000 1000.230 64.000 1008.000 Q 64.000 1017.179 64.000 1024.000 Q 64.000 1032.408 64.000 1040.000 Q 64.000 1048.609 64.000 1056.000 Q 64.000 1064.275 64.000 1072.000 "></path>
    <path id="STROKE_67e81d62-ebc9-411d-8e74-20c14c36dcee" opacity="1.000" fill="none" stroke="#6ac0c8" stroke-width="2.538" stroke-opacity="1.000" stroke-linecap="round" stroke-linejoin="round" d="M 192.000 796.166 Q 192.000 796.250 192.000 800.000 Q 192.000 809.265 192.000 816.000 Q 192.000 825.241 192.000 832.000 Q 192.000 841.908 192.000 848.000 Q 192.000 857.052 192.000 864.000 Q 192.000 873.099 192.000 880.000 Q 192.000 888.849 192.000 896.000 Q 192.000 905.347 192.000 912.000 Q 192.000 920.195 192.000 928.000 Q 192.000 937.990 192.000 944.000 Q 192.000 952.979 192.000 960.000 Q 192.000 968.884 192.000 976.000 Q 192.000 985.691 192.000 992.000 Q 192.000 1001.618 192.000 1008.000 Q 192.000 1016.051 192.000 1024.000 Q 192.000 1032.027 192.000 1040.000 Q 192.000 1048.074 192.000 1056.000 Q 192.000 1064.050 192.000 1072.000 Q 192.000 1068.391 192.000 1067.307 L 192.000 1072.000 "></path>
    <path id="STROKE_de3c2b34-f0cc-4287-9b4c-dd27eacd1bbc" opacity="1.000" fill="none" stroke="#6ac0c8" stroke-width="2.720" stroke-opacity="1.000" stroke-linecap="round" stroke-linejoin="round" d="M -190.898 728.624 Q -189.882 729.755 -190.202 729.427 Q -190.090 729.575 -189.638 729.766 Q -189.345 730.009 -190.081 728.186 Q -190.817 726.362 -191.652 726.402 Q -192.487 726.441 -193.480 726.647 Q -194.473 726.852 -194.683 727.612 Q -194.894 728.372 -194.966 728.645 Q -195.038 728.918 -194.925 729.704 Q -194.812 730.489 -194.574 730.887 Q -194.337 731.284 -193.899 731.328 Q -193.462 731.372 -193.719 731.378 Q -193.975 731.384 -192.182 731.717 Q -190.389 732.051 -189.513 731.224 Q -188.637 730.397 -188.534 729.814 Q -188.431 729.231 -188.213 728.117 Q -187.994 727.003 -190.255 726.375 Q -192.516 725.748 -194.373 726.103 Q -196.230 726.458 -197.032 727.769 Q -197.834 729.080 -197.506 730.865 Q -197.037 731.207 -194.117 731.283 Q -191.198 731.360 -187.645 726.022 Q -187.580 725.666 -190.353 726.212 "></path>
    <path id="STROKE_b52b6e49-db39-4b96-9081-04080e331bf2" opacity="1.000" fill="none" stroke="#6ac0c8" stroke-width="2.720" stroke-opacity="1.000" stroke-linecap="round" stroke-linejoin="round" d="M -65.026 751.805 Q -65.807 751.280 -60.458 752.898 Q -60.308 752.467 -60.355 752.709 Q -60.402 752.950 -60.126 752.139 Q -59.849 751.328 -60.046 750.645 Q -60.243 749.963 -60.216 750.070 Q -60.189 750.177 -60.649 749.565 Q -61.108 748.954 -62.241 748.942 Q -63.374 748.930 -64.169 749.081 Q -64.965 749.232 -65.617 749.846 Q -66.268 750.460 -66.648 751.001 Q -67.028 751.541 -66.681 753.539 Q -66.289 753.649 -64.576 753.840 Q -62.862 754.030 -62.187 750.896 Q -63.124 750.322 -64.876 750.751 Q -66.628 751.179 -66.568 752.707 Q -66.611 753.233 -64.532 752.101 Q -62.452 750.969 -61.172 747.857 Q -62.630 749.207 -62.150 748.844 Q -62.268 749.247 -63.372 750.127 "></path>
    <path id="STROKE_bcc74fd4-7700-4cdc-af98-281aaaee3c4f" opacity="1.000" fill="none" stroke="#6ac0c8" stroke-width="2.720" stroke-opacity="1.000" stroke-linecap="round" stroke-linejoin="round" d="M 67.407 765.271 Q 68.048 765.491 68.409 765.817 Q 68.770 766.142 68.647 766.021 Q 68.523 765.901 68.446 765.932 Q 68.369 765.964 69.080 766.033 Q 68.178 764.430 68.328 764.933 Q 67.934 764.617 65.710 764.412 Q 63.486 764.206 62.748 764.334 Q 62.009 764.461 61.359 765.368 Q 60.708 766.275 60.343 767.296 Q 59.977 768.317 60.051 769.064 Q 60.125 769.811 60.387 770.123 Q 60.650 770.434 60.823 770.593 Q 60.995 770.753 62.951 771.041 Q 64.907 771.329 66.357 770.242 Q 67.806 769.156 68.654 768.025 Q 69.503 766.893 69.871 765.790 Q 70.239 764.687 70.096 763.797 Q 69.954 762.907 68.983 762.855 Q 68.012 762.803 67.130 762.610 Q 66.248 762.417 64.572 762.966 Q 62.895 763.515 62.575 767.661 Q 62.051 767.434 63.552 768.029 Q 65.053 768.624 66.768 764.594 Q 66.749 764.612 65.612 764.207 Q 64.474 763.801 62.500 766.188 Q 62.538 766.188 63.252 766.188 "></path>
    <path id="STROKE_57198387-dc2c-436a-bedb-19f34b3c514d" opacity="1.000" fill="none" stroke="#6ac0c8" stroke-width="2.720" stroke-opacity="1.000" stroke-linecap="round" stroke-linejoin="round" d="M 189.951 792.767 Q 190.731 791.797 190.515 792.119 Q 192.364 791.819 191.888 791.893 Q 193.009 791.615 192.828 791.696 Q 192.940 791.660 192.978 791.625 Q 192.970 791.388 191.985 791.837 Q 190.999 792.286 190.563 792.741 Q 190.127 793.195 190.109 793.136 Q 190.091 793.077 190.026 794.389 Q 190.452 794.719 191.971 794.397 Q 193.490 794.075 193.857 793.336 Q 194.224 792.597 194.295 792.661 Q 194.365 792.726 194.332 791.590 Q 192.766 791.088 190.815 791.773 Q 188.863 792.458 189.462 796.398 Q 190.018 796.515 192.413 796.937 Q 194.808 797.359 196.419 792.690 Q 196.373 792.551 195.780 792.369 Q 195.186 792.186 194.179 792.013 Q 193.172 791.840 191.999 792.071 Q 190.826 792.303 190.040 792.933 Q 189.253 793.564 189.229 794.712 Q 189.205 795.860 189.321 796.062 Q 189.438 796.263 189.817 796.630 Q 190.196 796.996 190.675 797.198 Q 191.154 797.400 191.581 797.447 Q 192.009 797.495 192.301 796.927 "></path>
    <path id="STROKE_6f6943d2-aae2-41a5-b2ec-39243e985937" opacity="1.000" fill="none" stroke="#f66640" stroke-width="2.720" stroke-opacity="1.000" stroke-linecap="round" stroke-linejoin="round" d="M -316.525 705.160 Q -316.924 705.353 -314.044 707.360 Q -313.385 705.610 -313.815 704.140 Q -314.246 702.671 -315.136 701.776 Q -316.026 700.882 -317.540 700.741 Q -319.055 700.600 -320.194 701.566 Q -321.333 702.532 -321.849 703.509 Q -322.365 704.486 -322.556 704.954 Q -322.746 705.421 -323.020 706.843 Q -323.294 708.265 -323.167 709.425 Q -323.041 710.586 -321.954 710.903 Q -320.868 711.221 -319.352 711.042 Q -317.837 710.863 -316.787 709.222 Q -315.737 707.582 -315.520 706.003 Q -315.304 704.424 -315.219 703.145 Q -315.135 701.866 -316.131 701.662 Q -317.126 701.458 -317.625 701.408 Q -318.124 701.357 -319.362 701.668 Q -320.600 701.979 -321.301 706.175 Q -319.921 706.796 -320.154 706.598 Q -319.540 706.708 -317.588 706.556 Q -317.465 706.295 -317.503 705.231 "></path>
    <path id="STROKE_e0edbc73-58fc-454e-bc3e-02c704fcc6c7" opacity="1.000" fill="none" stroke="#171612" stroke-width="2.236" stroke-opacity="1.000" stroke-linecap="round" stroke-linejoin="round" d="M -504.835 423.951 Q -504.835 423.807 -504.835 422.583 Q -504.808 421.959 -504.853 434.494 Q -504.899 447.029 -504.684 461.346 Q -505.457 461.154 -505.139 450.910 Q -504.822 440.665 -503.871 435.099 Q -502.921 429.533 -502.638 426.968 Q -502.354 424.404 -501.589 422.859 Q -500.824 421.314 -498.442 421.300 Q -497.069 421.773 -496.119 435.364 Q -495.169 448.956 -493.686 463.616 Q -493.611 463.616 -493.573 463.616 Q -493.610 462.166 -493.498 459.682 "></path>
    <path id="STROKE_e5b73fba-93cf-4727-accc-b29794754df6" opacity="1.000" fill="none" stroke="#171612" stroke-width="2.720" stroke-opacity="1.000" stroke-linecap="round" stroke-linejoin="round" d="M -490.697 444.763 Q -490.457 445.131 -493.662 446.265 Q -496.867 447.398 -503.255 453.633 "></path>
    <path id="STROKE_3e6b8f58-917c-4f94-964f-28bd50172ebe" opacity="1.000" fill="none" stroke="#171612" stroke-width="1.982" stroke-opacity="1.000" stroke-linecap="round" stroke-linejoin="round" d="M 313.698 1105.844 Q 312.808 1107.774 313.398 1115.165 Q 316.071 1116.486 322.350 1109.135 Q 328.630 1101.785 332.552 1095.731 Q 336.473 1089.678 338.750 1084.330 Q 341.026 1078.982 342.277 1075.561 Q 343.529 1072.140 344.451 1068.051 Q 345.374 1063.961 345.307 1060.671 Q 345.240 1057.381 344.650 1055.068 Q 344.060 1052.755 343.274 1053.053 Q 342.488 1053.351 341.834 1054.921 Q 341.180 1056.492 340.106 1060.755 Q 339.032 1065.018 338.345 1076.311 Q 337.658 1087.604 338.459 1137.190 Q 338.774 1137.632 339.168 1135.306 Q 339.563 1132.980 336.391 1127.658 "></path>
    <path id="STROKE_4ae694d2-74e4-4863-83ee-5293e20ea627" opacity="1.000" fill="none" stroke="#171612" stroke-width="2.495" stroke-opacity="1.000" stroke-linecap="round" stroke-linejoin="round" d="M 328.965 1118.492 Q 329.040 1118.698 329.017 1120.253 Q 328.994 1121.808 332.322 1122.794 Q 335.650 1123.780 351.206 1116.793 Q 351.168 1116.906 351.131 1117.054 "></path>
    <path id="STROKE_ab49b454-8241-4112-a92d-c4f05e905164" opacity="1.000" fill="none" stroke="#f66640" stroke-width="2.372" stroke-opacity="1.000" stroke-linecap="round" stroke-linejoin="round" d="M -373.229 648.222 Q -373.525 647.779 -371.626 652.411 Q -369.726 657.043 -353.112 676.465 Q -353.705 676.401 -356.139 674.421 "></path>
    <path id="STROKE_dde3699b-6db0-4278-ab04-c89cf4171db2" opacity="1.000" fill="none" stroke="#f66640" stroke-width="1.944" stroke-opacity="1.000" stroke-linecap="round" stroke-linejoin="round" d="M -380.937 666.538 Q -380.937 664.875 -380.937 665.368 Q -380.996 665.041 -378.359 657.737 Q -375.721 650.433 -372.543 644.977 Q -369.365 639.520 -366.921 636.450 Q -364.476 633.379 -361.666 631.935 Q -361.503 632.172 -362.268 634.812 "></path>
    <path id="STROKE_083d61f3-c782-4baf-bcb6-209263f51b90" opacity="1.000" fill="none" stroke="#f66640" stroke-width="2.720" stroke-opacity="1.000" stroke-linecap="round" stroke-linejoin="round" d="M -366.122 664.198 Q -364.942 664.343 -364.947 664.466 Q -363.855 665.656 -362.239 664.665 Q -360.623 663.673 -359.877 662.690 Q -359.131 661.706 -355.838 654.581 "></path>
    <path id="STROKE_9a34ea6b-831b-44ad-bb85-7749c0b5e820" opacity="1.000" fill="none" stroke="#f66640" stroke-width="2.720" stroke-opacity="1.000" stroke-linecap="round" stroke-linejoin="round" d="M -350.555 658.219 Q -350.045 658.312 -347.754 657.873 Q -348.015 658.463 -347.632 657.036 Q -347.249 655.609 -347.737 653.906 Q -348.225 652.204 -349.857 651.561 Q -351.490 650.919 -352.652 652.095 Q -353.813 653.271 -354.217 655.931 Q -354.621 658.591 -354.457 660.807 Q -354.292 663.022 -353.281 664.720 Q -352.270 666.419 -350.720 667.176 Q -349.170 667.934 -347.459 667.506 Q -345.748 667.078 -344.804 665.056 Q -343.860 663.035 -344.158 660.071 Q -344.455 657.108 -352.435 650.421 "></path>
    <path id="STROKE_9b34e95a-afa1-4dea-b85f-6e0f164207e9" opacity="1.000" fill="none" stroke="#f66640" stroke-width="2.720" stroke-opacity="1.000" stroke-linecap="round" stroke-linejoin="round" d="M -340.572 655.794 Q -340.382 656.851 -339.895 657.993 Q -340.005 657.867 -339.950 657.875 Q -339.895 657.883 -339.824 658.118 Q -339.752 658.352 -341.483 656.619 Q -343.214 654.885 -344.354 652.761 Q -345.495 650.637 -345.730 649.372 Q -345.965 648.106 -345.697 646.785 Q -345.429 645.464 -344.293 645.005 Q -343.157 644.546 -342.082 644.845 Q -341.007 645.143 -340.372 645.918 Q -339.736 646.692 -339.735 646.650 Q -339.734 646.608 -339.423 647.004 Q -339.111 647.400 -337.264 650.007 Q -335.416 652.613 -331.641 651.775 "></path>
    <path id="STROKE_67bf718d-7eec-4fd0-a3e0-d45cfe674fce" opacity="1.000" fill="none" stroke="#f66640" stroke-width="2.562" stroke-opacity="1.000" stroke-linecap="round" stroke-linejoin="round" d="M -330.288 641.552 Q -329.383 641.437 -329.573 641.482 Q -329.672 640.232 -330.548 640.402 Q -331.423 640.573 -332.150 641.103 Q -332.876 641.634 -332.907 642.677 Q -332.938 643.720 -333.095 644.911 Q -333.253 646.101 -332.610 647.533 Q -331.967 648.966 -329.870 649.533 Q -327.773 650.100 -327.398 646.407 Q -327.023 642.714 -327.757 638.657 Q -328.490 634.601 -331.294 630.173 Q -334.098 625.745 -336.388 622.992 Q -338.678 620.239 -343.147 618.004 Q -343.371 618.572 -342.814 619.132 Q -342.258 619.691 -341.522 620.496 Q -340.786 621.301 -340.904 621.228 Q -341.022 621.155 -337.934 625.010 Q -334.846 628.864 -331.979 632.128 Q -329.111 635.391 -326.951 637.941 Q -324.791 640.490 -323.378 641.422 Q -321.965 642.354 -320.895 642.667 Q -319.824 642.979 -318.725 638.675 "></path>
    <path id="STROKE_0630650f-9970-4326-bb65-812d69517a26" opacity="1.000" fill="none" stroke="#f66640" stroke-width="2.720" stroke-opacity="1.000" stroke-linecap="round" stroke-linejoin="round" d="M -317.597 634.586 L -317.597 634.551 Q -317.107 634.343 -317.235 634.610 Q -317.364 634.878 -317.010 634.593 Q -316.657 634.307 -316.225 633.765 Q -315.792 633.223 -315.883 632.671 Q -315.973 632.119 -315.935 631.698 Q -315.897 631.276 -315.957 630.642 Q -316.016 630.009 -315.987 629.937 Q -315.958 629.866 -316.258 629.148 Q -316.557 628.430 -317.082 627.403 Q -317.606 626.376 -320.568 626.570 Q -320.765 626.564 -321.274 630.011 Q -321.783 633.458 -321.181 635.994 Q -320.579 638.530 -319.849 639.745 Q -319.119 640.960 -317.193 641.757 Q -315.267 642.554 -314.760 638.365 Q -314.252 634.176 -314.265 631.774 Q -314.278 629.371 -314.915 627.574 Q -315.552 625.776 -317.625 625.766 Q -317.744 626.606 -317.965 628.614 Q -318.186 630.621 -316.524 633.762 Q -314.861 636.903 -310.641 637.428 Q -310.180 636.744 -309.118 631.414 "></path>
    <path id="STROKE_6bd5186a-eea6-4c64-92db-f677ffe55e21" opacity="1.000" fill="none" stroke="#f66640" stroke-width="2.716" stroke-opacity="1.000" stroke-linecap="round" stroke-linejoin="round" d="M -307.839 626.718 Q -308.023 625.806 -306.937 630.356 Q -307.733 630.864 -309.461 625.965 Q -311.189 621.067 -309.682 615.579 Q -307.904 614.374 -305.677 618.231 Q -303.450 622.088 -302.763 627.395 Q -304.533 625.901 -305.176 621.971 Q -305.818 618.041 -305.766 616.282 Q -305.713 614.524 -305.560 613.730 Q -305.406 612.937 -305.080 612.790 Q -304.754 612.642 -304.389 612.459 Q -304.024 612.276 -302.924 612.725 Q -301.823 613.174 -301.073 613.935 Q -300.322 614.696 -297.781 622.699 Q -298.950 622.168 -299.830 608.923 Q -299.292 608.808 -298.031 611.338 Q -296.769 613.868 -294.523 616.112 Q -292.276 618.356 -291.140 617.764 Q -290.004 617.173 -289.815 616.604 Q -289.626 616.035 -289.312 615.238 Q -288.998 614.441 -288.748 612.089 Q -288.498 609.738 -288.789 606.197 Q -289.079 602.657 -293.663 599.800 Q -294.340 599.695 -294.072 603.849 Q -293.805 608.003 -292.386 611.057 Q -290.968 614.112 -289.866 615.754 Q -288.764 617.395 -287.836 616.832 Q -286.908 616.269 -285.767 611.038 "></path>
    <path id="STROKE_b1f89984-ac79-429a-bf71-bcc9dd1dbbf2" opacity="1.000" fill="none" stroke="#f66640" stroke-width="2.710" stroke-opacity="1.000" stroke-linecap="round" stroke-linejoin="round" d="M -281.988 606.723 Q -281.911 607.459 -280.465 612.406 Q -280.978 612.032 -282.570 607.070 Q -284.162 602.107 -284.658 596.726 Q -283.828 596.917 -282.617 599.872 Q -281.406 602.828 -280.021 605.150 Q -278.636 607.473 -276.833 608.607 Q -275.030 609.742 -274.144 607.515 Q -273.257 605.287 -272.607 599.307 "></path>
    <path id="STROKE_17c44d24-a563-48ad-9884-25fb62581f0e" opacity="1.000" fill="none" stroke="#f66640" stroke-width="2.536" stroke-opacity="1.000" stroke-linecap="round" stroke-linejoin="round" d="M -284.695 578.945 Q -285.187 578.945 -285.542 578.980 Q -286.920 579.077 -283.060 583.833 Q -279.200 588.589 -276.273 591.589 Q -273.345 594.589 -271.612 596.156 Q -269.880 597.724 -268.892 598.511 Q -267.904 599.298 -267.174 599.606 Q -266.444 599.914 -265.575 599.983 Q -265.500 599.722 -265.425 599.462 "></path>
    <path id="STROKE_e7878e4f-a0de-4090-9980-73e3eb1d5e3b" opacity="1.000" fill="none" stroke="#f66640" stroke-width="2.720" stroke-opacity="1.000" stroke-linecap="round" stroke-linejoin="round" d="M -277.984 592.496 Q -278.058 592.030 -277.936 593.227 Q -277.814 594.423 -277.156 594.823 Q -276.499 595.222 -276.372 595.139 Q -276.246 595.056 -275.492 595.233 Q -274.738 595.410 -271.253 583.627 "></path>
    <path id="STROKE_4b34ea3b-d05c-4122-8c38-78a0681f7e60" opacity="1.000" fill="none" stroke="#f66640" stroke-width="2.565" stroke-opacity="1.000" stroke-linecap="round" stroke-linejoin="round" d="M -262.398 587.109 Q -262.014 587.483 -259.728 587.793 Q -259.403 587.430 -259.554 586.679 Q -259.704 585.927 -260.627 585.304 Q -261.549 584.681 -262.535 584.296 Q -263.522 583.911 -265.025 584.049 Q -266.528 584.188 -266.993 587.024 Q -267.458 589.860 -267.341 592.229 Q -267.224 594.598 -266.571 596.755 Q -265.919 598.913 -263.544 600.597 Q -262.643 600.054 -263.544 583.782 Q -263.681 583.096 -261.848 585.905 Q -260.016 588.715 -256.137 590.028 Q -255.858 590.454 -255.345 587.258 Q -254.831 584.062 -258.942 575.162 Q -263.052 566.263 -271.967 554.255 Q -273.038 554.505 -270.406 562.005 Q -267.775 569.504 -265.460 574.067 Q -263.146 578.629 -261.573 581.146 Q -260.001 583.662 -258.775 584.990 Q -257.549 586.317 -256.619 587.065 Q -255.688 587.813 -255.633 587.842 Q -255.578 587.871 -254.372 588.573 Q -253.166 589.275 -251.155 588.910 Q -249.145 588.544 -247.879 586.420 Q -246.612 584.295 -245.915 582.014 Q -245.217 579.733 -245.108 577.183 Q -244.998 574.632 -245.645 572.255 Q -246.292 569.878 -250.121 569.886 Q -250.995 572.221 -250.713 575.690 Q -250.432 579.159 -249.233 581.069 Q -248.034 582.979 -246.940 583.928 Q -245.845 584.876 -244.542 585.256 Q -243.239 585.635 -239.498 578.945 "></path>
    <path id="STROKE_7c532581-833f-424d-9526-68749764fbc5" opacity="1.000" fill="none" stroke="#6ac0c8" stroke-width="1.875" stroke-opacity="1.000" stroke-linecap="round" stroke-linejoin="round" d="M -53.388 660.024 Q -53.388 659.989 -53.351 659.883 Q -53.313 659.883 -52.862 659.798 Q -52.950 659.465 -51.181 665.396 Q -49.412 671.327 -45.951 679.028 Q -42.491 686.728 -40.109 691.418 Q -37.727 696.108 -34.334 698.956 Q -34.190 699.168 -34.024 696.911 "></path>
    <path id="STROKE_817e783b-b7dd-46fd-bab8-151af0a6a8ca" opacity="1.000" fill="none" stroke="#6ac0c8" stroke-width="2.258" stroke-opacity="1.000" stroke-linecap="round" stroke-linejoin="round" d="M -44.759 661.617 Q -44.585 661.753 -44.746 661.685 Q -44.907 661.617 -44.202 661.473 Q -43.496 661.328 -42.538 663.140 Q -41.579 664.951 -40.976 666.560 Q -40.372 668.170 -39.907 669.132 Q -39.442 670.094 -37.914 674.123 Q -36.387 678.152 -27.537 692.441 "></path>
    <path id="STROKE_973ada41-f6a1-4219-a528-fb13f0ce8a2e" opacity="1.000" fill="none" stroke="#6ac0c8" stroke-width="2.720" stroke-opacity="1.000" stroke-linecap="round" stroke-linejoin="round" d="M -41.356 687.055 Q -41.516 687.113 -41.455 687.293 Q -41.393 687.472 -41.378 687.492 Q -41.362 687.513 -40.960 687.805 Q -40.558 688.096 -39.908 688.219 Q -39.257 688.341 -38.889 688.124 Q -38.521 687.906 -38.131 687.446 Q -37.741 686.986 -37.032 685.860 Q -36.323 684.734 -31.391 677.974 "></path>
    <path id="STROKE_a8495a4b-c0ef-4e58-9dce-90ed60a4632a" opacity="1.000" fill="none" stroke="#6ac0c8" stroke-width="2.672" stroke-opacity="1.000" stroke-linecap="round" stroke-linejoin="round" d="M -21.032 675.704 Q -20.351 675.704 -20.355 675.704 Q -19.588 674.056 -19.904 674.526 Q -20.698 673.080 -20.619 673.476 Q -21.263 673.239 -21.502 673.179 Q -21.740 673.120 -21.758 673.128 Q -21.775 673.135 -22.442 673.207 Q -23.110 673.278 -22.907 673.165 Q -22.705 673.052 -23.440 674.114 Q -24.174 675.177 -24.347 678.102 Q -24.521 681.027 -23.130 683.881 Q -21.740 686.734 -18.541 687.747 Q -15.343 688.759 -14.956 685.398 Q -14.568 682.036 -14.673 678.765 Q -14.778 675.493 -18.757 671.389 Q -18.591 672.597 -18.863 672.941 Q -19.135 673.285 -17.835 676.599 Q -16.535 679.914 -14.671 681.969 Q -12.807 684.025 -11.878 684.912 Q -10.950 685.799 -9.770 685.779 Q -9.140 684.382 -12.609 667.413 Q -10.832 667.470 -11.124 667.716 Q -8.844 669.630 -7.340 671.341 Q -5.835 673.052 -5.645 674.960 Q -5.454 676.868 -5.594 677.493 Q -5.735 678.118 -6.200 679.024 Q -6.666 679.931 -7.766 680.417 Q -8.866 680.902 -9.623 680.957 Q -10.379 681.012 -10.176 681.009 Q -9.972 681.005 -10.394 681.005 Q -10.816 681.005 -11.425 681.006 Q -11.769 680.670 -8.808 680.824 Q -5.847 680.978 -3.764 680.891 Q -1.681 680.804 0.288 678.355 "></path>
    <path id="STROKE_143324d3-104b-4abf-8c79-8c7b205cb89b" opacity="1.000" fill="none" stroke="#6ac0c8" stroke-width="2.705" stroke-opacity="1.000" stroke-linecap="round" stroke-linejoin="round" d="M -2.438 663.887 Q -1.915 664.957 2.789 676.916 Q 2.980 676.666 1.146 671.153 Q -0.689 665.639 -0.464 659.051 Q 2.999 657.409 7.921 674.195 Q 6.156 674.400 5.045 655.378 Q 8.119 652.414 11.700 670.106 Q 11.364 668.010 11.103 668.492 Q 10.841 668.973 9.933 652.268 Q 10.884 652.313 11.792 654.831 Q 12.701 657.349 13.960 658.635 Q 15.219 659.922 16.309 660.612 Q 17.398 661.303 18.407 661.315 Q 19.416 661.327 20.369 660.869 Q 21.322 660.410 22.188 658.260 Q 23.054 656.109 23.017 654.036 Q 22.980 651.963 23.121 650.927 Q 23.262 649.892 22.681 649.126 Q 22.100 648.361 21.107 647.808 Q 20.113 647.255 18.880 647.696 Q 17.648 648.137 16.958 650.200 Q 16.269 652.263 15.951 655.408 Q 15.632 658.553 16.126 661.092 Q 16.619 663.632 17.554 664.783 Q 18.489 665.934 19.206 666.177 Q 19.923 666.420 21.046 666.569 Q 22.170 666.718 23.037 663.654 Q 23.904 660.589 24.060 657.199 Q 24.215 653.809 17.754 649.885 "></path>
    <path id="STROKE_48855f9f-42a3-4990-86c8-1d38dc93693b" opacity="1.000" fill="none" stroke="#6ac0c8" stroke-width="2.579" stroke-opacity="1.000" stroke-linecap="round" stroke-linejoin="round" d="M 22.736 644.288 Q 24.681 643.083 30.144 659.573 Q 29.825 659.098 27.806 652.869 Q 25.786 646.639 26.327 639.705 Q 27.860 639.685 27.674 639.640 Q 27.489 639.596 28.093 640.207 Q 28.697 640.819 29.453 641.846 Q 30.209 642.873 30.804 643.892 Q 31.399 644.911 31.707 645.332 Q 32.016 645.754 32.644 647.557 Q 33.272 649.360 38.999 655.068 Q 39.439 655.771 39.818 650.663 Q 40.198 645.556 38.585 639.888 L 38.548 639.888 Q 38.505 642.056 40.115 644.933 Q 41.725 647.810 42.798 648.901 Q 43.871 649.992 44.995 650.503 Q 46.119 651.015 47.148 650.669 Q 48.177 650.323 49.891 648.133 Q 51.605 645.944 52.297 641.952 Q 52.989 637.961 53.049 635.236 Q 53.108 632.511 51.932 631.096 Q 50.756 629.682 49.879 629.863 Q 49.002 630.045 48.509 630.901 Q 48.016 631.757 47.359 632.948 Q 46.703 634.140 46.134 637.485 Q 45.566 640.830 45.709 642.980 Q 45.853 645.131 46.083 646.156 Q 46.314 647.182 46.949 647.325 Q 47.584 647.468 47.952 647.527 Q 48.320 647.586 49.473 645.711 Q 50.625 643.836 50.998 643.030 Q 51.371 642.223 51.870 641.920 Q 52.368 641.618 53.229 641.359 Q 54.090 641.101 55.191 641.663 Q 56.292 642.226 57.318 643.240 Q 58.345 644.255 60.791 649.290 Q 63.238 654.325 64.724 659.574 Q 66.209 664.823 67.393 668.221 Q 68.577 671.619 69.983 674.040 L 70.096 674.005 Q 70.154 673.771 70.284 672.602 "></path>
    <path id="STROKE_27315bbd-87ba-4fbf-9f3a-08962e3bc698" opacity="1.000" fill="none" stroke="#6ac0c8" stroke-width="2.676" stroke-opacity="1.000" stroke-linecap="round" stroke-linejoin="round" d="M 57.518 627.705 Q 58.666 627.632 59.378 632.156 Q 60.090 636.679 65.301 642.313 Q 67.138 641.209 63.402 625.280 Q 62.952 626.031 64.601 629.592 Q 66.249 633.153 67.453 635.269 Q 68.658 637.386 69.530 637.981 Q 70.403 638.576 71.421 639.086 Q 72.439 639.596 73.382 637.772 Q 74.325 635.947 74.706 631.758 Q 75.087 627.568 75.134 624.087 Q 75.181 620.607 73.461 617.398 Q 73.398 617.073 73.174 617.187 Q 72.949 617.301 72.505 617.652 Q 72.060 618.003 71.287 619.289 Q 70.514 620.574 69.426 622.862 Q 68.339 625.150 67.892 628.635 Q 67.445 632.120 67.728 634.176 Q 68.011 636.231 68.909 637.687 Q 69.807 639.143 71.174 639.464 Q 72.541 639.785 74.113 639.653 Q 75.685 639.521 77.396 637.672 Q 79.107 635.823 79.694 632.916 Q 80.281 630.008 80.666 626.040 Q 81.050 622.072 75.134 615.508 Q 75.271 617.366 75.185 617.024 Q 75.099 616.683 75.838 618.221 Q 76.576 619.758 79.101 622.083 Q 81.625 624.407 84.845 625.953 Q 88.065 627.499 89.799 629.440 Q 89.654 630.150 84.957 630.416 Q 80.260 630.682 69.231 628.918 "></path>
    <path id="STROKE_5b12ddcb-d1fc-40e6-bf79-59813f4b09f6" opacity="1.000" fill="none" stroke="#6ac0c8" stroke-width="2.720" stroke-opacity="1.000" stroke-linecap="round" stroke-linejoin="round" d="M 42.327 616.425 Q 42.147 616.133 41.807 616.948 Q 41.467 617.762 41.566 618.243 Q 41.665 618.725 41.595 618.779 Q 41.526 618.833 41.986 619.334 Q 42.447 619.835 43.267 619.978 Q 43.380 619.710 43.455 619.442 "></path>
    <path id="STROKE_b568876d-6b3c-4300-8dc2-9a9c1702318e" opacity="1.000" fill="none" stroke="#f66640" stroke-width="2.269" stroke-opacity="1.000" stroke-linecap="round" stroke-linejoin="round" d="M -344.552 1122.828 Q -344.415 1123.331 -343.832 1123.731 Q -343.248 1124.131 -342.671 1124.015 Q -342.094 1123.900 -340.270 1121.476 Q -338.447 1119.052 -337.646 1117.580 Q -336.846 1116.107 -335.908 1114.504 Q -334.970 1112.900 -333.362 1109.447 Q -331.755 1105.993 -330.927 1103.227 Q -330.100 1100.461 -329.973 1098.807 Q -329.846 1097.152 -330.345 1096.179 Q -330.845 1095.207 -331.319 1095.105 Q -331.793 1095.002 -332.201 1095.069 Q -332.609 1095.136 -333.072 1095.584 Q -333.535 1096.031 -335.067 1099.384 Q -336.599 1102.736 -337.746 1112.021 Q -338.894 1121.305 -338.540 1140.021 Q -337.895 1139.726 -339.448 1135.544 "></path>
    <path id="STROKE_122b59a8-1118-460c-91e5-52a07ffe8605" opacity="1.000" fill="none" stroke="#f66640" stroke-width="2.720" stroke-opacity="1.000" stroke-linecap="round" stroke-linejoin="round" d="M -349.584 1131.716 Q -349.105 1131.541 -346.669 1131.677 Q -344.233 1131.814 -341.755 1131.678 Q -339.276 1131.543 -336.896 1130.652 Q -334.515 1129.762 -331.792 1126.548 "></path>
    <path id="STROKE_1328264c-5b10-4221-a485-cc105476aadd" opacity="1.000" fill="none" stroke="#f66640" stroke-width="2.720" stroke-opacity="1.000" stroke-linecap="round" stroke-linejoin="round" d="M -322.810 1126.548 Q -322.823 1127.483 -322.839 1127.186 Q -322.693 1127.610 -324.308 1127.783 Q -325.924 1127.956 -326.673 1128.675 Q -327.422 1129.395 -327.847 1129.959 Q -328.272 1130.524 -328.419 1131.671 Q -328.567 1132.818 -328.244 1134.088 Q -327.920 1135.358 -326.503 1135.835 Q -325.086 1136.312 -323.678 1135.999 Q -322.270 1135.686 -321.265 1134.706 Q -320.260 1133.726 -320.112 1132.604 Q -319.964 1131.482 -320.014 1130.549 Q -320.065 1129.615 -324.079 1127.824 "></path>
    <path id="STROKE_d52ab534-7272-4aa7-9c42-b471755125a6" opacity="1.000" fill="none" stroke="#6ac0c8" stroke-width="2.720" stroke-opacity="1.000" stroke-linecap="round" stroke-linejoin="round" d="M -207.972 1104.542 Q -208.981 1104.542 -208.664 1104.542 Q -209.614 1104.252 -209.327 1104.310 Q -209.036 1104.404 -209.688 1104.138 Q -210.340 1103.872 -210.893 1103.389 Q -211.447 1102.907 -211.671 1102.366 Q -211.896 1101.826 -211.868 1101.911 Q -211.840 1101.996 -211.881 1102.033 Q -211.921 1102.071 -211.695 1101.372 Q -211.469 1100.673 -211.320 1100.660 Q -211.170 1100.648 -211.079 1100.601 Q -210.989 1100.554 -210.061 1100.291 Q -209.134 1100.028 -206.951 1099.947 Q -204.767 1099.866 -202.840 1101.752 Q -200.913 1103.638 -203.226 1106.740 Q -205.539 1109.841 -211.389 1112.436 Q -212.007 1112.593 -210.780 1112.454 Q -209.553 1112.314 -207.529 1112.587 Q -205.505 1112.860 -203.726 1113.726 Q -201.947 1114.592 -201.364 1115.992 Q -200.781 1117.392 -201.058 1118.815 Q -201.336 1120.238 -203.160 1121.795 Q -204.985 1123.353 -207.180 1124.165 Q -209.375 1124.977 -210.884 1125.174 Q -212.394 1125.371 -213.677 1125.193 Q -214.961 1125.016 -215.004 1123.910 Q -215.048 1122.804 -214.464 1121.414 Q -213.881 1120.023 -211.101 1117.659 "></path>
    <path id="STROKE_e97edfc1-0d22-41b3-83ff-ce096f5e5118" opacity="1.000" fill="none" stroke="#6ac0c8" stroke-width="2.397" stroke-opacity="1.000" stroke-linecap="round" stroke-linejoin="round" d="M -194.924 1113.950 Q -194.924 1113.950 -194.938 1113.950 Q -194.953 1113.950 -195.212 1113.950 Q -194.946 1113.736 -192.451 1110.214 Q -189.956 1106.692 -188.886 1103.864 Q -187.816 1101.036 -187.462 1099.035 Q -187.109 1097.033 -187.422 1095.424 Q -187.735 1093.815 -188.506 1093.910 Q -189.278 1094.004 -189.689 1094.503 Q -190.100 1095.001 -189.980 1094.946 Q -189.861 1094.890 -190.303 1095.283 Q -190.745 1095.677 -191.658 1099.693 Q -192.571 1103.710 -192.642 1109.695 Q -192.713 1115.680 -192.440 1124.067 Q -192.167 1132.455 -192.948 1140.421 Q -193.064 1140.421 -193.150 1140.421 Q -193.527 1139.153 -193.468 1139.145 Q -193.477 1138.390 -194.116 1133.339 "></path>
    <path id="STROKE_89749905-66f2-41ad-9633-97210e3ed91f" opacity="1.000" fill="none" stroke="#6ac0c8" stroke-width="2.720" stroke-opacity="1.000" stroke-linecap="round" stroke-linejoin="round" d="M -199.855 1128.527 Q -199.997 1129.304 -199.941 1130.841 Q -199.731 1131.015 -195.919 1128.661 Q -192.106 1126.306 -187.210 1123.931 "></path>
    <path id="STROKE_2fa8a6f1-a2f8-4fab-b420-e1ddaa521053" opacity="1.000" fill="none" stroke="#6ac0c8" stroke-width="2.720" stroke-opacity="1.000" stroke-linecap="round" stroke-linejoin="round" d="M -182.625 1124.569 Q -182.520 1124.799 -181.097 1125.239 Q -181.033 1124.401 -180.970 1124.640 Q -180.908 1124.880 -181.235 1124.202 Q -181.562 1123.524 -182.187 1123.539 Q -182.812 1123.555 -183.349 1123.826 Q -183.886 1124.098 -184.147 1124.458 Q -184.409 1124.819 -184.458 1125.039 Q -184.506 1125.259 -184.680 1125.307 Q -184.855 1125.355 -185.082 1126.790 Q -185.309 1128.225 -185.073 1129.594 Q -184.836 1130.964 -184.333 1131.585 Q -183.830 1132.207 -183.400 1132.629 Q -182.969 1133.050 -182.107 1133.297 Q -181.245 1133.543 -179.906 1133.435 Q -178.567 1133.326 -178.072 1131.448 Q -177.577 1129.569 -178.542 1127.128 Q -179.508 1124.687 -181.011 1121.844 "></path>
    <path id="STROKE_a9b5d590-96a9-4f2a-9723-b6ff6a456b9a" opacity="1.000" fill="none" stroke="#6ac0c8" stroke-width="2.720" stroke-opacity="1.000" stroke-linecap="round" stroke-linejoin="round" d="M -78.975 1105.526 Q -77.702 1105.526 -77.793 1105.526 Q -78.129 1105.803 -75.818 1105.034 Q -75.255 1104.346 -77.970 1104.075 Q -80.685 1103.804 -82.051 1103.708 Q -83.416 1103.613 -84.285 1103.810 Q -85.154 1104.006 -85.498 1104.406 Q -85.842 1104.806 -86.035 1105.182 Q -86.228 1105.557 -86.137 1105.556 Q -86.046 1105.556 -86.134 1105.577 Q -86.223 1105.599 -85.608 1106.432 Q -84.994 1107.265 -84.831 1108.540 Q -84.669 1109.815 -84.639 1110.563 Q -84.609 1111.311 -84.529 1112.482 Q -84.449 1113.654 -85.593 1115.453 Q -85.023 1115.338 -84.023 1115.408 Q -83.022 1115.479 -81.086 1116.989 Q -79.151 1118.499 -77.793 1119.575 Q -76.435 1120.651 -75.883 1122.295 Q -75.330 1123.939 -75.279 1124.810 Q -75.228 1125.681 -76.731 1126.875 Q -78.234 1128.068 -81.062 1128.925 Q -83.890 1129.782 -85.397 1129.872 Q -86.904 1129.963 -87.235 1129.985 Q -87.567 1130.007 -88.798 1129.249 Q -90.028 1128.490 -85.118 1123.466 "></path>
    <path id="STROKE_b39e34b9-ffc8-49f6-b07d-4786fec2e4b9" opacity="1.000" fill="none" stroke="#6ac0c8" stroke-width="2.642" stroke-opacity="1.000" stroke-linecap="round" stroke-linejoin="round" d="M -64.255 1114.058 Q -63.996 1113.917 -62.766 1114.043 Q -61.535 1114.170 -60.325 1113.585 Q -59.115 1113.000 -57.489 1110.566 Q -55.863 1108.131 -55.252 1106.347 Q -54.642 1104.564 -54.157 1103.027 Q -53.673 1101.490 -54.249 1099.109 Q -54.277 1099.338 -54.340 1099.070 Q -54.403 1098.801 -55.516 1099.270 Q -56.629 1099.740 -56.849 1100.515 Q -57.070 1101.290 -57.639 1102.141 Q -58.209 1102.993 -58.900 1107.725 Q -59.592 1112.457 -59.523 1116.250 Q -59.454 1120.043 -59.387 1124.351 Q -59.320 1128.659 -60.081 1133.484 Q -60.841 1138.309 -63.765 1144.660 Q -63.851 1144.660 -63.938 1144.660 Q -63.980 1144.790 -64.024 1137.923 "></path>
    <path id="STROKE_a677c4fe-f2fd-4c19-acc8-893007b945e2" opacity="1.000" fill="none" stroke="#6ac0c8" stroke-width="2.655" stroke-opacity="1.000" stroke-linecap="round" stroke-linejoin="round" d="M -72.257 1132.408 Q -72.371 1132.000 -71.997 1134.122 Q -70.303 1134.279 -70.656 1134.214 Q -69.576 1134.748 -53.759 1129.219 "></path>
    <path id="STROKE_be4417d8-eaa9-43ba-8fac-d190ef226b85" opacity="1.000" fill="none" stroke="#6ac0c8" stroke-width="2.720" stroke-opacity="1.000" stroke-linecap="round" stroke-linejoin="round" d="M -47.501 1127.478 Q -46.455 1127.478 -46.694 1127.478 Q -45.284 1127.478 -45.815 1127.478 Q -45.522 1127.021 -47.407 1126.965 Q -49.293 1126.909 -50.289 1127.248 Q -51.286 1127.587 -52.506 1128.415 Q -53.726 1129.242 -54.006 1129.749 Q -54.286 1130.256 -54.654 1132.084 Q -55.022 1133.913 -53.323 1134.641 Q -51.624 1135.369 -49.310 1135.380 Q -46.995 1135.392 -45.535 1134.573 Q -44.075 1133.755 -43.532 1132.483 Q -42.990 1131.210 -43.230 1129.561 Q -43.470 1127.912 -48.193 1125.445 "></path>
    <path id="STROKE_29bf8385-89f5-4348-ad62-b1b757bed19b" opacity="1.000" fill="none" stroke="#6ac0c8" stroke-width="2.624" stroke-opacity="1.000" stroke-linecap="round" stroke-linejoin="round" d="M 34.349 1108.078 Q 33.864 1108.027 32.388 1110.349 Q 32.922 1110.717 37.624 1109.576 Q 42.326 1108.435 49.401 1108.576 Q 49.642 1108.327 49.571 1110.484 Q 49.500 1112.642 47.353 1117.351 Q 45.207 1122.059 43.980 1132.008 Q 43.980 1131.976 44.210 1130.668 "></path>
    <path id="STROKE_737c1a7d-2de0-42e9-ace8-cc8fc3322bb4" opacity="1.000" fill="none" stroke="#6ac0c8" stroke-width="2.720" stroke-opacity="1.000" stroke-linecap="round" stroke-linejoin="round" d="M 38.126 1123.466 Q 38.171 1123.420 38.200 1124.090 Q 38.228 1124.759 39.783 1125.207 Q 41.337 1125.654 42.527 1125.698 Q 43.717 1125.743 44.479 1126.030 Q 45.241 1126.316 47.571 1126.269 Q 49.901 1126.222 52.501 1125.207 "></path>
    <path id="STROKE_fbaf23c7-eda9-4ba4-89d0-fd6b3ca1dc37" opacity="1.000" fill="none" stroke="#6ac0c8" stroke-width="2.399" stroke-opacity="1.000" stroke-linecap="round" stroke-linejoin="round" d="M 59.335 1121.260 Q 59.991 1121.462 61.252 1121.423 Q 62.513 1121.384 63.878 1119.983 Q 65.242 1118.583 66.326 1117.190 Q 67.409 1115.797 68.722 1113.072 Q 70.034 1110.346 71.013 1108.101 Q 71.991 1105.856 71.489 1100.212 Q 70.880 1098.661 69.243 1102.145 Q 67.606 1105.628 66.964 1108.478 Q 66.322 1111.329 66.086 1112.610 Q 65.850 1113.891 65.037 1118.342 Q 64.224 1122.792 62.939 1141.178 Q 62.939 1139.769 63.747 1138.453 "></path>
    <path id="STROKE_506f78b4-baae-40e0-aeb2-421c531ec705" opacity="1.000" fill="none" stroke="#6ac0c8" stroke-width="2.720" stroke-opacity="1.000" stroke-linecap="round" stroke-linejoin="round" d="M 58.527 1129.630 Q 58.383 1129.889 57.605 1132.236 Q 58.361 1133.585 70.235 1129.565 "></path>
    <path id="STROKE_83d1aac3-6358-41b1-8189-3fad20d6f4a8" opacity="1.000" fill="none" stroke="#6ac0c8" stroke-width="2.720" stroke-opacity="1.000" stroke-linecap="round" stroke-linejoin="round" d="M 80.096 1126.202 Q 79.955 1126.386 81.423 1126.602 Q 81.943 1126.697 80.317 1126.474 Q 78.691 1126.251 77.048 1126.756 Q 75.405 1127.260 74.421 1128.095 Q 73.437 1128.930 73.119 1129.791 Q 72.800 1130.652 72.828 1132.179 Q 72.855 1133.706 74.639 1134.251 Q 76.423 1134.795 78.250 1134.491 Q 80.076 1134.187 81.113 1132.942 Q 82.151 1131.698 82.405 1130.243 Q 82.660 1128.789 81.711 1127.067 "></path>
    <path id="STROKE_3691d7ff-90c7-4a7e-9418-8449ebb517d2" opacity="1.000" fill="none" stroke="#6ac0c8" stroke-width="2.602" stroke-opacity="1.000" stroke-linecap="round" stroke-linejoin="round" d="M 178.758 1116.621 Q 178.730 1116.460 178.815 1117.259 Q 178.085 1116.065 175.625 1115.954 Q 173.166 1115.843 171.637 1117.028 Q 170.109 1118.212 169.673 1119.177 Q 169.238 1120.142 169.147 1120.813 Q 169.056 1121.484 169.272 1122.100 Q 169.489 1122.716 170.742 1122.650 Q 171.995 1122.584 173.357 1122.270 Q 174.720 1121.956 176.679 1120.127 Q 178.637 1118.299 179.695 1115.810 Q 179.306 1115.949 177.398 1121.350 Q 175.490 1126.750 175.744 1135.923 Q 176.963 1135.274 176.802 1135.263 Q 176.641 1135.252 176.705 1135.235 Q 176.769 1135.218 176.899 1134.877 Q 177.028 1134.536 177.950 1132.582 "></path>
    <path id="STROKE_4c95f081-1c60-47dc-ae77-525bbc9dc4cd" opacity="1.000" fill="none" stroke="#6ac0c8" stroke-width="2.551" stroke-opacity="1.000" stroke-linecap="round" stroke-linejoin="round" d="M 189.427 1122.720 Q 189.269 1122.989 190.890 1122.519 Q 192.510 1122.048 194.159 1119.708 Q 195.808 1117.369 196.292 1115.368 Q 196.776 1113.367 196.803 1112.145 Q 196.829 1110.923 196.934 1110.343 Q 197.038 1109.763 196.156 1108.959 Q 195.274 1108.155 194.199 1109.081 Q 193.125 1110.007 192.048 1114.430 Q 190.971 1118.853 190.715 1123.174 Q 190.460 1127.496 190.344 1134.131 Q 190.227 1140.767 190.026 1144.814 Q 189.825 1148.862 191.489 1152.911 L 191.517 1152.911 Q 191.628 1152.842 190.883 1149.537 "></path>
    <path id="STROKE_f824a4e8-c04d-4786-9b38-17dff119229a" opacity="1.000" fill="none" stroke="#6ac0c8" stroke-width="2.720" stroke-opacity="1.000" stroke-linecap="round" stroke-linejoin="round" d="M 180.387 1138.972 Q 180.167 1139.008 180.334 1140.051 Q 180.502 1141.094 180.821 1141.382 Q 181.141 1141.670 182.169 1141.749 Q 183.198 1141.828 183.350 1141.983 Q 183.503 1142.137 186.776 1141.510 Q 190.049 1140.883 192.193 1140.385 Q 194.338 1139.887 198.063 1137.642 "></path>
    <path id="STROKE_f8492401-5e35-473d-9cfe-ea3718a1d809" opacity="1.000" fill="none" stroke="#6ac0c8" stroke-width="2.720" stroke-opacity="1.000" stroke-linecap="round" stroke-linejoin="round" d="M 204.642 1138.781 Q 205.907 1139.167 205.516 1139.084 Q 206.540 1139.432 206.241 1139.312 Q 206.340 1139.312 206.570 1139.312 Q 206.462 1139.048 205.464 1139.327 Q 204.465 1139.605 203.893 1139.970 Q 203.321 1140.335 201.671 1141.838 Q 200.022 1143.342 200.110 1147.043 Q 199.825 1146.961 201.670 1147.283 Q 203.515 1147.605 205.097 1145.805 Q 206.679 1144.006 207.459 1142.571 Q 208.238 1141.136 208.381 1140.214 Q 208.525 1139.292 208.535 1138.401 Q 208.545 1137.509 208.555 1136.987 Q 208.565 1136.465 206.307 1134.875 "></path>
    <path id="STROKE_2b452e6c-98b6-4c5e-9041-23299598bccd" opacity="1.000" fill="none" stroke="#6ac0c8" stroke-width="2.720" stroke-opacity="1.000" stroke-linecap="round" stroke-linejoin="round" d="M 239.628 1137.261 Q 239.665 1136.762 238.244 1141.104 Q 238.227 1141.134 240.502 1138.855 "></path>
    <path id="STROKE_8fa27021-0c99-4118-8f12-f1ebc5cc1770" opacity="1.000" fill="none" stroke="#6ac0c8" stroke-width="2.720" stroke-opacity="1.000" stroke-linecap="round" stroke-linejoin="round" d="M 249.368 1137.397 Q 249.368 1137.393 249.368 1139.980 Q 249.368 1138.710 249.368 1139.121 Q 249.368 1138.985 249.565 1138.521 "></path>
    <path id="STROKE_36f23a67-ad61-49ca-9643-7eb2c4eb3fff" opacity="1.000" fill="none" stroke="#6ac0c8" stroke-width="2.720" stroke-opacity="1.000" stroke-linecap="round" stroke-linejoin="round" d="M 259.173 1138.583 Q 260.260 1139.363 260.442 1140.511 Q 260.848 1140.490 259.387 1140.573 "></path>
  </g>
</svg>