<?xml version="1.0" encoding="UTF-8" standalone="yes"?>
<svg xmlns="http://www.w3.org/2000/svg" xmlns:xlink="http://www.w3.org/1999/xlink" width="754.512pt" height="633.233pt" version="1.1" viewBox="-468.880 441.673 754.512 633.233">
  <!--
	Exported with Concepts: Smarter Sketching
	Version: 1505 on iOS 15.3
	https://concepts.app/
	-->
  <title>FB5956C1-A75E-45B9-B912-9EFD4EA2F780</title>
  <desc>Drawing exported from Concepts: Smarter Sketching</desc>
  <defs></defs>
  <g id="Stylo" opacity="1.000">
    <path id="STROKE_8191d694-d012-4e83-bfe9-9595876f8eb9" opacity="1.000" fill="none" stroke="#171612" stroke-width="1.516" stroke-opacity="1.000" stroke-linecap="round" stroke-linejoin="round" d="M -384.000 469.243 Q -384.000 470.275 -384.000 470.034 Q -384.000 470.232 -384.000 470.504 L -384.000 464.000 Q -384.000 471.233 -384.000 480.000 Q -384.000 490.143 -384.000 496.000 Q -384.000 504.147 -384.000 512.000 Q -384.000 522.402 -384.000 528.000 Q -384.000 538.000 -384.000 544.000 Q -384.000 550.353 -384.000 579.133 Q -384.000 607.913 -384.000 656.000 Q -384.000 664.945 -384.000 714.735 Q -384.000 764.524 -384.000 848.000 Q -384.000 857.784 -384.000 992.000 Q -384.000 1000.583 -384.000 1008.000 Q -384.000 1017.442 -384.000 1024.000 "></path>
    <path id="STROKE_8bbaf194-75f3-42b8-a15f-a6a774def318" opacity="1.000" fill="none" stroke="#171612" stroke-width="1.904" stroke-opacity="1.000" stroke-linecap="round" stroke-linejoin="round" d="M -447.913 960.000 Q -444.405 960.000 -432.000 960.000 Q -423.270 960.000 -416.000 960.000 Q -407.752 960.000 -400.000 960.000 Q -390.920 960.000 -384.000 960.000 Q -375.247 960.000 -368.000 960.000 Q -359.121 960.000 -352.000 960.000 Q -343.746 960.000 -336.000 960.000 Q -327.975 960.000 -320.000 960.000 Q -310.342 960.000 -304.000 960.000 Q -294.703 960.000 -288.000 960.000 Q -278.734 960.000 -272.000 960.000 Q -262.238 960.000 -256.000 960.000 Q -246.894 960.000 -240.000 960.000 Q -230.301 960.000 -224.000 960.000 Q -214.332 960.000 -208.000 960.000 Q -199.023 960.000 -192.000 960.000 Q -182.527 960.000 -176.000 960.000 Q -165.438 960.000 -160.000 960.000 Q -147.805 960.000 -144.000 960.000 Q -134.423 960.000 -128.000 960.000 Q -119.048 960.000 -112.000 960.000 Q -103.071 960.000 -96.000 960.000 Q -86.320 960.000 -80.000 960.000 Q -68.621 960.000 -64.000 960.000 Q -54.448 960.000 -48.000 960.000 Q -37.029 960.000 -32.000 960.000 Q -22.115 960.000 -16.000 960.000 Q -6.948 960.000 0.000 960.000 Q 9.492 960.000 16.000 960.000 Q 25.527 960.000 32.000 960.000 Q 40.309 960.000 48.000 960.000 Q 59.128 960.000 64.000 960.000 Q 72.773 960.000 80.000 960.000 Q 89.731 960.000 96.000 960.000 Q 106.095 960.000 112.000 960.000 Q 122.195 960.000 128.000 960.000 Q 136.714 960.000 144.000 960.000 Q 154.347 960.000 160.000 960.000 Q 169.072 960.000 176.000 960.000 Q 185.039 960.000 192.000 960.000 Q 201.023 960.000 208.000 960.000 Q 216.293 960.000 224.000 960.000 Q 232.130 960.000 240.000 960.000 Q 232.789 960.000 232.130 960.000 "></path>
    <path id="STROKE_bbd59b7b-6125-4ce7-95d9-b8db73a07dec" opacity="1.000" fill="none" stroke="#171612" stroke-width="2.406" stroke-opacity="1.000" stroke-linecap="round" stroke-linejoin="round" d="M -390.317 471.962 Q -390.108 473.150 -386.345 463.929 Q -386.311 463.420 -388.495 467.050 Q -390.680 470.680 -391.987 473.062 Q -393.294 475.443 -395.423 478.974 Q -397.553 482.505 -400.303 491.478 Q -399.233 490.904 -396.482 486.634 Q -393.730 482.364 -390.990 478.696 Q -388.249 475.029 -386.768 473.130 Q -385.286 471.231 -384.004 470.121 Q -382.723 469.012 -381.154 468.712 Q -381.288 469.475 -372.338 486.633 Q -372.305 486.368 -372.173 483.914 "></path>
    <path id="STROKE_348d315e-76c7-4ba1-81ed-b72d2288ecf1" opacity="1.000" fill="none" stroke="#171612" stroke-width="2.527" stroke-opacity="1.000" stroke-linecap="round" stroke-linejoin="round" d="M 236.563 961.094 Q 236.611 961.887 236.662 961.891 Q 236.843 962.403 237.700 963.359 Q 238.558 964.316 235.870 966.182 Q 233.181 968.049 230.448 970.295 Q 227.714 972.541 224.385 976.760 L 224.418 976.828 Q 224.916 977.265 229.679 973.422 Q 234.442 969.578 237.181 966.930 Q 239.919 964.281 241.311 962.562 Q 242.703 960.842 242.679 959.631 Q 242.654 958.421 242.170 957.950 Q 241.686 957.480 237.217 956.637 Q 232.749 955.793 229.937 955.260 Q 227.125 954.727 225.433 953.894 Q 223.742 953.060 223.182 950.811 "></path>
    <path id="STROKE_57fe1208-b435-4299-9474-cbc5b5fc6f16" opacity="1.000" fill="none" stroke="#171612" stroke-width="2.162" stroke-opacity="1.000" stroke-linecap="round" stroke-linejoin="round" d="M -446.710 455.240 Q -446.710 456.074 -446.710 450.926 Q -446.204 450.542 -448.179 465.930 Q -450.155 481.319 -450.961 499.178 Q -451.243 499.163 -450.495 492.173 Q -449.747 485.184 -449.019 478.063 Q -448.291 470.943 -447.405 465.460 Q -446.519 459.977 -444.831 455.438 Q -444.650 455.248 -443.636 455.327 Q -442.623 455.406 -440.760 460.255 Q -438.898 465.103 -438.094 468.449 Q -437.290 471.795 -436.941 473.577 Q -436.591 475.360 -436.337 476.989 Q -436.082 478.618 -435.812 484.172 Q -435.542 489.726 -436.245 500.105 Q -436.344 500.136 -436.443 500.167 "></path>
    <path id="STROKE_406e5640-af5d-4a9f-85d3-c9734dba7402" opacity="1.000" fill="none" stroke="#171612" stroke-width="2.449" stroke-opacity="1.000" stroke-linecap="round" stroke-linejoin="round" d="M -438.503 484.977 Q -438.765 485.273 -442.767 488.294 Q -446.768 491.315 -449.943 492.731 Q -453.117 494.147 -455.268 494.717 Q -457.419 495.287 -459.630 493.728 "></path>
    <path id="STROKE_dc1dda0f-a40f-4f3c-ac88-37d40542894d" opacity="1.000" fill="none" stroke="#171612" stroke-width="1.829" stroke-opacity="1.000" stroke-linecap="round" stroke-linejoin="round" d="M 252.268 995.269 Q 252.140 996.864 252.268 1000.447 Q 253.250 1000.675 257.360 994.480 Q 261.469 988.286 264.132 982.816 Q 266.794 977.347 268.115 971.523 Q 269.436 965.700 269.907 961.116 Q 270.377 956.532 269.762 952.820 Q 269.146 949.108 268.664 947.728 Q 268.182 946.349 267.939 945.508 Q 267.696 944.667 265.930 944.631 Q 265.115 945.513 263.485 953.120 Q 261.856 960.728 261.671 977.665 Q 261.487 994.602 261.641 1003.571 Q 261.795 1012.540 261.989 1017.225 Q 262.183 1021.911 263.903 1025.105 Q 264.555 1025.499 264.529 1016.181 "></path>
    <path id="STROKE_a79e4802-1110-497f-a346-869132d7f0dc" opacity="1.000" fill="none" stroke="#171612" stroke-width="2.201" stroke-opacity="1.000" stroke-linecap="round" stroke-linejoin="round" d="M 249.153 1005.688 Q 249.019 1005.557 249.238 1007.495 Q 249.457 1009.433 255.804 1009.162 Q 262.150 1008.891 276.394 1002.969 "></path>
    <path id="STROKE_96d98314-c28e-4a38-b61c-4bff37c9cd82" opacity="1.000" fill="none" stroke="#171612" stroke-width="2.720" stroke-opacity="1.000" stroke-linecap="round" stroke-linejoin="round" d="M -192.000 956.719 Q -192.000 955.521 -192.000 944.000 Q -192.000 935.275 -192.000 928.000 Q -192.000 919.093 -192.000 912.000 Q -192.000 903.956 -192.000 896.000 Q -192.000 887.962 -192.000 880.000 Q -192.000 871.302 -192.000 864.000 Q -192.000 855.172 -192.000 848.000 Q -192.000 839.377 -192.000 832.000 Q -192.000 823.383 -192.000 816.000 Q -192.000 807.922 -192.000 800.000 Q -192.000 791.854 -192.000 784.000 Q -192.000 775.131 -192.000 768.000 Q -192.000 759.200 -192.000 752.000 Q -192.000 743.676 -192.000 736.000 Q -192.000 727.881 -192.000 720.000 Q -192.000 719.436 -192.000 721.775 L -192.000 720.000 "></path>
    <path id="STROKE_fa960bd4-f1a9-453e-bc72-88f701c035d5" opacity="1.000" fill="none" stroke="#171612" stroke-width="2.720" stroke-opacity="1.000" stroke-linecap="round" stroke-linejoin="round" d="M -192.942 716.856 Q -191.846 717.435 -192.068 717.326 Q -190.256 717.766 -190.882 717.585 Q -190.077 717.308 -190.068 717.154 Q -190.058 717.000 -190.067 717.002 Q -190.076 717.005 -190.002 717.145 Q -189.928 717.285 -189.720 713.673 Q -189.668 713.674 -189.615 713.666 Q -189.562 713.659 -190.483 713.585 Q -191.403 713.512 -192.518 714.870 Q -193.634 716.228 -194.089 718.020 Q -194.545 719.812 -194.489 721.013 Q -194.434 722.214 -194.155 722.633 Q -193.876 723.052 -193.389 723.421 Q -192.903 723.789 -191.527 724.024 Q -190.152 724.259 -188.912 723.634 Q -187.672 723.009 -186.693 721.255 Q -185.715 719.502 -185.313 718.032 Q -184.912 716.561 -185.275 715.589 Q -185.638 714.618 -186.087 714.162 Q -186.536 713.707 -187.960 713.672 Q -189.384 713.638 -190.712 713.643 Q -192.041 713.648 -193.762 715.053 Q -195.482 716.458 -196.460 718.376 Q -197.438 720.293 -197.339 721.421 Q -197.241 722.548 -197.091 723.440 Q -196.940 724.333 -195.326 724.636 Q -193.711 724.940 -192.042 724.353 Q -190.372 723.765 -188.611 722.172 Q -186.850 720.580 -185.953 718.683 Q -185.056 716.787 -184.920 715.679 Q -184.784 714.570 -184.961 713.976 Q -185.139 713.383 -185.436 713.108 Q -185.733 712.832 -187.026 712.785 Q -188.319 712.737 -189.495 712.743 Q -190.670 712.748 -192.317 713.712 Q -193.963 714.675 -194.754 715.877 Q -195.545 717.079 -195.920 717.926 Q -196.295 718.773 -196.564 719.896 Q -196.833 721.020 -196.665 721.705 Q -196.497 722.390 -196.191 723.039 Q -195.884 723.689 -194.407 724.046 Q -192.929 724.402 -191.727 723.967 Q -190.526 723.531 -189.823 722.562 Q -189.120 721.592 -188.726 720.301 Q -188.333 719.009 -188.451 717.475 Q -188.569 715.941 -190.086 715.529 Q -191.603 715.117 -192.930 715.427 Q -194.257 715.737 -194.865 716.558 Q -195.472 717.380 -195.770 719.260 Q -196.067 721.140 -195.734 722.315 Q -195.401 723.491 -193.853 723.926 Q -192.306 724.362 -191.446 724.201 Q -190.586 724.041 -190.214 724.109 Q -189.841 724.178 -188.753 723.075 Q -187.666 721.972 -187.473 720.350 Q -187.280 718.728 -187.262 717.583 Q -187.245 716.437 -188.454 715.728 Q -189.663 715.018 -190.828 715.115 Q -191.993 715.212 -192.625 715.523 Q -193.257 715.833 -193.580 717.003 Q -193.903 718.174 -193.922 719.171 Q -193.942 720.168 -193.232 720.616 Q -192.522 721.064 -191.780 721.341 Q -191.039 721.618 -189.605 721.147 Q -188.171 720.675 -187.763 720.056 Q -187.356 719.437 -187.042 718.503 Q -186.728 717.568 -186.623 716.411 Q -186.518 715.253 -187.198 714.626 Q -187.878 713.999 -188.528 713.992 Q -189.177 713.984 -189.942 714.434 Q -190.706 714.885 -190.865 715.430 Q -191.024 715.975 -191.122 716.491 Q -191.220 717.006 -190.910 717.148 Q -190.601 717.289 -190.326 717.409 Q -190.050 717.528 -190.008 717.480 Q -189.966 717.432 -190.114 717.461 Q -190.263 717.490 -189.283 717.424 Q -189.938 716.050 -189.951 716.362 L -190.223 716.127 "></path>
    <path id="STROKE_dfb6a06d-127e-48fa-8873-52799b3f89e4" opacity="1.000" fill="none" stroke="#f66640" stroke-width="2.092" stroke-opacity="1.000" stroke-linecap="round" stroke-linejoin="round" d="M -213.739 1013.054 Q -213.935 1013.160 -215.123 1017.899 Q -215.430 1018.160 -214.358 1017.648 Q -213.286 1017.135 -210.583 1013.304 Q -207.880 1009.473 -206.214 1006.323 Q -204.549 1003.173 -203.445 1001.304 Q -202.342 999.435 -200.619 995.198 Q -198.897 990.960 -198.386 988.317 Q -197.876 985.675 -197.743 984.449 Q -197.610 983.224 -197.392 981.450 Q -197.174 979.676 -198.759 978.979 Q -199.077 978.960 -202.195 985.680 Q -205.314 992.400 -206.557 1003.091 Q -207.801 1013.782 -207.693 1022.142 Q -207.586 1030.502 -208.729 1038.218 Q -209.128 1038.108 -209.965 1035.227 "></path>
    <path id="STROKE_ea050f30-d2f5-4127-ac6d-66a3e02d3304" opacity="1.000" fill="none" stroke="#f66640" stroke-width="2.414" stroke-opacity="1.000" stroke-linecap="round" stroke-linejoin="round" d="M -221.550 1028.528 Q -219.432 1029.825 -201.017 1025.340 "></path>
    <path id="STROKE_4a926ca9-af14-4907-8d32-d7b5e5c3ce4f" opacity="1.000" fill="none" stroke="#f66640" stroke-width="2.679" stroke-opacity="1.000" stroke-linecap="round" stroke-linejoin="round" d="M -193.074 1028.195 Q -193.074 1028.158 -193.074 1027.663 Q -194.886 1027.537 -194.359 1027.589 Q -196.199 1027.918 -197.266 1029.711 Q -198.333 1031.504 -198.391 1032.744 Q -198.449 1033.984 -198.526 1034.739 Q -198.603 1035.493 -197.522 1036.252 Q -196.441 1037.010 -195.434 1037.081 Q -194.427 1037.151 -193.406 1037.269 Q -192.384 1037.386 -191.096 1036.697 Q -189.807 1036.007 -188.924 1034.810 Q -188.041 1033.612 -187.975 1032.996 Q -187.910 1032.379 -187.695 1031.766 Q -187.479 1031.153 -187.638 1029.761 Q -187.796 1028.368 -189.873 1026.836 Q -191.950 1025.305 -197.704 1023.486 "></path>
    <path id="STROKE_dd22a6c8-4b3a-47ac-8e20-e594c5f91104" opacity="1.000" fill="none" stroke="#f66640" stroke-width="2.720" stroke-opacity="1.000" stroke-linecap="round" stroke-linejoin="round" d="M -179.412 1017.442 Q -180.636 1017.739 -180.211 1017.640 Q -181.141 1017.875 -180.879 1017.806 Q -180.911 1017.730 -182.131 1018.307 Q -182.131 1018.338 -182.131 1018.400 Q -181.465 1018.385 -177.322 1018.665 Q -173.178 1018.945 -168.684 1017.306 "></path>
    <path id="STROKE_84afaa5c-b958-4563-a31b-3b1756e692a1" opacity="1.000" fill="none" stroke="#f66640" stroke-width="2.720" stroke-opacity="1.000" stroke-linecap="round" stroke-linejoin="round" d="M -179.940 1023.276 Q -179.754 1024.365 -179.775 1024.141 Q -179.528 1024.682 -179.613 1024.606 Q -179.698 1024.530 -179.304 1025.430 Q -178.911 1026.330 -170.398 1026.069 "></path>
    <path id="STROKE_43453804-38ab-4c90-9f7b-ef6d8c3d0ba1" opacity="1.000" fill="none" stroke="#f66640" stroke-width="2.484" stroke-opacity="1.000" stroke-linecap="round" stroke-linejoin="round" d="M -146.618 1011.200 Q -146.294 1012.614 -146.223 1012.127 Q -146.696 1011.988 -145.932 1012.334 Q -145.167 1012.680 -141.793 1009.325 Q -138.418 1005.970 -136.531 1002.926 Q -134.644 999.882 -133.025 997.074 Q -131.407 994.265 -130.353 986.914 Q -131.431 988.201 -131.240 987.993 Q -131.048 987.785 -131.195 988.037 Q -131.341 988.288 -131.290 988.209 Q -131.239 988.131 -131.629 989.165 Q -132.020 990.198 -133.105 992.644 Q -134.189 995.089 -135.124 1002.088 Q -136.058 1009.087 -135.725 1017.306 Q -135.659 1017.306 -135.626 1017.306 Q -135.605 1016.978 -135.692 1015.254 "></path>
    <path id="STROKE_7bcdd776-6822-475b-90f5-a5b2bf03c2f2" opacity="1.000" fill="none" stroke="#f66640" stroke-width="2.296" stroke-opacity="1.000" stroke-linecap="round" stroke-linejoin="round" d="M -145.085 1023.276 Q -145.162 1023.700 -145.127 1025.408 Q -144.910 1026.080 -137.092 1024.843 Q -129.275 1023.607 -119.855 1022.954 Q -119.840 1022.937 -122.822 1023.016 "></path>
    <path id="STROKE_08dcc11d-b2bb-41e4-9860-b52d4cd2809a" opacity="1.000" fill="none" stroke="#f66640" stroke-width="2.566" stroke-opacity="1.000" stroke-linecap="round" stroke-linejoin="round" d="M -142.910 1039.145 Q -142.903 1040.211 -142.877 1040.041 Q -142.562 1041.221 -142.614 1040.999 Q -142.536 1041.178 -139.136 1065.694 Q -139.184 1065.422 -140.850 1061.776 "></path>
    <path id="STROKE_5289f620-d09e-47aa-83fa-a6b3e78fa720" opacity="1.000" fill="none" stroke="#f66640" stroke-width="2.382" stroke-opacity="1.000" stroke-linecap="round" stroke-linejoin="round" d="M -154.232 1045.251 Q -154.192 1045.700 -151.937 1044.811 Q -149.683 1043.922 -147.134 1042.940 Q -144.585 1041.958 -142.528 1041.330 Q -140.471 1040.702 -134.704 1039.572 Q -128.936 1038.443 -123.365 1036.451 Q -123.482 1035.921 -125.145 1036.624 "></path>
    <path id="STROKE_8e60590f-e244-4005-8cd2-4de4968ca459" opacity="1.000" fill="none" stroke="#f66640" stroke-width="2.674" stroke-opacity="1.000" stroke-linecap="round" stroke-linejoin="round" d="M -126.678 1058.327 Q -126.242 1057.458 -125.447 1057.101 Q -124.652 1056.744 -123.976 1056.504 Q -123.299 1056.263 -123.147 1055.829 Q -122.994 1055.395 -122.969 1055.337 Q -122.945 1055.279 -122.892 1055.200 Q -122.840 1055.122 -123.157 1054.397 Q -123.473 1053.672 -124.951 1053.505 Q -126.428 1053.338 -127.904 1054.343 Q -129.379 1055.347 -130.183 1057.420 Q -130.987 1059.493 -130.940 1061.010 Q -130.892 1062.528 -129.806 1063.653 Q -128.719 1064.779 -126.560 1065.013 Q -124.401 1065.247 -123.226 1064.984 Q -122.051 1064.722 -121.195 1064.369 Q -120.339 1064.016 -119.593 1062.489 Q -118.848 1060.963 -118.944 1059.759 Q -119.041 1058.555 -119.215 1057.299 Q -119.390 1056.043 -126.612 1052.222 "></path>
  </g>
</svg>