<?xml version="1.0" encoding="UTF-8" standalone="no"?>
<svg
   viewBox="0 0 136.23 138.55"
   version="1.1"
   id="svg550"
   sodipodi:docname="Polar-pattern-U-87-Ai-cardioid.svg"
   inkscape:version="1.2.2 (732a01da63, 2022-12-09)"
   xmlns:inkscape="http://www.inkscape.org/namespaces/inkscape"
   xmlns:sodipodi="http://sodipodi.sourceforge.net/DTD/sodipodi-0.dtd"
   xmlns="http://www.w3.org/2000/svg"
   xmlns:svg="http://www.w3.org/2000/svg">
  <sodipodi:namedview
     id="namedview552"
     pagecolor="#ffffff"
     bordercolor="#000000"
     borderopacity="0.25"
     inkscape:showpageshadow="2"
     inkscape:pageopacity="0.0"
     inkscape:pagecheckerboard="0"
     inkscape:deskcolor="#d1d1d1"
     showgrid="false"
     inkscape:zoom="5.8029591"
     inkscape:cx="35.068315"
     inkscape:cy="45.235542"
     inkscape:window-width="1920"
     inkscape:window-height="991"
     inkscape:window-x="-9"
     inkscape:window-y="-9"
     inkscape:window-maximized="1"
     inkscape:current-layer="svg550" />
  <defs
     id="defs280">
    <style
       id="style278">.cls-1,.cls-6{fill:#757677;}.cls-1,.cls-5{fill-rule:evenodd;}.cls-10,.cls-11,.cls-12,.cls-13,.cls-14,.cls-2,.cls-3,.cls-4,.cls-5,.cls-7,.cls-8,.cls-9{fill:none;}.cls-2,.cls-3,.cls-5{stroke:#757677;stroke-miterlimit:2.61;}.cls-2{stroke-width:0.43px;}.cls-3,.cls-5{stroke-width:0.43px;}.cls-10,.cls-11,.cls-12,.cls-13,.cls-14,.cls-7,.cls-8,.cls-9{stroke:#fff;stroke-linejoin:round;stroke-width:0.58px;}.cls-7{stroke-dasharray:3.46 1.15;}.cls-8{stroke-dasharray:3.46 1.15 3.46 1.15 0.58 1.15;}.cls-10{stroke-dasharray:1.73 1.15;}.cls-11{stroke-dasharray:3.46 1.15 0.58 1.15 0.58 1.15;}.cls-12{stroke-dasharray:0.58 0.58;}.cls-13{stroke-dasharray:3.46 1.15 0.58 1.15;}.cls-14{stroke-dasharray:7 2 7 2;}</style>
  </defs>
  <title
     id="title282">PL_U87_C</title>
  <g
     id="PL-Legende">
    <path
       class="cls-1"
       d="M134.67,133.67h1.4v-.27h-1c.79-.64,1-1,1-1.37a.62.62,0,0,0-.69-.66,1.18,1.18,0,0,0-.68.22l.12.22a1,1,0,0,1,.54-.17c.25,0,.38.12.38.4s-.11.56-1,1.35v.29Z"
       transform="translate(-9.08 -8.83)"
       id="path284" />
    <path
       class="cls-1"
       d="M138.35,133.67h.31V131.1h-.31v2.57Zm1,0h.36l-.68-1,.58-.76h-.34l-.58.77.65,1Z"
       transform="translate(-9.08 -8.83)"
       id="path286" />
    <polygon
       class="cls-1"
       points="131.03 124.84 131.36 124.84 131.36 123.68 132.24 123.68 132.24 124.84 132.57 124.84 132.57 122.39 132.24 122.39 132.24 123.39 131.36 123.39 131.36 122.39 131.03 122.39 131.03 124.84 131.03 124.84"
       id="polygon288" />
    <polygon
       class="cls-1"
       points="133.09 124.84 134.27 124.84 134.27 124.59 133.41 124.59 134.24 123.33 134.24 123.06 133.17 123.06 133.17 123.31 133.93 123.31 133.09 124.56 133.09 124.84 133.09 124.84"
       id="polygon290" />
    <polygon
       class="cls-1"
       points="125.48 129.02 126.51 129.02 126.51 129.56 126.83 129.56 126.83 129.02 127.1 129.02 127.1 128.74 126.83 128.74 126.83 127.74 126.51 127.8 126.51 128.74 125.82 128.74 126.49 127.11 126.14 127.11 125.48 128.71 125.48 129.02 125.48 129.02"
       id="polygon292" />
    <path
       class="cls-1"
       d="M138.35,138.2h.31v-2.57h-.31v2.57Zm1,0h.36l-.68-1,.58-.76h-.34l-.58.77.65,1Z"
       transform="translate(-9.08 -8.83)"
       id="path294" />
    <polygon
       class="cls-1"
       points="131.03 129.37 131.36 129.37 131.36 128.21 132.24 128.21 132.24 129.37 132.57 129.37 132.57 126.92 132.24 126.92 132.24 127.92 131.36 127.92 131.36 126.92 131.03 126.92 131.03 129.37 131.03 129.37"
       id="polygon296" />
    <polygon
       class="cls-1"
       points="133.09 129.37 134.27 129.37 134.27 129.12 133.41 129.12 134.24 127.87 134.24 127.59 133.17 127.59 133.17 127.84 133.93 127.84 133.09 129.09 133.09 129.37 133.09 129.37"
       id="polygon298" />
    <path
       class="cls-1"
       d="M135.36,142.78c.48,0,.77-.24.77-.66a.68.68,0,0,0-.5-.69.62.62,0,0,0,.42-.6.6.6,0,0,0-.68-.6c-.45,0-.69.24-.69.62a.63.63,0,0,0,.37.59.65.65,0,0,0-.46.65c0,.4.27.68.79.68Zm.11-1.11a.45.45,0,0,1,.32.48c0,.24-.14.38-.43.38s-.47-.12-.47-.45a.53.53,0,0,1,.33-.52l.25.1Zm-.48-.83a.36.36,0,1,1,.73,0,.47.47,0,0,1-.31.48l-.08,0c-.29-.12-.33-.23-.33-.44Z"
       transform="translate(-9.08 -8.83)"
       id="path300" />
    <path
       class="cls-1"
       d="M138.35,142.73h.31v-2.57h-.31v2.57Zm1,0h.36l-.68-1,.58-.76h-.34l-.58.77.65,1Z"
       transform="translate(-9.08 -8.83)"
       id="path302" />
    <polygon
       class="cls-1"
       points="131.03 133.9 131.36 133.9 131.36 132.75 132.24 132.75 132.24 133.9 132.57 133.9 132.57 131.46 132.24 131.46 132.24 132.46 131.36 132.46 131.36 131.46 131.03 131.46 131.03 133.9 131.03 133.9"
       id="polygon304" />
    <polygon
       class="cls-1"
       points="133.09 133.9 134.27 133.9 134.27 133.66 133.41 133.66 134.24 132.4 134.24 132.12 133.17 132.12 133.17 132.37 133.93 132.37 133.09 133.62 133.09 133.9 133.09 133.9"
       id="polygon306" />
    <polygon
       class="cls-1"
       points="125.73 138.44 126.91 138.44 126.91 138.18 126.51 138.18 126.51 136.15 126.27 136.15 125.65 136.62 125.74 136.78 126.19 136.57 126.19 138.18 125.73 138.18 125.73 138.44 125.73 138.44"
       id="polygon308" />
    <path
       class="cls-1"
       d="M137.33,147.32a.74.74,0,0,0,.75-.83.71.71,0,0,0-.69-.79.72.72,0,0,0-.5.2c.1-.57.41-.74.95-.89l-.06-.24a1.37,1.37,0,0,0-1.25,1.52c0,.65.34,1,.8,1Zm0-1.37c.27,0,.41.2.41.55s-.13.57-.42.57-.46-.21-.46-.74c0-.06,0-.12,0-.18a.66.66,0,0,1,.47-.18Z"
       transform="translate(-9.08 -8.83)"
       id="path310" />
    <path
       class="cls-1"
       d="M140.3,147.27h.31v-2.57h-.31v2.57Zm1,0h.36l-.67-1,.58-.76h-.34l-.58.77.65,1Z"
       transform="translate(-9.08 -8.83)"
       id="path312" />
    <polygon
       class="cls-1"
       points="132.99 138.44 133.31 138.44 133.31 137.28 134.19 137.28 134.19 138.44 134.52 138.44 134.52 135.99 134.19 135.99 134.19 136.99 133.31 136.99 133.31 135.99 132.99 135.99 132.99 138.44 132.99 138.44"
       id="polygon314" />
    <polygon
       class="cls-1"
       points="135.04 138.44 136.23 138.44 136.23 138.19 135.37 138.19 136.2 136.93 136.2 136.66 135.12 136.66 135.12 136.91 135.88 136.91 135.04 138.16 135.04 138.44 135.04 138.44"
       id="polygon316" />
    <polygon
       class="cls-1"
       points="1.45 124.76 2.64 124.76 2.64 124.5 2.23 124.5 2.23 122.45 1.99 122.45 1.36 122.92 1.46 123.09 1.91 122.87 1.91 124.5 1.45 124.5 1.45 124.76 1.45 124.76"
       id="polygon318" />
    <path
       class="cls-1"
       d="M12.36,133.59h1.42v-.28H12.73c.8-.65,1-1,1-1.39a.63.63,0,0,0-.7-.67,1.19,1.19,0,0,0-.69.22l.12.23a1,1,0,0,1,.54-.17c.25,0,.39.12.39.4s-.12.57-1,1.37v.29Z"
       transform="translate(-9.08 -8.83)"
       id="path320" />
    <path
       class="cls-1"
       d="M14.84,133.83a.82.82,0,0,0,.92-.88.73.73,0,0,0-.83-.75l-.2,0,.05-.64h.89v-.28H14.52l-.11,1.24a1.5,1.5,0,0,1,.45-.07c.36,0,.56.13.56.51a.53.53,0,0,1-.6.58,2,2,0,0,1-.49-.08l-.06.25a2,2,0,0,0,.58.1Z"
       transform="translate(-9.08 -8.83)"
       id="path322" />
    <polygon
       class="cls-1"
       points="9.03 124.76 9.37 124.76 9.37 123.59 10.26 123.59 10.26 124.76 10.59 124.76 10.59 122.28 10.26 122.28 10.26 123.3 9.37 123.3 9.37 122.28 9.03 122.28 9.03 124.76 9.03 124.76"
       id="polygon324" />
    <polygon
       class="cls-1"
       points="11.12 124.76 12.32 124.76 12.32 124.51 11.45 124.51 12.29 123.24 12.29 122.96 11.2 122.96 11.2 123.21 11.97 123.21 11.12 124.48 11.12 124.76 11.12 124.76"
       id="polygon326" />
    <path
       class="cls-1"
       d="M10.38,138.19h1.42v-.28H10.75c.8-.65,1-1,1-1.39a.63.63,0,0,0-.7-.67,1.19,1.19,0,0,0-.69.22l.12.23a1,1,0,0,1,.54-.17c.25,0,.39.12.39.4s-.12.57-1,1.37v.29Z"
       transform="translate(-9.08 -8.83)"
       id="path328" />
    <path
       class="cls-1"
       d="M12.86,138.43a.82.82,0,0,0,.92-.88.73.73,0,0,0-.83-.75l-.2,0,.05-.64h.89v-.28H12.54l-.11,1.24a1.5,1.5,0,0,1,.45-.07c.36,0,.56.13.56.51a.53.53,0,0,1-.6.58,2,2,0,0,1-.49-.08l-.06.25a2,2,0,0,0,.58.1Z"
       transform="translate(-9.08 -8.83)"
       id="path330" />
    <path
       class="cls-1"
       d="M15,138.23c.53,0,.81-.4.81-1.2s-.31-1.18-.82-1.18-.82.42-.82,1.2.3,1.18.83,1.18Zm0-.26c-.35,0-.48-.29-.48-.94s.12-.92.48-.92.47.29.47.94-.12.92-.47.92Z"
       transform="translate(-9.08 -8.83)"
       id="path332" />
    <polygon
       class="cls-1"
       points="9.03 129.36 9.37 129.36 9.37 128.19 10.26 128.19 10.26 129.36 10.59 129.36 10.59 126.88 10.26 126.88 10.26 127.89 9.37 127.89 9.37 126.88 9.03 126.88 9.03 129.36 9.03 129.36"
       id="polygon334" />
    <polygon
       class="cls-1"
       points="11.12 129.36 12.32 129.36 12.32 129.11 11.45 129.11 12.29 127.84 12.29 127.56 11.2 127.56 11.2 127.81 11.97 127.81 11.12 129.08 11.12 129.36 11.12 129.36"
       id="polygon336" />
    <path
       class="cls-1"
       d="M10.88,143a.82.82,0,0,0,.92-.88.73.73,0,0,0-.83-.75l-.2,0,.05-.64h.89v-.28H10.56l-.11,1.24a1.5,1.5,0,0,1,.45-.07c.36,0,.56.13.56.51a.53.53,0,0,1-.6.58,2,2,0,0,1-.49-.08l-.06.25a2,2,0,0,0,.58.1Z"
       transform="translate(-9.08 -8.83)"
       id="path338" />
    <path
       class="cls-1"
       d="M13.06,142.83c.53,0,.81-.4.81-1.2s-.31-1.18-.82-1.18-.82.42-.82,1.2.3,1.18.83,1.18Zm0-.26c-.35,0-.48-.29-.48-.94s.12-.92.48-.92.47.29.47.94-.12.92-.47.92Z"
       transform="translate(-9.08 -8.83)"
       id="path340" />
    <path
       class="cls-1"
       d="M15,142.83c.53,0,.81-.4.81-1.2s-.31-1.18-.82-1.18-.82.42-.82,1.2.3,1.18.83,1.18Zm0-.26c-.35,0-.48-.29-.48-.94s.12-.92.48-.92.47.29.47.94-.12.92-.47.92Z"
       transform="translate(-9.08 -8.83)"
       id="path342" />
    <polygon
       class="cls-1"
       points="9.03 133.96 9.37 133.96 9.37 132.78 10.26 132.78 10.26 133.96 10.59 133.96 10.59 131.47 10.26 131.47 10.26 132.49 9.37 132.49 9.37 131.47 9.03 131.47 9.03 133.96 9.03 133.96"
       id="polygon344" />
    <polygon
       class="cls-1"
       points="11.12 133.96 12.32 133.96 12.32 133.71 11.45 133.71 12.29 132.43 12.29 132.15 11.2 132.15 11.2 132.4 11.97 132.4 11.12 133.67 11.12 133.96 11.12 133.96"
       id="polygon346" />
    <polygon
       class="cls-1"
       points="3.67 138.55 4.85 138.55 4.85 138.29 4.45 138.29 4.45 136.24 4.21 136.24 3.58 136.71 3.67 136.88 4.13 136.66 4.13 138.29 3.67 138.29 3.67 138.55 3.67 138.55"
       id="polygon348" />
    <path
       class="cls-1"
       d="M16.33,147.38h.31v-2.61h-.31v2.61Zm1,0h.36l-.69-1,.59-.77h-.35l-.58.78.66,1Z"
       transform="translate(-9.08 -8.83)"
       id="path350" />
    <polygon
       class="cls-1"
       points="9.03 138.55 9.37 138.55 9.37 137.38 10.26 137.38 10.26 138.55 10.59 138.55 10.59 136.07 10.26 136.07 10.26 137.09 9.37 137.09 9.37 136.07 9.03 136.07 9.03 138.55 9.03 138.55"
       id="polygon352" />
    <polygon
       class="cls-1"
       points="11.12 138.55 12.32 138.55 12.32 138.3 11.45 138.3 12.29 137.03 12.29 136.75 11.2 136.75 11.2 137 11.97 137 11.12 138.27 11.12 138.55 11.12 138.55"
       id="polygon354" />
  </g>
  <g
     id="PL-Raster"
     style="display:inline">
    <path
       class="cls-2"
       d="m 86.07,73.69 h 52.56 m -121.68,0 h 52.56"
       transform="translate(-9.08,-8.83)"
       id="path357" />
    <line
       class="cls-3"
       x1="74.540001"
       y1="58.959999"
       x2="111.71"
       y2="21.790001"
       id="line359" />
    <line
       class="cls-3"
       x1="25.65"
       y1="107.92"
       x2="62.82"
       y2="70.75"
       id="line361" />
    <line
       class="cls-2"
       x1="68.639999"
       y1="125.77"
       x2="68.639999"
       y2="73.209999"
       id="line363" />
    <line
       class="cls-2"
       x1="74.489998"
       y1="70.779999"
       x2="111.65"
       y2="107.95"
       id="line365" />
    <line
       class="cls-2"
       x1="25.610001"
       y1="21.91"
       x2="62.779999"
       y2="59.07"
       id="line367" />
    <path
       class="cls-3"
       d="m 75.46,64.19 a 9.79,9.79 0 1 0 4.54,0"
       transform="translate(-9.08,-8.83)"
       id="path369" />
    <line
       class="cls-3"
       x1="68.639999"
       y1="57.07"
       x2="68.639999"
       y2="61.610001"
       id="line371" />
    <polyline
       class="cls-4"
       points="70.92 55.33 70.92 57.07 68.64 57.07"
       id="polyline373" />
    <polyline
       class="cls-4"
       points="68.64 57.07 66.39 57.07 66.39 55.36"
       id="polyline375" />
    <polyline
       class="cls-4"
       points="68.64 53.26 66.39 53.26 66.39 55.36"
       id="polyline377" />
    <polyline
       class="cls-4"
       points="68.64 53.26 70.92 53.26 70.92 55.33"
       id="polyline379" />
    <path
       class="cls-3"
       d="M 75.46,54 A 19.81,19.81 0 1 0 80,53.93"
       transform="translate(-9.08,-8.83)"
       id="path381" />
    <line
       class="cls-3"
       x1="68.639999"
       y1="46.740002"
       x2="68.639999"
       y2="53.259998"
       id="line383" />
    <polyline
       class="cls-4"
       points="68.64 42.93 70.92 42.93 70.92 45.1"
       id="polyline385" />
    <polyline
       class="cls-4"
       points="68.64 42.93 66.39 42.93 66.39 45.16"
       id="polyline387" />
    <polyline
       class="cls-4"
       points="70.92 45.1 70.92 46.74 68.64 46.74"
       id="polyline389" />
    <polyline
       class="cls-4"
       points="68.64 46.74 66.39 46.74 66.39 45.16"
       id="polyline391" />
    <path
       class="cls-3"
       d="M 75.46,44.07 A 29.81,29.81 0 1 0 80,44"
       transform="translate(-9.08,-8.83)"
       id="path393" />
    <line
       class="cls-3"
       x1="68.639999"
       y1="36.860001"
       x2="68.639999"
       y2="42.93"
       id="line395" />
    <line
       class="cls-4"
       x1="68.639999"
       y1="33.060001"
       x2="68.639999"
       y2="36.860001"
       id="line397" />
    <polyline
       class="cls-4"
       points="70.92 35.2 70.92 36.86 68.64 36.86"
       id="polyline399" />
    <polyline
       class="cls-4"
       points="68.64 36.86 66.39 36.86 66.39 35.24"
       id="polyline401" />
    <polyline
       class="cls-4"
       points="68.64 33.06 70.92 33.06 70.92 35.2"
       id="polyline403" />
    <polyline
       class="cls-4"
       points="68.64 33.06 66.39 33.06 66.39 35.24"
       id="polyline405" />
    <path
       class="cls-3"
       d="m 75.46,34.11 a 39.68,39.68 0 1 0 4.54,0"
       transform="translate(-9.08,-8.83)"
       id="path407" />
    <line
       class="cls-3"
       x1="68.639999"
       y1="26.950001"
       x2="68.639999"
       y2="33.060001"
       id="line409" />
    <polyline
       class="cls-4"
       points="70.92 25.24 70.92 26.95 68.64 26.95"
       id="polyline411" />
    <polyline
       class="cls-4"
       points="68.64 26.95 66.39 26.95 66.39 25.27"
       id="polyline413" />
    <polyline
       class="cls-4"
       points="68.64 23.15 66.39 23.15 66.39 25.27"
       id="polyline415" />
    <polyline
       class="cls-4"
       points="68.64 23.15 70.92 23.15 70.92 25.24"
       id="polyline417" />
    <path
       class="cls-5"
       d="M 75.46,24 A 49.77,49.77 0 1 0 80,24"
       transform="translate(-9.08,-8.83)"
       id="path419" />
    <line
       class="cls-3"
       x1="68.639999"
       y1="16.809999"
       x2="68.639999"
       y2="23.15"
       id="line421" />
    <line
       class="cls-3"
       x1="68.639999"
       y1="13.01"
       x2="68.639999"
       y2="4.02"
       id="line423" />
    <polyline
       class="cls-4"
       points="70.92 15.16 70.92 16.82 68.64 16.82"
       id="polyline425" />
    <polyline
       class="cls-4"
       points="68.64 16.82 66.39 16.82 66.39 15.17"
       id="polyline427" />
    <polyline
       class="cls-4"
       points="68.64 13.01 66.39 13.01 66.39 15.17"
       id="polyline429" />
    <polyline
       class="cls-4"
       points="68.64 13.01 70.92 13.01 70.92 15.16"
       id="polyline431" />
    <path
       class="cls-5"
       d="m 76.63,14.11 a 59.55,59.55 0 1 0 2.2,0"
       transform="translate(-9.08,-8.83)"
       id="path433" />
    <polyline
       class="cls-4"
       points="69.76 5.27 69.76 6.4 67.55 6.4 67.55 5.28"
       id="polyline435" />
    <polyline
       class="cls-4"
       points="69.76 5.27 69.76 2.59 67.55 2.59 67.55 5.28"
       id="polyline437" />
  </g>
  <g
     id="PL-Bemaßung"
     style="display:inline">
    <path
       class="cls-1"
       d="m 77.1,11.46 c 0.54,0 0.84,-0.41 0.84,-1.24 C 77.94,9.39 77.63,9 77.1,9 c -0.53,0 -0.84,0.43 -0.84,1.23 0,0.8 0.31,1.22 0.85,1.22 z m 0,-0.26 c -0.36,0 -0.49,-0.3 -0.49,-1 0,-0.7 0.13,-0.95 0.49,-0.95 0.36,0 0.49,0.3 0.49,1 0,0.7 -0.12,0.95 -0.49,0.95 z"
       transform="translate(-9.08,-8.83)"
       id="path440" />
    <path
       class="cls-1"
       d="m 78.86,10.09 a 0.57,0.57 0 0 0 0.58,-0.62 0.58,0.58 0 1 0 -1.16,0 0.56,0.56 0 0 0 0.58,0.63 z m 0,-0.21 c -0.21,0 -0.31,-0.11 -0.31,-0.43 0,-0.32 0.1,-0.4 0.3,-0.4 0.2,0 0.31,0.11 0.31,0.44 0,0.33 -0.09,0.4 -0.3,0.4 z"
       transform="translate(-9.08,-8.83)"
       id="path442" />
    <polygon
       class="cls-1"
       points="112.95,20.9 113.28,20.9 113.28,20.33 113.57,20.33 113.57,20.05 113.28,20.05 113.28,19 112.95,19.06 112.95,20.05 112.23,20.05 112.93,18.34 112.56,18.34 111.88,20.02 111.88,20.33 112.95,20.33 "
       id="polygon444" />
    <path
       class="cls-1"
       d="m 123.62,29.78 a 0.85,0.85 0 0 0 0.95,-0.9 0.75,0.75 0 0 0 -0.86,-0.77 h -0.2 l 0.06,-0.66 h 0.92 v -0.29 h -1.19 l -0.11,1.27 a 1.53,1.53 0 0 1 0.46,-0.07 c 0.37,0 0.58,0.13 0.58,0.52 a 0.54,0.54 0 0 1 -0.62,0.6 2.07,2.07 0 0 1 -0.51,-0.08 l -0.06,0.26 a 2,2 0 0 0 0.59,0.1 z"
       transform="translate(-9.08,-8.83)"
       id="path446" />
    <path
       class="cls-1"
       d="m 125.59,28.21 a 0.63,0.63 0 1 0 -0.58,-0.63 0.56,0.56 0 0 0 0.58,0.63 z m 0,-0.21 c -0.21,0 -0.31,-0.11 -0.31,-0.43 0,-0.32 0.1,-0.4 0.3,-0.4 0.2,0 0.31,0.11 0.31,0.44 0,0.33 -0.09,0.4 -0.3,0.4 z"
       transform="translate(-9.08,-8.83)"
       id="path448" />
    <path
       class="cls-1"
       d="m 140,75.17 a 1.45,1.45 0 0 0 1.34,-1.6 c 0,-0.7 -0.34,-1.05 -0.82,-1.05 a 0.78,0.78 0 0 0 -0.8,0.86 0.76,0.76 0 0 0 0.73,0.83 0.73,0.73 0 0 0 0.5,-0.2 c -0.11,0.58 -0.46,0.77 -1,0.92 l 0.07,0.25 z m 0.49,-1.23 c -0.28,0 -0.41,-0.18 -0.41,-0.57 0,-0.39 0.13,-0.59 0.44,-0.59 0.31,0 0.48,0.19 0.48,0.76 0,0.07 0,0.14 0,0.21 a 0.72,0.72 0 0 1 -0.5,0.19 z"
       transform="translate(-9.08,-8.83)"
       id="path450" />
    <path
       class="cls-1"
       d="m 142.63,75 c 0.54,0 0.84,-0.41 0.84,-1.24 0,-0.83 -0.32,-1.22 -0.85,-1.22 -0.53,0 -0.84,0.43 -0.84,1.23 0,0.8 0.31,1.22 0.85,1.22 z m 0,-0.26 c -0.36,0 -0.49,-0.3 -0.49,-1 0,-0.7 0.13,-0.95 0.49,-0.95 0.36,0 0.49,0.3 0.49,1 0,0.7 -0.12,0.95 -0.49,0.95 z"
       transform="translate(-9.08,-8.83)"
       id="path452" />
    <path
       class="cls-1"
       d="M 144.39,73.59 A 0.57,0.57 0 0 0 145,73 a 0.58,0.58 0 1 0 -0.58,0.62 z m 0,-0.21 c -0.21,0 -0.31,-0.11 -0.31,-0.43 0,-0.32 0.1,-0.4 0.3,-0.4 0.2,0 0.31,0.11 0.31,0.44 0,0.33 -0.09,0.4 -0.3,0.4 z"
       transform="translate(-9.08,-8.83)"
       id="path454" />
    <polygon
       class="cls-1"
       points="113.02,111.31 112.6,111.31 112.6,109.2 112.35,109.2 111.7,109.68 111.8,109.86 112.27,109.63 112.27,111.31 111.79,111.31 111.79,111.58 113.02,111.58 "
       id="polygon456" />
    <path
       class="cls-1"
       d="m 123,120.66 c 0.64,0 0.9,-0.3 0.9,-0.8 a 0.62,0.62 0 0 0 -0.44,-0.62 0.6,0.6 0 0 0 0.36,-0.6 0.63,0.63 0 0 0 -0.7,-0.63 1.36,1.36 0 0 0 -0.72,0.19 l 0.11,0.23 a 1.23,1.23 0 0 1 0.56,-0.14 c 0.28,0 0.4,0.14 0.4,0.38 0,0.24 -0.12,0.44 -0.46,0.44 h -0.18 v 0.26 h 0.14 c 0.39,0 0.57,0.09 0.57,0.47 0,0.38 -0.15,0.53 -0.55,0.53 a 2.45,2.45 0 0 1 -0.55,-0.08 l -0.06,0.26 a 2.12,2.12 0 0 0 0.63,0.11 z"
       transform="translate(-9.08,-8.83)"
       id="path458" />
    <path
       class="cls-1"
       d="m 125,120.66 a 0.85,0.85 0 0 0 0.95,-0.9 0.76,0.76 0 0 0 -0.86,-0.77 h -0.2 l 0.06,-0.66 h 0.92 v -0.29 h -1.19 l -0.11,1.27 a 1.52,1.52 0 0 1 0.46,-0.07 c 0.37,0 0.57,0.13 0.57,0.52 a 0.54,0.54 0 0 1 -0.62,0.6 2.06,2.06 0 0 1 -0.51,-0.08 l -0.06,0.26 a 2,2 0 0 0 0.59,0.1 z"
       transform="translate(-9.08,-8.83)"
       id="path460" />
    <path
       class="cls-1"
       d="m 127.28,119.09 a 0.63,0.63 0 1 0 -0.58,-0.63 0.56,0.56 0 0 0 0.58,0.63 z m 0,-0.21 c -0.21,0 -0.31,-0.11 -0.31,-0.43 0,-0.32 0.1,-0.4 0.3,-0.4 0.2,0 0.31,0.11 0.31,0.44 0,0.33 -0.09,0.4 -0.3,0.4 z"
       transform="translate(-9.08,-8.83)"
       id="path462" />
    <path
       class="cls-1"
       d="m 28.12,120.56 h 1.47 v -0.29 H 28.5 c 0.82,-0.67 1,-1 1,-1.44 a 0.64,0.64 0 0 0 -0.72,-0.69 1.23,1.23 0 0 0 -0.71,0.23 l 0.13,0.23 a 1,1 0 0 1 0.56,-0.18 c 0.26,0 0.4,0.13 0.4,0.42 0,0.29 -0.12,0.59 -1.08,1.41 v 0.3 z"
       transform="translate(-9.08,-8.83)"
       id="path464" />
    <path
       class="cls-1"
       d="m 30.16,120.56 h 1.46 v -0.29 h -1.08 c 0.82,-0.67 1,-1 1,-1.44 a 0.64,0.64 0 0 0 -0.72,-0.69 1.23,1.23 0 0 0 -0.71,0.23 l 0.13,0.23 a 1,1 0 0 1 0.56,-0.18 c 0.26,0 0.4,0.13 0.4,0.42 0,0.29 -0.12,0.59 -1.08,1.41 v 0.3 z"
       transform="translate(-9.08,-8.83)"
       id="path466" />
    <path
       class="cls-1"
       d="m 32.71,120.81 a 0.85,0.85 0 0 0 0.95,-0.9 0.75,0.75 0 0 0 -0.86,-0.77 h -0.2 l 0.06,-0.66 h 0.92 v -0.29 h -1.2 l -0.11,1.27 a 1.55,1.55 0 0 1 0.46,-0.07 c 0.37,0 0.57,0.13 0.57,0.52 a 0.54,0.54 0 0 1 -0.62,0.6 2.07,2.07 0 0 1 -0.51,-0.08 l -0.06,0.26 a 2,2 0 0 0 0.59,0.1 z"
       transform="translate(-9.08,-8.83)"
       id="path468" />
    <path
       class="cls-1"
       d="m 34.68,119.24 a 0.57,0.57 0 0 0 0.58,-0.62 0.58,0.58 0 1 0 -0.58,0.62 z m 0,-0.21 c -0.21,0 -0.31,-0.11 -0.31,-0.43 0,-0.32 0.1,-0.4 0.3,-0.4 0.2,0 0.31,0.11 0.31,0.44 0,0.33 -0.09,0.4 -0.3,0.4 z"
       transform="translate(-9.08,-8.83)"
       id="path470" />
    <path
       class="cls-1"
       d="m 9.08,75.2 h 1.47 V 74.91 H 9.46 c 0.82,-0.67 1,-1 1,-1.44 A 0.64,0.64 0 0 0 9.74,72.78 1.23,1.23 0 0 0 9.03,73.01 l 0.13,0.23 a 1,1 0 0 1 0.56,-0.18 c 0.26,0 0.4,0.13 0.4,0.42 0,0.29 -0.12,0.59 -1.08,1.41 v 0.3 z"
       transform="translate(-9.08,-8.83)"
       id="path472" />
    <path
       class="cls-1"
       d="m 11.69,75.44 a 3.93,3.93 0 0 1 0.87,-2.29 v -0.3 h -1.49 v 0.29 h 1.17 a 4.41,4.41 0 0 0 -0.9,2.26 h 0.35 z"
       transform="translate(-9.08,-8.83)"
       id="path474" />
    <path
       class="cls-1"
       d="m 13.88,75.25 c 0.54,0 0.84,-0.41 0.84,-1.24 0,-0.83 -0.32,-1.22 -0.85,-1.22 -0.53,0 -0.87,0.44 -0.87,1.21 0,0.77 0.31,1.22 0.85,1.22 z m 0,-0.26 c -0.36,0 -0.49,-0.3 -0.49,-1 0,-0.7 0.13,-0.95 0.49,-0.95 0.36,0 0.49,0.3 0.49,1 0,0.7 -0.12,0.95 -0.49,0.95 z"
       transform="translate(-9.08,-8.83)"
       id="path476" />
    <path
       class="cls-1"
       d="m 15.64,73.88 a 0.57,0.57 0 0 0 0.58,-0.62 0.58,0.58 0 1 0 -0.58,0.62 z m 0,-0.21 c -0.21,0 -0.31,-0.11 -0.31,-0.43 0,-0.32 0.1,-0.4 0.3,-0.4 0.2,0 0.31,0.11 0.31,0.44 0,0.33 -0.09,0.4 -0.3,0.4 z"
       transform="translate(-9.08,-8.83)"
       id="path478" />
    <path
       class="cls-1"
       d="m 29.1,30.1 c 0.64,0 0.9,-0.3 0.9,-0.8 a 0.62,0.62 0 0 0 -0.44,-0.62 0.6,0.6 0 0 0 0.36,-0.6 0.63,0.63 0 0 0 -0.7,-0.63 1.36,1.36 0 0 0 -0.72,0.19 l 0.11,0.23 a 1.23,1.23 0 0 1 0.56,-0.14 c 0.28,0 0.4,0.14 0.4,0.38 0,0.24 -0.12,0.44 -0.46,0.44 h -0.18 v 0.26 h 0.14 c 0.39,0 0.57,0.09 0.57,0.47 0,0.38 -0.15,0.53 -0.55,0.53 a 2.47,2.47 0 0 1 -0.55,-0.08 l -0.06,0.26 a 2.12,2.12 0 0 0 0.63,0.11 z"
       transform="translate(-9.08,-8.83)"
       id="path480" />
    <polygon
       class="cls-1"
       points="22.89,20.75 22.48,20.75 22.48,18.64 22.23,18.64 21.58,19.12 21.68,19.3 22.14,19.07 22.14,20.75 21.67,20.75 21.67,21.02 22.89,21.02 "
       id="polygon482" />
    <path
       class="cls-1"
       d="m 33.15,30.1 a 0.85,0.85 0 0 0 0.95,-0.9 0.76,0.76 0 0 0 -0.86,-0.77 h -0.2 L 33.1,27.77 H 34 v -0.29 h -1.18 l -0.11,1.27 a 1.53,1.53 0 0 1 0.46,-0.07 c 0.37,0 0.57,0.13 0.57,0.52 a 0.54,0.54 0 0 1 -0.62,0.6 2.07,2.07 0 0 1 -0.51,-0.08 l -0.06,0.26 a 2,2 0 0 0 0.59,0.1 z"
       transform="translate(-9.08,-8.83)"
       id="path484" />
    <path
       class="cls-1"
       d="m 35.12,28.53 a 0.57,0.57 0 0 0 0.58,-0.62 0.58,0.58 0 1 0 -0.58,0.62 z m 0,-0.21 c -0.21,0 -0.31,-0.11 -0.31,-0.43 0,-0.32 0.1,-0.4 0.3,-0.4 0.2,0 0.31,0.11 0.31,0.44 0,0.33 -0.09,0.4 -0.3,0.4 z"
       transform="translate(-9.08,-8.83)"
       id="path486" />
    <polygon
       class="cls-1"
       points="66.83,129.24 66.41,129.24 66.41,127.13 66.16,127.13 65.52,127.62 65.61,127.79 66.08,127.57 66.08,129.24 65.6,129.24 65.6,129.52 66.83,129.52 "
       id="polygon488" />
    <path
       class="cls-1"
       d="m 76.85,138.4 c 0.5,0 0.8,-0.25 0.8,-0.69 a 0.71,0.71 0 0 0 -0.53,-0.72 0.64,0.64 0 0 0 0.44,-0.62 0.63,0.63 0 0 0 -0.71,-0.62 c -0.47,0 -0.72,0.25 -0.72,0.64 a 0.66,0.66 0 0 0 0.38,0.62 0.68,0.68 0 0 0 -0.48,0.67 c 0,0.42 0.28,0.71 0.82,0.71 z m 0.12,-1.16 a 0.47,0.47 0 0 1 0.34,0.5 c 0,0.25 -0.15,0.4 -0.45,0.4 -0.3,0 -0.49,-0.13 -0.49,-0.47 a 0.55,0.55 0 0 1 0.34,-0.54 z m -0.5,-0.86 a 0.38,0.38 0 1 1 0.76,0 0.49,0.49 0 0 1 -0.32,0.5 h -0.09 c -0.3,-0.13 -0.35,-0.24 -0.35,-0.46 z"
       transform="translate(-9.08,-8.83)"
       id="path490" />
    <path
       class="cls-1"
       d="m 78.89,138.39 c 0.54,0 0.84,-0.41 0.84,-1.24 0,-0.83 -0.32,-1.22 -0.85,-1.22 -0.53,0 -0.84,0.43 -0.84,1.24 0,0.81 0.31,1.22 0.85,1.22 z m 0,-0.26 c -0.36,0 -0.49,-0.3 -0.49,-1 0,-0.7 0.13,-0.95 0.49,-0.95 0.36,0 0.49,0.3 0.49,1 0,0.7 -0.12,1 -0.49,1 z"
       transform="translate(-9.08,-8.83)"
       id="path492" />
    <path
       class="cls-1"
       d="m 81.09,137 a 0.57,0.57 0 0 0 0.58,-0.62 0.58,0.58 0 1 0 -0.58,0.62 z m 0,-0.21 c -0.21,0 -0.31,-0.11 -0.31,-0.43 0,-0.32 0.1,-0.4 0.3,-0.4 0.2,0 0.31,0.11 0.31,0.44 0,0.33 -0.09,0.4 -0.3,0.4 z"
       transform="translate(-9.08,-8.83)"
       id="path494" />
    <path
       class="cls-1"
       d="m 76.12,75.34 a 0.85,0.85 0 0 0 0.64,-0.3 l 0.06,0.24 h 0.31 v -3.34 h -0.4 v 1.25 a 0.91,0.91 0 0 0 -0.61,-0.28 c -0.54,0 -0.79,0.36 -0.79,1.23 0,0.87 0.35,1.2 0.79,1.2 z M 76.19,75 c -0.31,0 -0.43,-0.14 -0.43,-0.89 0,-0.75 0.14,-0.86 0.47,-0.86 a 0.79,0.79 0 0 1 0.51,0.25 v 1.25 A 0.76,0.76 0 0 1 76.19,75 Z"
       transform="translate(-9.08,-8.83)"
       id="path496" />
    <path
       class="cls-1"
       d="m 78,75.28 h 1 c 0.59,0 1,-0.26 1,-0.89 a 0.73,0.73 0 0 0 -0.53,-0.8 0.58,0.58 0 0 0 0.39,-0.64 c 0,-0.5 -0.24,-0.85 -0.91,-0.85 H 78 Z m 0.42,-0.36 V 73.8 h 0.54 c 0.44,0 0.58,0.18 0.58,0.56 0,0.38 -0.16,0.56 -0.6,0.56 z m 0,-1.48 v -1 h 0.5 c 0.37,0 0.48,0.17 0.48,0.5 0,0.33 -0.08,0.49 -0.46,0.49 z"
       transform="translate(-9.08,-8.83)"
       id="path498" />
    <path
       class="cls-6"
       d="m 76.92,35 0.06,-0.26 a 2.13,2.13 0 0 0 0.52,0.08 c 0.43,0 0.63,-0.22 0.63,-0.6 0,-0.38 -0.21,-0.52 -0.58,-0.52 a 1.58,1.58 0 0 0 -0.47,0.07 l 0.11,-1.27 h 1.21 v 0.29 h -0.94 l -0.06,0.66 h 0.21 c 0.51,0 0.87,0.26 0.87,0.77 a 0.85,0.85 0 0 1 -1,0.9 A 2.11,2.11 0 0 1 76.92,35 Z"
       transform="translate(-9.08,-8.83)"
       id="path500" />
    <path
       class="cls-6"
       d="M 76.12,44.61 H 76.6 V 42.94 L 76.13,43.16 76,43 76.66,42.51 h 0.26 v 2.11 h 0.42 v 0.27 h -1.22 z"
       transform="translate(-9.08,-8.83)"
       id="path502" />
    <path
       class="cls-6"
       d="m 77.91,43.72 c 0,-0.8 0.32,-1.23 0.86,-1.23 0.54,0 0.86,0.42 0.86,1.22 0,0.8 -0.3,1.23 -0.85,1.23 -0.55,0 -0.87,-0.4 -0.87,-1.22 z m 1.35,0 c 0,-0.67 -0.12,-1 -0.49,-1 -0.37,0 -0.5,0.29 -0.5,0.95 0,0.66 0.13,1 0.5,1 0.37,0 0.49,-0.29 0.49,-0.95 z"
       transform="translate(-9.08,-8.83)"
       id="path504" />
    <path
       class="cls-6"
       d="m 76.12,54.36 h 0.48 v -1.67 l -0.47,0.22 -0.1,-0.17 0.66,-0.49 h 0.26 v 2.11 h 0.42 v 0.27 h -1.25 z"
       transform="translate(-9.08,-8.83)"
       id="path506" />
    <path
       class="cls-6"
       d="m 78,54.78 0.06,-0.26 a 2.13,2.13 0 0 0 0.52,0.08 c 0.43,0 0.63,-0.22 0.63,-0.6 0,-0.38 -0.21,-0.52 -0.58,-0.52 a 1.58,1.58 0 0 0 -0.47,0.07 l 0.11,-1.27 h 1.21 v 0.29 H 78.5 l -0.06,0.66 h 0.21 c 0.51,0 0.87,0.26 0.87,0.77 a 0.85,0.85 0 0 1 -1,0.9 A 2.1,2.1 0 0 1 78,54.78 Z"
       transform="translate(-9.08,-8.83)"
       id="path508" />
    <path
       class="cls-6"
       d="m 76,64.83 c 1,-0.82 1.09,-1 1.09,-1.41 0,-0.41 -0.14,-0.41 -0.4,-0.41 a 1,1 0 0 0 -0.57,0.18 L 76,63 a 1.26,1.26 0 0 1 0.72,-0.23 0.65,0.65 0 0 1 0.73,0.69 c 0,0.42 -0.23,0.76 -1.06,1.43 h 1.1 v 0.29 H 76 Z"
       transform="translate(-9.08,-8.83)"
       id="path510" />
    <path
       class="cls-6"
       d="m 77.91,64 c 0,-0.8 0.32,-1.23 0.86,-1.23 0.54,0 0.86,0.42 0.86,1.22 0,0.8 -0.3,1.23 -0.85,1.23 -0.55,0 -0.87,-0.43 -0.87,-1.22 z m 1.35,0 c 0,-0.67 -0.12,-1 -0.49,-1 -0.37,0 -0.5,0.29 -0.5,0.95 0,0.66 0.13,1 0.5,1 0.37,0 0.49,-0.32 0.49,-0.95 z"
       transform="translate(-9.08,-8.83)"
       id="path512" />
    <path
       class="cls-6"
       d="m 76.87,23.78 c 0,-0.8 0.32,-1.23 0.86,-1.23 0.54,0 0.86,0.42 0.86,1.22 0,0.8 -0.3,1.23 -0.85,1.23 -0.55,0 -0.87,-0.4 -0.87,-1.22 z m 1.35,0 c 0,-0.67 -0.12,-1 -0.49,-1 -0.37,0 -0.5,0.29 -0.5,0.95 0,0.66 0.13,1 0.5,1 0.37,0 0.5,-0.29 0.5,-0.95 z"
       transform="translate(-9.08,-8.83)"
       id="path514" />
  </g>
  <g
     id="U87_C"
     style="display:inline">
    <path
       class="cls-7"
       d="m 78.14,101.36 c -2.36,0 -4.78,-0.06 -7.24,-0.2 -7,-0.78 -12.71,-2.38 -18.1,-5.9 a 49.18,49.18 0 0 1 -5.2,-4.2 44.24,44.24 0 0 1 -7,-10.4 c -3.92,-7.79 -4.12,-20.74 -1,-29 2.73,-9.14 12.5,-20 21.6,-23.79 A 41.59,41.59 0 0 1 78,24.27"
       transform="translate(-9.08,-8.83)"
       id="path517"
       style="fill:none;stroke:#464646;stroke-opacity:1" />
    <path
       class="cls-8"
       d="m 78,110 a 13.64,13.64 0 0 0 3.39,-0.4 c 7.52,-2.73 8.32,-10.9 10.2,-17.3 a 4.06,4.06 0 0 1 1.7,-1.19 c 5.3,0.2 12.95,1 17.29,-1 5.52,-1.85 10.92,-7.85 12.2,-13.5 2.75,-11.92 -3.3,-22.33 -8,-30.89 -4.58,-6.93 -12.83,-15.6 -20,-18.1 A 63.42,63.42 0 0 0 88,25.21 42.68,42.68 0 0 0 77.76,24.1"
       transform="translate(-9.08,-8.83)"
       id="path519"
       style="stroke:#464646;stroke-opacity:1" />
    <path
       class="cls-9"
       d="M 77.77,77.16 A 18,18 0 0 1 64,87 C 61.73,87.32 59.53,86.85 57.3,86.71 50.4,85.53 42.61,78 40.58,71.77 c -4.85,-13 -0.32,-27 8.9,-35.79 6.83,-7 13.23,-9.3 21.9,-11.2 a 48,48 0 0 1 6.77,-0.47"
       transform="translate(-9.08,-8.83)"
       id="path521"
       style="stroke:#464646;stroke-opacity:1" />
    <path
       class="cls-10"
       d="m 78.11,99.16 c -2.26,0 -4.55,-0.06 -6.6,-0.22 a 43.19,43.19 0 0 1 -13.2,-3.6 35.78,35.78 0 0 1 -20.2,-27.49 38,38 0 0 1 7.8,-27.7 c 8.6,-10.55 17.18,-14.68 29.8,-15.9 h 2.06"
       transform="translate(-9.08,-8.83)"
       id="path523"
       style="stroke:#464646;stroke-opacity:1" />
    <path
       class="cls-11"
       d="m 78.51,74.71 c 0.07,0.43 0.58,0.72 0.79,1.51 m -1.37,14.69 c 2.09,0 2.16,-1 3,-2.81 0.65,-4.18 -0.58,-8.42 -1.58,-11.88 a 1.46,1.46 0 0 1 0.58,0.29 c 5,6.26 10.37,10.3 16.7,11.66 8,0.86 13,-2.38 17.14,-8.5 6.48,-9.86 4.32,-26.64 -1.95,-35.86 -5.33,-9.07 -15,-16.63 -24.55,-18.72 -2.16,-0.5 -4.32,-0.65 -6.62,-1 C 79.66,24 78.72,24 77.79,24"
       transform="translate(-9.08,-8.83)"
       id="path525"
       style="stroke:#464646;stroke-opacity:1" />
    <path
       class="cls-12"
       d="m 77.9,87 c 0.54,0.12 0.89,-0.23 1.39,-0.2 1.72,-1.14 1.82,-2.6 2.1,-4.3 0.12,-1.93 -0.58,-3.08 -0.9,-4.8 -0.53,-1.2 -1.48,-2.1 -1.9,-3.69 7.64,-2.2 15.92,-9.13 19.39,-16.5 3.42,-5.5 3.42,-15.43 0.4,-21 -3.85,-7.15 -10.53,-12.17 -19,-12.7 -0.51,0 -1,0 -1.53,0"
       transform="translate(-9.08,-8.83)"
       id="path527"
       style="stroke:#464646;stroke-opacity:1" />
    <path
       class="cls-13"
       d="m 78.26,85.37 c -3.82,0.1 -6.84,3 -11,3.2 -10.8,1.4 -19.35,-4.26 -24.5,-13.1 C 38.59,68.85 37.84,55.58 41.56,48.28 44.25,40.45 53.4,31 60.76,27.88 a 43.73,43.73 0 0 1 17.31,-3.71"
       transform="translate(-9.08,-8.83)"
       id="path529"
       style="stroke:#464646;stroke-opacity:1" />
    <path
       class="cls-14"
       d="m 77.79,100 a 9.13,9.13 0 0 0 2.14,-0.2 13.28,13.28 0 0 0 2.51,-1.7 c 3.17,-3.45 3.07,-8.78 2.79,-13.9 a 2.73,2.73 0 0 1 0.5,-0.7 c 4.87,1.27 10.37,3.7 16.59,2.6 5.62,-0.18 11.51,-6.15 13.5,-11.09 3.9,-12.4 0,-25.92 -6.39,-34.89 A 38.89,38.89 0 0 0 91.53,26.43 39.29,39.29 0 0 0 78.11,24.11"
       transform="translate(-9.08,-8.83)"
       id="path531"
       style="stroke:#464646;stroke-opacity:1" />
    <line
       class="cls-7"
       x1="15.21"
       y1="123.9"
       x2="40.52"
       y2="123.9"
       id="line533"
       style="stroke:#464646;stroke-opacity:1" />
    <line
       class="cls-14"
       x1="96.919998"
       y1="128.22"
       x2="122.14"
       y2="128.22"
       id="line535"
       style="stroke:#464646;stroke-opacity:1" />
    <line
       class="cls-10"
       x1="15.21"
       y1="128.37"
       x2="40.439999"
       y2="128.37"
       id="line537"
       style="stroke:#464646;stroke-opacity:1" />
    <line
       class="cls-11"
       x1="96.919998"
       y1="123.76"
       x2="122.14"
       y2="123.76"
       id="line539"
       style="stroke:#464646;stroke-opacity:1" />
    <line
       class="cls-8"
       x1="96.919998"
       y1="132.53999"
       x2="122.14"
       y2="132.53999"
       id="line541"
       style="stroke:#464646;stroke-opacity:1" />
    <line
       class="cls-9"
       x1="15.21"
       y1="137.37"
       x2="40.439999"
       y2="137.37"
       id="line543"
       style="stroke:#464646;stroke-opacity:1" />
    <line
       class="cls-13"
       x1="15.21"
       y1="132.69"
       x2="40.439999"
       y2="132.69"
       id="line545"
       style="stroke:#464646;stroke-opacity:1" />
    <line
       class="cls-12"
       x1="96.919998"
       y1="137.22"
       x2="122.14"
       y2="137.22"
       id="line547"
       style="fill:none;stroke:#464646;stroke-opacity:1" />
  </g>
</svg>
