<?xml version="1.0" encoding="UTF-8" standalone="no"?>
<svg
   viewBox="0 0 162.34 46.21"
   version="1.1"
   id="svg384"
   sodipodi:docname="Frequency-diagram-U-87-Ai-cardioid.svg"
   inkscape:version="1.2.2 (732a01da63, 2022-12-09)"
   xmlns:inkscape="http://www.inkscape.org/namespaces/inkscape"
   xmlns:sodipodi="http://sodipodi.sourceforge.net/DTD/sodipodi-0.dtd"
   xmlns="http://www.w3.org/2000/svg"
   xmlns:svg="http://www.w3.org/2000/svg">
  <sodipodi:namedview
     id="namedview386"
     pagecolor="#ffffff"
     bordercolor="#000000"
     borderopacity="0.25"
     inkscape:showpageshadow="2"
     inkscape:pageopacity="0.0"
     inkscape:pagecheckerboard="0"
     inkscape:deskcolor="#d1d1d1"
     showgrid="false"
     inkscape:zoom="9.4862636"
     inkscape:cx="81.222706"
     inkscape:cy="23.13872"
     inkscape:window-width="1920"
     inkscape:window-height="991"
     inkscape:window-x="-9"
     inkscape:window-y="-9"
     inkscape:window-maximized="1"
     inkscape:current-layer="svg384" />
  <defs
     id="defs197">
    <style
       id="style195">.cls-1,.cls-10,.cls-12,.cls-2,.cls-3,.cls-4,.cls-5,.cls-6,.cls-7,.cls-9{fill:none;}.cls-1,.cls-2,.cls-3,.cls-4,.cls-5,.cls-6,.cls-7{stroke:#757677;stroke-miterlimit:2.61;}.cls-1{stroke-width:0.42px;}.cls-2{stroke-width:0.14px;}.cls-3{stroke-width:0.42px;}.cls-4{stroke-width:0.42px;}.cls-5{stroke-width:0.42px;}.cls-6{stroke-width:0.13px;}.cls-7{stroke-width:0.13px;}.cls-8{fill:#757677;}.cls-11,.cls-8{fill-rule:evenodd;}.cls-10,.cls-9{stroke:#fff;stroke-linecap:round;}.cls-10,.cls-11,.cls-12,.cls-9{stroke-linejoin:round;}.cls-9{stroke-width:0.58px;}.cls-10{stroke-width:0.58px;}.cls-11{fill:#fff;stroke-width:0.3px;}.cls-11,.cls-12{stroke:#1a1a18;stroke-linecap:square;}.cls-12{stroke-width:0.29px;}</style>
  </defs>
  <title
     id="title199">U87_C</title>
  <g
     id="FQ-Raster">
    <polygon
       class="cls-1"
       points="5.83 3.06 158.65 3.06 158.65 39.83 5.83 39.83 5.83 3.06 5.83 3.06"
       id="polygon201" />
    <line
       class="cls-2"
       x1="5.79"
       y1="35.95"
       x2="158.64"
       y2="35.95"
       id="line203" />
    <line
       class="cls-3"
       x1="5.79"
       y1="9.28"
       x2="158.64"
       y2="9.28"
       id="line205" />
    <line
       class="cls-3"
       x1="5.79"
       y1="19.52"
       x2="158.64"
       y2="19.52"
       id="line207" />
    <line
       class="cls-3"
       x1="5.79"
       y1="29.79"
       x2="158.64"
       y2="29.79"
       id="line209" />
    <line
       class="cls-2"
       x1="5.79"
       y1="5.16"
       x2="158.64"
       y2="5.16"
       id="line211" />
    <line
       class="cls-2"
       x1="5.79"
       y1="7.21"
       x2="158.64"
       y2="7.21"
       id="line213" />
    <line
       class="cls-2"
       x1="5.79"
       y1="11.33"
       x2="158.64"
       y2="11.33"
       id="line215" />
    <line
       class="cls-2"
       x1="5.79"
       y1="13.38"
       x2="158.64"
       y2="13.38"
       id="line217" />
    <line
       class="cls-2"
       x1="5.79"
       y1="15.43"
       x2="158.64"
       y2="15.43"
       id="line219" />
    <line
       class="cls-2"
       x1="5.79"
       y1="17.47"
       x2="158.64"
       y2="17.47"
       id="line221" />
    <line
       class="cls-2"
       x1="5.79"
       y1="21.6"
       x2="158.64"
       y2="21.6"
       id="line223" />
    <line
       class="cls-2"
       x1="5.79"
       y1="23.64"
       x2="158.64"
       y2="23.64"
       id="line225" />
    <line
       class="cls-2"
       x1="5.79"
       y1="25.69"
       x2="158.64"
       y2="25.69"
       id="line227" />
    <line
       class="cls-2"
       x1="5.79"
       y1="27.74"
       x2="158.64"
       y2="27.74"
       id="line229" />
    <line
       class="cls-2"
       x1="5.79"
       y1="31.83"
       x2="158.64"
       y2="31.83"
       id="line231" />
    <line
       class="cls-2"
       x1="5.79"
       y1="33.91"
       x2="158.64"
       y2="33.91"
       id="line233" />
    <line
       class="cls-2"
       x1="5.79"
       y1="38"
       x2="158.64"
       y2="38"
       id="line235" />
    <line
       class="cls-4"
       x1="41.46"
       y1="39.89"
       x2="41.46"
       y2="3.06"
       id="line237" />
    <line
       class="cls-4"
       x1="26.24"
       y1="39.89"
       x2="26.24"
       y2="3.06"
       id="line239" />
    <line
       class="cls-4"
       x1="56.78"
       y1="39.89"
       x2="56.78"
       y2="3.07"
       id="line241" />
    <line
       class="cls-4"
       x1="92.58"
       y1="39.81"
       x2="92.58"
       y2="2.99"
       id="line243" />
    <line
       class="cls-4"
       x1="77.36"
       y1="39.81"
       x2="77.36"
       y2="2.99"
       id="line245" />
    <line
       class="cls-5"
       x1="107.61"
       y1="39.88"
       x2="107.61"
       y2="3.07"
       id="line247" />
    <line
       class="cls-4"
       x1="143.55"
       y1="39.81"
       x2="143.55"
       y2="2.99"
       id="line249" />
    <line
       class="cls-4"
       x1="128.34"
       y1="39.81"
       x2="128.34"
       y2="2.99"
       id="line251" />
    <line
       class="cls-6"
       x1="50.46"
       y1="39.83"
       x2="50.46"
       y2="3.08"
       id="line253" />
    <line
       class="cls-7"
       x1="39.17"
       y1="39.89"
       x2="39.17"
       y2="3.06"
       id="line255" />
    <line
       class="cls-7"
       x1="36.91"
       y1="39.89"
       x2="36.91"
       y2="3.06"
       id="line257" />
    <line
       class="cls-7"
       x1="33.89"
       y1="39.89"
       x2="33.89"
       y2="3.06"
       id="line259" />
    <line
       class="cls-7"
       x1="30.46"
       y1="39.89"
       x2="30.46"
       y2="3.06"
       id="line261" />
    <line
       class="cls-7"
       x1="20.98"
       y1="39.89"
       x2="20.98"
       y2="3.06"
       id="line263" />
    <line
       class="cls-7"
       x1="14.35"
       y1="39.89"
       x2="14.35"
       y2="3.06"
       id="line265" />
    <line
       class="cls-6"
       x1="101.29"
       y1="39.83"
       x2="101.29"
       y2="3.08"
       id="line267" />
    <line
       class="cls-7"
       x1="90.29"
       y1="39.81"
       x2="90.29"
       y2="2.99"
       id="line269" />
    <line
       class="cls-7"
       x1="88.04"
       y1="39.81"
       x2="88.04"
       y2="2.99"
       id="line271" />
    <line
       class="cls-7"
       x1="85.01"
       y1="39.81"
       x2="85.01"
       y2="2.99"
       id="line273" />
    <line
       class="cls-7"
       x1="81.58"
       y1="39.81"
       x2="81.58"
       y2="2.99"
       id="line275" />
    <line
       class="cls-7"
       x1="72.1"
       y1="39.81"
       x2="72.1"
       y2="2.99"
       id="line277" />
    <line
       class="cls-7"
       x1="65.47"
       y1="39.81"
       x2="65.47"
       y2="2.99"
       id="line279" />
    <line
       class="cls-6"
       x1="152.48"
       y1="39.83"
       x2="152.48"
       y2="3.08"
       id="line281" />
    <line
       class="cls-7"
       x1="141.2"
       y1="39.81"
       x2="141.2"
       y2="2.99"
       id="line283" />
    <line
       class="cls-7"
       x1="138.94"
       y1="39.81"
       x2="138.94"
       y2="2.99"
       id="line285" />
    <line
       class="cls-7"
       x1="135.92"
       y1="39.81"
       x2="135.92"
       y2="2.99"
       id="line287" />
    <line
       class="cls-7"
       x1="132.55"
       y1="39.81"
       x2="132.55"
       y2="2.99"
       id="line289" />
    <line
       class="cls-7"
       x1="123"
       y1="39.81"
       x2="123"
       y2="2.99"
       id="line291" />
    <line
       class="cls-7"
       x1="116.45"
       y1="39.81"
       x2="116.45"
       y2="2.99"
       id="line293" />
  </g>
  <g
     id="FQ-Bemaßung">
    <polygon
       class="cls-8"
       points="0.55 9.99 0.78 9.99 0.78 9.49 1.23 9.49 1.23 9.28 0.78 9.28 0.78 8.79 0.55 8.79 0.55 9.28 0.1 9.28 0.1 9.49 0.55 9.49 0.55 9.99 0.55 9.99"
       id="polygon296" />
    <polygon
       class="cls-8"
       points="1.78 10.21 2.7 10.21 2.7 10 2.39 10 2.39 8.41 2.2 8.41 1.71 8.77 1.78 8.91 2.13 8.74 2.13 10 1.78 10 1.78 10.21 1.78 10.21"
       id="polygon298" />
    <path
       class="cls-8"
       d="M7.33,15.82c.41,0,.63-.31.63-.93S7.73,14,7.33,14s-.64.32-.64.93.23.92.64.92Zm0-.2c-.27,0-.37-.23-.37-.73s.09-.72.37-.72.37.23.37.73-.09.72-.37.72Z"
       transform="translate(-3.59 -5.58)"
       id="path300" />
    <path
       class="cls-8"
       d="M7.33,26.1c.41,0,.63-.31.63-.93s-.24-.92-.64-.92-.64.32-.64.93.23.92.64.92Zm0-.2c-.27,0-.37-.23-.37-.73s.09-.72.37-.72.37.23.37.73-.09.71-.37.71Z"
       transform="translate(-3.59 -5.58)"
       id="path302" />
    <polygon
       class="cls-8"
       points="0 30 1.28 30 1.28 29.79 0 29.79 0 30 0 30"
       id="polygon304" />
    <polygon
       class="cls-8"
       points="1.78 30.67 2.7 30.67 2.7 30.46 2.39 30.46 2.39 28.87 2.2 28.87 1.71 29.24 1.78 29.37 2.13 29.2 2.13 30.46 1.78 30.46 1.78 30.67 1.78 30.67"
       id="polygon306" />
    <path
       class="cls-8"
       d="M7.33,36.29c.41,0,.63-.31.63-.93s-.24-.92-.64-.92-.64.32-.64.93.23.92.64.92Zm0-.2c-.27,0-.37-.23-.37-.73s.09-.72.37-.72.37.23.37.73-.09.72-.37.72Z"
       transform="translate(-3.59 -5.58)"
       id="path308" />
    <polygon
       class="cls-8"
       points="0 40.13 1.28 40.13 1.28 39.93 0 39.93 0 40.13 0 40.13"
       id="polygon310" />
    <path
       class="cls-8"
       d="M5.25,46.39h1.1v-.22H5.54c.62-.51.79-.76.79-1.08a.49.49,0,0,0-.54-.52.92.92,0,0,0-.54.17l.1.18a.75.75,0,0,1,.42-.13c.2,0,.3.1.3.31s-.09.44-.81,1.06v.23Z"
       transform="translate(-3.59 -5.58)"
       id="path312" />
    <path
       class="cls-8"
       d="M7.33,46.42c.41,0,.63-.31.63-.93s-.24-.92-.64-.92-.64.32-.64.93.23.92.64.92Zm0-.2c-.27,0-.37-.23-.37-.73s.09-.71.37-.71.37.23.37.73-.09.71-.37.71Z"
       transform="translate(-3.59 -5.58)"
       id="path314" />
    <path
       class="cls-8"
       d="M5.65,7.64A.52.52,0,0,0,6,7.46l0,.14h.19v-2H6v.76a.54.54,0,0,0-.37-.17c-.33,0-.48.22-.48.75s.21.73.48.73Zm0-.21c-.19,0-.26-.09-.26-.54s.09-.52.29-.52A.48.48,0,0,1,6,6.53v.76a.46.46,0,0,1-.33.15Z"
       transform="translate(-3.59 -5.58)"
       id="path316" />
    <path
       class="cls-8"
       d="M6.76,7.61h.6c.36,0,.61-.16.61-.54a.45.45,0,0,0-.32-.48.35.35,0,0,0,.23-.39c0-.3-.15-.51-.55-.51H6.76V7.61ZM7,7.39V6.71h.32c.27,0,.35.11.35.34s-.1.34-.36.34ZM7,6.5V5.9h.31c.23,0,.29.1.29.3s-.05.3-.28.3Z"
       transform="translate(-3.59 -5.58)"
       id="path318" />
    <path
       class="cls-8"
       d="M7.86,51.61H9v-.22H8.15c.62-.51.79-.76.79-1.08a.49.49,0,0,0-.54-.52.93.93,0,0,0-.54.17l.09.18A.74.74,0,0,1,8.38,50c.2,0,.3.1.3.31s-.09.44-.81,1.06v.23Z"
       transform="translate(-3.59 -5.58)"
       id="path320" />
    <path
       class="cls-8"
       d="M9.95,51.64c.41,0,.63-.31.63-.93s-.24-.92-.64-.92-.64.32-.64.93.23.92.64.92Zm0-.2c-.27,0-.37-.23-.37-.73s.09-.71.37-.71.37.23.37.73-.09.72-.37.72Z"
       transform="translate(-3.59 -5.58)"
       id="path322" />
    <path
       class="cls-8"
       d="M28.7,51.8a.64.64,0,0,0,.71-.68.57.57,0,0,0-.64-.58l-.15,0,0-.5h.69v-.22h-.9l-.08,1a1.16,1.16,0,0,1,.35-.05c.28,0,.43.1.43.39a.41.41,0,0,1-.47.45,1.53,1.53,0,0,1-.38-.06l0,.2a1.54,1.54,0,0,0,.45.08Z"
       transform="translate(-3.59 -5.58)"
       id="path324" />
    <path
       class="cls-8"
       d="M30.4,51.64c.41,0,.63-.31.63-.93s-.24-.92-.64-.92-.63.32-.63.93.23.92.64.92Zm0-.2c-.27,0-.37-.22-.37-.73s.09-.71.37-.71.37.23.37.73-.09.71-.37.71Z"
       transform="translate(-3.59 -5.58)"
       id="path326" />
    <polygon
       class="cls-8"
       points="39.5 45.96 40.42 45.96 40.42 45.75 40.11 45.75 40.11 44.16 39.92 44.16 39.44 44.53 39.51 44.66 39.86 44.49 39.86 45.75 39.5 45.75 39.5 45.96 39.5 45.96"
       id="polygon328" />
    <path
       class="cls-8"
       d="M44.81,51.57c.41,0,.63-.31.63-.93s-.24-.92-.64-.92-.63.32-.63.93.23.92.64.92Zm0-.2c-.27,0-.37-.23-.37-.73s.09-.72.37-.72.37.23.37.73-.09.71-.37.71Z"
       transform="translate(-3.59 -5.58)"
       id="path330" />
    <path
       class="cls-8"
       d="M46.35,51.57c.41,0,.63-.31.63-.93s-.24-.92-.64-.92-.63.32-.63.93.23.92.64.92Zm0-.2c-.27,0-.37-.23-.37-.73s.1-.72.37-.72.37.23.37.73-.09.71-.37.71Z"
       transform="translate(-3.59 -5.58)"
       id="path332" />
    <path
       class="cls-8"
       d="M58.22,51.54h1.11v-.21h-.82c.62-.51.79-.76.79-1.08a.49.49,0,0,0-.54-.52.92.92,0,0,0-.54.17l.1.18a.76.76,0,0,1,.42-.13c.2,0,.3.1.3.31s-.09.44-.81,1.06v.23Z"
       transform="translate(-3.59 -5.58)"
       id="path334" />
    <path
       class="cls-8"
       d="M60.3,51.57c.41,0,.63-.31.63-.93s-.24-.92-.64-.92-.63.32-.63.93.23.92.64.92Zm0-.2c-.27,0-.37-.23-.37-.73s.1-.72.37-.72.37.23.37.73-.09.71-.37.71Z"
       transform="translate(-3.59 -5.58)"
       id="path336" />
    <path
       class="cls-8"
       d="M61.84,51.57c.41,0,.63-.31.63-.93s-.24-.92-.64-.92-.63.32-.63.93.23.92.64.92Zm0-.2c-.27,0-.37-.23-.37-.73s.09-.72.37-.72.37.23.37.73-.09.71-.37.71Z"
       transform="translate(-3.59 -5.58)"
       id="path338" />
    <path
       class="cls-8"
       d="M79.22,51.72a.64.64,0,0,0,.71-.68.57.57,0,0,0-.65-.58l-.15,0,0-.5h.69v-.22H79l-.08,1a1.17,1.17,0,0,1,.35-.05c.28,0,.43.1.43.39a.41.41,0,0,1-.47.45,1.54,1.54,0,0,1-.38-.06l0,.2a1.47,1.47,0,0,0,.45.08Z"
       transform="translate(-3.59 -5.58)"
       id="path340" />
    <path
       class="cls-8"
       d="M80.92,51.57c.41,0,.63-.31.63-.93s-.24-.92-.64-.92-.63.32-.63.93.23.92.64.92Zm0-.2c-.27,0-.37-.23-.37-.73s.09-.72.37-.72.37.23.37.73-.09.71-.37.71Z"
       transform="translate(-3.59 -5.58)"
       id="path342" />
    <path
       class="cls-8"
       d="M82.46,51.57c.41,0,.63-.31.63-.93s-.24-.92-.64-.92-.63.32-.63.93.23.92.64.92Zm0-.2c-.27,0-.37-.23-.37-.73s.1-.72.37-.72.37.23.37.73-.09.71-.37.71Z"
       transform="translate(-3.59 -5.58)"
       id="path344" />
    <polygon
       class="cls-8"
       points="91.43 46 92.35 46 92.35 45.79 92.03 45.79 92.03 44.2 91.85 44.2 91.36 44.56 91.43 44.7 91.78 44.53 91.78 45.79 91.43 45.79 91.43 46 91.43 46"
       id="polygon346" />
    <path
       class="cls-8"
       d="M96.46,51.58h.24v-2h-.24v2Zm.79,0h.28l-.53-.8.46-.6h-.27l-.45.61.51.8Z"
       transform="translate(-3.59 -5.58)"
       id="path348" />
    <path
       class="cls-8"
       d="M109.87,51.68H111v-.22h-.82c.62-.51.79-.76.79-1.08a.49.49,0,0,0-.54-.52.94.94,0,0,0-.54.17l.1.18a.76.76,0,0,1,.42-.13c.2,0,.3.1.3.31s-.09.44-.81,1.06v.23Z"
       transform="translate(-3.59 -5.58)"
       id="path350" />
    <path
       class="cls-8"
       d="M111.42,51.68h.24v-2h-.24v2Zm.79,0h.28l-.53-.81.46-.6h-.27l-.45.6.52.8Z"
       transform="translate(-3.59 -5.58)"
       id="path352" />
    <path
       class="cls-8"
       d="M130.91,51.72a.64.64,0,0,0,.71-.68.57.57,0,0,0-.64-.58l-.15,0,0-.5h.7v-.22h-.9l-.08,1a1.17,1.17,0,0,1,.35-.05c.28,0,.43.1.43.39a.41.41,0,0,1-.47.45,1.55,1.55,0,0,1-.38-.06l0,.2a1.48,1.48,0,0,0,.45.08Z"
       transform="translate(-3.59 -5.58)"
       id="path354" />
    <path
       class="cls-8"
       d="M132.08,51.54h.24v-2h-.24v2Zm.79,0h.28l-.53-.81.46-.6h-.27l-.45.61.52.8Z"
       transform="translate(-3.59 -5.58)"
       id="path356" />
    <polygon
       class="cls-8"
       points="141.45 45.96 142.38 45.96 142.38 45.75 142.06 45.75 142.06 44.16 141.87 44.16 141.39 44.53 141.46 44.66 141.81 44.49 141.81 45.75 141.45 45.75 141.45 45.96 141.45 45.96"
       id="polygon358" />
    <path
       class="cls-8"
       d="M147,51.57c.41,0,.63-.31.63-.93s-.24-.92-.64-.92-.64.32-.64.93.23.92.64.92Zm0-.2c-.27,0-.37-.23-.37-.73s.1-.72.37-.72.37.23.37.73-.09.71-.37.71Z"
       transform="translate(-3.59 -5.58)"
       id="path360" />
    <path
       class="cls-8"
       d="M148,51.54h.24v-2H148v2Zm.79,0h.28l-.53-.81.46-.6h-.27l-.45.61.51.8Z"
       transform="translate(-3.59 -5.58)"
       id="path362" />
    <path
       class="cls-8"
       d="M158.9,51.54H160v-.21h-.82c.62-.51.79-.76.79-1.08a.49.49,0,0,0-.54-.52.92.92,0,0,0-.54.17l.09.18a.76.76,0,0,1,.42-.13c.2,0,.3.1.3.31s-.09.44-.81,1.06v.23Z"
       transform="translate(-3.59 -5.58)"
       id="path364" />
    <path
       class="cls-8"
       d="M161,51.57c.41,0,.63-.31.63-.93s-.24-.92-.64-.92-.63.32-.63.93.23.92.64.92Zm0-.2c-.28,0-.37-.23-.37-.73s.09-.72.37-.72.37.23.37.73-.09.71-.37.71Z"
       transform="translate(-3.59 -5.58)"
       id="path366" />
    <path
       class="cls-8"
       d="M162,51.54h.24v-2H162v2Zm.79,0h.28l-.53-.81.46-.6h-.27l-.45.61.52.8Z"
       transform="translate(-3.59 -5.58)"
       id="path368" />
    <polygon
       class="cls-8"
       points="159.79 45.96 160.04 45.96 160.04 45.05 160.74 45.05 160.74 45.96 161 45.96 161 44.03 160.74 44.03 160.74 44.82 160.04 44.82 160.04 44.03 159.79 44.03 159.79 45.96 159.79 45.96"
       id="polygon370" />
    <polygon
       class="cls-8"
       points="161.41 45.96 162.34 45.96 162.34 45.76 161.66 45.76 162.31 44.77 162.31 44.55 161.47 44.55 161.47 44.75 162.06 44.75 161.41 45.74 161.41 45.96 161.41 45.96"
       id="polygon372" />
  </g>
  <g
     id="U87_C"
     style="display:inline">
    <path
       class="cls-9"
       d="m 96,25.15 c -43.2,7 -48.67,9.59 -67.39,20.2"
       transform="translate(-3.59,-5.58)"
       id="path375"
       style="stroke:#464646;stroke-opacity:1" />
    <path
       class="cls-10"
       d="M 9.61,33.15 C 24.43,28.39 31.54,25.43 39,25 l 87.54,0.08 c 12.47,0.25 11.57,-2.55 18.29,-2.46 6.72,0.09 10.47,4.46 17.27,12.38"
       transform="translate(-3.59,-5.58)"
       id="path377"
       style="stroke:#464646;stroke-opacity:1" />
    <polygon
       class="cls-11"
       points="62.63,29.05 71.92,29.05 71.92,34.01 62.63,34.01 "
       id="polygon379" />
    <polyline
       class="cls-12"
       points="64.07 32.91 65.58 30.39 70.7 30.39"
       id="polyline381" />
  </g>
</svg>
