<?xml version="1.0" encoding="UTF-8" standalone="no"?>
<!DOCTYPE svg PUBLIC "-//W3C//DTD SVG 20010904//EN" "http://www.w3.org/TR/2001/REC-SVG-20010904/DTD/svg10.dtd">
<svg version="1.0" xmlns="http://www.w3.org/2000/svg" width="1280.000000pt" height="925.000000pt" viewBox="0 0 1280.000000 925.000000" preserveAspectRatio="xMidYMid meet">
<g transform="translate(0.000000,925.000000) scale(0.100000,-0.100000)" fill="#000000" stroke="none">
<path d="M12160 9229 c-62 -28 -80 -47 -80 -85 0 -34 57 -116 101 -147 12 -9 19 -22 17 -29 -5 -13 -204 -55 -214 -45 -3 3 2 29 10 58 22 74 21 151 -3 173 -42 38 -143 28 -201 -20 -16 -14 -30 -32 -30 -40 0 -28 32 -79 83 -131 31 -32 47 -56 42 -61 -17 -14 -248 -63 -257 -54 -5 5 -1 23 8 42 10 18 19 66 22 106 4 64 2 74 -18 94 -20 20 -30 22 -85 18 -68 -6 -117 -29 -135 -64 -17 -31 17 -99 76 -154 25 -23 44 -49 42 -57 -3 -17 -147 -62 -200 -63 l-26 0 14 53 c18 68 18 137 -1 163 -30 44 -148 36 -206 -14 -26 -21 -30 -30 -25 -55 7 -35 66 -118 104 -146 18 -13 24 -23 17 -29 -11 -11 -190 -62 -217 -62 -19 0 -25 34 -9 44 14 9 34 133 27 170 -4 19 -14 40 -23 47 -25 22 -121 16 -170 -9 -75 -39 -68 -95 24 -189 72 -74 70 -87 -14 -112 -139 -41 -164 -45 -174 -30 -5 8 -3 22 5 34 20 31 39 132 32 171 -9 44 -39 64 -98 64 -83 0 -148 -40 -148 -90 0 -30 38 -87 94 -139 21 -20 36 -45 36 -58 0 -23 -5 -25 -104 -49 -48 -11 -112 -52 -154 -98 -56 -61 -74 -130 -53 -204 9 -28 7 -36 -12 -50 -11 -9 -37 -34 -57 -54 -19 -20 -215 -154 -435 -297 -482 -313 -389 -253 -805 -526 -190 -125 -356 -233 -370 -239 -14 -6 -29 -16 -35 -23 -5 -6 -156 -107 -335 -224 -179 -117 -426 -279 -550 -360 -124 -81 -283 -185 -355 -232 -71 -47 -230 -151 -353 -231 -122 -80 -229 -146 -237 -146 -8 0 -15 -5 -15 -10 0 -6 -30 -30 -67 -53 -38 -24 -162 -106 -278 -182 -115 -77 -246 -162 -291 -189 -44 -28 -159 -103 -255 -166 -96 -64 -188 -125 -206 -135 -17 -11 -64 -42 -104 -69 l-74 -49 -75 6 c-91 6 -215 32 -285 58 -122 46 -203 131 -226 239 -15 69 -6 257 15 323 42 133 80 178 373 457 84 80 118 120 141 166 81 162 57 312 -68 428 -88 81 -146 101 -290 100 -197 -2 -414 -68 -613 -188 -259 -155 -438 -333 -830 -821 -242 -303 -364 -448 -470 -561 -134 -144 -398 -229 -852 -274 -590 -59 -1047 -164 -1436 -332 -203 -87 -271 -130 -384 -243 -197 -197 -335 -464 -394 -762 -47 -244 -49 -305 -17 -520 45 -302 139 -540 379 -968 513 -914 1056 -1597 1516 -1905 138 -93 284 -145 494 -176 215 -32 226 -31 472 18 395 79 789 376 1174 887 93 123 238 341 299 448 137 242 377 458 657 588 173 81 332 132 724 230 423 107 557 163 694 294 123 117 167 228 167 418 0 128 -16 217 -46 252 -35 42 -131 89 -208 101 -88 14 -164 5 -305 -36 -236 -69 -378 -68 -526 5 -133 66 -221 176 -272 340 -19 61 -24 90 -17 107 6 15 121 102 309 235 165 117 407 288 538 381 130 92 240 168 244 168 4 0 18 11 32 24 19 17 662 474 868 616 118 82 545 384 568 403 95 75 1226 867 1238 867 8 0 17 6 20 14 5 14 291 221 339 247 13 7 25 15 28 19 3 4 86 64 185 133 99 70 193 136 209 148 16 13 110 80 210 150 99 70 192 136 206 146 201 147 388 273 407 273 32 0 73 28 84 57 8 21 14 23 76 23 94 0 185 -15 327 -52 184 -47 178 -48 271 13 102 67 290 255 466 464 73 88 169 196 212 240 l78 80 22 -29 c71 -95 126 -120 267 -120 95 -1 111 2 165 27 103 48 155 111 189 229 21 74 20 124 -5 243 -33 158 -93 254 -184 296 -46 21 -170 25 -244 8 -64 -14 -76 -7 -55 33 18 36 30 142 20 182 -7 28 -52 56 -88 55 -13 0 -43 -9 -68 -20z"/>
</g>
</svg>