<?xml version="1.0" encoding="UTF-8" standalone="no"?>
<!DOCTYPE svg PUBLIC "-//W3C//DTD SVG 20010904//EN" "http://www.w3.org/TR/2001/REC-SVG-20010904/DTD/svg10.dtd">
<svg version="1.0" xmlns="http://www.w3.org/2000/svg" width="1280.000000pt" height="1118.000000pt" viewBox="0 0 1280.000000 1118.000000" preserveAspectRatio="xMidYMid meet">
<g transform="translate(0.000000,1118.000000) scale(0.100000,-0.100000)" fill="#000000" stroke="none">
<path d="M5626 11054 c-44 -70 -93 -146 -110 -168 -17 -23 -374 -574 -793 -1226 -419 -652 -919 -1428 -1110 -1725 l-349 -540 -79 -13 c-44 -7 -142 -26 -217 -42 -170 -37 -281 -40 -364 -9 -31 12 -59 17 -64 13 -4 -5 -32 -41 -62 -81 -55 -71 -56 -73 -67 -170 -20 -163 -67 -379 -121 -553 -29 -91 -56 -170 -61 -176 -6 -7 -96 -13 -256 -18 -524 -14 -904 -26 -1061 -32 l-163 -6 3 -157 c3 -140 6 -165 32 -246 26 -80 29 -105 30 -225 1 -128 0 -138 -27 -195 -32 -69 -63 -104 -127 -145 -67 -42 -138 -58 -310 -70 -249 -17 -284 -29 -325 -110 -24 -48 -25 -56 -25 -243 l0 -194 40 -12 39 -12 3 -86 3 -87 235 -77 c129 -43 458 -151 730 -240 272 -89 500 -167 506 -173 7 -7 20 -139 33 -346 12 -184 35 -531 52 -770 39 -574 42 -675 24 -690 -9 -8 -15 -30 -15 -56 0 -38 -4 -45 -29 -58 -32 -17 -42 -35 -34 -64 3 -12 -3 -28 -14 -39 -38 -38 -63 -82 -78 -139 -18 -68 -19 -105 -4 -156 21 -77 53 -95 204 -113 22 -3 65 -9 95 -14 30 -5 78 -10 106 -10 63 -1 93 23 131 105 21 46 26 72 27 157 3 112 20 183 48 201 10 6 18 21 18 33 0 17 -8 22 -42 28 -65 10 -78 15 -78 30 0 10 19 16 59 21 l60 6 5 62 c3 33 24 381 46 771 23 391 44 735 48 765 7 47 10 55 27 52 11 -2 183 -57 382 -123 l361 -120 6 -132 c7 -170 24 -1758 18 -1774 -2 -7 -20 -15 -40 -18 -54 -9 -88 -24 -117 -51 -28 -26 -33 -65 -10 -84 22 -19 22 -215 -1 -224 -9 -3 -66 -6 -128 -6 -85 0 -117 -4 -134 -16 -12 -8 -20 -19 -17 -24 10 -15 79 -20 175 -12 102 9 120 7 120 -13 0 -16 -22 -25 -61 -25 -30 0 -74 -34 -64 -49 10 -17 83 -22 145 -11 48 9 69 9 91 -1 34 -14 36 -22 9 -49 -26 -26 -25 -36 3 -44 33 -9 123 -7 149 3 19 7 51 -3 158 -50 77 -33 150 -59 170 -59 34 0 265 26 307 35 40 9 53 56 53 190 0 97 3 125 15 135 20 16 19 64 -1 95 -13 19 -15 48 -12 152 l3 128 348 760 c191 418 355 771 363 783 14 22 17 22 33 8 10 -9 23 -16 30 -16 22 0 30 -45 40 -220 6 -96 35 -557 65 -1025 70 -1086 69 -1073 45 -1088 -15 -9 -19 -24 -19 -72 0 -59 -1 -60 -38 -80 -34 -18 -37 -24 -42 -71 -4 -41 -12 -58 -39 -85 -46 -46 -78 -119 -92 -211 -11 -65 -10 -86 4 -145 25 -101 55 -126 178 -143 51 -8 105 -15 119 -16 26 -3 115 -17 212 -34 53 -10 60 -9 98 15 48 30 94 99 115 169 9 30 15 92 15 156 0 134 24 230 69 272 50 47 38 68 -44 82 -82 14 -95 18 -95 31 0 17 16 22 98 30 54 6 62 10 63 28 0 12 4 56 8 97 5 47 4 81 -3 92 -7 11 11 341 58 1089 37 590 69 1076 72 1081 3 4 14 8 24 8 14 0 29 19 52 67 83 172 266 279 563 332 l100 17 5 71 c3 39 8 75 13 79 4 4 202 26 440 49 l432 40 3 100 c2 91 4 102 26 120 13 11 31 36 40 57 27 57 76 84 226 122 74 18 152 41 173 49 l37 16 0 145 c0 174 -9 162 160 200 208 45 373 67 825 106 127 10 550 49 940 85 391 36 878 81 1084 99 259 24 381 32 398 25 77 -29 154 -112 188 -201 10 -27 24 -48 31 -48 7 0 16 -4 19 -10 5 -9 26 -348 80 -1330 8 -151 16 -306 18 -345 l2 -70 47 -15 c62 -20 70 -30 23 -30 -22 0 -58 -7 -82 -16 -37 -14 -43 -21 -52 -58 -5 -22 -21 -68 -35 -101 -32 -75 -36 -181 -8 -235 18 -37 33 -42 142 -53 30 -3 82 -11 115 -16 101 -18 131 -15 153 16 26 37 52 126 52 182 1 65 25 169 44 190 32 35 26 39 -76 57 -22 3 -38 12 -38 20 0 7 16 16 38 19 96 16 90 12 96 68 4 29 17 198 31 377 14 179 30 381 35 450 6 69 24 289 40 489 26 328 31 367 48 380 11 9 32 40 48 70 48 90 72 102 232 115 l137 11 5 50 5 50 57 5 c31 3 60 9 65 13 4 5 10 31 13 60 l5 51 110 21 c61 12 127 27 148 34 l37 13 0 654 0 654 -24 16 c-100 65 -723 126 -1571 154 -165 5 -358 12 -430 15 -71 4 -263 2 -425 -4 -685 -24 -760 -25 -760 -7 0 9 6 18 13 21 6 2 150 8 319 14 306 11 309 12 427 46 368 106 681 270 1061 556 195 147 308 246 491 428 180 181 305 327 430 502 188 265 193 417 20 582 -70 67 -136 100 -241 122 -41 8 -1047 96 -2235 195 -1861 155 -2174 183 -2260 204 -335 82 -568 236 -669 441 l-27 55 461 644 c309 432 458 649 454 659 -8 23 -46 26 -434 32 -500 9 -1532 35 -1620 41 l-75 5 -79 -127z m3624 -4428 c0 -19 -53 -23 -475 -36 -583 -17 -1522 -49 -1656 -56 -81 -4 -129 -3 -133 4 -7 12 87 19 449 32 149 6 423 17 610 25 187 8 475 19 640 25 165 6 318 12 340 14 22 1 82 3 133 4 74 2 92 -1 92 -12z m-2780 -105 c0 -9 -80 -13 -610 -31 -168 -6 -415 -15 -550 -20 -506 -20 -921 -32 -926 -28 -5 6 107 11 906 43 349 14 716 29 815 34 257 12 365 12 365 2z m-2639 -3052 c11 -15 18 -18 21 -9 3 9 34 3 123 -25 66 -20 124 -41 129 -45 5 -5 -44 -123 -109 -267 -119 -262 -131 -283 -146 -283 -5 0 -10 132 -11 293 l-2 292 -6 -340 -5 -340 -57 -117 c-31 -65 -62 -118 -69 -118 -9 0 -11 49 -6 218 4 119 10 336 14 480 7 295 8 299 72 288 20 -3 43 -15 52 -27z m593 -98 c39 -7 55 -16 82 -47 18 -22 33 -48 33 -59 0 -27 -683 -1518 -697 -1523 -9 -3 -13 107 -15 405 l-2 408 -3 -439 -2 -439 -46 -103 c-39 -87 -50 -104 -69 -104 -48 0 -48 -2 -33 492 l13 463 54 117 c61 136 74 152 89 111 9 -24 11 -18 11 40 1 65 6 80 125 340 68 150 132 289 142 310 l18 37 125 -1 c69 0 148 -4 175 -8z m7135 -572 c90 -15 101 -19 101 -30 0 -8 -22 -10 -72 -5 -114 10 -258 37 -258 49 0 11 131 3 229 -14z m-9829 -624 c44 -23 40 -47 -7 -43 -33 3 -38 7 -41 31 -4 31 6 33 48 12z m217 -152 c22 -9 11 -38 -15 -37 -123 4 -145 11 -122 39 11 14 24 16 69 10 30 -4 60 -9 68 -12z m1863 -523 c0 -48 -4 -80 -10 -80 -19 0 -60 32 -60 46 0 22 49 114 60 114 6 0 10 -34 10 -80z m1031 -712 c57 -32 51 -50 -13 -46 -54 3 -68 17 -54 54 7 19 22 18 67 -8z m273 -198 c25 -9 35 -33 17 -44 -12 -8 -184 14 -195 24 -5 6 -4 16 5 26 11 14 25 15 81 10 37 -3 78 -10 92 -16z"/>
</g>
</svg>