<?xml version="1.0" encoding="UTF-8" standalone="no"?>
<svg
   viewBox="0 0 18558.612 19196.103"
   version="1.1"
   id="svg5446"
   width="18558.611"
   height="19196.104"
   xmlns="http://www.w3.org/2000/svg"
   xmlns:svg="http://www.w3.org/2000/svg"
   xmlns:rdf="http://www.w3.org/1999/02/22-rdf-syntax-ns#"
   xmlns:cc="http://creativecommons.org/ns#"
   xmlns:dc="http://purl.org/dc/elements/1.1/">
  <defs
     id="defs5184">
    <style
       id="style5182">.cls-1,.cls-6{fill:#757677;}.cls-1,.cls-5{fill-rule:evenodd;}.cls-10,.cls-2,.cls-3,.cls-4,.cls-5,.cls-7,.cls-8,.cls-9{fill:none;}.cls-2,.cls-3,.cls-5{stroke:#757677;stroke-miterlimit:2.61;}.cls-2{stroke-width:0.43px;}.cls-3,.cls-5{stroke-width:0.43px;}.cls-10,.cls-7,.cls-8,.cls-9{stroke:#fff;stroke-linejoin:round;stroke-width:0.58px;}.cls-8{stroke-dasharray:3.46 1.15 0.58 1.15 0.58 1.15;}.cls-9{stroke-dasharray:0.58 0.58;}.cls-10{stroke-dasharray:7 2 7 2;}</style>
  </defs>
  <title
     id="title5186">PL_U87_O</title>
  <g
     id="PL-Legende">
    <path
       class="cls-1"
       d="m 134.67,133.67 h 1.4 v -0.27 h -1 c 0.79,-0.64 1,-1 1,-1.37 a 0.62,0.62 0 0 0 -0.69,-0.66 1.18,1.18 0 0 0 -0.68,0.22 l 0.12,0.22 a 1,1 0 0 1 0.54,-0.17 c 0.25,0 0.38,0.12 0.38,0.4 0,0.28 -0.11,0.56 -1,1.35 v 0.29 z"
       transform="translate(-9.08,-8.83)"
       id="path5188" />
    <path
       class="cls-1"
       d="m 138.35,133.67 h 0.31 v -2.57 h -0.31 z m 1,0 h 0.36 l -0.68,-1 0.58,-0.76 h -0.34 l -0.58,0.77 0.65,1 z"
       transform="translate(-9.08,-8.83)"
       id="path5190" />
    <polygon
       class="cls-1"
       points="132.24,124.84 132.57,124.84 132.57,122.39 132.24,122.39 132.24,123.39 131.36,123.39 131.36,122.39 131.03,122.39 131.03,124.84 131.36,124.84 131.36,123.68 132.24,123.68 "
       id="polygon5192" />
    <polygon
       class="cls-1"
       points="134.24,123.33 134.24,123.06 133.17,123.06 133.17,123.31 133.93,123.31 133.09,124.56 133.09,124.84 134.27,124.84 134.27,124.59 133.41,124.59 "
       id="polygon5194" />
    <polygon
       class="cls-1"
       points="126.83,129.02 127.1,129.02 127.1,128.74 126.83,128.74 126.83,127.74 126.51,127.8 126.51,128.74 125.82,128.74 126.49,127.11 126.14,127.11 125.48,128.71 125.48,129.02 126.51,129.02 126.51,129.56 126.83,129.56 "
       id="polygon5196" />
    <path
       class="cls-1"
       d="m 138.35,138.2 h 0.31 v -2.57 h -0.31 z m 1,0 h 0.36 l -0.68,-1 0.58,-0.76 h -0.34 l -0.58,0.77 0.65,1 z"
       transform="translate(-9.08,-8.83)"
       id="path5198" />
    <polygon
       class="cls-1"
       points="132.24,129.37 132.57,129.37 132.57,126.92 132.24,126.92 132.24,127.92 131.36,127.92 131.36,126.92 131.03,126.92 131.03,129.37 131.36,129.37 131.36,128.21 132.24,128.21 "
       id="polygon5200" />
    <polygon
       class="cls-1"
       points="134.24,127.87 134.24,127.59 133.17,127.59 133.17,127.84 133.93,127.84 133.09,129.09 133.09,129.37 134.27,129.37 134.27,129.12 133.41,129.12 "
       id="polygon5202" />
    <path
       class="cls-1"
       d="m 135.36,142.78 c 0.48,0 0.77,-0.24 0.77,-0.66 a 0.68,0.68 0 0 0 -0.5,-0.69 0.62,0.62 0 0 0 0.42,-0.6 0.6,0.6 0 0 0 -0.68,-0.6 c -0.45,0 -0.69,0.24 -0.69,0.62 a 0.63,0.63 0 0 0 0.37,0.59 0.65,0.65 0 0 0 -0.46,0.65 c 0,0.4 0.27,0.68 0.79,0.68 z m 0.11,-1.11 a 0.45,0.45 0 0 1 0.32,0.48 c 0,0.24 -0.14,0.38 -0.43,0.38 -0.29,0 -0.47,-0.12 -0.47,-0.45 a 0.53,0.53 0 0 1 0.33,-0.52 l 0.25,0.1 z m -0.48,-0.83 a 0.365,0.365 0 1 1 0.73,0 0.47,0.47 0 0 1 -0.31,0.48 h -0.08 C 135.04,141.2 135,141.09 135,140.88 Z"
       transform="translate(-9.08,-8.83)"
       id="path5204" />
    <path
       class="cls-1"
       d="m 138.35,142.73 h 0.31 v -2.57 h -0.31 z m 1,0 h 0.36 l -0.68,-1 0.58,-0.76 h -0.34 l -0.58,0.77 0.65,1 z"
       transform="translate(-9.08,-8.83)"
       id="path5206" />
    <polygon
       class="cls-1"
       points="132.24,133.9 132.57,133.9 132.57,131.46 132.24,131.46 132.24,132.46 131.36,132.46 131.36,131.46 131.03,131.46 131.03,133.9 131.36,133.9 131.36,132.75 132.24,132.75 "
       id="polygon5208" />
    <polygon
       class="cls-1"
       points="134.24,132.4 134.24,132.12 133.17,132.12 133.17,132.37 133.93,132.37 133.09,133.62 133.09,133.9 134.27,133.9 134.27,133.66 133.41,133.66 "
       id="polygon5210" />
    <polygon
       class="cls-1"
       points="126.51,136.15 126.27,136.15 125.65,136.62 125.74,136.78 126.19,136.57 126.19,138.18 125.73,138.18 125.73,138.44 126.91,138.44 126.91,138.18 126.51,138.18 "
       id="polygon5212" />
    <path
       class="cls-1"
       d="m 137.33,147.32 a 0.74,0.74 0 0 0 0.75,-0.83 0.71,0.71 0 0 0 -0.69,-0.79 0.72,0.72 0 0 0 -0.5,0.2 c 0.1,-0.57 0.41,-0.74 0.95,-0.89 l -0.06,-0.24 a 1.37,1.37 0 0 0 -1.25,1.52 c 0,0.65 0.34,1 0.8,1 z m 0,-1.37 c 0.27,0 0.41,0.2 0.41,0.55 0,0.35 -0.13,0.57 -0.42,0.57 -0.29,0 -0.46,-0.21 -0.46,-0.74 0,-0.06 0,-0.12 0,-0.18 a 0.66,0.66 0 0 1 0.47,-0.18 z"
       transform="translate(-9.08,-8.83)"
       id="path5214" />
    <path
       class="cls-1"
       d="m 140.3,147.27 h 0.31 v -2.57 h -0.31 z m 1,0 h 0.36 l -0.67,-1 0.58,-0.76 h -0.34 l -0.58,0.77 0.65,1 z"
       transform="translate(-9.08,-8.83)"
       id="path5216" />
    <polygon
       class="cls-1"
       points="134.19,138.44 134.52,138.44 134.52,135.99 134.19,135.99 134.19,136.99 133.31,136.99 133.31,135.99 132.99,135.99 132.99,138.44 133.31,138.44 133.31,137.28 134.19,137.28 "
       id="polygon5218" />
    <polygon
       class="cls-1"
       points="136.2,136.93 136.2,136.66 135.12,136.66 135.12,136.91 135.88,136.91 135.04,138.16 135.04,138.44 136.23,138.44 136.23,138.19 135.37,138.19 "
       id="polygon5220" />
    <polygon
       class="cls-1"
       points="2.23,122.45 1.99,122.45 1.36,122.92 1.46,123.09 1.91,122.87 1.91,124.5 1.45,124.5 1.45,124.76 2.64,124.76 2.64,124.5 2.23,124.5 "
       id="polygon5222" />
    <path
       class="cls-1"
       d="m 12.36,133.59 h 1.42 v -0.28 h -1.05 c 0.8,-0.65 1,-1 1,-1.39 a 0.63,0.63 0 0 0 -0.7,-0.67 1.19,1.19 0 0 0 -0.69,0.22 l 0.12,0.23 A 1,1 0 0 1 13,131.53 c 0.25,0 0.39,0.12 0.39,0.4 0,0.28 -0.12,0.57 -1,1.37 v 0.29 z"
       transform="translate(-9.08,-8.83)"
       id="path5224" />
    <path
       class="cls-1"
       d="m 14.84,133.83 a 0.82,0.82 0 0 0 0.92,-0.88 0.73,0.73 0 0 0 -0.83,-0.75 h -0.2 l 0.05,-0.64 h 0.89 v -0.28 h -1.15 l -0.11,1.24 a 1.5,1.5 0 0 1 0.45,-0.07 c 0.36,0 0.56,0.13 0.56,0.51 a 0.53,0.53 0 0 1 -0.6,0.58 2,2 0 0 1 -0.49,-0.08 l -0.06,0.25 a 2,2 0 0 0 0.58,0.1 z"
       transform="translate(-9.08,-8.83)"
       id="path5226" />
    <polygon
       class="cls-1"
       points="10.26,124.76 10.59,124.76 10.59,122.28 10.26,122.28 10.26,123.3 9.37,123.3 9.37,122.28 9.03,122.28 9.03,124.76 9.37,124.76 9.37,123.59 10.26,123.59 "
       id="polygon5228" />
    <polygon
       class="cls-1"
       points="12.29,123.24 12.29,122.96 11.2,122.96 11.2,123.21 11.97,123.21 11.12,124.48 11.12,124.76 12.32,124.76 12.32,124.51 11.45,124.51 "
       id="polygon5230" />
    <path
       class="cls-1"
       d="m 10.38,138.19 h 1.42 v -0.28 h -1.05 c 0.8,-0.65 1,-1 1,-1.39 a 0.63,0.63 0 0 0 -0.7,-0.67 1.19,1.19 0 0 0 -0.69,0.22 l 0.12,0.23 a 1,1 0 0 1 0.54,-0.17 c 0.25,0 0.39,0.12 0.39,0.4 0,0.28 -0.12,0.57 -1,1.37 v 0.29 z"
       transform="translate(-9.08,-8.83)"
       id="path5232" />
    <path
       class="cls-1"
       d="m 12.86,138.43 a 0.82,0.82 0 0 0 0.92,-0.88 0.73,0.73 0 0 0 -0.83,-0.75 h -0.2 l 0.05,-0.64 h 0.89 v -0.28 h -1.15 l -0.11,1.24 a 1.5,1.5 0 0 1 0.45,-0.07 c 0.36,0 0.56,0.13 0.56,0.51 a 0.53,0.53 0 0 1 -0.6,0.58 2,2 0 0 1 -0.49,-0.08 l -0.06,0.25 a 2,2 0 0 0 0.58,0.1 z"
       transform="translate(-9.08,-8.83)"
       id="path5234" />
    <path
       class="cls-1"
       d="m 15,138.23 c 0.53,0 0.81,-0.4 0.81,-1.2 0,-0.8 -0.31,-1.18 -0.82,-1.18 -0.51,0 -0.82,0.42 -0.82,1.2 0,0.78 0.3,1.18 0.83,1.18 z m 0,-0.26 c -0.35,0 -0.48,-0.29 -0.48,-0.94 0,-0.65 0.12,-0.92 0.48,-0.92 0.36,0 0.47,0.29 0.47,0.94 0,0.65 -0.12,0.92 -0.47,0.92 z"
       transform="translate(-9.08,-8.83)"
       id="path5236" />
    <polygon
       class="cls-1"
       points="10.26,129.36 10.59,129.36 10.59,126.88 10.26,126.88 10.26,127.89 9.37,127.89 9.37,126.88 9.03,126.88 9.03,129.36 9.37,129.36 9.37,128.19 10.26,128.19 "
       id="polygon5238" />
    <polygon
       class="cls-1"
       points="12.29,127.84 12.29,127.56 11.2,127.56 11.2,127.81 11.97,127.81 11.12,129.08 11.12,129.36 12.32,129.36 12.32,129.11 11.45,129.11 "
       id="polygon5240" />
    <path
       class="cls-1"
       d="m 10.88,143 a 0.82,0.82 0 0 0 0.92,-0.88 0.73,0.73 0 0 0 -0.83,-0.75 h -0.2 l 0.05,-0.64 h 0.89 v -0.28 h -1.15 l -0.11,1.24 a 1.5,1.5 0 0 1 0.45,-0.07 c 0.36,0 0.56,0.13 0.56,0.51 a 0.53,0.53 0 0 1 -0.6,0.58 2,2 0 0 1 -0.49,-0.08 l -0.06,0.25 a 2,2 0 0 0 0.58,0.1 z"
       transform="translate(-9.08,-8.83)"
       id="path5242" />
    <path
       class="cls-1"
       d="m 13.06,142.83 c 0.53,0 0.81,-0.4 0.81,-1.2 0,-0.8 -0.31,-1.18 -0.82,-1.18 -0.51,0 -0.82,0.42 -0.82,1.2 0,0.78 0.3,1.18 0.83,1.18 z m 0,-0.26 c -0.35,0 -0.48,-0.29 -0.48,-0.94 0,-0.65 0.12,-0.92 0.48,-0.92 0.36,0 0.47,0.29 0.47,0.94 0,0.65 -0.12,0.92 -0.47,0.92 z"
       transform="translate(-9.08,-8.83)"
       id="path5244" />
    <path
       class="cls-1"
       d="m 15,142.83 c 0.53,0 0.81,-0.4 0.81,-1.2 0,-0.8 -0.31,-1.18 -0.82,-1.18 -0.51,0 -0.82,0.42 -0.82,1.2 0,0.78 0.3,1.18 0.83,1.18 z m 0,-0.26 c -0.35,0 -0.48,-0.29 -0.48,-0.94 0,-0.65 0.12,-0.92 0.48,-0.92 0.36,0 0.47,0.29 0.47,0.94 0,0.65 -0.12,0.92 -0.47,0.92 z"
       transform="translate(-9.08,-8.83)"
       id="path5246" />
    <polygon
       class="cls-1"
       points="10.26,133.96 10.59,133.96 10.59,131.47 10.26,131.47 10.26,132.49 9.37,132.49 9.37,131.47 9.03,131.47 9.03,133.96 9.37,133.96 9.37,132.78 10.26,132.78 "
       id="polygon5248" />
    <polygon
       class="cls-1"
       points="12.29,132.43 12.29,132.15 11.2,132.15 11.2,132.4 11.97,132.4 11.12,133.67 11.12,133.96 12.32,133.96 12.32,133.71 11.45,133.71 "
       id="polygon5250" />
    <polygon
       class="cls-1"
       points="4.45,136.24 4.21,136.24 3.58,136.71 3.67,136.88 4.13,136.66 4.13,138.29 3.67,138.29 3.67,138.55 4.85,138.55 4.85,138.29 4.45,138.29 "
       id="polygon5252" />
    <path
       class="cls-1"
       d="m 16.33,147.38 h 0.31 v -2.61 h -0.31 z m 1,0 h 0.36 l -0.69,-1 0.59,-0.77 h -0.35 l -0.58,0.78 0.66,1 z"
       transform="translate(-9.08,-8.83)"
       id="path5254" />
    <polygon
       class="cls-1"
       points="10.26,138.55 10.59,138.55 10.59,136.07 10.26,136.07 10.26,137.09 9.37,137.09 9.37,136.07 9.03,136.07 9.03,138.55 9.37,138.55 9.37,137.38 10.26,137.38 "
       id="polygon5256" />
    <polygon
       class="cls-1"
       points="12.29,137.03 12.29,136.75 11.2,136.75 11.2,137 11.97,137 11.12,138.27 11.12,138.55 12.32,138.55 12.32,138.3 11.45,138.3 "
       id="polygon5258" />
  </g>
  <g
     id="PL-Raster">
    <path
       class="cls-2"
       d="m 86.07,73.69 h 52.56 m -121.68,0 h 52.56"
       transform="translate(-9.08,-8.83)"
       id="path5261" />
    <line
       class="cls-3"
       x1="74.540001"
       y1="58.959999"
       x2="111.71"
       y2="21.790001"
       id="line5263" />
    <line
       class="cls-3"
       x1="25.65"
       y1="107.92"
       x2="62.82"
       y2="70.75"
       id="line5265" />
    <line
       class="cls-2"
       x1="68.639999"
       y1="125.77"
       x2="68.639999"
       y2="73.209999"
       id="line5267" />
    <line
       class="cls-2"
       x1="74.489998"
       y1="70.779999"
       x2="111.65"
       y2="107.95"
       id="line5269" />
    <line
       class="cls-2"
       x1="25.610001"
       y1="21.91"
       x2="62.779999"
       y2="59.07"
       id="line5271" />
    <path
       class="cls-3"
       d="m 75.46,64.19 a 9.79,9.79 0 1 0 4.54,0"
       transform="translate(-9.08,-8.83)"
       id="path5273" />
    <line
       class="cls-3"
       x1="68.639999"
       y1="57.07"
       x2="68.639999"
       y2="61.610001"
       id="line5275" />
    <polyline
       class="cls-4"
       points="70.92 55.33 70.92 57.07 68.64 57.07"
       id="polyline5277" />
    <polyline
       class="cls-4"
       points="68.64 57.07 66.39 57.07 66.39 55.36"
       id="polyline5279" />
    <polyline
       class="cls-4"
       points="68.64 53.26 66.39 53.26 66.39 55.36"
       id="polyline5281" />
    <polyline
       class="cls-4"
       points="68.64 53.26 70.92 53.26 70.92 55.33"
       id="polyline5283" />
    <path
       class="cls-3"
       d="M 75.46,54 A 19.81,19.81 0 1 0 80,53.93"
       transform="translate(-9.08,-8.83)"
       id="path5285" />
    <line
       class="cls-3"
       x1="68.639999"
       y1="46.740002"
       x2="68.639999"
       y2="53.259998"
       id="line5287" />
    <polyline
       class="cls-4"
       points="68.64 42.93 70.92 42.93 70.92 45.1"
       id="polyline5289" />
    <polyline
       class="cls-4"
       points="68.64 42.93 66.39 42.93 66.39 45.16"
       id="polyline5291" />
    <polyline
       class="cls-4"
       points="70.92 45.1 70.92 46.74 68.64 46.74"
       id="polyline5293" />
    <polyline
       class="cls-4"
       points="68.64 46.74 66.39 46.74 66.39 45.16"
       id="polyline5295" />
    <path
       class="cls-3"
       d="M 75.46,44.07 A 29.81,29.81 0 1 0 80,44"
       transform="translate(-9.08,-8.83)"
       id="path5297" />
    <line
       class="cls-3"
       x1="68.639999"
       y1="36.860001"
       x2="68.639999"
       y2="42.93"
       id="line5299" />
    <line
       class="cls-4"
       x1="68.639999"
       y1="33.060001"
       x2="68.639999"
       y2="36.860001"
       id="line5301" />
    <polyline
       class="cls-4"
       points="70.92 35.2 70.92 36.86 68.64 36.86"
       id="polyline5303" />
    <polyline
       class="cls-4"
       points="68.64 36.86 66.39 36.86 66.39 35.24"
       id="polyline5305" />
    <polyline
       class="cls-4"
       points="68.64 33.06 70.92 33.06 70.92 35.2"
       id="polyline5307" />
    <polyline
       class="cls-4"
       points="68.64 33.06 66.39 33.06 66.39 35.24"
       id="polyline5309" />
    <path
       class="cls-3"
       d="m 75.46,34.11 a 39.68,39.68 0 1 0 4.54,0"
       transform="translate(-9.08,-8.83)"
       id="path5311" />
    <line
       class="cls-3"
       x1="68.639999"
       y1="26.950001"
       x2="68.639999"
       y2="33.060001"
       id="line5313" />
    <polyline
       class="cls-4"
       points="70.92 25.24 70.92 26.95 68.64 26.95"
       id="polyline5315" />
    <polyline
       class="cls-4"
       points="68.64 26.95 66.39 26.95 66.39 25.27"
       id="polyline5317" />
    <polyline
       class="cls-4"
       points="68.64 23.15 66.39 23.15 66.39 25.27"
       id="polyline5319" />
    <polyline
       class="cls-4"
       points="68.64 23.15 70.92 23.15 70.92 25.24"
       id="polyline5321" />
    <path
       class="cls-5"
       d="M 75.46,24 A 49.77,49.77 0 1 0 80,24"
       transform="translate(-9.08,-8.83)"
       id="path5323" />
    <line
       class="cls-3"
       x1="68.639999"
       y1="16.809999"
       x2="68.639999"
       y2="23.15"
       id="line5325" />
    <line
       class="cls-3"
       x1="68.639999"
       y1="13.01"
       x2="68.639999"
       y2="4.02"
       id="line5327" />
    <polyline
       class="cls-4"
       points="70.92 15.16 70.92 16.82 68.64 16.82"
       id="polyline5329" />
    <polyline
       class="cls-4"
       points="68.64 16.82 66.39 16.82 66.39 15.17"
       id="polyline5331" />
    <polyline
       class="cls-4"
       points="68.64 13.01 66.39 13.01 66.39 15.17"
       id="polyline5333" />
    <polyline
       class="cls-4"
       points="68.64 13.01 70.92 13.01 70.92 15.16"
       id="polyline5335" />
    <path
       class="cls-5"
       d="m 76.63,14.11 a 59.55,59.55 0 1 0 2.2,0"
       transform="translate(-9.08,-8.83)"
       id="path5337" />
    <polyline
       class="cls-4"
       points="69.76 5.27 69.76 6.4 67.55 6.4 67.55 5.28"
       id="polyline5339" />
    <polyline
       class="cls-4"
       points="69.76 5.27 69.76 2.59 67.55 2.59 67.55 5.28"
       id="polyline5341" />
  </g>
  <g
     id="PL-Bemaßung">
    <path
       class="cls-1"
       d="m 77.1,11.46 c 0.54,0 0.84,-0.41 0.84,-1.24 C 77.94,9.39 77.63,9 77.1,9 c -0.53,0 -0.84,0.43 -0.84,1.23 0,0.8 0.31,1.22 0.85,1.22 z m 0,-0.26 c -0.36,0 -0.49,-0.3 -0.49,-1 0,-0.7 0.13,-0.95 0.49,-0.95 0.36,0 0.49,0.3 0.49,1 0,0.7 -0.12,0.95 -0.49,0.95 z"
       transform="translate(-9.08,-8.83)"
       id="path5344" />
    <path
       class="cls-1"
       d="m 78.86,10.09 a 0.57,0.57 0 0 0 0.58,-0.62 0.58,0.58 0 1 0 -1.16,0 0.56,0.56 0 0 0 0.58,0.63 z m 0,-0.21 c -0.21,0 -0.31,-0.11 -0.31,-0.43 0,-0.32 0.1,-0.4 0.3,-0.4 0.2,0 0.31,0.11 0.31,0.44 0,0.33 -0.09,0.4 -0.3,0.4 z"
       transform="translate(-9.08,-8.83)"
       id="path5346" />
    <polygon
       class="cls-1"
       points="113.28,20.33 113.57,20.33 113.57,20.05 113.28,20.05 113.28,19 112.95,19.06 112.95,20.05 112.23,20.05 112.93,18.34 112.56,18.34 111.88,20.02 111.88,20.33 112.95,20.33 112.95,20.9 113.28,20.9 "
       id="polygon5348" />
    <path
       class="cls-1"
       d="m 123.62,29.78 a 0.85,0.85 0 0 0 0.95,-0.9 0.75,0.75 0 0 0 -0.86,-0.77 h -0.2 l 0.06,-0.66 h 0.92 v -0.29 h -1.19 l -0.11,1.27 a 1.53,1.53 0 0 1 0.46,-0.07 c 0.37,0 0.58,0.13 0.58,0.52 a 0.54,0.54 0 0 1 -0.62,0.6 2.07,2.07 0 0 1 -0.51,-0.08 l -0.06,0.26 a 2,2 0 0 0 0.59,0.1 z"
       transform="translate(-9.08,-8.83)"
       id="path5350" />
    <path
       class="cls-1"
       d="m 125.59,28.21 a 0.63,0.63 0 1 0 -0.58,-0.63 0.56,0.56 0 0 0 0.58,0.63 z m 0,-0.21 c -0.21,0 -0.31,-0.11 -0.31,-0.43 0,-0.32 0.1,-0.4 0.3,-0.4 0.2,0 0.31,0.11 0.31,0.44 0,0.33 -0.09,0.4 -0.3,0.4 z"
       transform="translate(-9.08,-8.83)"
       id="path5352" />
    <path
       class="cls-1"
       d="m 140,75.17 a 1.45,1.45 0 0 0 1.34,-1.6 c 0,-0.7 -0.34,-1.05 -0.82,-1.05 a 0.78,0.78 0 0 0 -0.8,0.86 0.76,0.76 0 0 0 0.73,0.83 0.73,0.73 0 0 0 0.5,-0.2 c -0.11,0.58 -0.46,0.77 -1,0.92 l 0.07,0.25 z m 0.49,-1.23 c -0.28,0 -0.41,-0.18 -0.41,-0.57 0,-0.39 0.13,-0.59 0.44,-0.59 0.31,0 0.48,0.19 0.48,0.76 0,0.07 0,0.14 0,0.21 a 0.72,0.72 0 0 1 -0.5,0.19 z"
       transform="translate(-9.08,-8.83)"
       id="path5354" />
    <path
       class="cls-1"
       d="m 142.63,75 c 0.54,0 0.84,-0.41 0.84,-1.24 0,-0.83 -0.32,-1.22 -0.85,-1.22 -0.53,0 -0.84,0.43 -0.84,1.23 0,0.8 0.31,1.22 0.85,1.22 z m 0,-0.26 c -0.36,0 -0.49,-0.3 -0.49,-1 0,-0.7 0.13,-0.95 0.49,-0.95 0.36,0 0.49,0.3 0.49,1 0,0.7 -0.12,0.95 -0.49,0.95 z"
       transform="translate(-9.08,-8.83)"
       id="path5356" />
    <path
       class="cls-1"
       d="M 144.39,73.59 A 0.57,0.57 0 0 0 145,73 a 0.58,0.58 0 1 0 -0.58,0.62 z m 0,-0.21 c -0.21,0 -0.31,-0.11 -0.31,-0.43 0,-0.32 0.1,-0.4 0.3,-0.4 0.2,0 0.31,0.11 0.31,0.44 0,0.33 -0.09,0.4 -0.3,0.4 z"
       transform="translate(-9.08,-8.83)"
       id="path5358" />
    <polygon
       class="cls-1"
       points="112.6,109.2 112.35,109.2 111.7,109.68 111.8,109.86 112.27,109.63 112.27,111.31 111.79,111.31 111.79,111.58 113.02,111.58 113.02,111.31 112.6,111.31 "
       id="polygon5360" />
    <path
       class="cls-1"
       d="m 123,120.66 c 0.64,0 0.9,-0.3 0.9,-0.8 a 0.62,0.62 0 0 0 -0.44,-0.62 0.6,0.6 0 0 0 0.36,-0.6 0.63,0.63 0 0 0 -0.7,-0.63 1.36,1.36 0 0 0 -0.72,0.19 l 0.11,0.23 a 1.23,1.23 0 0 1 0.56,-0.14 c 0.28,0 0.4,0.14 0.4,0.38 0,0.24 -0.12,0.44 -0.46,0.44 h -0.18 v 0.26 h 0.14 c 0.39,0 0.57,0.09 0.57,0.47 0,0.38 -0.15,0.53 -0.55,0.53 a 2.45,2.45 0 0 1 -0.55,-0.08 l -0.06,0.26 a 2.12,2.12 0 0 0 0.63,0.11 z"
       transform="translate(-9.08,-8.83)"
       id="path5362" />
    <path
       class="cls-1"
       d="m 125,120.66 a 0.85,0.85 0 0 0 0.95,-0.9 0.76,0.76 0 0 0 -0.86,-0.77 h -0.2 l 0.06,-0.66 h 0.92 v -0.29 h -1.19 l -0.11,1.27 a 1.52,1.52 0 0 1 0.46,-0.07 c 0.37,0 0.57,0.13 0.57,0.52 a 0.54,0.54 0 0 1 -0.62,0.6 2.06,2.06 0 0 1 -0.51,-0.08 l -0.06,0.26 a 2,2 0 0 0 0.59,0.1 z"
       transform="translate(-9.08,-8.83)"
       id="path5364" />
    <path
       class="cls-1"
       d="m 127.28,119.09 a 0.63,0.63 0 1 0 -0.58,-0.63 0.56,0.56 0 0 0 0.58,0.63 z m 0,-0.21 c -0.21,0 -0.31,-0.11 -0.31,-0.43 0,-0.32 0.1,-0.4 0.3,-0.4 0.2,0 0.31,0.11 0.31,0.44 0,0.33 -0.09,0.4 -0.3,0.4 z"
       transform="translate(-9.08,-8.83)"
       id="path5366" />
    <path
       class="cls-1"
       d="m 28.12,120.56 h 1.47 v -0.29 H 28.5 c 0.82,-0.67 1,-1 1,-1.44 a 0.64,0.64 0 0 0 -0.72,-0.69 1.23,1.23 0 0 0 -0.71,0.23 l 0.13,0.23 a 1,1 0 0 1 0.56,-0.18 c 0.26,0 0.4,0.13 0.4,0.42 0,0.29 -0.12,0.59 -1.08,1.41 v 0.3 z"
       transform="translate(-9.08,-8.83)"
       id="path5368" />
    <path
       class="cls-1"
       d="m 30.16,120.56 h 1.46 v -0.29 h -1.08 c 0.82,-0.67 1,-1 1,-1.44 a 0.64,0.64 0 0 0 -0.72,-0.69 1.23,1.23 0 0 0 -0.71,0.23 l 0.13,0.23 a 1,1 0 0 1 0.56,-0.18 c 0.26,0 0.4,0.13 0.4,0.42 0,0.29 -0.12,0.59 -1.08,1.41 v 0.3 z"
       transform="translate(-9.08,-8.83)"
       id="path5370" />
    <path
       class="cls-1"
       d="m 32.71,120.81 a 0.85,0.85 0 0 0 0.95,-0.9 0.75,0.75 0 0 0 -0.86,-0.77 h -0.2 l 0.06,-0.66 h 0.92 v -0.29 h -1.2 l -0.11,1.27 a 1.55,1.55 0 0 1 0.46,-0.07 c 0.37,0 0.57,0.13 0.57,0.52 a 0.54,0.54 0 0 1 -0.62,0.6 2.07,2.07 0 0 1 -0.51,-0.08 l -0.06,0.26 a 2,2 0 0 0 0.59,0.1 z"
       transform="translate(-9.08,-8.83)"
       id="path5372" />
    <path
       class="cls-1"
       d="m 34.68,119.24 a 0.57,0.57 0 0 0 0.58,-0.62 0.58,0.58 0 1 0 -0.58,0.62 z m 0,-0.21 c -0.21,0 -0.31,-0.11 -0.31,-0.43 0,-0.32 0.1,-0.4 0.3,-0.4 0.2,0 0.31,0.11 0.31,0.44 0,0.33 -0.09,0.4 -0.3,0.4 z"
       transform="translate(-9.08,-8.83)"
       id="path5374" />
    <path
       class="cls-1"
       d="m 9.08,75.2 h 1.47 V 74.91 H 9.46 c 0.82,-0.67 1,-1 1,-1.44 A 0.64,0.64 0 0 0 9.74,72.78 1.23,1.23 0 0 0 9.03,73.01 l 0.13,0.23 a 1,1 0 0 1 0.56,-0.18 c 0.26,0 0.4,0.13 0.4,0.42 0,0.29 -0.12,0.59 -1.08,1.41 v 0.3 z"
       transform="translate(-9.08,-8.83)"
       id="path5376" />
    <path
       class="cls-1"
       d="m 11.69,75.44 a 3.93,3.93 0 0 1 0.87,-2.29 v -0.3 h -1.49 v 0.29 h 1.17 a 4.41,4.41 0 0 0 -0.9,2.26 h 0.35 z"
       transform="translate(-9.08,-8.83)"
       id="path5378" />
    <path
       class="cls-1"
       d="m 13.88,75.25 c 0.54,0 0.84,-0.41 0.84,-1.24 0,-0.83 -0.32,-1.22 -0.85,-1.22 -0.53,0 -0.87,0.44 -0.87,1.21 0,0.77 0.31,1.22 0.85,1.22 z m 0,-0.26 c -0.36,0 -0.49,-0.3 -0.49,-1 0,-0.7 0.13,-0.95 0.49,-0.95 0.36,0 0.49,0.3 0.49,1 0,0.7 -0.12,0.95 -0.49,0.95 z"
       transform="translate(-9.08,-8.83)"
       id="path5380" />
    <path
       class="cls-1"
       d="m 15.64,73.88 a 0.57,0.57 0 0 0 0.58,-0.62 0.58,0.58 0 1 0 -0.58,0.62 z m 0,-0.21 c -0.21,0 -0.31,-0.11 -0.31,-0.43 0,-0.32 0.1,-0.4 0.3,-0.4 0.2,0 0.31,0.11 0.31,0.44 0,0.33 -0.09,0.4 -0.3,0.4 z"
       transform="translate(-9.08,-8.83)"
       id="path5382" />
    <path
       class="cls-1"
       d="m 29.1,30.1 c 0.64,0 0.9,-0.3 0.9,-0.8 a 0.62,0.62 0 0 0 -0.44,-0.62 0.6,0.6 0 0 0 0.36,-0.6 0.63,0.63 0 0 0 -0.7,-0.63 1.36,1.36 0 0 0 -0.72,0.19 l 0.11,0.23 a 1.23,1.23 0 0 1 0.56,-0.14 c 0.28,0 0.4,0.14 0.4,0.38 0,0.24 -0.12,0.44 -0.46,0.44 h -0.18 v 0.26 h 0.14 c 0.39,0 0.57,0.09 0.57,0.47 0,0.38 -0.15,0.53 -0.55,0.53 a 2.47,2.47 0 0 1 -0.55,-0.08 l -0.06,0.26 a 2.12,2.12 0 0 0 0.63,0.11 z"
       transform="translate(-9.08,-8.83)"
       id="path5384" />
    <polygon
       class="cls-1"
       points="22.48,18.64 22.23,18.64 21.58,19.12 21.68,19.3 22.14,19.07 22.14,20.75 21.67,20.75 21.67,21.02 22.89,21.02 22.89,20.75 22.48,20.75 "
       id="polygon5386" />
    <path
       class="cls-1"
       d="m 33.15,30.1 a 0.85,0.85 0 0 0 0.95,-0.9 0.76,0.76 0 0 0 -0.86,-0.77 h -0.2 L 33.1,27.77 H 34 v -0.29 h -1.18 l -0.11,1.27 a 1.53,1.53 0 0 1 0.46,-0.07 c 0.37,0 0.57,0.13 0.57,0.52 a 0.54,0.54 0 0 1 -0.62,0.6 2.07,2.07 0 0 1 -0.51,-0.08 l -0.06,0.26 a 2,2 0 0 0 0.59,0.1 z"
       transform="translate(-9.08,-8.83)"
       id="path5388" />
    <path
       class="cls-1"
       d="m 35.12,28.53 a 0.57,0.57 0 0 0 0.58,-0.62 0.58,0.58 0 1 0 -0.58,0.62 z m 0,-0.21 c -0.21,0 -0.31,-0.11 -0.31,-0.43 0,-0.32 0.1,-0.4 0.3,-0.4 0.2,0 0.31,0.11 0.31,0.44 0,0.33 -0.09,0.4 -0.3,0.4 z"
       transform="translate(-9.08,-8.83)"
       id="path5390" />
    <polygon
       class="cls-1"
       points="66.41,127.13 66.16,127.13 65.52,127.62 65.61,127.79 66.08,127.57 66.08,129.24 65.6,129.24 65.6,129.52 66.83,129.52 66.83,129.24 66.41,129.24 "
       id="polygon5392" />
    <path
       class="cls-1"
       d="m 76.85,138.4 c 0.5,0 0.8,-0.25 0.8,-0.69 a 0.71,0.71 0 0 0 -0.53,-0.72 0.64,0.64 0 0 0 0.44,-0.62 0.63,0.63 0 0 0 -0.71,-0.62 c -0.47,0 -0.72,0.25 -0.72,0.64 a 0.66,0.66 0 0 0 0.38,0.62 0.68,0.68 0 0 0 -0.48,0.67 c 0,0.42 0.28,0.71 0.82,0.71 z m 0.12,-1.16 a 0.47,0.47 0 0 1 0.34,0.5 c 0,0.25 -0.15,0.4 -0.45,0.4 -0.3,0 -0.49,-0.13 -0.49,-0.47 a 0.55,0.55 0 0 1 0.34,-0.54 z m -0.5,-0.86 a 0.38,0.38 0 1 1 0.76,0 0.49,0.49 0 0 1 -0.32,0.5 h -0.09 c -0.3,-0.13 -0.35,-0.24 -0.35,-0.46 z"
       transform="translate(-9.08,-8.83)"
       id="path5394" />
    <path
       class="cls-1"
       d="m 78.89,138.39 c 0.54,0 0.84,-0.41 0.84,-1.24 0,-0.83 -0.32,-1.22 -0.85,-1.22 -0.53,0 -0.84,0.43 -0.84,1.24 0,0.81 0.31,1.22 0.85,1.22 z m 0,-0.26 c -0.36,0 -0.49,-0.3 -0.49,-1 0,-0.7 0.13,-0.95 0.49,-0.95 0.36,0 0.49,0.3 0.49,1 0,0.7 -0.12,1 -0.49,1 z"
       transform="translate(-9.08,-8.83)"
       id="path5396" />
    <path
       class="cls-1"
       d="m 81.09,137 a 0.57,0.57 0 0 0 0.58,-0.62 0.58,0.58 0 1 0 -0.58,0.62 z m 0,-0.21 c -0.21,0 -0.31,-0.11 -0.31,-0.43 0,-0.32 0.1,-0.4 0.3,-0.4 0.2,0 0.31,0.11 0.31,0.44 0,0.33 -0.09,0.4 -0.3,0.4 z"
       transform="translate(-9.08,-8.83)"
       id="path5398" />
    <path
       class="cls-1"
       d="m 76.12,75.34 a 0.85,0.85 0 0 0 0.64,-0.3 l 0.06,0.24 h 0.31 v -3.34 h -0.4 v 1.25 a 0.91,0.91 0 0 0 -0.61,-0.28 c -0.54,0 -0.79,0.36 -0.79,1.23 0,0.87 0.35,1.2 0.79,1.2 z M 76.19,75 c -0.31,0 -0.43,-0.14 -0.43,-0.89 0,-0.75 0.14,-0.86 0.47,-0.86 a 0.79,0.79 0 0 1 0.51,0.25 v 1.25 A 0.76,0.76 0 0 1 76.19,75 Z"
       transform="translate(-9.08,-8.83)"
       id="path5400" />
    <path
       class="cls-1"
       d="m 78,75.28 h 1 c 0.59,0 1,-0.26 1,-0.89 a 0.73,0.73 0 0 0 -0.53,-0.8 0.58,0.58 0 0 0 0.39,-0.64 c 0,-0.5 -0.24,-0.85 -0.91,-0.85 H 78 Z m 0.42,-0.36 V 73.8 h 0.54 c 0.44,0 0.58,0.18 0.58,0.56 0,0.38 -0.16,0.56 -0.6,0.56 z m 0,-1.48 v -1 h 0.5 c 0.37,0 0.48,0.17 0.48,0.5 0,0.33 -0.08,0.49 -0.46,0.49 z"
       transform="translate(-9.08,-8.83)"
       id="path5402" />
    <path
       class="cls-6"
       d="m 76.92,35 0.06,-0.26 a 2.13,2.13 0 0 0 0.52,0.08 c 0.43,0 0.63,-0.22 0.63,-0.6 0,-0.38 -0.21,-0.52 -0.58,-0.52 a 1.58,1.58 0 0 0 -0.47,0.07 l 0.11,-1.27 h 1.21 v 0.29 h -0.94 l -0.06,0.66 h 0.21 c 0.51,0 0.87,0.26 0.87,0.77 a 0.85,0.85 0 0 1 -1,0.9 A 2.11,2.11 0 0 1 76.92,35 Z"
       transform="translate(-9.08,-8.83)"
       id="path5404" />
    <path
       class="cls-6"
       d="M 76.12,44.61 H 76.6 V 42.94 L 76.13,43.16 76,43 76.66,42.51 h 0.26 v 2.11 h 0.42 v 0.27 h -1.22 z"
       transform="translate(-9.08,-8.83)"
       id="path5406" />
    <path
       class="cls-6"
       d="m 77.91,43.72 c 0,-0.8 0.32,-1.23 0.86,-1.23 0.54,0 0.86,0.42 0.86,1.22 0,0.8 -0.3,1.23 -0.85,1.23 -0.55,0 -0.87,-0.4 -0.87,-1.22 z m 1.35,0 c 0,-0.67 -0.12,-1 -0.49,-1 -0.37,0 -0.5,0.29 -0.5,0.95 0,0.66 0.13,1 0.5,1 0.37,0 0.49,-0.29 0.49,-0.95 z"
       transform="translate(-9.08,-8.83)"
       id="path5408" />
    <path
       class="cls-6"
       d="m 76.12,54.36 h 0.48 v -1.67 l -0.47,0.22 -0.1,-0.17 0.66,-0.49 h 0.26 v 2.11 h 0.42 v 0.27 h -1.25 z"
       transform="translate(-9.08,-8.83)"
       id="path5410" />
    <path
       class="cls-6"
       d="m 78,54.78 0.06,-0.26 a 2.13,2.13 0 0 0 0.52,0.08 c 0.43,0 0.63,-0.22 0.63,-0.6 0,-0.38 -0.21,-0.52 -0.58,-0.52 a 1.58,1.58 0 0 0 -0.47,0.07 l 0.11,-1.27 h 1.21 v 0.29 H 78.5 l -0.06,0.66 h 0.21 c 0.51,0 0.87,0.26 0.87,0.77 a 0.85,0.85 0 0 1 -1,0.9 A 2.1,2.1 0 0 1 78,54.78 Z"
       transform="translate(-9.08,-8.83)"
       id="path5412" />
    <path
       class="cls-6"
       d="m 76,64.83 c 1,-0.82 1.09,-1 1.09,-1.41 0,-0.41 -0.14,-0.41 -0.4,-0.41 a 1,1 0 0 0 -0.57,0.18 L 76,63 a 1.26,1.26 0 0 1 0.72,-0.23 0.65,0.65 0 0 1 0.73,0.69 c 0,0.42 -0.23,0.76 -1.06,1.43 h 1.1 v 0.29 H 76 Z"
       transform="translate(-9.08,-8.83)"
       id="path5414" />
    <path
       class="cls-6"
       d="m 77.91,64 c 0,-0.8 0.32,-1.23 0.86,-1.23 0.54,0 0.86,0.42 0.86,1.22 0,0.8 -0.3,1.23 -0.85,1.23 -0.55,0 -0.87,-0.43 -0.87,-1.22 z m 1.35,0 c 0,-0.67 -0.12,-1 -0.49,-1 -0.37,0 -0.5,0.29 -0.5,0.95 0,0.66 0.13,1 0.5,1 0.37,0 0.49,-0.32 0.49,-0.95 z"
       transform="translate(-9.08,-8.83)"
       id="path5416" />
    <path
       class="cls-6"
       d="m 76.87,23.78 c 0,-0.8 0.32,-1.23 0.86,-1.23 0.54,0 0.86,0.42 0.86,1.22 0,0.8 -0.3,1.23 -0.85,1.23 -0.55,0 -0.87,-0.4 -0.87,-1.22 z m 1.35,0 c 0,-0.67 -0.12,-1 -0.49,-1 -0.37,0 -0.5,0.29 -0.5,0.95 0,0.66 0.13,1 0.5,1 0.37,0 0.5,-0.29 0.5,-0.95 z"
       transform="translate(-9.08,-8.83)"
       id="path5418" />
  </g>
  <g
     id="U87_O">
    <path
       class="cls-7"
       d="m 78.11,124.16 c -2.22,0 -4.45,-0.09 -6.58,-0.3 -14.5,-2.66 -24.72,-7.93 -34.4,-20.9 -4.62,-6.6 -8.37,-15.35 -8.9,-24.4 a 47.86,47.86 0 0 1 6.5,-29.19 c 9.18,-14.84 22.63,-23.6 39.4,-24.9 1.37,-0.1 2.74,-0.13 4.11,-0.12"
       transform="translate(-9.08,-8.83)"
       id="path5421"
       style="stroke:#464646;stroke-opacity:1" />
    <path
       class="cls-8"
       d="m 77.74,124.16 a 63.12,63.12 0 0 0 6.73,-0.3 c 14.5,-2.66 24.72,-7.93 34.4,-20.9 4.62,-6.6 8.37,-15.35 8.9,-24.4 a 47.86,47.86 0 0 0 -6.5,-29.19 C 112.09,34.53 98.64,25.77 81.87,24.47 80.61,24.38 79.34,24.34 78.1,24.34"
       transform="translate(-9.08,-8.83)"
       id="path5423"
       style="stroke:#464646;stroke-opacity:1" />
    <path
       class="cls-9"
       d="m 78.1,124.19 a 19.55,19.55 0 0 0 4.59,-0.52 c 6.12,-1.23 12.72,-6.33 15,-12.4 A 25.07,25.07 0 0 0 99.4,100 c -1.08,-10.13 -9.63,-20.68 -19,-25 -0.08,-0.2 -0.13,-0.4 -0.2,-0.6 0.17,-0.27 0.32,-0.53 0.5,-0.8 4.87,-2.38 11.82,-8 14.6,-13.4 a 25.41,25.41 0 0 0 4.1,-12.4 c 0.22,-8.48 -2.65,-15.08 -9.71,-20 A 21.59,21.59 0 0 0 77.85,24.28"
       transform="translate(-9.08,-8.83)"
       id="path5425"
       style="stroke:#464646;stroke-opacity:1" />
    <path
       class="cls-10"
       d="m 77.93,124.16 a 59.26,59.26 0 0 0 17.67,-2.5 c 10.47,-3.45 17.92,-7.8 26,-17.1 A 47.24,47.24 0 0 0 132.5,74.37 C 132.42,60.78 127.37,50.22 118.3,40.48 a 46.7,46.7 0 0 0 -11.8,-9 c -7.53,-4.33 -16.3,-6.55 -26.1,-7.2 -0.87,0 -1.74,0 -2.61,0"
       transform="translate(-9.08,-8.83)"
       id="path5427"
       style="stroke:#464646;stroke-opacity:1" />
    <line
       class="cls-7"
       x1="15.21"
       y1="123.9"
       x2="40.52"
       y2="123.9"
       id="line5429"
       style="stroke:#464646;stroke-opacity:1" />
    <line
       class="cls-10"
       x1="96.919998"
       y1="128.22"
       x2="122.14"
       y2="128.22"
       id="line5431"
       style="stroke:#464646;stroke-opacity:1" />
    <line
       class="cls-7"
       x1="15.21"
       y1="128.37"
       x2="40.439999"
       y2="128.37"
       id="line5433"
       style="stroke:#464646;stroke-opacity:1" />
    <line
       class="cls-8"
       x1="96.919998"
       y1="123.76"
       x2="122.14"
       y2="123.76"
       id="line5435"
       style="stroke:#464646;stroke-opacity:1" />
    <line
       class="cls-8"
       x1="96.919998"
       y1="132.53999"
       x2="122.14"
       y2="132.53999"
       id="line5437"
       style="stroke:#464646;stroke-opacity:1" />
    <line
       class="cls-7"
       x1="15.21"
       y1="137.37"
       x2="40.439999"
       y2="137.37"
       id="line5439"
       style="stroke:#464646;stroke-opacity:1" />
    <line
       class="cls-7"
       x1="15.21"
       y1="132.69"
       x2="40.439999"
       y2="132.69"
       id="line5441"
       style="stroke:#464646;stroke-opacity:1" />
    <line
       class="cls-9"
       x1="96.919998"
       y1="137.22"
       x2="122.14"
       y2="137.22"
       id="line5443"
       style="stroke:#464646;stroke-opacity:1" />
  </g>
  <metadata
     id="metadata559">
    <rdf:RDF>
      <cc:Work
         rdf:about="">
        <dc:title>PL_U87_O</dc:title>
      </cc:Work>
    </rdf:RDF>
  </metadata>
</svg>
