<?xml version="1.0" encoding="UTF-8" standalone="no"?>
<svg
   xmlns:dc="http://purl.org/dc/elements/1.1/"
   xmlns:cc="http://creativecommons.org/ns#"
   xmlns:rdf="http://www.w3.org/1999/02/22-rdf-syntax-ns#"
   xmlns:svg="http://www.w3.org/2000/svg"
   xmlns="http://www.w3.org/2000/svg"
   viewBox="0 0 1440 720"
   height="720"
   width="1440"
   id="svg1412"
   version="1.1">
  <metadata
     id="metadata1418">
    <rdf:RDF>
      <cc:Work
         rdf:about="">
        <dc:format>image/svg+xml</dc:format>
        <dc:type
           rdf:resource="http://purl.org/dc/dcmitype/StillImage" />
        <dc:title></dc:title>
      </cc:Work>
    </rdf:RDF>
  </metadata>
  <defs
     id="defs1416" />
  <g
     transform="translate(0,115)"
     id="g2013">
    <g
       id="g2002">
      <path
         id="path1967"
         d="M 30,244.8 H 430"
         style="fill:none;stroke:#000000;stroke-width:35.59999847;stroke-linecap:butt;stroke-linejoin:miter;stroke-miterlimit:4;stroke-dasharray:none;stroke-opacity:1" />
      <path
         style="opacity:1;fill:#d0af66;fill-opacity:1;stroke:#000000;stroke-width:1px;stroke-linecap:butt;stroke-linejoin:miter;stroke-opacity:1"
         d="m 430,230 h 10 l 5,-2 5,-3 5,-3 4,-5 10,-16 15,-30 6,-6 7,-5 3,-1 10,-4 h 5 -5 5 -5 l 6,-2 9,-1 h 13 l 37,8 45,10 h 130 l 60,-15 25,-2.99839 25,2.99839 15,5 15,15 15,30 7.16775,10 L 920,223.74486 935,235 v 25 l -15,10 -8,10 -7,18 -9,20 -8,10 -11,6 -20,6 h -17 -20 l -20,-5 -40,-10 -150,5 h -15 l -40,10 -25,1.49533 L 515,340 502.14953,337.85047 496.82243,335 482.52337,326.63551 475,315 465,292.14953 455,270 l -15,-5 -10,-5 z"
         id="path1971" />
      <path
         style="fill:none;stroke:#000000;stroke-width:38.58947754;stroke-linecap:butt;stroke-linejoin:miter;stroke-miterlimit:4;stroke-dasharray:none;stroke-opacity:1"
         d="m 930,246.2 h 470"
         id="path1989" />
    </g>
    <g
       id="g1996">
      <path
         id="path1973"
         d="m 525,152 v 188 l 5,1.49533 30,-1.49533 12,-4 -2,-176 -32.17668,-8 z"
         style="fill:#ffa500;fill-opacity:1;stroke:#000000;stroke-width:1px;stroke-linecap:butt;stroke-linejoin:miter;stroke-opacity:1" />
      <path
         id="path1975"
         d="m 600,166 v 164 l 40,-1 V 170 h -20 z"
         style="fill:#ffa500;fill-opacity:1;stroke:#000000;stroke-width:1px;stroke-linecap:butt;stroke-linejoin:miter;stroke-opacity:1" />
      <path
         id="path1977"
         d="m 680,171 h 40 v 155 l -50,2.62095 V 171 Z"
         style="fill:#a52a2a;fill-opacity:1;stroke:#000000;stroke-width:1px;stroke-linecap:butt;stroke-linejoin:miter;stroke-opacity:1" />
      <path
         id="path1979"
         d="m 820,154 v 186 h 40 l 12,-4 -1,-177 -11,-4 -25,-3 z"
         style="opacity:1;fill:#a36d01;fill-opacity:1;stroke:#000000;stroke-width:1px;stroke-linecap:butt;stroke-linejoin:miter;stroke-opacity:1" />
    </g>
  </g>
</svg>
