<?xml version="1.0" encoding="UTF-8" standalone="yes"?>
<svg xmlns="http://www.w3.org/2000/svg" xmlns:xlink="http://www.w3.org/1999/xlink" width="874.973pt" height="750.318pt" version="1.1" viewBox="-500.792 379.015 874.973 750.318">
  <!--
	Exported with Concepts: Smarter Sketching
	Version: 1505 on iOS 15.3
	https://concepts.app/
	-->
  <title>94FE93D5-BA9F-40A0-8374-87A8116E5429</title>
  <desc>Drawing exported from Concepts: Smarter Sketching</desc>
  <defs></defs>
  <g id="Stylo" opacity="1.000">
    <path id="STROKE_59bdad65-ceb9-43e4-9cbe-20740bc024f4" opacity="1.000" fill="none" stroke="#171612" stroke-width="1.981" stroke-opacity="1.000" stroke-linecap="round" stroke-linejoin="round" d="M -448.000 452.249 Q -448.000 453.075 -448.000 464.000 Q -448.000 473.421 -448.000 480.000 Q -448.000 489.686 -448.000 496.000 Q -448.000 504.876 -448.000 512.000 Q -448.000 521.339 -448.000 528.000 Q -448.000 536.010 -448.000 544.000 Q -448.000 554.129 -448.000 560.000 Q -448.000 568.924 -448.000 576.000 Q -448.000 585.720 -448.000 592.000 Q -448.000 602.109 -448.000 608.000 Q -448.000 618.968 -448.000 624.000 Q -448.000 632.180 -448.000 640.000 Q -448.000 651.424 -448.000 656.000 Q -448.000 664.031 -448.000 672.000 Q -448.000 683.411 -448.000 688.000 Q -448.000 698.737 -448.000 704.000 Q -448.000 714.001 -448.000 720.000 Q -448.000 728.944 -448.000 736.000 Q -448.000 745.161 -448.000 752.000 Q -448.000 761.462 -448.000 768.000 Q -448.000 780.174 -448.000 784.000 Q -448.000 793.782 -448.000 800.000 Q -448.000 811.098 -448.000 816.000 Q -448.000 824.842 -448.000 832.000 Q -448.000 843.554 -448.000 848.000 Q -448.000 856.433 -448.000 864.000 Q -448.000 874.354 -448.000 880.000 Q -448.000 889.619 -448.000 896.000 Q -448.000 904.685 -448.000 912.000 Q -448.000 920.209 -448.000 928.000 Q -448.000 936.536 -448.000 944.000 Q -448.000 953.456 -448.000 960.000 Q -448.000 969.388 -448.000 976.000 Q -448.000 984.849 -448.000 992.000 Q -448.000 1000.979 -448.000 1008.000 Q -448.000 1016.441 -448.000 1024.000 Q -448.000 1033.299 -448.000 1040.000 Q -448.000 1048.699 -448.000 1056.000 Q -448.000 1064.235 -448.000 1072.000 Q -448.000 1080.093 -448.000 1088.000 Q -439.887 1088.000 -432.000 1088.000 L -439.887 1088.000 Q -439.741 1088.000 -432.000 1088.000 "></path>
    <path id="STROKE_f7e564f9-8040-4168-bad6-f4dbc7bea610" opacity="1.000" fill="none" stroke="#171612" stroke-width="2.570" stroke-opacity="1.000" stroke-linecap="round" stroke-linejoin="round" d="M -436.377 1088.000 Q -437.069 1088.000 -437.168 1088.000 L -432.000 1088.000 Q -423.391 1088.000 -416.000 1088.000 Q -407.357 1088.000 -400.000 1088.000 Q -391.324 1088.000 -384.000 1088.000 Q -375.287 1088.000 -368.000 1088.000 Q -359.319 1088.000 -352.000 1088.000 Q -343.243 1088.000 -336.000 1088.000 Q -326.376 1088.000 -320.000 1088.000 Q -310.474 1088.000 -304.000 1088.000 Q -295.310 1088.000 -288.000 1088.000 Q -279.937 1088.000 -272.000 1088.000 Q -262.502 1088.000 -256.000 1088.000 Q -247.538 1088.000 -240.000 1088.000 Q -231.899 1088.000 -224.000 1088.000 Q -215.733 1088.000 -208.000 1088.000 Q -199.089 1088.000 -192.000 1088.000 Q -183.400 1088.000 -176.000 1088.000 Q -166.690 1088.000 -160.000 1088.000 Q -151.117 1088.000 -144.000 1088.000 Q -134.978 1088.000 -128.000 1088.000 Q -117.400 1088.000 -112.000 1088.000 Q -102.684 1088.000 -96.000 1088.000 Q -87.177 1088.000 -80.000 1088.000 Q -69.230 1088.000 -64.000 1088.000 Q -55.898 1088.000 -48.000 1088.000 Q -38.282 1088.000 -32.000 1088.000 Q -22.050 1088.000 -16.000 1088.000 Q -7.267 1088.000 0.000 1088.000 Q 8.767 1088.000 16.000 1088.000 Q 24.142 1088.000 32.000 1088.000 Q 40.704 1088.000 48.000 1088.000 Q 57.398 1088.000 64.000 1088.000 Q 72.905 1088.000 80.000 1088.000 Q 88.412 1088.000 96.000 1088.000 Q 104.447 1088.000 112.000 1088.000 Q 120.482 1088.000 128.000 1088.000 Q 136.978 1088.000 144.000 1088.000 Q 152.485 1088.000 160.000 1088.000 Q 168.256 1088.000 176.000 1088.000 Q 184.883 1088.000 192.000 1088.000 Q 200.522 1088.000 208.000 1088.000 Q 216.755 1088.000 224.000 1088.000 Q 232.394 1088.000 240.000 1088.000 Q 248.362 1088.000 256.000 1088.000 Q 264.001 1088.000 272.000 1088.000 Q 280.300 1088.000 288.000 1088.000 Q 296.466 1088.000 304.000 1088.000 Q 312.237 1088.000 320.000 1088.000 "></path>
    <path id="STROKE_de97bb5c-4e80-41d5-80bc-79ccc7febd82" opacity="1.000" fill="none" stroke="#171612" stroke-width="2.382" stroke-opacity="1.000" stroke-linecap="round" stroke-linejoin="round" d="M -452.741 460.147 Q -451.869 459.879 -450.322 457.174 Q -448.775 454.470 -448.770 449.999 Q -450.046 449.469 -464.211 478.735 Q -464.518 478.764 -461.622 474.183 Q -458.725 469.601 -455.614 464.277 Q -452.504 458.953 -450.911 456.030 Q -449.318 453.107 -448.199 451.620 Q -447.081 450.132 -446.582 449.897 Q -446.084 449.662 -445.809 449.870 Q -445.534 450.079 -445.234 450.334 Q -444.935 450.589 -444.835 451.126 Q -444.735 451.662 -443.796 455.492 Q -442.857 459.322 -442.157 461.226 Q -441.457 463.131 -440.617 464.869 Q -439.776 466.608 -438.695 467.788 Q -437.615 468.968 -436.772 469.182 "></path>
    <path id="STROKE_5f6a510f-fa91-4186-ac30-f26d3c4d7224" opacity="1.000" fill="none" stroke="#171612" stroke-width="2.572" stroke-opacity="1.000" stroke-linecap="round" stroke-linejoin="round" d="M 321.206 1086.816 Q 321.126 1086.703 322.558 1087.119 Q 322.874 1086.983 322.674 1087.848 Q 322.474 1088.712 321.068 1090.018 Q 319.662 1091.323 308.814 1105.405 Q 308.735 1104.190 312.741 1099.526 Q 316.746 1094.862 322.591 1089.875 Q 323.119 1089.827 321.977 1089.697 Q 320.834 1089.566 318.763 1087.641 Q 316.693 1085.716 315.012 1082.177 Q 313.331 1078.638 312.142 1075.743 Q 310.953 1072.849 306.886 1071.886 Q 306.952 1071.818 307.018 1071.750 "></path>
    <path id="STROKE_1971653f-2911-470c-86ee-950997c72e06" opacity="1.000" fill="none" stroke="#171612" stroke-width="2.712" stroke-opacity="1.000" stroke-linecap="round" stroke-linejoin="round" d="M -445.748 1083.789 Q -445.775 1083.851 -445.787 1083.879 Q -445.678 1083.630 -443.372 1078.384 Q -441.066 1073.138 -438.704 1067.764 Q -436.342 1062.390 -434.774 1058.824 Q -433.207 1055.257 -432.631 1053.948 Q -432.056 1052.638 -430.424 1048.926 Q -430.474 1049.040 -430.647 1049.434 Q -430.427 1048.934 -430.437 1048.955 Q -430.425 1048.928 -427.414 1042.079 Q -424.404 1035.229 -421.683 1029.039 Q -418.962 1022.849 -417.056 1018.513 Q -415.150 1014.177 -412.696 1008.595 Q -410.243 1003.012 -406.097 993.580 Q -401.951 984.147 -399.482 978.530 Q -397.013 972.913 -395.430 969.312 Q -393.847 965.711 -392.821 963.377 Q -391.796 961.044 -388.939 954.544 Q -386.081 948.044 -383.317 941.754 Q -380.552 935.464 -374.409 921.488 Q -368.265 907.511 -360.930 890.824 Q -353.596 874.136 -350.008 865.975 Q -346.421 857.814 -344.784 854.091 Q -343.148 850.367 -341.579 846.799 Q -340.011 843.230 -337.464 837.437 Q -334.918 831.644 -333.225 827.792 Q -331.532 823.941 -330.669 821.977 Q -329.806 820.013 -328.639 817.358 Q -327.472 814.703 -324.364 807.634 Q -321.257 800.564 -319.741 797.114 Q -318.224 793.664 -316.352 789.405 Q -314.480 785.146 -313.443 782.788 Q -312.407 780.429 -311.013 777.259 Q -309.620 774.089 -308.844 772.323 Q -308.068 770.558 -305.910 765.650 Q -303.753 760.741 -302.681 758.303 Q -301.609 755.864 -297.601 746.745 Q -293.592 737.626 -291.068 731.882 Q -288.543 726.138 -285.069 718.234 Q -281.595 710.331 -279.838 706.334 Q -278.082 702.337 -277.196 700.322 Q -276.310 698.307 -273.933 692.898 Q -271.555 687.489 -270.078 684.129 Q -268.601 680.768 -267.983 679.363 Q -267.366 677.959 -266.438 675.848 Q -265.510 673.736 -264.781 672.078 Q -264.052 670.419 -263.456 669.063 Q -262.860 667.707 -262.081 665.934 Q -261.301 664.161 -260.807 663.036 Q -260.312 661.911 -259.937 661.057 Q -259.562 660.203 -259.412 659.863 Q -259.263 659.523 -259.188 659.353 Q -259.113 659.182 -259.134 659.231 Q -259.156 659.279 -258.587 657.985 Q -258.018 656.690 -257.254 654.953 Q -256.490 653.216 -255.856 651.773 Q -255.222 650.331 -255.014 649.857 Q -254.806 649.383 -254.598 648.910 Q -254.390 648.436 -254.393 648.443 Q -254.395 648.450 -254.325 648.290 Q -254.255 648.130 -254.036 647.631 Q -253.816 647.132 -253.651 646.757 Q -253.487 646.382 -253.330 646.026 Q -253.174 645.670 -253.137 645.586 Q -253.100 645.501 -253.140 645.594 Q -253.181 645.686 -252.919 645.092 Q -252.658 644.497 -252.610 644.388 Q -252.562 644.279 -252.574 644.305 Q -252.205 643.467 -252.253 643.576 Q -251.996 642.992 -251.904 642.781 "></path>
    <path id="STROKE_0b48409e-e114-45e0-988a-6d9db7b4d17a" opacity="1.000" fill="none" stroke="#171612" stroke-width="2.720" stroke-opacity="1.000" stroke-linecap="round" stroke-linejoin="round" d="M -251.517 644.147 Q -251.721 643.662 -252.133 642.685 "></path>
    <path id="STROKE_76310102-80ca-4e6b-8be9-6547eaae5524" opacity="1.000" fill="none" stroke="#171612" stroke-width="2.631" stroke-opacity="1.000" stroke-linecap="round" stroke-linejoin="round" d="M -252.134 642.682 Q -249.741 648.363 -246.979 654.921 Q -244.216 661.479 -242.173 666.332 Q -240.129 671.184 -236.645 679.456 Q -233.161 687.728 -230.790 693.357 Q -228.419 698.986 -227.211 701.855 Q -226.002 704.723 -219.727 719.623 Q -213.451 734.522 -209.822 743.138 Q -206.193 751.754 -204.611 755.510 Q -203.030 759.265 -200.849 764.443 Q -198.667 769.622 -197.563 772.245 Q -196.458 774.868 -195.052 778.206 Q -193.646 781.543 -190.780 788.347 Q -187.914 795.152 -186.811 797.770 Q -185.709 800.389 -184.432 803.420 Q -183.155 806.451 -182.485 808.042 Q -181.815 809.633 -181.425 810.558 Q -181.035 811.484 -180.662 812.369 Q -180.290 813.254 -179.957 814.044 Q -179.624 814.835 -179.578 814.944 Q -179.531 815.054 -179.108 816.060 Q -178.684 817.067 -178.155 818.323 Q -177.625 819.580 -176.337 822.638 Q -175.049 825.696 -173.602 829.132 "></path>
    <path id="STROKE_ef85791b-c32f-46e9-be75-0a4c6b705fc8" opacity="1.000" fill="none" stroke="#171612" stroke-width="2.555" stroke-opacity="1.000" stroke-linecap="round" stroke-linejoin="round" d="M -174.298 829.138 Q -128.888 828.734 -113.355 828.596 Q -97.821 828.458 -90.042 828.388 Q -82.262 828.319 -73.877 828.245 Q -65.493 828.170 -57.122 828.096 Q -48.752 828.021 -44.578 827.984 Q -40.404 827.947 -37.492 827.921 Q -34.581 827.895 -22.218 827.785 Q -9.855 827.675 0.784 827.580 Q 11.422 827.486 16.728 827.439 Q 22.034 827.391 24.645 827.368 Q 27.256 827.345 27.704 827.341 Q 28.151 827.337 35.939 827.268 Q 43.726 827.198 63.651 827.021 Q 63.738 827.020 62.730 827.029 "></path>
    <path id="STROKE_83e94b25-7082-4484-a103-e732bc34d014" opacity="1.000" fill="none" stroke="#171612" stroke-width="1.912" stroke-opacity="1.000" stroke-linecap="round" stroke-linejoin="round" d="M 67.191 828.591 Q 66.738 827.969 66.052 827.025 Q 66.471 827.602 66.470 827.600 Q 67.407 828.888 72.923 836.466 Q 78.438 844.044 99.249 872.636 Q 120.059 901.228 130.971 916.220 Q 141.883 931.212 150.350 942.845 Q 158.817 954.477 176.860 979.267 Q 194.902 1004.057 203.722 1016.175 Q 212.542 1028.293 216.373 1033.555 Q 220.203 1038.818 221.932 1041.193 Q 223.661 1043.569 225.867 1046.600 Q 228.074 1049.631 229.788 1051.986 Q 231.502 1054.341 232.371 1055.536 Q 233.240 1056.730 233.662 1057.310 Q 234.084 1057.889 234.343 1058.245 Q 234.603 1058.602 234.667 1058.690 Q 234.731 1058.778 234.651 1058.668 Q 234.570 1058.557 236.890 1061.745 Q 239.210 1064.932 249.109 1078.533 L 249.087 1078.501 Q 248.889 1078.229 249.317 1078.819 Q 249.746 1079.408 250.183 1080.008 Q 250.619 1080.607 250.571 1080.541 Q 250.524 1080.476 250.528 1080.482 Q 250.532 1080.488 250.680 1080.690 Q 250.827 1080.893 251.123 1081.300 Q 251.420 1081.707 251.399 1081.679 Q 251.379 1081.651 251.466 1081.771 Q 251.553 1081.891 251.745 1082.155 Q 251.937 1082.418 252.339 1082.971 Q 252.741 1083.523 253.139 1084.069 Q 253.537 1084.616 253.525 1084.600 Q 253.514 1084.584 253.582 1084.678 Q 253.650 1084.772 253.436 1084.477 Q 253.221 1084.182 255.210 1086.915 Q 254.389 1085.787 251.321 1081.572 "></path>
    <path id="STROKE_9d859e2c-caf4-4d93-976a-1a286a369e3e" opacity="1.000" fill="none" stroke="#f66640" stroke-width="2.720" stroke-opacity="1.000" stroke-linecap="round" stroke-linejoin="round" d="M -441.718 640.000 Q -441.705 640.000 -443.361 640.000 Q -443.164 640.000 -432.000 640.000 Q -423.871 640.000 -416.000 640.000 Q -406.462 640.000 -400.000 640.000 Q -391.875 640.000 -384.000 640.000 Q -375.411 640.000 -368.000 640.000 Q -358.934 640.000 -352.000 640.000 Q -343.237 640.000 -336.000 640.000 Q -327.883 640.000 -320.000 640.000 Q -311.186 640.000 -304.000 640.000 Q -295.106 640.000 -288.000 640.000 Q -279.902 640.000 -272.000 640.000 Q -263.987 640.000 -256.000 640.000 L -262.946 640.000 Q -262.836 640.000 -262.727 640.000 Q -262.836 640.000 -263.274 640.000 "></path>
    <path id="STROKE_ff893f3d-fcc1-4c2a-b1a5-9e10bdf243bc" opacity="1.000" fill="none" stroke="#f66640" stroke-width="2.402" stroke-opacity="1.000" stroke-linecap="round" stroke-linejoin="round" d="M -444.854 638.493 Q -445.394 639.237 -446.553 639.767 Q -447.251 639.557 -443.662 634.443 Q -440.073 629.328 -437.391 626.124 Q -434.710 622.919 -431.966 621.122 Q -431.080 621.051 -434.895 626.700 Q -438.711 632.348 -442.730 636.940 Q -446.750 641.532 -450.854 644.667 Q -450.440 644.008 -448.117 643.842 Q -445.794 643.676 -443.728 643.808 Q -441.661 643.940 -438.698 645.590 Q -435.734 647.240 -432.733 658.874 Q -432.433 658.221 -431.582 654.323 "></path>
    <path id="STROKE_15b3eab1-8d0b-4654-872c-3296c69ff08c" opacity="1.000" fill="none" stroke="#f66640" stroke-width="2.648" stroke-opacity="1.000" stroke-linecap="round" stroke-linejoin="round" d="M -256.946 641.246 Q -257.858 640.984 -253.002 641.775 Q -253.203 642.231 -257.211 645.367 Q -261.218 648.502 -264.493 653.388 Q -263.831 653.331 -260.369 649.535 Q -256.907 645.740 -254.941 643.875 Q -252.974 642.010 -252.370 641.065 Q -251.765 640.119 -251.249 639.044 Q -250.733 637.968 -254.960 636.414 Q -259.188 634.859 -261.945 633.668 Q -264.701 632.476 -266.716 631.417 Q -268.730 630.357 -270.767 625.529 "></path>
    <path id="STROKE_25c9f1c3-af6b-4da9-b722-11ed4c220260" opacity="1.000" fill="none" stroke="#f66640" stroke-width="2.720" stroke-opacity="1.000" stroke-linecap="round" stroke-linejoin="round" d="M -243.492 640.000 Q -244.620 640.000 -244.246 640.000 Q -245.547 640.000 -245.068 640.000 Q -245.176 640.000 -245.230 640.000 Q -244.947 640.000 -240.000 640.000 Q -231.782 640.000 -224.000 640.000 Q -215.532 640.000 -208.000 640.000 Q -199.949 640.000 -192.000 640.000 Q -184.065 640.000 -182.923 640.000 "></path>
    <path id="STROKE_03da71ab-14fe-46a5-b0f2-236405f8b7a0" opacity="1.000" fill="none" stroke="#f66640" stroke-width="2.720" stroke-opacity="1.000" stroke-linecap="round" stroke-linejoin="round" d="M -176.000 648.591 Q -176.000 648.540 -176.000 648.480 Q -176.000 648.242 -176.000 656.000 "></path>
    <path id="STROKE_950e0791-543f-477c-ae97-11db03aba054" opacity="1.000" fill="none" stroke="#f66640" stroke-width="2.720" stroke-opacity="1.000" stroke-linecap="round" stroke-linejoin="round" d="M -176.000 663.134 Q -176.000 663.471 -176.000 672.000 "></path>
    <path id="STROKE_482d849e-434d-42c9-a054-7136d9884db8" opacity="1.000" fill="none" stroke="#f66640" stroke-width="2.720" stroke-opacity="1.000" stroke-linecap="round" stroke-linejoin="round" d="M -176.000 680.668 Q -176.000 681.694 -176.000 681.426 Q -176.000 681.638 -176.000 688.000 "></path>
    <path id="STROKE_db4fc011-208f-4a76-bc06-d77dc689a2b3" opacity="1.000" fill="none" stroke="#f66640" stroke-width="2.720" stroke-opacity="1.000" stroke-linecap="round" stroke-linejoin="round" d="M -176.000 695.584 Q -176.000 695.253 -176.000 694.665 Q -176.000 694.938 -176.000 704.000 "></path>
    <path id="STROKE_07b0a714-1f4e-4da1-8f90-2ea191b02cf8" opacity="1.000" fill="none" stroke="#f66640" stroke-width="2.720" stroke-opacity="1.000" stroke-linecap="round" stroke-linejoin="round" d="M -176.000 714.846 Q -176.000 714.907 -176.000 720.000 "></path>
    <path id="STROKE_b6a5cf0d-08e7-4ded-a4c8-ea6165ecd77b" opacity="1.000" fill="none" stroke="#f66640" stroke-width="2.720" stroke-opacity="1.000" stroke-linecap="round" stroke-linejoin="round" d="M -176.000 732.704 Q -176.000 732.593 -176.000 732.381 L -176.000 736.000 "></path>
    <path id="STROKE_fdf5b00a-e531-4b58-b1a9-8e488ff11b4c" opacity="1.000" fill="none" stroke="#f66640" stroke-width="2.720" stroke-opacity="1.000" stroke-linecap="round" stroke-linejoin="round" d="M -176.000 746.276 Q -176.000 746.378 -176.000 752.000 L -176.000 760.112 "></path>
    <path id="STROKE_a93530b8-253a-4f36-b363-97cc43e284fd" opacity="1.000" fill="none" stroke="#f66640" stroke-width="2.720" stroke-opacity="1.000" stroke-linecap="round" stroke-linejoin="round" d="M -176.000 770.582 Q -176.000 771.528 -176.000 784.000 "></path>
    <path id="STROKE_c69107d0-b78b-42c0-8d51-6485252f3a53" opacity="1.000" fill="none" stroke="#f66640" stroke-width="2.720" stroke-opacity="1.000" stroke-linecap="round" stroke-linejoin="round" d="M -176.000 800.000 Q -176.000 808.247 -176.000 816.000 "></path>
    <path id="STROKE_cb567e0f-f6b7-4e68-a1aa-dc0c29eed090" opacity="1.000" fill="none" stroke="#f66640" stroke-width="2.720" stroke-opacity="1.000" stroke-linecap="round" stroke-linejoin="round" d="M -176.000 826.529 Q -176.000 826.862 -176.000 832.000 "></path>
    <path id="STROKE_7645bbdd-0b9a-4804-96d5-2815d8d420db" opacity="1.000" fill="none" stroke="#f66640" stroke-width="2.567" stroke-opacity="1.000" stroke-linecap="round" stroke-linejoin="round" d="M -181.616 641.784 Q -181.712 641.764 -179.862 641.838 Q -179.195 642.310 -182.214 645.440 Q -185.233 648.569 -189.642 655.503 Q -189.314 655.356 -188.091 653.912 Q -186.867 652.468 -184.796 649.919 Q -182.725 647.370 -180.500 644.857 Q -178.276 642.345 -177.359 641.000 Q -176.441 639.655 -176.205 638.861 Q -175.969 638.068 -176.106 637.633 Q -176.243 637.198 -176.434 636.809 Q -176.625 636.420 -177.490 635.641 Q -178.356 634.862 -181.944 633.646 Q -185.533 632.430 -190.326 628.227 "></path>
    <path id="STROKE_c5d015c9-649a-4595-b0d6-cfd3ea55054c" opacity="1.000" fill="none" stroke="#f66640" stroke-width="2.720" stroke-opacity="1.000" stroke-linecap="round" stroke-linejoin="round" d="M -245.584 637.133 Q -245.924 637.715 -239.283 630.066 Q -239.580 630.278 -242.518 633.738 Q -245.456 637.199 -247.007 639.375 Q -248.558 641.551 -249.275 643.160 Q -249.992 644.769 -249.788 645.656 Q -249.585 646.542 -249.518 646.774 Q -249.451 647.005 -245.534 648.532 Q -241.616 650.060 -237.786 652.744 "></path>
    <path id="STROKE_313d4fc2-4ee9-4d1f-8ca3-5368fb52a763" opacity="1.000" fill="none" stroke="#f66640" stroke-width="2.720" stroke-opacity="1.000" stroke-linecap="round" stroke-linejoin="round" d="M -176.000 640.000 Q -172.005 640.000 -170.476 640.000 L -176.000 640.000 L -160.000 640.000 Q -151.273 640.000 -144.000 640.000 Q -135.291 640.000 -128.000 640.000 Q -118.597 640.000 -112.000 640.000 Q -103.357 640.000 -96.000 640.000 Q -87.076 640.000 -80.000 640.000 Q -71.309 640.000 -64.000 640.000 Q -54.743 640.000 -48.000 640.000 Q -39.902 640.000 -32.000 640.000 Q -23.507 640.000 -16.000 640.000 Q -7.340 640.000 0.000 640.000 Q 8.713 640.000 16.000 640.000 Q 24.561 640.000 32.000 640.000 Q 40.119 640.000 48.000 640.000 Q 56.142 640.000 57.084 640.000 Q 56.484 640.000 56.514 640.000 Q 56.400 640.000 55.944 640.000 "></path>
    <path id="STROKE_f6a5ebc7-f80b-4c91-8a61-c19156f8e765" opacity="1.000" fill="none" stroke="#f66640" stroke-width="2.685" stroke-opacity="1.000" stroke-linecap="round" stroke-linejoin="round" d="M -166.470 639.431 Q -166.902 639.454 -168.052 639.437 Q -169.202 639.419 -170.075 639.628 Q -170.948 639.837 -171.249 640.024 Q -171.551 640.211 -171.899 640.333 Q -172.246 640.456 -172.948 640.600 Q -173.650 640.744 -173.580 640.708 Q -173.511 640.672 -173.579 640.686 Q -173.647 640.700 -173.509 640.695 Q -173.371 640.689 -174.211 640.693 Q -172.555 638.929 -168.886 635.570 Q -165.218 632.210 -158.900 626.280 Q -158.885 627.022 -162.764 631.189 Q -166.644 635.356 -169.270 638.836 Q -171.897 642.316 -172.800 645.515 Q -171.037 645.882 -168.167 646.031 Q -165.297 646.179 -162.612 647.332 Q -159.926 648.484 -157.275 652.754 Q -157.061 652.619 -156.320 650.573 "></path>
    <path id="STROKE_26d8d122-3489-478a-a211-51eff0e267d3" opacity="1.000" fill="none" stroke="#f66640" stroke-width="2.710" stroke-opacity="1.000" stroke-linecap="round" stroke-linejoin="round" d="M 60.292 642.703 Q 60.862 642.106 60.734 642.270 Q 60.896 642.071 61.647 642.072 Q 63.278 642.020 54.219 651.941 Q 54.241 651.590 57.996 648.914 Q 61.751 646.237 63.612 644.688 Q 65.473 643.138 66.084 642.473 Q 66.695 641.808 67.421 640.061 Q 68.148 638.313 65.069 636.981 Q 61.990 635.649 59.951 634.765 Q 57.912 633.881 56.565 632.786 Q 55.219 631.690 53.193 627.488 "></path>
    <path id="STROKE_4ac3d8cf-2856-447e-9044-ef9efbbc0402" opacity="1.000" fill="none" stroke="#f66640" stroke-width="2.720" stroke-opacity="1.000" stroke-linecap="round" stroke-linejoin="round" d="M 64.000 822.039 Q 64.000 821.853 64.000 823.130 Q 64.000 823.112 64.000 816.000 "></path>
    <path id="STROKE_0d8abbec-4800-4f7a-af9b-b34ff9ce49d4" opacity="1.000" fill="none" stroke="#f66640" stroke-width="2.720" stroke-opacity="1.000" stroke-linecap="round" stroke-linejoin="round" d="M 64.000 803.552 Q 64.000 803.839 64.000 804.237 L 64.000 800.000 "></path>
    <path id="STROKE_116273bc-05ea-486c-b283-93dec9686afd" opacity="1.000" fill="none" stroke="#f66640" stroke-width="2.720" stroke-opacity="1.000" stroke-linecap="round" stroke-linejoin="round" d="M 64.000 785.507 L 64.000 784.000 "></path>
    <path id="STROKE_36c4ec57-2e1f-4dd5-b7c8-46d41bf381c1" opacity="1.000" fill="none" stroke="#f66640" stroke-width="2.720" stroke-opacity="1.000" stroke-linecap="round" stroke-linejoin="round" d="M 64.000 767.009 Q 64.000 763.515 64.000 756.200 "></path>
    <path id="STROKE_3925a686-7b27-41c6-b0e7-0758094d2c14" opacity="1.000" fill="none" stroke="#f66640" stroke-width="2.720" stroke-opacity="1.000" stroke-linecap="round" stroke-linejoin="round" d="M 64.000 739.997 Q 64.000 740.168 64.000 740.393 L 64.000 737.401 "></path>
    <path id="STROKE_374bc4f0-aee4-4c86-aeaa-5caefaf2e934" opacity="1.000" fill="none" stroke="#f66640" stroke-width="2.720" stroke-opacity="1.000" stroke-linecap="round" stroke-linejoin="round" d="M 64.000 695.813 L 64.000 688.000 "></path>
    <path id="STROKE_2095d162-918c-442d-a2df-5215e10d6845" opacity="1.000" fill="none" stroke="#f66640" stroke-width="2.720" stroke-opacity="1.000" stroke-linecap="round" stroke-linejoin="round" d="M 64.000 713.769 L 64.000 704.359 "></path>
    <path id="STROKE_0216d94e-a48f-46b9-84ce-cdf8aa42e3f8" opacity="1.000" fill="none" stroke="#f66640" stroke-width="2.720" stroke-opacity="1.000" stroke-linecap="round" stroke-linejoin="round" d="M 64.000 672.000 L 64.000 679.836 "></path>
    <path id="STROKE_59f2b619-d3b2-4e05-ae4b-ec736897169f" opacity="1.000" fill="none" stroke="#f66640" stroke-width="2.720" stroke-opacity="1.000" stroke-linecap="round" stroke-linejoin="round" d="M 64.000 686.068 L 64.000 688.000 L 64.000 695.812 "></path>
    <path id="STROKE_bfc6a84f-3fe5-4f2f-9154-02fb31dcd0d5" opacity="1.000" fill="none" stroke="#f66640" stroke-width="2.720" stroke-opacity="1.000" stroke-linecap="round" stroke-linejoin="round" d="M 64.000 704.360 Q 64.000 712.432 64.000 713.768 "></path>
    <path id="STROKE_1ca0d03b-a820-48d4-b955-97ed4825b453" opacity="1.000" fill="none" stroke="#f66640" stroke-width="2.720" stroke-opacity="1.000" stroke-linecap="round" stroke-linejoin="round" d="M 64.000 713.762 L 64.000 704.359 "></path>
    <path id="STROKE_b66549fb-de83-4ed3-aab2-b3a942a98355" opacity="1.000" fill="none" stroke="#f66640" stroke-width="1.951" stroke-opacity="1.000" stroke-linecap="round" stroke-linejoin="round" d="M 64.000 695.810 Q 64.000 695.100 64.000 688.000 L 64.000 686.070 "></path>
    <path id="STROKE_2451e00f-4d0f-44a1-9daa-9f0a16512f94" opacity="1.000" fill="none" stroke="#f66640" stroke-width="2.720" stroke-opacity="1.000" stroke-linecap="round" stroke-linejoin="round" d="M 64.000 679.839 Q 64.000 679.308 64.000 672.000 L 64.000 670.924 "></path>
    <path id="STROKE_b52fbfcd-cede-4720-a189-12c7ed2db29c" opacity="1.000" fill="none" stroke="#f66640" stroke-width="2.720" stroke-opacity="1.000" stroke-linecap="round" stroke-linejoin="round" d="M 64.000 661.555 L 64.000 656.000 Q 64.000 656.497 64.000 661.551 "></path>
    <path id="STROKE_1fcac637-8696-4923-8af4-8941505f7b90" opacity="1.000" fill="none" stroke="#f66640" stroke-width="2.527" stroke-opacity="1.000" stroke-linecap="round" stroke-linejoin="round" d="M 64.000 670.929 L 64.000 672.000 L 64.000 679.840 "></path>
    <path id="STROKE_201fa0cd-5a0c-41b3-a466-d160e1aa0b9b" opacity="1.000" fill="none" stroke="#f66640" stroke-width="2.343" stroke-opacity="1.000" stroke-linecap="round" stroke-linejoin="round" d="M 64.000 686.068 L 64.000 688.000 L 64.000 695.809 "></path>
    <path id="STROKE_03517d19-5dbe-451a-b0f3-70ea221b0a34" opacity="1.000" fill="none" stroke="#f66640" stroke-width="2.720" stroke-opacity="1.000" stroke-linecap="round" stroke-linejoin="round" d="M 64.000 704.353 Q 64.000 712.668 64.000 713.766 "></path>
    <path id="STROKE_4c6e101c-937e-4162-aea3-d3857fded599" opacity="1.000" fill="none" stroke="#f66640" stroke-width="2.720" stroke-opacity="1.000" stroke-linecap="round" stroke-linejoin="round" d="M 64.000 720.316 L 64.000 728.552 "></path>
    <path id="STROKE_1fff003e-542e-4572-ae37-14c2265f6cf7" opacity="1.000" fill="none" stroke="#f66640" stroke-width="2.720" stroke-opacity="1.000" stroke-linecap="round" stroke-linejoin="round" d="M 64.000 737.401 Q 64.000 744.531 64.000 748.743 "></path>
    <path id="STROKE_a7ed4da3-2822-490a-8bcc-2e8a891b6cc9" opacity="1.000" fill="none" stroke="#f66640" stroke-width="2.720" stroke-opacity="1.000" stroke-linecap="round" stroke-linejoin="round" d="M 64.000 756.196 Q 64.000 760.617 64.000 767.011 "></path>
    <path id="STROKE_29887d30-a57e-4cec-b93c-a2d337392562" opacity="1.000" fill="none" stroke="#f66640" stroke-width="2.720" stroke-opacity="1.000" stroke-linecap="round" stroke-linejoin="round" d="M 64.000 774.590 Q 64.000 776.340 64.000 784.000 L 64.000 785.506 "></path>
    <path id="STROKE_37879991-d8b8-4ad7-b257-4e4c552d85dc" opacity="1.000" fill="none" stroke="#f66640" stroke-width="2.720" stroke-opacity="1.000" stroke-linecap="round" stroke-linejoin="round" d="M 64.000 792.957 L 64.000 800.000 L 64.000 804.294 "></path>
    <path id="STROKE_87887826-e2e9-4ffa-aa1a-c588538570da" opacity="1.000" fill="none" stroke="#f66640" stroke-width="2.720" stroke-opacity="1.000" stroke-linecap="round" stroke-linejoin="round" d="M 64.000 811.278 L 64.000 816.000 "></path>
    <path id="STROKE_6107d811-808d-406e-a2ce-5a12bb12b062" opacity="1.000" fill="none" stroke="#f66640" stroke-width="2.720" stroke-opacity="1.000" stroke-linecap="round" stroke-linejoin="round" d="M 72.618 640.000 L 80.000 640.000 L 64.000 640.000 L 80.000 640.000 Q 88.059 640.000 96.000 640.000 Q 104.094 640.000 112.000 640.000 Q 120.655 640.000 128.000 640.000 Q 136.888 640.000 144.000 640.000 Q 152.329 640.000 160.000 640.000 Q 169.633 640.000 176.000 640.000 Q 184.134 640.000 192.000 640.000 Q 200.565 640.000 208.000 640.000 Q 216.014 640.000 224.000 640.000 Q 232.172 640.000 240.000 640.000 Q 248.963 640.000 256.000 640.000 "></path>
    <path id="STROKE_fc1c4d95-3bf7-48c5-9926-c8aaaffae284" opacity="1.000" fill="none" stroke="#f66640" stroke-width="2.548" stroke-opacity="1.000" stroke-linecap="round" stroke-linejoin="round" d="M 70.311 634.545 Q 70.311 634.514 70.409 633.983 Q 69.767 634.310 74.678 632.024 Q 74.042 633.235 66.520 640.058 Q 67.045 641.140 81.500 623.001 Q 81.581 623.206 77.704 627.006 Q 73.827 630.807 71.878 633.063 Q 69.930 635.319 68.119 637.999 Q 66.308 640.678 70.387 647.020 Q 74.466 653.362 80.676 663.356 Q 80.867 662.974 80.973 662.688 "></path>
    <path id="STROKE_922ea5f2-5e29-4a98-a8f1-e9d49edf919e" opacity="1.000" fill="none" stroke="#f66640" stroke-width="2.534" stroke-opacity="1.000" stroke-linecap="round" stroke-linejoin="round" d="M 256.430 639.390 Q 256.121 639.306 257.704 639.370 Q 259.286 639.435 260.049 639.415 Q 260.812 639.394 260.914 639.775 Q 261.017 640.156 261.208 640.746 Q 261.399 641.336 261.287 641.139 Q 261.175 640.942 260.996 641.965 Q 260.816 642.989 257.128 646.692 Q 253.440 650.396 248.404 652.936 Q 247.040 653.386 251.006 649.247 Q 254.973 645.108 257.471 642.541 Q 259.970 639.974 260.934 638.155 Q 261.898 636.336 262.034 634.814 Q 262.169 633.291 260.671 630.998 Q 259.174 628.705 251.387 622.865 "></path>
    <path id="STROKE_8569f94c-a45f-4aa9-b54e-56a6bbe0ea34" opacity="1.000" fill="none" stroke="#f66640" stroke-width="2.720" stroke-opacity="1.000" stroke-linecap="round" stroke-linejoin="round" d="M 256.000 645.570 Q 256.000 645.632 256.000 645.904 L 256.000 640.000 L 256.000 647.498 L 256.000 640.000 L 256.000 654.784 "></path>
    <path id="STROKE_a9432761-2760-42fa-ab41-df2b7eaa96fb" opacity="1.000" fill="none" stroke="#f66640" stroke-width="2.562" stroke-opacity="1.000" stroke-linecap="round" stroke-linejoin="round" d="M 256.000 663.361 Q 256.000 666.013 256.000 670.443 "></path>
    <path id="STROKE_5e377c6f-444b-446a-85a9-139f6bac052c" opacity="1.000" fill="none" stroke="#f66640" stroke-width="2.375" stroke-opacity="1.000" stroke-linecap="round" stroke-linejoin="round" d="M 256.000 676.434 L 256.000 680.033 "></path>
    <path id="STROKE_9cfd86e2-569c-4dff-92ea-87286e625857" opacity="1.000" fill="none" stroke="#f66640" stroke-width="2.410" stroke-opacity="1.000" stroke-linecap="round" stroke-linejoin="round" d="M 256.000 686.143 L 256.000 688.000 L 256.000 693.465 "></path>
    <path id="STROKE_68d4604a-86c0-4c12-8eed-319e55feb1ee" opacity="1.000" fill="none" stroke="#f66640" stroke-width="1.849" stroke-opacity="1.000" stroke-linecap="round" stroke-linejoin="round" d="M 256.000 700.875 L 256.000 704.000 L 256.000 709.354 "></path>
    <path id="STROKE_9de79c5a-0322-4090-81b3-afd1f7bf2ce3" opacity="1.000" fill="none" stroke="#f66640" stroke-width="1.739" stroke-opacity="1.000" stroke-linecap="round" stroke-linejoin="round" d="M 256.000 715.977 L 256.000 720.000 L 256.000 722.870 "></path>
    <path id="STROKE_1af665e9-e0c4-4dae-8301-cfeceb9216c7" opacity="1.000" fill="none" stroke="#f66640" stroke-width="1.475" stroke-opacity="1.000" stroke-linecap="round" stroke-linejoin="round" d="M 256.000 729.706 Q 256.000 731.976 256.000 734.057 "></path>
    <path id="STROKE_a17977f5-2f49-49e3-afed-22669762ec1a" opacity="1.000" fill="none" stroke="#f66640" stroke-width="1.440" stroke-opacity="1.000" stroke-linecap="round" stroke-linejoin="round" d="M 256.000 740.645 L 256.000 744.177 "></path>
    <path id="STROKE_8ea1b01d-d402-4f16-8b72-24bd28dd8a57" opacity="1.000" fill="none" stroke="#f66640" stroke-width="1.440" stroke-opacity="1.000" stroke-linecap="round" stroke-linejoin="round" d="M 256.000 752.666 Q 256.000 761.244 256.000 764.899 "></path>
    <path id="STROKE_cc25e33b-741a-4e5a-b051-7af0f379cd28" opacity="1.000" fill="none" stroke="#f66640" stroke-width="1.440" stroke-opacity="1.000" stroke-linecap="round" stroke-linejoin="round" d="M 256.000 771.848 L 256.000 773.056 "></path>
    <path id="STROKE_3465b193-4aff-43d0-b5c4-dce4421c04cb" opacity="1.000" fill="none" stroke="#f66640" stroke-width="1.440" stroke-opacity="1.000" stroke-linecap="round" stroke-linejoin="round" d="M 256.000 780.837 L 256.000 784.000 L 256.000 788.847 "></path>
    <path id="STROKE_3cd22bc8-a808-4d50-9cba-bf9742b2c9ad" opacity="1.000" fill="none" stroke="#f66640" stroke-width="1.440" stroke-opacity="1.000" stroke-linecap="round" stroke-linejoin="round" d="M 256.000 794.971 L 256.000 800.000 L 256.000 802.762 "></path>
    <path id="STROKE_c56d47eb-d558-47f9-b59d-7680d4c19765" opacity="1.000" fill="none" stroke="#f66640" stroke-width="1.440" stroke-opacity="1.000" stroke-linecap="round" stroke-linejoin="round" d="M 256.000 809.351 Q 256.000 809.557 256.000 815.220 "></path>
    <path id="STROKE_f936c2f0-2980-49e9-a662-6227cdffad93" opacity="1.000" fill="none" stroke="#f66640" stroke-width="1.440" stroke-opacity="1.000" stroke-linecap="round" stroke-linejoin="round" d="M 256.000 821.346 L 256.000 827.327 "></path>
    <path id="STROKE_2013fdc3-ae8c-4261-80a3-ecc1adcb21b2" opacity="1.000" fill="none" stroke="#f66640" stroke-width="1.440" stroke-opacity="1.000" stroke-linecap="round" stroke-linejoin="round" d="M 256.000 833.938 Q 256.000 843.077 256.000 844.869 "></path>
    <path id="STROKE_901b3cbb-2a19-4461-8238-b289bb13b724" opacity="1.000" fill="none" stroke="#f66640" stroke-width="1.440" stroke-opacity="1.000" stroke-linecap="round" stroke-linejoin="round" d="M 256.000 851.268 L 256.000 856.882 "></path>
    <path id="STROKE_fccb18ea-4d28-4c6f-9853-9ca3b0096a3b" opacity="1.000" fill="none" stroke="#f66640" stroke-width="1.480" stroke-opacity="1.000" stroke-linecap="round" stroke-linejoin="round" d="M 256.000 862.539 L 256.000 864.000 L 256.000 871.627 "></path>
    <path id="STROKE_e0631db3-965f-4b22-b4a5-f23352ae77ec" opacity="1.000" fill="none" stroke="#f66640" stroke-width="1.484" stroke-opacity="1.000" stroke-linecap="round" stroke-linejoin="round" d="M 256.000 877.509 L 256.000 880.000 L 256.000 885.262 "></path>
    <path id="STROKE_eca3415f-1fbe-440f-8b7e-a75bc5af6809" opacity="1.000" fill="none" stroke="#f66640" stroke-width="1.465" stroke-opacity="1.000" stroke-linecap="round" stroke-linejoin="round" d="M 256.000 890.697 L 256.000 896.000 L 256.000 901.311 "></path>
    <path id="STROKE_309e7454-f31c-4a20-a84f-5489773dc2b3" opacity="1.000" fill="none" stroke="#f66640" stroke-width="1.495" stroke-opacity="1.000" stroke-linecap="round" stroke-linejoin="round" d="M 256.000 906.745 L 256.000 912.000 Q 256.000 923.180 256.000 923.531 "></path>
    <path id="STROKE_50e64046-99d9-4dca-b311-50375c8eea84" opacity="1.000" fill="none" stroke="#f66640" stroke-width="1.651" stroke-opacity="1.000" stroke-linecap="round" stroke-linejoin="round" d="M 256.000 929.005 L 256.000 933.099 "></path>
    <path id="STROKE_d0f9816a-88da-4341-b038-b88a7ce844dc" opacity="1.000" fill="none" stroke="#f66640" stroke-width="1.739" stroke-opacity="1.000" stroke-linecap="round" stroke-linejoin="round" d="M 256.000 938.496 L 256.000 944.000 L 256.000 947.620 "></path>
    <path id="STROKE_93e94f2c-eebe-4779-b1bb-2e0f681701b9" opacity="1.000" fill="none" stroke="#f66640" stroke-width="1.629" stroke-opacity="1.000" stroke-linecap="round" stroke-linejoin="round" d="M 256.000 953.117 Q 256.000 954.313 256.000 960.000 L 256.000 964.457 "></path>
    <path id="STROKE_d22b64ee-d85a-4a83-9f94-65d6cab707b2" opacity="1.000" fill="none" stroke="#f66640" stroke-width="1.813" stroke-opacity="1.000" stroke-linecap="round" stroke-linejoin="round" d="M 256.000 970.153 L 256.000 976.000 L 256.000 979.781 "></path>
    <path id="STROKE_53d02251-e829-4331-9849-bbed84cc76be" opacity="1.000" fill="none" stroke="#f66640" stroke-width="1.834" stroke-opacity="1.000" stroke-linecap="round" stroke-linejoin="round" d="M 256.000 985.196 Q 256.000 986.238 256.000 992.000 L 256.000 995.161 "></path>
    <path id="STROKE_683a4af2-0774-415a-b763-d58e926f83ad" opacity="1.000" fill="none" stroke="#f66640" stroke-width="2.446" stroke-opacity="1.000" stroke-linecap="round" stroke-linejoin="round" d="M 256.000 1000.744 Q 256.000 1001.033 256.000 1003.980 "></path>
    <path id="STROKE_e79604b7-c800-431b-8d07-4474fc10aa27" opacity="1.000" fill="none" stroke="#f66640" stroke-width="2.329" stroke-opacity="1.000" stroke-linecap="round" stroke-linejoin="round" d="M 256.000 1009.454 L 256.000 1016.168 "></path>
    <path id="STROKE_2bcdd4e5-3ebc-4650-b2bd-f148f21b53e7" opacity="1.000" fill="none" stroke="#f66640" stroke-width="2.473" stroke-opacity="1.000" stroke-linecap="round" stroke-linejoin="round" d="M 256.000 1021.669 L 256.000 1024.000 Q 256.000 1032.896 256.000 1034.984 "></path>
    <path id="STROKE_98e85cb7-f591-4392-9c6e-34a265a93604" opacity="1.000" fill="none" stroke="#f66640" stroke-width="2.720" stroke-opacity="1.000" stroke-linecap="round" stroke-linejoin="round" d="M 256.000 1041.420 Q 256.000 1048.024 256.000 1053.527 "></path>
    <path id="STROKE_b2c26820-b36f-418d-8ef9-5ac306fe268c" opacity="1.000" fill="none" stroke="#f66640" stroke-width="2.720" stroke-opacity="1.000" stroke-linecap="round" stroke-linejoin="round" d="M 256.000 1058.989 Q 256.000 1064.079 256.000 1072.000 "></path>
    <path id="STROKE_a128752e-d6b3-4a18-bc18-a0998437b6a6" opacity="1.000" fill="none" stroke="#f66640" stroke-width="2.146" stroke-opacity="1.000" stroke-linecap="round" stroke-linejoin="round" d="M -382.437 593.758 Q -383.701 592.083 -383.622 592.246 Q -383.987 591.784 -384.260 591.383 Q -383.804 592.192 -376.373 600.757 Q -368.941 609.322 -359.169 619.464 Q -358.834 619.734 -365.968 611.685 Q -373.102 603.637 -378.265 597.692 Q -383.428 591.746 -385.513 585.324 Q -384.326 583.543 -374.799 590.992 Q -365.272 598.441 -360.018 602.564 Q -354.765 606.686 -352.048 608.730 Q -349.330 610.775 -347.524 611.653 Q -347.570 611.517 -353.290 606.252 "></path>
    <path id="STROKE_0c3c54fb-1fa4-43c3-a670-f42899623c65" opacity="1.000" fill="none" stroke="#f66640" stroke-width="2.720" stroke-opacity="1.000" stroke-linecap="round" stroke-linejoin="round" d="M -364.297 599.364 Q -364.317 599.294 -364.251 600.784 Q -364.185 602.275 -364.203 603.157 Q -364.221 604.040 -364.092 605.586 Q -363.964 607.131 -364.445 608.254 Q -364.925 609.378 -365.065 609.517 Q -365.204 609.656 -366.592 610.161 Q -367.980 610.666 -369.607 609.551 "></path>
    <path id="STROKE_0994df1d-f54d-4f88-be6d-0caa4af5135e" opacity="1.000" fill="none" stroke="#f66640" stroke-width="2.351" stroke-opacity="1.000" stroke-linecap="round" stroke-linejoin="round" d="M -374.370 576.513 Q -374.378 576.563 -368.702 581.832 Q -363.025 587.101 -356.774 592.527 Q -350.522 597.953 -344.402 600.834 "></path>
    <path id="STROKE_1afd1c59-be90-431c-919c-3b3233ba7fcb" opacity="1.000" fill="none" stroke="#f66640" stroke-width="2.173" stroke-opacity="1.000" stroke-linecap="round" stroke-linejoin="round" d="M -367.328 574.035 Q -367.328 573.983 -367.328 573.761 Q -366.641 572.603 -362.654 576.759 Q -358.667 580.916 -353.154 586.315 Q -347.641 591.715 -338.454 597.245 Q -338.280 597.173 -340.186 595.331 "></path>
    <path id="STROKE_a883a2ef-6dba-4857-a85a-29ccb01e03e8" opacity="1.000" fill="none" stroke="#f66640" stroke-width="2.720" stroke-opacity="1.000" stroke-linecap="round" stroke-linejoin="round" d="M -357.415 593.126 Q -357.404 592.836 -356.571 593.152 Q -355.739 593.467 -354.308 592.461 Q -352.877 591.454 -352.340 585.971 Q -351.802 580.488 -353.768 573.300 "></path>
    <path id="STROKE_b5ebff4a-a9a5-4748-8208-2bcc2b7d2aa0" opacity="1.000" fill="none" stroke="#f66640" stroke-width="2.720" stroke-opacity="1.000" stroke-linecap="round" stroke-linejoin="round" d="M -338.090 578.342 Q -338.118 578.145 -337.805 577.247 Q -337.492 576.348 -337.583 575.538 Q -337.674 574.727 -338.094 574.513 Q -338.513 574.298 -338.704 574.231 Q -338.895 574.163 -339.146 574.081 Q -339.396 574.000 -340.539 573.942 Q -341.682 573.884 -342.057 575.881 Q -342.431 577.878 -342.601 579.230 Q -342.771 580.582 -341.914 583.155 Q -341.058 585.727 -338.924 587.219 Q -336.790 588.710 -334.960 588.976 Q -333.131 589.242 -332.431 588.551 Q -331.731 587.861 -331.620 585.492 Q -331.508 583.123 -333.691 577.795 Q -333.904 577.289 -333.169 578.217 Q -332.435 579.146 -330.646 580.065 Q -328.856 580.983 -326.973 581.698 Q -325.091 582.413 -323.163 579.077 "></path>
    <path id="STROKE_82b55cf2-b198-4af8-98cb-a4d833b28f75" opacity="1.000" fill="none" stroke="#f66640" stroke-width="2.583" stroke-opacity="1.000" stroke-linecap="round" stroke-linejoin="round" d="M -328.929 567.147 Q -328.929 567.104 -328.929 566.916 Q -328.837 566.873 -328.290 566.788 Q -328.001 567.229 -328.441 570.110 Q -328.881 572.991 -327.614 575.584 Q -326.347 578.176 -325.157 578.882 Q -323.967 579.588 -321.564 580.722 Q -319.161 581.856 -317.570 580.355 Q -315.979 578.854 -315.958 574.929 Q -315.937 571.005 -318.309 565.950 "></path>
    <path id="STROKE_5e004c5b-0ce6-4bdd-8af9-666b1996b6bc" opacity="1.000" fill="none" stroke="#f66640" stroke-width="2.450" stroke-opacity="1.000" stroke-linecap="round" stroke-linejoin="round" d="M -349.074 547.867 Q -347.053 549.963 -310.424 571.830 Q -310.399 572.435 -313.698 569.459 Q -316.997 566.484 -318.869 563.741 Q -320.741 560.997 -320.360 556.909 Q -317.897 555.715 -316.581 557.785 Q -315.265 559.855 -314.594 562.337 Q -313.923 564.820 -314.034 565.939 Q -314.145 567.059 -313.554 567.698 Q -312.963 568.337 -312.089 568.514 Q -311.215 568.691 -309.108 568.680 Q -307.002 568.670 -305.165 568.172 Q -303.328 567.675 -300.602 561.370 "></path>
    <path id="STROKE_70d1a321-cfba-4c97-bcdb-986c7a4e134a" opacity="1.000" fill="none" stroke="#f66640" stroke-width="2.277" stroke-opacity="1.000" stroke-linecap="round" stroke-linejoin="round" d="M -233.899 606.064 Q -231.967 606.980 -232.577 606.842 Q -232.010 607.668 -226.340 613.576 Q -220.670 619.484 -211.270 622.908 Q -210.859 622.397 -213.115 619.362 "></path>
    <path id="STROKE_5e6d6ba9-c9a0-434d-90f2-68e45814b3a1" opacity="1.000" fill="none" stroke="#f66640" stroke-width="2.261" stroke-opacity="1.000" stroke-linecap="round" stroke-linejoin="round" d="M -241.084 614.444 Q -241.951 614.444 -241.881 614.444 Q -243.591 613.844 -243.160 613.720 Q -243.925 613.470 -244.749 610.501 Q -245.573 607.531 -245.700 606.662 Q -245.827 605.793 -245.460 603.655 Q -245.094 601.517 -240.780 599.422 Q -236.465 597.327 -232.860 595.732 Q -229.255 594.137 -225.062 593.079 Q -220.869 592.022 -217.786 591.670 Q -214.703 591.317 -211.877 591.902 Q -209.051 592.486 -206.881 596.007 Q -204.712 599.528 -204.266 604.588 Q -203.820 609.648 -204.443 613.283 Q -205.065 616.918 -206.679 619.256 Q -208.292 621.593 -210.447 623.458 Q -212.603 625.323 -214.514 625.627 Q -216.425 625.931 -218.173 625.347 Q -219.922 624.762 -219.839 613.343 "></path>
    <path id="STROKE_fde29106-7c65-44b3-a11d-8300b9a3b819" opacity="1.000" fill="none" stroke="#f66640" stroke-width="2.694" stroke-opacity="1.000" stroke-linecap="round" stroke-linejoin="round" d="M -210.569 602.017 Q -210.847 601.648 -209.211 602.070 Q -207.575 602.492 -205.922 601.201 Q -204.269 599.909 -203.405 597.308 Q -202.541 594.706 -202.645 591.118 Q -202.749 587.530 -202.757 585.605 Q -202.765 583.680 -204.080 581.626 Q -205.395 579.571 -207.076 579.216 Q -208.756 578.862 -209.957 579.513 Q -211.159 580.165 -212.732 582.112 Q -214.306 584.059 -214.842 587.395 Q -215.378 590.731 -215.194 593.147 Q -215.009 595.563 -213.659 597.942 Q -212.309 600.321 -210.158 601.759 Q -208.007 603.197 -205.772 603.549 Q -203.536 603.901 -201.476 603.415 Q -199.415 602.929 -197.775 600.491 Q -196.136 598.053 -195.197 595.575 Q -194.259 593.098 -194.372 590.029 Q -194.486 586.959 -196.223 583.771 "></path>
    <path id="STROKE_e17b14a5-d5a1-417a-b28b-be3dd391cc7d" opacity="1.000" fill="none" stroke="#f66640" stroke-width="2.502" stroke-opacity="1.000" stroke-linecap="round" stroke-linejoin="round" d="M -202.557 573.893 Q -202.735 574.873 -200.271 570.896 Q -201.618 570.970 -201.938 574.604 Q -202.257 578.238 -201.217 580.480 Q -200.176 582.721 -198.163 584.122 Q -196.151 585.523 -194.450 585.655 Q -192.749 585.788 -190.402 584.354 Q -188.055 582.920 -187.225 578.581 Q -186.396 574.241 -186.427 570.346 Q -186.458 566.451 -187.347 563.733 Q -188.236 561.015 -189.453 559.338 Q -190.671 557.662 -192.763 556.913 Q -193.970 557.484 -195.271 560.717 Q -196.573 563.951 -196.766 567.320 Q -196.958 570.690 -196.407 573.229 Q -195.856 575.767 -194.210 576.939 Q -192.565 578.111 -191.135 578.407 Q -189.705 578.702 -188.736 578.616 Q -187.766 578.529 -186.615 576.876 Q -185.463 575.224 -185.533 572.044 Q -185.603 568.865 -185.664 566.888 Q -185.726 564.910 -187.439 563.023 Q -189.152 561.136 -191.756 560.208 Q -192.374 559.908 -191.610 562.323 Q -190.846 564.737 -188.120 566.312 Q -185.394 567.886 -183.804 568.157 Q -182.214 568.427 -181.093 567.979 Q -179.971 567.530 -179.610 565.951 Q -179.248 564.372 -179.606 561.638 Q -179.964 558.905 -181.050 557.359 Q -182.137 555.813 -182.552 555.190 Q -182.966 554.568 -184.219 553.310 Q -185.471 552.052 -187.666 551.431 Q -188.188 553.119 -186.591 555.136 Q -184.994 557.153 -183.183 558.537 Q -181.371 559.922 -180.210 560.726 Q -179.049 561.529 -175.649 560.798 Q -174.926 560.332 -175.274 557.510 Q -175.622 554.688 -176.105 552.926 Q -176.587 551.165 -176.534 550.165 Q -176.481 549.165 -176.485 548.124 Q -176.489 547.083 -177.935 542.733 Q -177.721 543.931 -174.354 546.380 Q -170.987 548.830 -167.363 551.841 Q -163.738 554.853 -161.838 556.573 Q -159.937 558.293 -159.103 559.203 Q -158.269 560.114 -157.093 561.261 Q -155.917 562.408 -153.378 565.730 Q -150.840 569.052 -149.721 572.607 Q -148.602 576.163 -148.485 578.060 Q -148.368 579.957 -148.273 581.294 Q -148.178 582.630 -149.366 583.138 Q -150.553 583.646 -151.991 583.670 Q -153.428 583.694 -156.831 580.339 Q -160.234 576.985 -167.638 552.186 "></path>
    <path id="STROKE_506aa146-ab1c-4b43-8fcc-bb1d13f45aa5" opacity="1.000" fill="none" stroke="#f66640" stroke-width="2.667" stroke-opacity="1.000" stroke-linecap="round" stroke-linejoin="round" d="M -99.665 595.694 Q -99.890 595.951 -99.636 594.317 Q -99.382 592.683 -99.618 591.885 Q -99.854 591.087 -100.028 590.753 Q -100.203 590.420 -100.916 589.988 Q -101.629 589.555 -102.920 589.280 Q -104.211 589.004 -105.655 590.244 Q -107.099 591.483 -107.715 593.427 Q -108.332 595.370 -108.655 597.980 Q -108.978 600.590 -108.717 602.762 Q -108.455 604.933 -106.991 606.452 Q -105.527 607.971 -101.389 608.190 Q -97.251 608.410 -94.643 608.272 Q -92.034 608.133 -88.036 606.983 Q -84.038 605.832 -81.987 605.368 Q -79.937 604.903 -78.710 604.455 Q -77.484 604.006 -76.946 606.027 Q -76.408 608.048 -76.747 609.865 Q -77.086 611.683 -77.541 613.074 Q -77.997 614.465 -78.747 615.825 Q -79.497 617.185 -80.592 618.080 Q -81.687 618.975 -82.906 619.119 Q -84.125 619.264 -84.893 619.069 Q -85.662 618.874 -87.354 615.450 "></path>
    <path id="STROKE_bea7525a-abf4-4b6b-a077-725ba4437d22" opacity="1.000" fill="none" stroke="#f66640" stroke-width="2.685" stroke-opacity="1.000" stroke-linecap="round" stroke-linejoin="round" d="M -86.180 597.377 Q -83.848 596.731 -84.074 596.812 Q -84.299 596.894 -82.341 596.024 Q -82.398 595.877 -81.059 598.812 Q -79.719 601.747 -77.728 603.260 Q -75.736 604.774 -74.419 605.016 Q -73.103 605.259 -72.225 605.156 Q -71.347 605.052 -70.896 601.878 Q -70.445 598.705 -72.553 595.029 Q -74.662 591.354 -79.510 588.175 Q -79.280 589.363 -76.314 592.130 Q -73.347 594.896 -65.438 594.719 Q -61.734 591.266 -75.798 579.131 Q -75.686 581.500 -70.546 583.493 Q -65.405 585.486 -62.392 585.782 Q -59.378 586.078 -57.881 586.606 Q -56.384 587.134 -56.323 588.293 Q -56.263 589.452 -56.273 590.334 Q -56.283 591.216 -58.197 592.058 Q -60.111 592.900 -62.621 591.963 Q -65.131 591.025 -68.982 586.477 "></path>
    <path id="STROKE_95fc2019-fbb2-498f-a5ae-6a87a848185a" opacity="1.000" fill="none" stroke="#f66640" stroke-width="2.440" stroke-opacity="1.000" stroke-linecap="round" stroke-linejoin="round" d="M -88.025 562.410 L -88.025 562.371 Q -87.969 562.554 -86.441 562.172 Q -84.914 561.790 -82.264 563.113 Q -79.613 564.436 -77.533 565.824 Q -75.453 567.211 -73.855 568.141 Q -72.258 569.070 -70.767 570.076 Q -69.276 571.081 -63.885 574.084 Q -58.495 577.087 -52.791 581.160 Q -53.866 581.630 -57.748 580.368 Q -61.629 579.106 -64.503 577.375 Q -67.376 575.645 -68.857 574.144 Q -70.337 572.643 -70.182 571.489 Q -70.026 570.335 -69.081 569.421 Q -68.136 568.507 -67.568 568.009 Q -67.000 567.511 -66.743 567.317 Q -66.487 567.123 -66.115 566.760 Q -65.743 566.397 -62.900 564.345 "></path>
    <path id="STROKE_0b70bc85-43d5-4197-a982-0e45919971de" opacity="1.000" fill="none" stroke="#f66640" stroke-width="2.670" stroke-opacity="1.000" stroke-linecap="round" stroke-linejoin="round" d="M -54.972 563.417 Q -54.794 563.477 -54.720 559.870 Q -54.479 559.843 -55.137 559.592 Q -55.796 559.341 -56.877 559.861 Q -57.959 560.380 -58.122 562.474 Q -58.285 564.569 -57.719 566.612 Q -57.152 568.654 -55.074 571.366 Q -52.997 574.079 -47.904 574.868 Q -46.465 573.294 -47.735 568.832 Q -49.005 564.370 -54.049 559.453 Q -54.173 560.348 -50.302 564.348 Q -46.431 568.347 -41.067 570.936 Q -40.562 569.545 -45.199 562.237 "></path>
    <path id="STROKE_4ebc4f66-7bce-468f-b652-ffc47ed545a3" opacity="1.000" fill="none" stroke="#f66640" stroke-width="2.720" stroke-opacity="1.000" stroke-linecap="round" stroke-linejoin="round" d="M -49.331 554.561 Q -48.729 554.706 -39.368 560.460 Q -39.589 560.208 -39.809 559.957 "></path>
    <path id="STROKE_8f0b9aa2-c361-4315-85b4-0005915c710c" opacity="1.000" fill="none" stroke="#f66640" stroke-width="2.695" stroke-opacity="1.000" stroke-linecap="round" stroke-linejoin="round" d="M -35.321 557.424 Q -34.147 557.395 -32.762 557.927 Q -33.051 556.229 -36.229 552.738 Q -39.407 549.248 -40.354 542.646 Q -40.503 541.372 -36.323 544.519 Q -32.144 547.666 -29.272 550.275 Q -26.400 552.883 -22.800 553.751 Q -22.105 553.600 -23.366 547.294 "></path>
    <path id="STROKE_e71a2394-8e66-4de2-b9c3-3eea29ecf629" opacity="1.000" fill="none" stroke="#f66640" stroke-width="2.550" stroke-opacity="1.000" stroke-linecap="round" stroke-linejoin="round" d="M -64.850 541.553 Q -64.417 542.498 -56.881 542.898 Q -56.710 541.686 -56.995 541.584 Q -57.281 541.481 -58.097 540.877 "></path>
    <path id="STROKE_e73775b3-31c2-43b1-85b4-c97cc3bb7ce2" opacity="1.000" fill="none" stroke="#f66640" stroke-width="2.518" stroke-opacity="1.000" stroke-linecap="round" stroke-linejoin="round" d="M 116.530 596.885 Q 116.697 597.059 115.439 595.454 Q 115.021 597.102 121.544 602.635 Q 128.068 608.169 132.800 611.508 Q 137.531 614.847 144.361 619.866 Q 142.720 619.341 142.751 619.307 Q 142.782 619.272 142.432 619.105 Q 142.082 618.938 141.171 618.420 Q 140.259 617.903 140.252 617.838 Q 140.244 617.774 133.140 613.474 Q 126.036 609.175 121.267 606.292 Q 116.498 603.410 114.462 601.595 Q 112.425 599.780 111.890 599.044 Q 111.355 598.308 111.804 596.670 Q 112.252 595.032 114.407 594.241 Q 116.562 593.449 119.396 592.981 Q 122.230 592.512 124.149 592.620 Q 126.069 592.728 128.345 593.335 Q 130.621 593.942 132.389 596.703 Q 134.157 599.463 134.812 601.343 Q 135.466 603.223 135.658 605.174 Q 135.849 607.125 135.504 608.741 Q 135.159 610.357 133.928 610.610 Q 132.697 610.862 131.227 610.385 Q 129.757 609.908 129.638 607.149 Q 130.622 606.268 136.911 607.258 Q 143.199 608.247 146.906 608.414 Q 150.612 608.580 152.466 608.503 Q 154.319 608.426 155.334 607.700 Q 156.349 606.973 156.462 604.748 "></path>
    <path id="STROKE_2e61d85d-7fcf-4ddc-b46f-8f7e7df7cb06" opacity="1.000" fill="none" stroke="#f66640" stroke-width="2.690" stroke-opacity="1.000" stroke-linecap="round" stroke-linejoin="round" d="M 143.081 597.986 Q 142.569 597.688 144.927 598.062 Q 147.285 598.436 148.614 597.806 Q 149.944 597.175 150.633 595.413 Q 151.321 593.651 151.450 592.850 Q 151.578 592.048 150.937 590.873 Q 150.295 589.698 149.045 589.124 Q 147.796 588.550 146.021 588.588 Q 144.247 588.626 143.505 589.375 Q 142.764 590.125 142.430 592.383 Q 142.097 594.642 142.628 597.074 Q 143.158 599.506 145.380 601.893 Q 147.601 604.281 150.784 605.174 Q 153.967 606.067 156.611 605.728 Q 159.256 605.390 160.850 601.512 Q 162.443 597.635 160.803 589.461 "></path>
    <path id="STROKE_9dc005c0-d1e0-4939-b49d-c7aec58a133c" opacity="1.000" fill="none" stroke="#f66640" stroke-width="2.544" stroke-opacity="1.000" stroke-linecap="round" stroke-linejoin="round" d="M 137.439 579.142 Q 139.722 579.313 139.838 576.837 Q 139.953 574.361 139.903 572.825 Q 139.852 571.289 137.729 567.682 Q 135.606 564.076 132.890 561.117 Q 130.174 558.157 128.030 556.665 Q 125.886 555.173 124.432 555.175 Q 122.979 555.178 122.218 555.439 Q 121.458 555.700 120.965 557.797 Q 120.471 559.894 122.846 563.530 Q 125.222 567.166 128.871 570.859 Q 132.520 574.551 142.105 578.353 Q 151.690 582.155 157.517 584.353 Q 163.344 586.550 168.437 587.046 Q 169.695 585.504 167.489 580.384 Q 165.283 575.264 163.511 571.998 Q 161.739 568.731 158.559 567.329 Q 157.909 569.000 158.140 569.052 Q 158.518 569.068 158.055 569.938 Q 157.593 570.808 158.871 574.569 Q 160.149 578.331 162.109 580.654 Q 164.070 582.977 166.063 583.702 Q 168.057 584.428 169.437 584.500 Q 170.816 584.572 173.156 582.291 Q 175.497 580.011 176.692 577.731 Q 177.888 575.451 178.553 572.367 Q 179.219 569.283 178.588 565.725 "></path>
    <path id="STROKE_6cf6b1f9-bd97-4963-9b56-54cd893e0040" opacity="1.000" fill="none" stroke="#f66640" stroke-width="2.626" stroke-opacity="1.000" stroke-linecap="round" stroke-linejoin="round" d="M 170.828 556.759 Q 171.050 557.185 171.038 560.027 Q 171.026 562.868 170.977 565.213 Q 170.929 567.559 171.265 568.748 Q 171.602 569.938 172.566 571.534 Q 173.531 573.129 177.959 573.063 Q 179.216 571.335 178.033 566.525 Q 176.849 561.714 170.660 556.680 Q 170.420 557.456 173.976 561.297 Q 177.533 565.138 185.131 566.393 Q 185.957 566.198 185.282 562.941 Q 184.607 559.683 181.293 556.177 Q 180.514 556.413 186.642 557.569 Q 187.263 557.664 187.690 551.694 "></path>
    <path id="STROKE_ab895458-6a15-4b5d-a1fe-7bc56d22228d" opacity="1.000" fill="none" stroke="#f66640" stroke-width="2.710" stroke-opacity="1.000" stroke-linecap="round" stroke-linejoin="round" d="M 180.790 540.715 Q 181.181 542.236 181.042 541.777 Q 180.118 542.850 178.789 544.517 Q 177.460 546.184 177.350 548.036 Q 177.241 549.888 177.207 551.140 Q 177.174 552.391 179.587 554.027 Q 181.999 555.663 195.366 555.241 Q 196.435 555.455 194.571 555.977 Q 192.708 556.499 191.079 556.240 Q 189.451 555.980 188.566 555.263 Q 187.681 554.546 189.089 550.752 Q 190.496 546.958 190.704 544.077 Q 190.911 541.195 191.002 539.472 Q 191.093 537.748 189.379 535.652 Q 187.666 533.555 186.478 534.383 Q 185.289 535.211 185.264 537.118 Q 185.238 539.026 186.232 540.905 Q 187.225 542.785 188.290 544.371 Q 189.355 545.957 191.197 547.268 Q 193.040 548.578 196.802 549.570 Q 200.564 550.562 201.280 537.679 "></path>
    <path id="STROKE_966d9b0e-6b5b-4820-987a-6fd9e39260af" opacity="1.000" fill="none" stroke="#171612" stroke-width="2.395" stroke-opacity="1.000" stroke-linecap="round" stroke-linejoin="round" d="M 328.498 1112.897 Q 328.078 1112.554 327.788 1116.215 Q 329.473 1117.242 332.398 1112.956 Q 335.324 1108.669 339.770 1100.282 Q 344.216 1091.895 349.721 1072.719 Q 349.868 1071.575 347.846 1080.389 Q 345.824 1089.203 345.107 1096.722 Q 344.390 1104.242 344.373 1107.967 Q 344.357 1111.692 344.787 1114.069 Q 345.218 1116.447 346.240 1117.608 Q 347.263 1118.770 349.259 1118.905 Q 351.255 1119.039 354.446 1117.654 Q 357.636 1116.269 359.383 1115.090 Q 361.129 1113.912 362.062 1112.889 Q 362.995 1111.866 363.745 1110.534 "></path>
    <path id="STROKE_93912c9a-af38-4cbe-933f-09fe82419b7b" opacity="1.000" fill="none" stroke="#171612" stroke-width="2.720" stroke-opacity="1.000" stroke-linecap="round" stroke-linejoin="round" d="M 345.276 1096.087 Q 344.869 1096.769 345.690 1097.556 Q 346.512 1098.344 347.363 1098.625 Q 348.214 1098.907 348.469 1098.858 Q 348.723 1098.809 349.493 1098.806 Q 350.263 1098.804 351.296 1098.915 Q 352.330 1099.025 355.535 1098.317 Q 358.741 1097.609 362.138 1095.336 "></path>
    <path id="STROKE_0dded75a-92ea-46ad-8ebf-a104043b3f9d" opacity="1.000" fill="none" stroke="#171612" stroke-width="2.036" stroke-opacity="1.000" stroke-linecap="round" stroke-linejoin="round" d="M -489.286 402.550 Q -489.123 403.084 -488.953 443.135 Q -489.006 443.295 -489.037 436.387 Q -489.068 429.479 -489.256 420.978 Q -489.445 412.477 -488.521 406.203 Q -487.597 399.929 -486.985 397.187 Q -486.374 394.445 -485.863 392.960 Q -485.352 391.476 -485.156 391.098 Q -484.959 390.719 -484.117 389.643 Q -483.274 388.566 -481.499 390.870 Q -479.725 393.173 -478.821 396.155 Q -477.917 399.137 -477.171 401.450 Q -476.425 403.763 -475.132 410.851 Q -473.839 417.940 -473.116 422.707 Q -472.393 427.475 -471.152 444.403 Q -471.000 445.050 -471.569 437.344 "></path>
    <path id="STROKE_dfdfb3b1-f9ff-498c-a860-666487860229" opacity="1.000" fill="none" stroke="#171612" stroke-width="2.720" stroke-opacity="1.000" stroke-linecap="round" stroke-linejoin="round" d="M -472.758 420.456 Q -474.133 421.655 -473.802 421.293 Q -474.576 421.840 -490.372 428.188 "></path>
  </g>
</svg>