<?xml version="1.0" encoding="UTF-8" standalone="yes"?>
<svg xmlns="http://www.w3.org/2000/svg" xmlns:xlink="http://www.w3.org/1999/xlink" width="457.398pt" height="497.873pt" version="1.1" viewBox="-330.829 400.308 457.398 497.873">
  <!--
	Exported with Concepts: Smarter Sketching
	Version: 1505 on iOS 15.3
	https://concepts.app/
	-->
  <title>2FBEFE9B-8403-439A-830C-C382CEF906FD</title>
  <desc>Drawing exported from Concepts: Smarter Sketching</desc>
  <defs></defs>
  <g id="Stylo" opacity="1.000">
    <path id="STROKE_038277b7-2d0c-4a87-a54b-ad1592df4a12" opacity="1.000" fill="none" stroke="#171612" stroke-width="1.531" stroke-opacity="1.000" stroke-linecap="round" stroke-linejoin="round" d="M 17.207 657.347 Q 17.106 657.176 13.789 652.752 Q 10.472 648.329 7.584 645.075 Q 4.695 641.821 2.155 639.575 Q -0.385 637.329 -2.975 635.285 Q -5.564 633.240 -9.649 630.886 Q -13.734 628.532 -16.921 627.409 Q -20.107 626.285 -22.960 625.832 Q -25.812 625.379 -27.846 625.348 Q -29.879 625.317 -31.730 626.190 Q -33.580 627.063 -35.423 629.480 Q -37.266 631.896 -37.263 637.881 Q -37.259 643.866 -36.912 647.573 Q -36.565 651.280 -34.920 659.270 Q -33.274 667.259 -30.227 677.116 Q -27.181 686.972 -21.767 699.425 Q -16.353 711.878 -8.101 726.605 Q 0.150 741.332 4.208 748.303 Q 8.265 755.275 13.263 762.447 Q 18.261 769.620 21.075 773.004 Q 23.889 776.389 25.874 778.721 Q 27.860 781.054 30.931 783.666 Q 34.001 786.279 36.783 787.608 Q 39.565 788.938 42.866 789.526 Q 46.166 790.114 48.014 788.700 Q 49.862 787.286 50.800 783.053 Q 51.738 778.820 51.892 771.696 Q 52.045 764.572 50.493 747.690 "></path>
    <path id="STROKE_fd50d1bc-ed63-411f-b8f8-0156eef03255" opacity="1.000" fill="none" stroke="#171612" stroke-width="1.538" stroke-opacity="1.000" stroke-linecap="round" stroke-linejoin="round" d="M -34.178 624.542 Q -34.095 624.408 -31.262 623.949 Q -30.653 624.415 -37.136 628.813 Q -43.618 633.210 -49.580 636.703 Q -55.542 640.195 -59.566 642.495 Q -63.589 644.795 -65.830 646.056 Q -68.071 647.316 -70.042 648.423 Q -72.013 649.530 -73.396 650.354 Q -74.779 651.178 -80.783 654.567 Q -86.786 657.956 -101.105 664.977 Q -115.425 671.999 -125.750 677.662 Q -136.076 683.326 -145.429 688.224 Q -154.783 693.123 -166.380 699.561 Q -177.976 705.999 -183.722 709.405 Q -189.469 712.812 -192.390 714.394 Q -195.311 715.975 -201.264 718.831 Q -207.217 721.688 -219.419 728.129 Q -231.621 734.571 -238.613 738.088 Q -245.605 741.606 -249.047 743.162 Q -252.489 744.718 -255.431 746.042 Q -258.374 747.365 -264.800 749.967 Q -271.226 752.569 -276.888 756.753 Q -277.201 757.064 -269.736 755.418 "></path>
    <path id="STROKE_3adba120-7543-4188-b6ac-fe926ff1086b" opacity="1.000" fill="none" stroke="#171612" stroke-width="1.569" stroke-opacity="1.000" stroke-linecap="round" stroke-linejoin="round" d="M 46.143 788.344 Q 47.578 788.344 47.494 788.344 Q 47.633 788.324 49.290 788.474 Q 50.279 789.094 45.480 791.701 Q 40.680 794.309 34.182 797.275 Q 27.684 800.241 17.228 804.726 Q 6.773 809.210 -4.346 814.584 Q -15.465 819.959 -24.814 823.903 Q -34.163 827.847 -40.058 829.948 Q -45.953 832.049 -49.880 833.474 Q -53.807 834.899 -57.841 836.610 Q -61.875 838.321 -71.965 842.628 Q -82.055 846.934 -87.461 849.100 Q -92.866 851.265 -95.937 852.325 Q -99.007 853.384 -100.944 854.054 Q -102.880 854.724 -107.095 856.041 Q -111.310 857.357 -120.028 860.366 Q -128.746 863.374 -134.614 865.750 Q -140.482 868.125 -143.447 869.479 Q -146.413 870.833 -151.041 872.776 Q -155.669 874.720 -169.371 879.596 Q -183.073 884.472 -198.627 891.473 Q -197.308 891.251 -186.037 886.430 "></path>
    <path id="STROKE_e95ce128-ab6a-4607-8f8c-070717feb57d" opacity="1.000" fill="none" stroke="#171612" stroke-width="1.878" stroke-opacity="1.000" stroke-linecap="round" stroke-linejoin="round" d="M 1.696 665.808 Q 1.690 665.602 0.757 666.111 L 0.757 666.142 Q 1.715 666.642 12.993 659.336 Q 24.271 652.030 30.915 647.600 Q 37.560 643.169 41.881 640.699 Q 46.203 638.229 49.898 637.443 Q 50.513 638.059 52.716 639.866 "></path>
    <path id="STROKE_d6b15b42-934e-47e1-b951-2c44bfc83972" opacity="1.000" fill="none" stroke="#171612" stroke-width="2.180" stroke-opacity="1.000" stroke-linecap="round" stroke-linejoin="round" d="M 40.258 751.831 Q 40.411 752.050 40.753 752.492 Q 41.095 752.933 40.975 752.797 Q 40.855 752.660 41.942 753.166 Q 43.029 753.673 47.338 750.674 Q 51.646 747.675 56.656 744.435 Q 61.666 741.195 65.948 738.841 Q 70.231 736.487 78.029 732.680 Q 78.347 731.380 78.280 731.635 Q 78.214 731.889 78.309 731.756 Q 78.405 731.624 78.685 731.463 Q 78.965 731.303 79.822 731.005 Q 80.678 730.708 80.651 730.695 Q 80.625 730.682 80.519 730.770 Q 80.412 730.859 80.830 730.660 Q 81.248 730.461 82.187 730.070 Q 83.127 729.678 83.280 728.862 Q 83.432 728.046 83.542 727.758 Q 83.652 727.470 83.763 727.232 Q 83.874 726.993 83.900 726.860 Q 83.926 726.727 83.714 725.876 "></path>
    <path id="STROKE_bbe72791-ec09-4fe5-9b7e-2d67443229dc" opacity="1.000" fill="none" stroke="#171612" stroke-width="2.720" stroke-opacity="1.000" stroke-linecap="round" stroke-linejoin="round" d="M 45.417 641.437 Q 45.417 641.468 45.417 641.709 Q 45.417 641.672 45.417 641.437 Q 45.417 643.187 45.417 642.667 Q 45.413 642.962 45.479 648.256 Q 45.544 653.550 46.276 657.806 Q 47.008 662.062 47.779 664.820 Q 48.549 667.578 49.677 670.832 Q 50.806 674.086 51.480 676.530 Q 52.154 678.974 52.698 680.774 Q 53.241 682.575 53.554 683.357 Q 53.867 684.139 54.325 685.125 Q 54.783 686.112 55.157 686.870 Q 55.531 687.629 55.611 687.838 Q 55.691 688.046 57.186 691.008 Q 58.680 693.971 59.868 696.250 Q 61.055 698.529 61.621 699.717 Q 62.186 700.905 62.443 701.439 Q 62.701 701.973 63.124 702.756 Q 63.548 703.539 63.875 704.195 Q 64.203 704.852 64.392 705.237 Q 64.581 705.622 64.743 705.955 Q 64.905 706.288 65.138 706.813 Q 65.371 707.338 65.821 708.324 Q 66.272 709.310 66.714 710.281 Q 67.156 711.252 67.438 711.890 Q 67.720 712.528 67.833 712.735 Q 67.946 712.942 67.969 712.922 Q 67.992 712.902 68.113 713.330 Q 68.234 713.758 68.976 715.361 Q 69.718 716.963 70.229 717.732 Q 70.739 718.500 70.650 718.340 Q 70.562 718.180 71.242 718.917 Q 71.923 719.653 71.883 719.556 Q 72.021 719.639 73.436 721.358 Q 74.850 723.078 76.180 724.215 Q 77.509 725.353 78.140 725.786 Q 78.770 726.220 79.335 726.517 Q 79.899 726.814 80.477 727.093 Q 81.054 727.371 81.012 727.357 Q 80.969 727.342 80.904 727.310 Q 80.838 727.279 81.538 727.545 Q 82.237 727.811 82.746 728.071 Q 83.255 728.330 83.075 728.242 Q 82.894 728.153 83.030 728.202 Q 83.166 728.251 83.716 728.783 Q 83.683 728.882 83.650 728.981 "></path>
    <path id="STROKE_ed4de1dd-ecba-4661-ba24-a898297bee7f" opacity="1.000" fill="none" stroke="#171612" stroke-width="2.501" stroke-opacity="1.000" stroke-linecap="round" stroke-linejoin="round" d="M 90.011 720.218 Q 90.166 720.097 89.819 720.856 Q 89.471 721.614 88.610 722.269 Q 88.610 721.150 88.610 721.182 Q 88.788 719.985 88.624 712.117 Q 88.460 704.249 87.164 698.308 Q 85.868 692.367 85.020 689.436 Q 84.172 686.505 83.284 683.496 Q 82.396 680.487 81.695 678.078 Q 80.993 675.670 79.585 672.256 Q 78.176 668.842 76.726 666.430 Q 75.276 664.018 72.055 659.089 Q 68.834 654.160 66.788 651.138 Q 64.742 648.116 61.753 645.361 Q 58.764 642.606 53.970 640.844 "></path>
    <path id="STROKE_4382a4e6-f769-48fe-a985-ae8380cb949e" opacity="1.000" fill="none" stroke="#f3ba38" stroke-width="7.500" stroke-opacity="1.000" stroke-linecap="round" stroke-linejoin="round" d="M 69.263 669.778 Q 68.635 669.915 68.670 669.945 Q 68.733 669.548 65.555 672.695 Q 66.275 673.129 73.819 668.679 Q 81.363 664.229 85.842 661.947 Q 90.321 659.664 95.114 657.171 Q 99.906 654.678 105.716 651.066 Q 106.138 650.982 104.612 652.862 Q 103.087 654.743 99.711 656.911 Q 96.336 659.080 90.801 661.915 Q 85.266 664.751 70.796 672.102 Q 70.796 672.133 70.796 672.299 Q 71.009 673.354 78.689 669.261 Q 86.370 665.168 90.536 662.916 Q 94.703 660.663 96.917 659.480 Q 99.130 658.298 102.008 656.763 Q 101.333 657.243 96.387 660.774 Q 91.441 664.304 68.802 677.342 Q 68.757 677.596 73.765 674.306 Q 78.772 671.016 85.877 667.653 Q 92.982 664.291 102.271 661.744 Q 101.391 663.022 91.429 667.448 Q 81.466 671.875 69.461 679.406 Q 69.256 680.062 72.498 677.750 Q 75.739 675.437 84.686 671.172 Q 93.633 666.908 105.122 661.250 L 105.122 661.213 Q 104.979 661.360 99.538 664.435 Q 94.097 667.509 71.323 680.593 Q 71.078 680.608 102.337 665.403 Q 102.050 665.896 96.563 669.055 Q 91.076 672.214 85.929 675.017 Q 80.782 677.820 78.018 679.382 Q 75.254 680.944 72.378 682.657 Q 72.447 683.056 76.206 680.481 Q 79.964 677.906 101.414 668.517 Q 101.265 669.829 69.675 687.502 Q 69.663 687.823 72.872 685.753 Q 76.081 683.682 79.259 681.835 Q 82.438 679.988 84.659 678.549 Q 86.879 677.109 103.194 669.716 Q 103.778 670.574 98.580 674.115 Q 93.382 677.656 88.823 680.336 Q 84.264 683.017 77.750 686.896 Q 78.980 686.884 105.650 672.299 Q 105.176 672.466 95.996 678.492 Q 86.816 684.519 76.827 689.949 Q 76.722 690.087 83.214 687.077 Q 89.706 684.067 101.003 677.874 Q 101.086 677.803 97.381 680.397 Q 93.676 682.992 89.213 685.735 Q 84.749 688.479 81.128 690.752 Q 81.269 691.189 105.979 676.749 Q 105.693 676.941 99.690 681.455 Q 93.688 685.969 81.787 692.149 Q 82.427 691.269 82.950 690.903 Q 83.474 690.536 84.986 689.339 Q 86.498 688.141 89.813 684.980 "></path>
    <path id="STROKE_692817d3-957e-4820-a0e1-cc0de02bbb30" opacity="1.000" fill="none" stroke="#f3ba38" stroke-width="7.500" stroke-opacity="1.000" stroke-linecap="round" stroke-linejoin="round" d="M 64.896 676.279 Q 64.928 674.767 64.912 675.195 Q 64.897 675.623 64.857 674.889 Q 64.817 674.156 65.423 672.163 Q 65.699 672.450 65.444 675.922 Q 65.189 679.395 65.637 682.840 Q 66.084 686.284 66.691 688.349 Q 67.297 690.413 68.499 692.171 Q 69.701 693.929 70.355 694.571 Q 71.008 695.212 71.522 695.588 Q 72.036 695.963 72.457 696.220 Q 72.879 696.478 73.126 696.541 Q 73.373 696.604 74.396 697.384 Q 75.419 698.164 75.888 698.910 Q 75.579 699.218 73.079 695.203 Q 70.578 691.188 68.967 686.434 Q 67.357 681.680 67.022 674.153 Q 67.269 674.395 66.952 678.317 Q 66.635 682.240 66.765 684.973 Q 66.895 687.707 67.943 690.333 Q 68.992 692.960 70.068 693.839 Q 71.145 694.718 72.540 695.141 Q 73.935 695.564 74.810 695.927 Q 75.685 696.291 76.524 696.735 Q 77.363 697.180 77.205 697.102 Q 77.047 697.023 77.438 697.312 Q 77.828 697.601 77.752 697.567 Q 77.677 697.533 77.626 697.571 Q 77.575 697.609 77.844 697.764 Q 78.113 697.920 78.613 697.831 Q 79.113 697.743 79.124 697.697 Q 79.134 697.651 79.098 697.686 Q 79.062 697.722 79.286 697.601 Q 79.510 697.480 80.884 696.210 Q 82.258 694.940 84.506 692.974 Q 86.755 691.008 88.091 689.892 Q 89.428 688.776 91.245 687.694 Q 93.062 686.612 94.750 685.455 Q 96.439 684.297 97.150 683.664 Q 97.861 683.031 98.268 682.758 Q 98.675 682.486 98.714 682.444 Q 98.752 682.403 98.712 682.460 Q 98.672 682.517 98.884 682.377 Q 99.095 682.238 100.838 680.822 Q 102.581 679.406 103.580 678.750 Q 104.578 678.095 105.278 677.821 Q 105.978 677.547 106.101 677.453 Q 106.224 677.358 106.455 677.214 Q 106.685 677.071 106.608 677.113 Q 106.531 677.155 106.540 677.153 Q 106.550 677.151 106.541 677.155 Q 106.532 677.159 106.528 677.165 Q 106.525 677.172 106.640 677.071 Q 106.755 676.970 107.288 676.538 Q 107.820 676.107 107.847 676.135 Q 107.873 676.164 107.828 676.152 Q 107.782 676.140 107.955 676.070 Q 108.129 676.001 108.764 675.649 Q 108.952 675.205 108.837 675.402 Q 108.723 675.599 108.736 675.563 Q 108.750 675.526 109.351 674.745 Q 109.953 673.964 109.786 674.190 Q 110.371 673.380 110.182 673.659 Q 110.498 673.346 110.537 673.302 Q 110.576 673.257 110.554 673.280 Q 110.532 673.302 110.618 673.220 Q 110.705 673.137 110.593 673.242 Q 110.480 673.346 110.505 673.321 Q 110.531 673.296 110.521 673.303 Q 110.511 673.310 110.615 673.219 Q 110.720 673.128 110.669 673.173 Q 110.619 673.218 110.647 673.192 Q 110.675 673.166 110.666 673.174 Q 110.657 673.182 110.677 673.165 Q 110.697 673.148 110.704 673.140 Q 110.711 673.133 110.761 673.091 Q 110.811 673.050 110.728 673.086 Q 110.645 673.122 111.226 672.724 Q 111.807 672.326 111.926 672.278 Q 112.045 672.231 111.846 672.330 Q 113.260 672.286 113.015 672.294 Q 112.770 672.303 112.888 672.300 Q 113.007 672.298 113.040 672.299 Q 113.074 672.300 113.515 672.300 Q 113.957 672.301 113.926 672.301 Q 113.895 672.301 113.813 672.290 Q 113.731 672.279 114.400 672.361 Q 113.326 672.154 113.743 672.282 Q 114.160 672.411 113.204 672.035 Q 112.249 671.660 111.606 671.112 Q 110.964 670.564 110.253 669.907 Q 109.542 669.250 108.411 666.301 Q 107.280 663.352 108.501 649.199 Q 108.333 648.876 107.726 666.787 Q 109.297 667.123 107.940 654.712 L 107.907 654.712 Q 107.736 654.533 108.121 660.086 Q 108.506 665.640 111.451 671.039 Q 111.584 671.346 111.882 668.234 Q 112.179 665.122 109.621 655.639 L 109.588 655.639 Q 109.091 655.894 109.826 659.048 Q 110.560 662.203 111.296 664.433 Q 112.032 666.664 114.021 669.383 Q 114.386 669.414 113.860 664.320 Q 113.334 659.227 110.981 654.118 Q 110.597 654.565 111.158 658.724 Q 111.720 662.883 115.224 668.987 Q 116.967 667.294 110.775 652.660 L 110.742 652.660 Q 110.608 654.285 111.108 657.913 Q 111.609 661.540 112.410 664.390 Q 113.211 667.240 115.521 668.987 Q 116.283 665.782 115.304 661.593 Q 114.325 657.403 113.414 655.156 Q 112.503 652.909 111.777 651.761 Q 111.050 650.614 109.984 650.102 Q 109.982 650.037 109.722 653.277 Q 109.463 656.516 110.737 660.278 Q 112.012 664.040 113.278 666.108 Q 114.545 668.177 115.447 668.895 Q 116.349 669.613 116.621 669.732 Q 116.892 669.850 116.940 669.827 Q 116.987 669.804 116.931 669.820 Q 116.875 669.837 117.145 669.448 Q 117.414 669.059 117.436 667.848 Q 117.457 666.637 117.399 665.231 Q 117.341 663.825 116.528 661.688 Q 115.715 659.551 114.838 658.357 Q 113.962 657.163 111.615 655.639 "></path>
    <path id="STROKE_f193ee8a-c55d-417e-bf99-005af7ec4c34" opacity="1.000" fill="none" stroke="#fac141" stroke-width="2.720" stroke-opacity="1.000" stroke-linecap="round" stroke-linejoin="round" d="M 66.758 730.167 Q 66.761 730.056 66.758 730.985 Q 66.755 731.914 66.765 732.505 Q 66.774 733.096 66.626 733.554 "></path>
    <path id="STROKE_a2b5154d-9b4e-4789-8fd2-458e0721b914" opacity="1.000" fill="none" stroke="#fac141" stroke-width="2.238" stroke-opacity="1.000" stroke-linecap="round" stroke-linejoin="round" d="M 69.527 714.643 Q 69.590 714.328 70.730 711.455 Q 70.103 712.376 67.480 723.630 Q 64.857 734.884 63.775 747.434 Q 63.821 747.358 63.446 740.265 "></path>
    <path id="STROKE_8edbc018-7b37-4377-a3d3-a5f5691081eb" opacity="1.000" fill="none" stroke="#fac141" stroke-width="2.184" stroke-opacity="1.000" stroke-linecap="round" stroke-linejoin="round" d="M 58.205 711.850 Q 58.396 711.728 58.475 711.675 Q 58.554 711.622 58.495 711.614 Q 58.435 711.605 59.261 711.153 Q 60.088 710.700 62.968 704.558 Q 64.616 705.734 55.486 755.059 Q 55.153 753.929 56.475 737.076 "></path>
    <path id="STROKE_fb5f1e6c-fc47-41a2-8107-2d6e8315713d" opacity="1.000" fill="none" stroke="#fac141" stroke-width="1.912" stroke-opacity="1.000" stroke-linecap="round" stroke-linejoin="round" d="M 58.930 694.139 Q 59.251 694.219 63.166 692.804 Q 63.577 692.873 62.357 696.810 Q 61.137 700.747 59.670 705.022 Q 58.203 709.297 56.008 718.530 Q 53.813 727.763 52.709 735.696 Q 51.605 743.630 50.724 755.059 Q 49.617 755.293 49.850 739.004 "></path>
    <path id="STROKE_6ca528b7-993a-4fb8-b740-f5d768fbbc0d" opacity="1.000" fill="none" stroke="#fac141" stroke-width="1.998" stroke-opacity="1.000" stroke-linecap="round" stroke-linejoin="round" d="M 53.426 683.510 Q 52.724 683.498 56.912 679.999 Q 56.689 679.582 57.265 680.812 Q 57.841 682.041 56.014 690.957 Q 54.187 699.873 52.461 707.636 Q 50.735 715.399 49.983 719.091 Q 49.230 722.783 48.545 726.247 Q 47.859 729.711 44.956 754.923 Q 44.179 755.974 44.692 738.399 "></path>
    <path id="STROKE_46db89a7-83ab-4f81-8a14-57372a7f96a0" opacity="1.000" fill="none" stroke="#fac141" stroke-width="1.820" stroke-opacity="1.000" stroke-linecap="round" stroke-linejoin="round" d="M 49.455 682.385 Q 49.799 680.646 51.646 672.559 Q 52.861 674.444 51.267 685.362 Q 49.673 696.280 47.348 711.712 Q 45.024 727.143 43.960 734.750 Q 42.896 742.357 42.325 745.642 Q 41.754 748.926 41.604 751.533 Q 41.455 754.139 39.386 759.175 Q 37.580 760.009 40.177 738.003 "></path>
    <path id="STROKE_800e3e83-5ac8-4eda-a347-499d2fd5e214" opacity="1.000" fill="none" stroke="#fac141" stroke-width="1.844" stroke-opacity="1.000" stroke-linecap="round" stroke-linejoin="round" d="M 44.297 671.706 Q 43.885 671.303 45.516 664.902 Q 46.861 664.784 46.332 673.077 Q 45.803 681.371 44.995 687.247 Q 44.186 693.123 43.551 697.601 Q 42.917 702.079 42.562 704.435 Q 42.208 706.791 40.766 717.481 Q 39.324 728.171 38.344 734.592 Q 37.365 741.014 36.301 744.954 Q 35.238 748.894 33.453 751.277 Q 31.564 751.631 35.085 722.072 "></path>
    <path id="STROKE_9dd975f7-5f22-4508-bdb3-9eaf9751adf0" opacity="1.000" fill="none" stroke="#fac141" stroke-width="1.813" stroke-opacity="1.000" stroke-linecap="round" stroke-linejoin="round" d="M 41.116 665.996 Q 41.365 663.962 43.390 654.712 Q 44.416 654.685 42.582 670.008 Q 40.748 685.331 38.446 698.793 Q 36.143 712.256 34.861 718.388 Q 33.579 724.520 32.365 729.821 Q 31.151 735.123 30.162 738.895 Q 29.174 742.667 26.169 747.162 Q 24.981 746.663 26.189 736.017 Q 27.397 725.371 30.042 711.652 "></path>
    <path id="STROKE_384f2d0d-c14d-41bf-b1c5-de05a64d4bc9" opacity="1.000" fill="none" stroke="#fac141" stroke-width="1.934" stroke-opacity="1.000" stroke-linecap="round" stroke-linejoin="round" d="M 36.271 671.706 Q 36.363 670.677 38.891 652.252 Q 39.471 652.665 38.321 661.716 Q 37.171 670.768 35.395 680.002 Q 33.619 689.236 32.564 694.919 Q 31.508 700.602 30.766 704.208 Q 30.023 707.814 28.451 716.688 Q 26.879 725.561 24.373 734.221 Q 23.025 733.316 23.266 733.377 Q 23.507 733.438 23.452 733.020 Q 23.397 732.602 23.148 731.702 Q 22.898 730.803 23.677 720.423 Q 24.456 710.044 26.408 697.137 Q 28.361 684.230 29.703 676.441 Q 31.046 668.652 32.234 657.826 Q 32.365 657.731 32.106 661.486 Q 31.847 665.241 31.026 670.247 Q 30.204 675.253 28.870 683.610 Q 27.536 691.966 26.180 698.961 Q 24.824 705.955 23.824 710.365 Q 22.824 714.776 21.921 716.830 Q 21.019 718.883 20.243 719.811 Q 19.466 720.739 18.440 720.848 Q 17.033 720.244 18.613 706.008 Q 20.193 691.773 22.628 679.887 Q 25.062 668.001 26.993 657.962 Q 27.458 658.331 25.065 669.883 Q 22.672 681.435 20.927 688.615 Q 19.182 695.794 16.660 700.566 Q 16.366 700.598 16.047 700.034 Q 15.728 699.471 15.802 699.288 Q 15.876 699.105 15.837 699.134 Q 15.798 699.163 15.579 694.800 Q 15.361 690.437 16.317 681.746 Q 17.273 673.055 21.555 655.441 Q 21.611 656.322 19.853 664.202 Q 18.095 672.082 16.731 678.180 Q 15.367 684.279 14.453 687.341 Q 13.539 690.402 13.166 691.766 Q 12.793 693.130 10.893 693.805 Q 9.629 692.511 10.914 683.974 Q 12.199 675.437 14.247 667.882 Q 16.294 660.327 17.122 652.326 Q 16.739 651.789 14.146 660.270 Q 11.552 668.751 8.108 677.540 Q 7.823 677.044 11.420 658.926 Q 10.674 658.905 7.251 664.599 "></path>
    <path id="STROKE_e5ce9907-9d38-4953-afd5-c7249f7598a1" opacity="1.000" fill="none" stroke="#fac141" stroke-width="2.435" stroke-opacity="1.000" stroke-linecap="round" stroke-linejoin="round" d="M 39.649 652.326 Q 39.522 652.167 39.589 652.248 Q 39.655 652.328 39.918 652.652 Q 40.180 652.976 40.544 653.394 Q 40.908 653.812 41.129 653.998 Q 41.349 654.184 41.557 654.394 Q 41.764 654.603 42.261 655.049 Q 42.758 655.496 44.824 656.244 Q 44.328 656.388 40.649 653.664 Q 36.969 650.941 21.621 642.167 Q 21.794 642.167 26.400 645.491 "></path>
    <path id="STROKE_83b2b32f-8c7d-4812-aa49-8db85351f3c0" opacity="1.000" fill="none" stroke="#fac141" stroke-width="2.165" stroke-opacity="1.000" stroke-linecap="round" stroke-linejoin="round" d="M 42.039 661.818 Q 42.222 661.843 41.992 662.797 Q 41.761 663.751 39.866 663.976 Q 37.971 664.201 32.733 661.081 Q 27.494 657.961 24.120 655.388 Q 20.746 652.816 16.331 648.804 Q 17.029 648.253 23.331 653.734 Q 29.632 659.214 34.662 663.285 Q 39.692 667.356 48.136 673.165 Q 47.042 672.835 37.509 667.971 Q 27.977 663.107 12.013 655.911 Q 12.387 655.918 23.285 663.141 "></path>
    <path id="STROKE_e1e76c36-0386-497c-b3a5-9a5e776633b7" opacity="1.000" fill="none" stroke="#fac141" stroke-width="1.774" stroke-opacity="1.000" stroke-linecap="round" stroke-linejoin="round" d="M 35.546 671.830 Q 36.544 672.569 49.619 682.051 Q 48.636 682.008 41.827 678.647 Q 35.018 675.286 26.475 671.310 Q 17.932 667.333 8.042 663.808 Q 7.593 663.670 13.080 666.409 Q 18.567 669.147 24.021 672.544 Q 29.475 675.941 32.312 677.905 Q 35.149 679.868 37.175 681.389 Q 39.201 682.910 42.183 685.007 Q 45.165 687.104 47.291 688.723 Q 49.416 690.342 58.799 695.993 Q 58.928 696.198 48.150 691.119 Q 37.373 686.039 28.298 681.171 Q 19.224 676.302 14.106 673.736 Q 8.988 671.169 6.311 669.996 Q 3.634 668.823 1.812 667.986 Q 1.874 667.640 7.728 670.823 Q 13.583 674.005 22.025 679.515 Q 30.468 685.025 35.179 688.177 Q 39.891 691.329 42.212 692.816 Q 44.533 694.303 48.251 696.719 Q 51.969 699.135 57.809 702.496 Q 63.649 705.856 70.565 708.736 L 70.631 708.668 Q 70.957 708.634 65.868 706.134 Q 60.780 703.634 53.443 700.279 Q 46.107 696.925 38.320 693.444 Q 30.533 689.964 24.514 686.901 Q 18.496 683.839 14.701 681.626 Q 10.906 679.413 0.296 672.695 Q 0.854 672.922 5.031 675.728 Q 9.208 678.533 17.225 684.208 Q 25.243 689.882 31.382 694.082 Q 37.521 698.281 45.445 703.717 Q 53.368 709.152 58.254 712.211 Q 63.141 715.271 67.615 717.424 Q 67.657 717.420 62.265 715.105 Q 56.872 712.790 53.264 710.885 Q 49.657 708.980 42.660 705.232 Q 35.663 701.484 30.172 698.714 Q 24.682 695.944 18.947 693.097 Q 13.212 690.251 5.784 686.241 Q 5.915 685.706 18.948 693.270 Q 31.982 700.833 39.767 705.901 Q 47.552 710.969 53.511 715.017 Q 59.471 719.064 77.552 727.188 Q 77.969 726.756 68.061 722.821 Q 58.153 718.886 47.635 713.942 Q 37.116 708.997 32.013 706.315 Q 26.909 703.632 20.357 700.155 Q 13.806 696.678 4.004 691.284 Q 4.065 690.812 8.815 693.165 Q 13.565 695.518 25.646 703.753 Q 37.726 711.988 45.269 717.237 Q 52.812 722.487 64.698 729.178 Q 63.859 728.898 59.433 727.153 Q 55.007 725.408 50.171 723.279 Q 45.336 721.150 42.171 719.700 Q 39.007 718.250 34.495 716.322 Q 29.983 714.393 7.053 701.703 Q 8.887 702.895 16.123 708.390 Q 23.358 713.885 55.816 736.211 Q 55.488 735.411 12.590 717.560 Q 13.547 718.231 21.729 723.739 Q 29.911 729.247 35.625 733.376 Q 41.338 737.505 48.499 742.484 Q 48.242 742.751 38.126 737.395 Q 28.010 732.038 16.957 727.448 Q 16.957 727.828 21.535 731.085 Q 26.114 734.343 29.671 737.301 Q 33.228 740.260 35.523 742.284 Q 37.817 744.307 38.166 747.063 Q 37.714 747.236 36.073 747.693 "></path>
    <path id="STROKE_049108e6-57b7-4833-9141-acc94d6105b1" opacity="1.000" fill="none" stroke="#fac141" stroke-width="2.720" stroke-opacity="1.000" stroke-linecap="round" stroke-linejoin="round" d="M -0.907 671.830 Q -0.052 672.007 -0.297 671.966 Q -0.198 672.003 0.296 672.102 Q 0.381 672.635 0.401 672.230 Q 0.420 671.825 -0.304 674.687 Q -1.029 677.549 -1.146 679.797 Q -1.263 682.045 -1.222 683.139 Q -1.181 684.233 -1.191 684.977 Q -1.200 685.720 -1.372 685.982 Q -1.543 686.244 -0.084 691.379 Q 1.375 696.514 2.742 701.073 Q 4.109 705.631 5.547 709.521 Q 6.985 713.410 7.604 715.204 Q 8.222 716.997 10.172 721.049 Q 12.122 725.102 13.309 727.536 Q 14.496 729.971 15.158 731.409 Q 15.819 732.848 16.338 733.868 Q 16.857 734.888 17.391 735.811 Q 17.924 736.735 17.992 737.103 Q 18.059 737.472 20.149 740.121 Q 22.239 742.771 23.816 744.623 Q 25.393 746.475 27.373 748.811 Q 29.353 751.146 30.901 752.277 Q 32.450 753.408 33.251 753.745 Q 34.051 754.081 34.423 753.983 Q 34.794 753.886 35.079 753.919 Q 35.364 753.952 35.773 753.947 Q 36.182 753.942 36.753 753.916 Q 37.323 753.891 38.113 753.958 Q 38.902 754.025 38.771 754.079 Q 38.641 754.133 39.129 754.035 Q 39.617 753.937 42.962 757.414 Q 43.129 757.462 41.841 757.445 "></path>
    <path id="STROKE_6142981e-dcc0-4cc5-8467-530e11b5f6e4" opacity="1.000" fill="none" stroke="#171612" stroke-width="2.720" stroke-opacity="1.000" stroke-linecap="round" stroke-linejoin="round" d="M -78.749 700.777 Q -79.424 700.267 -79.290 700.369 Q -79.521 700.194 -79.915 699.896 Q -80.310 699.599 -80.335 699.580 Q -80.359 699.561 -80.298 699.607 Q -80.238 699.653 -84.319 696.571 Q -88.401 693.490 -97.153 686.882 Q -105.905 680.273 -110.674 676.672 Q -115.444 673.071 -120.328 669.383 Q -125.212 665.696 -127.495 663.972 Q -129.779 662.248 -133.466 659.464 Q -137.153 656.680 -140.439 654.199 Q -143.725 651.718 -145.372 650.475 Q -147.018 649.231 -154.732 643.407 Q -162.446 637.583 -166.904 634.217 Q -171.361 630.852 -179.575 624.650 "></path>
    <path id="STROKE_92b5d8b0-7cfd-4256-9296-b18cc033368f" opacity="1.000" fill="none" stroke="#171612" stroke-width="2.720" stroke-opacity="1.000" stroke-linecap="round" stroke-linejoin="round" d="M 23.072 663.516 Q 23.042 663.491 22.486 663.032 L 22.495 663.040 Q 21.783 662.453 21.623 662.322 Q 21.464 662.190 21.634 662.330 Q 21.803 662.470 18.910 660.085 Q 16.016 657.700 13.775 655.852 Q 11.533 654.005 8.355 651.385 Q 5.176 648.765 2.184 646.298 Q -0.809 643.832 -2.762 642.222 Q -4.714 640.613 -6.687 638.987 Q -8.659 637.361 -12.579 634.130 Q -16.499 630.899 -20.306 627.762 Q -24.113 624.624 -27.134 622.134 Q -30.155 619.644 -34.957 615.686 Q -39.759 611.728 -43.694 608.484 Q -47.628 605.241 -49.565 603.645 Q -51.502 602.049 -54.132 599.881 Q -56.762 597.713 -58.786 596.045 Q -60.810 594.377 -63.202 592.405 Q -65.595 590.433 -66.617 589.590 Q -67.639 588.748 -70.938 586.028 Q -74.238 583.309 -76.086 581.786 Q -77.934 580.262 -78.750 579.589 Q -79.567 578.916 -80.399 578.230 Q -81.232 577.544 -81.637 577.210 Q -82.043 576.875 -81.774 577.097 Q -81.506 577.318 -84.961 574.470 "></path>
    <path id="STROKE_b405a4af-65b1-43b4-ba71-150b7181b92e" opacity="1.000" fill="none" stroke="#171612" stroke-width="2.720" stroke-opacity="1.000" stroke-linecap="round" stroke-linejoin="round" d="M 63.021 653.124 Q 63.415 653.461 62.649 652.806 Q 61.883 652.151 59.428 650.054 Q 56.973 647.956 55.538 646.729 Q 54.102 645.502 53.297 644.814 Q 52.491 644.125 52.144 643.829 Q 51.798 643.532 51.728 643.473 Q 51.657 643.413 48.995 641.137 Q 46.333 638.862 42.070 635.219 Q 37.808 631.576 34.370 628.638 Q 30.933 625.700 27.684 622.923 Q 24.435 620.147 21.310 617.476 Q 18.186 614.806 15.954 612.898 Q 13.721 610.990 10.369 608.124 Q 7.016 605.259 4.004 602.685 Q 0.992 600.111 -8.660 591.861 Q -18.313 583.611 -23.391 579.271 Q -28.469 574.931 -32.496 571.490 Q -36.523 568.048 -39.186 565.772 Q -41.849 563.496 -48.698 557.642 Q -55.547 551.788 -62.955 545.458 Q -70.362 539.127 -78.144 532.476 Q -85.926 525.825 -90.001 522.342 Q -94.076 518.859 -97.264 516.135 Q -100.452 513.410 -100.925 513.006 "></path>
    <path id="STROKE_5b58223a-0ab7-4500-8949-32eaf3959bca" opacity="1.000" fill="none" stroke="#171612" stroke-width="2.572" stroke-opacity="1.000" stroke-linecap="round" stroke-linejoin="round" d="M 102.311 654.646 Q 101.644 654.047 101.684 654.083 Q 101.248 653.691 101.028 653.494 Q 100.809 653.296 100.646 653.151 Q 100.484 653.005 100.060 652.623 Q 99.635 652.242 99.701 652.301 Q 98.975 651.648 98.999 651.670 Q 99.087 651.749 98.966 651.640 Q 98.845 651.532 87.973 641.762 Q 77.101 631.992 66.751 622.691 Q 56.401 613.390 51.404 608.900 Q 46.406 604.409 43.479 601.778 Q 40.551 599.147 37.031 595.984 Q 33.512 592.821 29.435 589.158 Q 25.358 585.494 14.196 575.464 Q 3.034 565.433 -3.613 559.460 Q -10.260 553.487 -13.644 550.446 Q -17.027 547.405 -19.736 544.971 Q -22.445 542.537 -25.765 539.554 Q -29.085 536.570 -30.856 534.978 Q -32.628 533.387 -40.257 526.531 Q -47.885 519.675 -52.249 515.754 Q -56.612 511.833 -60.420 508.411 Q -64.228 504.990 -66.284 503.142 Q -68.339 501.295 -71.108 498.807 Q -73.877 496.319 -76.985 493.526 Q -80.093 490.733 -82.839 488.265 Q -85.585 485.797 -87.724 483.875 Q -89.863 481.953 -97.121 475.430 Q -104.380 468.907 -108.050 465.610 Q -111.719 462.312 -113.406 460.796 Q -115.093 459.281 -116.232 458.257 Q -117.372 457.233 -120.695 454.246 Q -124.018 451.260 -125.138 450.254 "></path>
    <path id="STROKE_4aa88db8-90cf-4a86-b6da-0ef5e908fbb0" opacity="1.000" fill="none" stroke="#171612" stroke-width="1.498" stroke-opacity="1.000" stroke-linecap="round" stroke-linejoin="round" d="M -299.851 607.309 Q -299.971 607.454 -299.414 606.593 Q -299.599 606.546 -301.434 607.752 Q -303.269 608.958 -304.700 610.170 Q -306.131 611.382 -307.102 612.840 Q -308.073 614.299 -308.572 615.178 Q -309.070 616.058 -309.560 617.459 Q -310.049 618.861 -310.177 620.346 Q -310.305 621.830 -310.385 622.846 Q -310.465 623.862 -310.180 625.058 Q -309.895 626.253 -309.401 627.118 Q -308.907 627.983 -308.409 628.552 Q -307.912 629.120 -307.270 629.369 Q -306.628 629.618 -306.266 629.658 Q -305.904 629.699 -304.968 629.738 Q -304.031 629.777 -303.210 629.333 Q -302.390 628.890 -301.990 628.268 Q -301.590 627.646 -301.482 627.049 Q -301.375 626.453 -301.351 625.694 Q -301.327 624.935 -304.989 621.816 Q -304.760 622.026 -302.951 622.259 Q -301.141 622.492 -294.996 620.147 "></path>
    <path id="STROKE_fc5f9646-b2c9-49f8-8455-a2772fd93eb0" opacity="1.000" fill="none" stroke="#171612" stroke-width="1.700" stroke-opacity="1.000" stroke-linecap="round" stroke-linejoin="round" d="M -296.658 624.086 Q -296.294 623.578 -295.693 622.646 Q -295.092 621.715 -295.134 620.565 Q -295.715 620.189 -296.968 620.928 Q -298.220 621.667 -298.863 622.878 Q -299.505 624.090 -299.691 625.031 Q -299.878 625.973 -299.868 626.905 Q -299.858 627.837 -299.763 628.380 Q -299.669 628.922 -299.276 629.534 Q -298.882 630.145 -298.023 630.514 Q -297.164 630.882 -296.381 630.091 Q -295.598 629.300 -295.106 628.005 Q -294.615 626.711 -294.470 625.491 Q -294.325 624.271 -294.290 623.238 Q -294.255 622.205 -295.571 621.238 Q -295.885 621.880 -295.451 623.729 Q -295.017 625.578 -294.477 626.761 Q -293.938 627.945 -293.650 628.495 Q -293.363 629.046 -292.329 629.619 Q -291.295 630.193 -290.761 623.832 "></path>
    <path id="STROKE_0dcdcb8b-3179-4798-b42c-3000ef626d0b" opacity="1.000" fill="none" stroke="#171612" stroke-width="1.673" stroke-opacity="1.000" stroke-linecap="round" stroke-linejoin="round" d="M -289.789 621.652 Q -289.789 622.225 -289.789 622.060 Q -289.730 621.948 -289.694 623.667 Q -289.658 625.387 -289.493 626.469 Q -289.328 627.552 -289.150 628.227 Q -288.971 628.901 -288.115 629.022 Q -287.736 628.787 -287.356 626.813 Q -286.977 624.840 -286.673 623.685 Q -286.370 622.531 -286.121 621.910 Q -285.872 621.289 -285.287 621.162 Q -284.702 621.034 -284.042 622.969 Q -283.381 624.905 -283.039 625.973 Q -282.697 627.042 -282.526 627.469 Q -282.355 627.896 -282.011 628.314 Q -281.666 628.732 -281.388 628.778 Q -281.109 628.825 -280.635 628.525 Q -280.161 628.225 -279.445 627.442 Q -278.729 626.658 -278.119 625.617 Q -277.510 624.576 -277.272 623.664 Q -277.035 622.752 -277.018 622.107 Q -277.000 621.463 -277.287 621.143 Q -277.574 620.823 -278.288 620.739 Q -279.002 620.656 -279.589 621.063 Q -280.177 621.470 -280.579 622.214 Q -280.982 622.959 -281.181 623.811 Q -281.379 624.664 -281.324 625.417 Q -281.269 626.170 -280.904 626.748 Q -280.539 627.327 -280.016 627.725 Q -279.493 628.123 -278.500 628.256 Q -277.506 628.389 -276.668 628.266 Q -275.831 628.143 -274.934 627.412 Q -274.038 626.680 -273.400 625.808 Q -272.762 624.936 -272.469 623.865 Q -272.176 622.793 -273.018 621.169 "></path>
    <path id="STROKE_ed0d6936-0f7f-4c2c-8d88-b4632f5eab2c" opacity="1.000" fill="none" stroke="#171612" stroke-width="1.700" stroke-opacity="1.000" stroke-linecap="round" stroke-linejoin="round" d="M -288.103 612.039 Q -288.538 612.077 -288.662 612.167 Q -288.785 612.257 -288.718 612.504 Q -288.651 612.751 -288.655 612.828 Q -288.658 612.904 -288.449 613.037 Q -288.241 613.170 -288.116 613.163 Q -287.991 613.156 -287.864 613.128 Q -287.737 613.099 -287.453 612.850 "></path>
    <path id="STROKE_6618d678-647e-4be3-ae32-91903e8a4db4" opacity="1.000" fill="none" stroke="#171612" stroke-width="1.445" stroke-opacity="1.000" stroke-linecap="round" stroke-linejoin="round" d="M -261.638 611.646 Q -261.879 612.204 -261.130 615.624 Q -260.381 619.045 -259.996 621.477 Q -259.611 623.908 -259.513 625.317 Q -259.416 626.726 -259.705 627.935 Q -259.808 628.146 -260.115 627.455 Q -260.422 626.763 -261.057 625.178 "></path>
    <path id="STROKE_957fa63e-3c3d-4b3a-8c65-b1a3b1eacf5a" opacity="1.000" fill="none" stroke="#171612" stroke-width="1.346" stroke-opacity="1.000" stroke-linecap="round" stroke-linejoin="round" d="M -267.420 614.472 Q -267.079 614.471 -267.121 614.459 Q -267.051 614.556 -265.150 613.179 Q -263.249 611.803 -261.729 611.031 Q -260.210 610.260 -259.068 609.806 Q -257.926 609.352 -256.310 609.080 Q -254.695 608.808 -253.749 608.793 Q -252.803 608.777 -252.156 608.867 Q -251.510 608.957 -250.979 609.730 Q -250.448 610.503 -250.837 611.392 Q -251.226 612.281 -251.777 612.823 Q -252.327 613.365 -252.748 613.716 Q -253.169 614.066 -253.528 614.441 Q -253.886 614.815 -255.628 616.002 Q -257.371 617.189 -258.759 617.875 Q -260.147 618.560 -261.454 618.757 Q -261.523 618.606 -261.569 618.503 "></path>
    <path id="STROKE_49bc87c6-6713-4610-a072-fcdb54b1721e" opacity="1.000" fill="none" stroke="#171612" stroke-width="1.700" stroke-opacity="1.000" stroke-linecap="round" stroke-linejoin="round" d="M -253.376 622.002 Q -253.409 622.340 -253.427 624.167 Q -253.446 625.995 -253.946 627.840 Q -254.351 627.521 -254.331 627.510 Q -254.310 627.499 -254.338 627.412 Q -254.367 627.324 -254.538 627.142 Q -254.709 626.959 -255.016 625.806 Q -255.323 624.653 -255.352 623.559 Q -255.382 622.466 -255.144 621.380 Q -254.906 620.294 -254.372 619.579 Q -253.838 618.865 -253.262 618.495 Q -252.685 618.126 -252.316 618.078 Q -251.946 618.031 -251.648 618.117 Q -251.349 618.203 -251.100 618.335 Q -250.851 618.468 -250.598 618.775 Q -250.344 619.082 -250.151 619.408 Q -249.958 619.735 -249.721 620.547 Q -249.484 621.360 -249.815 622.406 Q -250.147 623.453 -252.082 625.756 Q -251.628 625.776 -249.540 625.473 Q -247.451 625.170 -246.069 624.773 Q -244.687 624.377 -244.042 623.989 Q -243.396 623.601 -243.077 623.219 Q -242.757 622.837 -242.719 622.401 Q -242.681 621.966 -243.401 621.777 Q -244.122 621.587 -244.978 621.643 Q -245.835 621.699 -246.710 622.301 Q -247.584 622.904 -247.961 623.288 Q -248.338 623.672 -248.535 624.037 Q -248.732 624.402 -248.795 624.789 Q -248.858 625.176 -248.724 625.633 Q -248.589 626.091 -247.921 626.465 Q -247.252 626.839 -246.244 626.874 Q -245.237 626.909 -244.300 626.674 Q -243.363 626.438 -242.867 625.646 Q -242.370 624.853 -242.232 624.003 Q -242.094 623.153 -242.222 622.483 Q -242.351 621.813 -243.480 620.910 "></path>
    <path id="STROKE_e400db26-4800-4ba9-8be0-250edfa69a06" opacity="1.000" fill="none" stroke="#171612" stroke-width="1.524" stroke-opacity="1.000" stroke-linecap="round" stroke-linejoin="round" d="M -239.844 611.668 Q -239.856 611.368 -238.699 627.353 Q -238.712 627.372 -238.500 626.232 Q -238.288 625.092 -238.408 623.989 Q -238.528 622.885 -239.131 621.722 "></path>
    <path id="STROKE_6697724b-132f-43bd-a13e-ca585508941a" opacity="1.000" fill="none" stroke="#171612" stroke-width="1.700" stroke-opacity="1.000" stroke-linecap="round" stroke-linejoin="round" d="M -240.402 619.685 Q -240.174 619.890 -240.207 619.903 Q -239.959 620.144 -239.948 620.101 Q -239.288 620.430 -237.923 619.681 Q -236.559 618.932 -233.579 617.368 "></path>
    <path id="STROKE_c39cd6b4-8a86-4135-9fac-c11af00b7c7e" opacity="1.000" fill="none" stroke="#171612" stroke-width="1.699" stroke-opacity="1.000" stroke-linecap="round" stroke-linejoin="round" d="M -234.689 623.599 Q -234.812 623.427 -234.586 623.751 Q -234.360 624.076 -233.857 624.162 Q -233.354 624.249 -232.924 624.196 Q -232.494 624.143 -231.796 623.702 Q -231.098 623.260 -230.729 622.729 Q -230.361 622.199 -230.354 621.797 Q -230.346 621.394 -230.345 621.191 Q -230.345 620.987 -230.874 620.888 Q -231.404 620.790 -231.948 620.761 Q -232.492 620.733 -233.164 621.037 Q -233.836 621.341 -234.692 621.978 Q -235.548 622.615 -236.124 623.260 Q -236.700 623.904 -236.894 624.564 Q -237.088 625.225 -237.067 625.686 Q -237.046 626.148 -236.804 626.556 Q -236.563 626.964 -235.705 627.384 Q -234.848 627.803 -233.403 627.970 Q -231.957 628.136 -229.275 627.167 "></path>
    <path id="STROKE_90c55552-552b-4c94-a220-53f4616bb978" opacity="1.000" fill="none" stroke="#171612" stroke-width="1.700" stroke-opacity="1.000" stroke-linecap="round" stroke-linejoin="round" d="M -224.742 622.602 Q -224.600 622.615 -224.414 622.270 Q -224.522 622.065 -225.356 622.048 Q -226.190 622.031 -226.848 622.266 Q -227.507 622.501 -228.104 622.954 Q -228.702 623.407 -229.023 623.910 Q -229.344 624.412 -229.477 624.819 Q -229.609 625.226 -229.672 625.767 Q -229.735 626.309 -229.310 626.862 Q -228.885 627.415 -228.541 627.595 Q -228.197 627.775 -227.374 627.912 Q -226.550 628.048 -225.693 627.861 Q -224.836 627.674 -223.746 627.076 "></path>
    <path id="STROKE_0e5dea58-f6f0-47f8-a07e-07a0fbf7c84c" opacity="1.000" fill="none" stroke="#171612" stroke-width="1.700" stroke-opacity="1.000" stroke-linecap="round" stroke-linejoin="round" d="M -223.096 615.883 Q -223.026 615.981 -223.275 617.048 Q -223.523 618.115 -223.635 619.943 Q -223.747 621.771 -223.723 622.883 Q -223.699 623.994 -223.580 624.550 Q -223.462 625.105 -223.246 625.535 Q -223.029 625.965 -222.860 626.042 Q -222.690 626.120 -222.438 626.124 Q -222.185 626.128 -221.710 625.406 "></path>
    <path id="STROKE_07e1d2b3-4a0f-4290-ac8b-c8c0947f5c32" opacity="1.000" fill="none" stroke="#171612" stroke-width="1.700" stroke-opacity="1.000" stroke-linecap="round" stroke-linejoin="round" d="M -224.322 621.212 Q -224.439 621.597 -222.996 621.005 Q -221.553 620.412 -220.836 619.927 Q -220.120 619.443 -219.645 619.263 Q -219.169 619.083 -218.655 619.059 "></path>
    <path id="STROKE_eb634da5-a10b-4026-9270-9345fd8b8a0f" opacity="1.000" fill="none" stroke="#171612" stroke-width="1.700" stroke-opacity="1.000" stroke-linecap="round" stroke-linejoin="round" d="M -218.839 625.247 Q -219.049 625.348 -219.362 625.396 Q -219.610 625.317 -219.001 623.893 Q -218.391 622.469 -217.578 621.481 Q -216.766 620.494 -215.755 620.008 Q -215.508 620.060 -215.942 621.054 Q -216.375 622.047 -216.583 622.682 Q -216.790 623.318 -216.831 623.785 Q -216.872 624.251 -216.860 624.566 Q -216.849 624.881 -216.743 625.280 Q -216.637 625.680 -215.951 625.882 Q -215.265 626.085 -214.488 626.031 Q -213.711 625.978 -212.959 625.288 Q -212.207 624.597 -211.728 623.955 Q -211.249 623.313 -211.244 621.896 Q -211.233 621.827 -211.509 621.778 Q -211.786 621.728 -212.220 622.216 Q -212.653 622.703 -212.759 623.435 Q -212.864 624.167 -212.870 624.549 Q -212.876 624.931 -212.840 625.452 Q -212.805 625.972 -210.422 625.825 "></path>
    <path id="STROKE_dad807d4-11af-4a40-88cf-86ecea901986" opacity="1.000" fill="none" stroke="#171612" stroke-width="1.698" stroke-opacity="1.000" stroke-linecap="round" stroke-linejoin="round" d="M -205.681 622.697 Q -205.681 622.697 -205.579 622.665 Q -205.477 622.634 -205.834 622.649 Q -206.191 622.665 -206.633 622.861 Q -207.076 623.058 -207.473 623.600 Q -207.870 624.143 -208.010 624.787 Q -208.150 625.431 -208.048 625.925 Q -207.947 626.420 -207.507 626.936 Q -207.067 627.452 -206.054 627.524 Q -205.040 627.597 -204.340 627.593 Q -203.639 627.589 -202.908 627.319 Q -202.177 627.048 -201.195 626.465 Q -200.212 625.882 -199.610 625.217 Q -199.008 624.553 -198.827 624.082 Q -198.646 623.610 -198.667 623.208 Q -198.687 622.806 -198.924 622.608 Q -199.160 622.410 -199.867 622.251 Q -200.575 622.093 -201.454 622.434 Q -202.332 622.775 -202.993 623.397 Q -203.653 624.019 -203.901 624.697 Q -204.149 625.375 -204.173 625.841 Q -204.196 626.306 -204.007 626.632 Q -203.818 626.957 -203.182 627.190 Q -202.545 627.423 -201.736 627.442 Q -200.927 627.461 -200.208 627.254 Q -199.489 627.047 -198.860 626.632 Q -198.231 626.218 -197.189 624.664 "></path>
    <path id="STROKE_446d68d7-69d5-4e51-b4f1-cecfe7e36e75" opacity="1.000" fill="none" stroke="#171612" stroke-width="1.700" stroke-opacity="1.000" stroke-linecap="round" stroke-linejoin="round" d="M -205.635 616.975 Q -205.900 616.997 -207.925 617.713 Q -207.890 617.702 -206.325 616.323 "></path>
    <path id="STROKE_56f8de5f-9aa8-4e3a-889c-1c014be14bf2" opacity="1.000" fill="none" stroke="#171612" stroke-width="1.485" stroke-opacity="1.000" stroke-linecap="round" stroke-linejoin="round" d="M -239.629 545.981 Q -239.629 545.981 -239.679 546.131 Q -239.728 546.281 -239.660 545.992 Q -239.592 545.704 -239.853 546.585 Q -240.115 547.466 -240.348 548.457 Q -240.581 549.448 -240.692 553.182 Q -240.803 556.917 -238.553 570.008 L -238.529 570.008 Q -238.307 569.695 -241.120 565.933 "></path>
    <path id="STROKE_7f279fcc-03a2-40d7-8f48-1c0c33464432" opacity="1.000" fill="none" stroke="#171612" stroke-width="1.377" stroke-opacity="1.000" stroke-linecap="round" stroke-linejoin="round" d="M -260.233 552.708 Q -260.204 552.353 -257.891 551.451 Q -255.578 550.549 -252.975 549.424 Q -250.372 548.299 -248.513 547.325 Q -246.654 546.351 -227.524 538.432 Q -227.595 538.431 -228.152 538.998 "></path>
    <path id="STROKE_6f7e1514-740a-4a9e-b6d3-89776e5307a4" opacity="1.000" fill="none" stroke="#171612" stroke-width="1.664" stroke-opacity="1.000" stroke-linecap="round" stroke-linejoin="round" d="M -229.315 563.337 Q -228.950 563.241 -230.268 569.824 Q -229.990 569.819 -230.566 569.767 Q -231.142 569.716 -231.466 567.667 Q -231.790 565.617 -230.787 563.133 Q -229.783 560.648 -227.094 558.695 Q -226.569 559.561 -226.624 561.613 Q -226.678 563.665 -226.364 565.002 Q -226.050 566.340 -225.313 567.450 Q -224.577 568.560 -223.014 569.074 Q -221.450 569.589 -219.819 568.736 Q -218.188 567.883 -216.889 566.098 Q -215.590 564.313 -215.038 562.792 Q -214.486 561.271 -214.471 559.772 Q -214.456 558.272 -215.355 558.176 Q -216.253 558.080 -217.130 558.299 Q -218.007 558.518 -219.414 560.195 Q -220.821 561.873 -221.282 563.259 Q -221.743 564.645 -222.021 565.621 Q -222.298 566.598 -222.064 567.589 Q -221.830 568.581 -220.256 569.239 Q -218.682 569.897 -216.308 568.982 Q -213.934 568.068 -212.399 566.819 Q -210.864 565.571 -209.314 564.142 Q -207.765 562.713 -207.071 561.282 Q -206.378 559.852 -206.293 559.279 Q -206.207 558.707 -206.704 557.686 Q -207.200 556.665 -208.349 556.559 Q -209.498 556.454 -210.616 556.378 Q -211.734 556.302 -213.002 557.138 Q -214.269 557.973 -214.450 558.898 Q -214.630 559.822 -214.165 560.829 Q -213.699 561.836 -211.484 563.370 Q -209.268 564.903 -207.901 565.827 Q -206.535 566.751 -205.883 568.442 Q -206.354 569.128 -207.090 567.142 Q -207.827 565.156 -206.514 562.425 Q -205.200 559.694 -204.149 558.157 Q -203.098 556.619 -202.694 555.175 Q -203.887 555.160 -203.555 555.191 Q -203.925 555.232 -204.512 556.017 Q -205.100 556.802 -204.969 558.320 Q -204.839 559.838 -203.461 561.691 Q -202.083 563.544 -201.131 564.691 Q -200.180 565.838 -199.869 567.299 Q -199.557 568.760 -199.965 569.402 Q -200.373 570.044 -201.147 570.141 Q -201.955 569.894 -200.012 567.707 Q -198.068 565.521 -196.648 564.270 Q -195.228 563.019 -194.664 562.126 Q -194.101 561.233 -193.949 560.871 Q -193.797 560.509 -193.782 559.848 Q -193.768 559.186 -194.429 558.997 Q -195.090 558.809 -195.805 558.864 Q -196.520 558.920 -197.297 560.117 Q -198.073 561.314 -198.219 563.005 Q -198.365 564.696 -198.064 565.849 Q -197.763 567.003 -196.551 567.745 Q -195.339 568.488 -193.082 568.529 Q -190.825 568.570 -185.852 565.563 "></path>
    <path id="STROKE_c47ac619-6d82-450c-820e-b5c681392e6c" opacity="1.000" fill="none" stroke="#171612" stroke-width="1.678" stroke-opacity="1.000" stroke-linecap="round" stroke-linejoin="round" d="M -169.956 562.587 Q -169.976 562.792 -167.842 563.626 Q -167.738 562.747 -167.833 562.923 Q -167.772 562.751 -169.343 562.211 Q -170.914 561.670 -172.094 561.948 Q -173.274 562.227 -174.099 562.842 Q -174.925 563.458 -175.080 563.943 Q -175.235 564.427 -175.303 565.301 Q -175.371 566.174 -173.968 566.593 Q -172.566 567.011 -171.132 566.413 Q -169.699 565.814 -168.557 564.319 Q -167.414 562.823 -167.138 560.726 Q -166.862 558.628 -166.767 556.887 Q -166.673 555.145 -170.060 552.717 Q -170.423 552.272 -169.486 554.557 Q -168.549 556.841 -167.475 559.325 Q -166.402 561.808 -165.805 563.004 Q -165.209 564.199 -163.679 565.389 Q -162.149 566.580 -161.263 566.170 Q -160.376 565.761 -159.933 564.615 Q -159.489 563.469 -159.380 562.465 Q -159.271 561.461 -159.660 561.087 Q -160.049 560.713 -160.961 560.638 Q -161.872 560.564 -162.849 561.724 Q -163.827 562.884 -164.242 565.079 Q -164.658 567.274 -156.280 567.131 "></path>
    <path id="STROKE_398c2756-60dd-4577-a598-32f43633069e" opacity="1.000" fill="none" stroke="#171612" stroke-width="1.687" stroke-opacity="1.000" stroke-linecap="round" stroke-linejoin="round" d="M -147.230 562.054 Q -147.409 562.408 -146.741 569.805 Q -146.572 569.733 -146.710 569.782 Q -146.848 569.832 -146.972 566.437 Q -147.096 563.042 -146.882 561.011 Q -146.669 558.980 -146.421 558.155 Q -146.174 557.331 -145.906 556.543 Q -145.637 555.755 -145.198 555.328 Q -144.759 554.901 -143.919 555.345 Q -143.080 555.789 -141.890 557.962 Q -140.701 560.135 -140.398 562.165 Q -140.096 564.194 -140.034 565.357 Q -139.971 566.520 -140.194 567.042 Q -140.417 567.563 -141.128 567.786 Q -141.838 568.009 -141.626 567.810 Q -141.414 567.610 -141.574 567.358 Q -141.733 567.106 -141.592 565.246 Q -141.450 563.386 -140.644 561.678 Q -139.837 559.969 -139.175 558.944 Q -138.513 557.920 -137.688 557.436 Q -136.862 556.952 -136.322 557.270 Q -135.782 557.589 -135.371 558.623 Q -134.959 559.658 -134.593 562.126 Q -134.227 564.594 -135.018 567.978 Q -135.137 567.977 -135.304 567.903 Q -136.552 566.935 -132.134 558.101 Q -131.712 558.250 -131.788 560.020 Q -131.865 561.791 -131.853 562.972 Q -131.842 564.152 -131.263 565.100 Q -130.684 566.047 -129.252 566.360 Q -127.820 566.673 -126.317 565.935 Q -124.814 565.196 -123.770 563.299 Q -122.727 561.401 -122.472 559.686 Q -122.217 557.971 -122.613 557.241 Q -123.010 556.511 -124.040 556.278 Q -125.070 556.044 -126.002 556.555 Q -126.933 557.065 -127.529 557.850 Q -128.125 558.636 -128.826 560.463 Q -129.527 562.291 -129.584 563.577 Q -129.641 564.863 -129.605 565.658 Q -129.570 566.452 -128.376 567.017 Q -127.182 567.582 -124.994 566.464 Q -122.806 565.347 -121.491 559.479 Q -121.944 559.266 -122.508 561.454 Q -123.071 563.643 -123.147 565.027 Q -123.223 566.411 -123.198 566.942 Q -123.174 567.472 -122.015 568.098 Q -120.856 568.724 -119.921 568.179 Q -118.986 567.634 -118.331 566.438 Q -117.677 565.241 -116.996 562.307 Q -116.315 559.374 -118.030 556.062 Q -120.583 556.566 -115.652 569.519 Q -115.593 569.545 -115.338 568.910 Q -115.083 568.276 -115.212 568.535 Q -115.340 568.794 -115.173 568.249 Q -115.005 567.704 -114.286 565.496 Q -113.566 563.287 -113.030 560.899 Q -112.494 558.511 -112.660 556.241 Q -112.826 553.970 -115.259 553.304 Q -116.048 553.986 -114.484 557.012 Q -112.920 560.037 -111.773 561.410 Q -110.625 562.783 -109.980 563.773 Q -109.334 564.764 -108.867 566.377 Q -108.399 567.991 -109.029 568.424 Q -109.660 568.857 -110.066 569.032 Q -110.472 569.207 -110.949 569.125 Q -111.426 569.043 -111.784 569.041 Q -112.142 569.038 -112.130 568.865 Q -112.119 568.691 -112.294 567.901 Q -112.469 567.110 -109.973 564.774 Q -107.477 562.438 -105.607 560.945 Q -103.737 559.452 -102.707 556.853 Q -103.505 556.285 -105.351 558.119 Q -107.197 559.953 -107.956 561.692 Q -108.715 563.431 -109.053 565.147 Q -109.391 566.863 -108.831 567.620 Q -108.270 568.377 -106.400 568.664 Q -104.530 568.951 -103.031 568.497 Q -101.532 568.042 -100.357 564.896 "></path>
    <path id="STROKE_19cf9c0e-052b-4916-a7f7-825a5dab95d7" opacity="1.000" fill="none" stroke="#171612" stroke-width="1.626" stroke-opacity="1.000" stroke-linecap="round" stroke-linejoin="round" d="M -245.320 480.074 Q -244.737 479.884 -243.820 479.457 Q -242.904 479.030 -242.947 477.509 Q -243.887 476.978 -245.940 477.497 Q -247.993 478.015 -249.877 479.429 Q -251.762 480.843 -253.697 482.971 Q -255.632 485.099 -256.807 487.060 Q -257.982 489.022 -258.587 490.388 Q -259.192 491.754 -259.595 492.851 Q -259.997 493.949 -260.265 495.331 Q -260.533 496.714 -260.670 498.319 Q -260.808 499.923 -260.480 501.398 Q -260.152 502.873 -259.410 503.433 Q -258.669 503.994 -257.794 504.176 Q -256.919 504.359 -255.752 503.891 Q -254.584 503.423 -253.470 502.167 Q -252.357 500.910 -251.858 499.041 Q -251.360 497.173 -251.489 495.924 Q -251.617 494.676 -251.808 494.303 Q -251.999 493.930 -252.811 493.384 Q -253.623 492.837 -253.952 493.626 Q -254.281 494.415 -254.090 495.281 Q -253.898 496.147 -253.465 496.704 Q -253.032 497.260 -251.153 497.840 Q -249.274 498.419 -246.637 497.686 Q -243.999 496.953 -242.049 495.821 Q -240.098 494.689 -239.060 493.743 Q -238.021 492.796 -237.854 491.643 Q -238.507 491.418 -238.525 491.486 Q -239.551 491.122 -242.102 492.514 Q -244.652 493.905 -246.214 495.425 Q -247.775 496.945 -248.383 497.848 Q -248.991 498.752 -249.355 499.936 Q -249.719 501.119 -249.649 502.012 Q -249.580 502.905 -248.706 503.457 Q -247.832 504.008 -246.197 503.423 Q -244.561 502.838 -242.745 501.172 Q -240.929 499.507 -239.731 497.827 Q -238.532 496.148 -238.147 494.217 Q -238.205 494.335 -238.133 494.169 Q -238.061 494.003 -239.067 494.616 Q -240.074 495.230 -240.878 497.138 Q -241.682 499.046 -242.123 500.408 Q -242.563 501.770 -241.918 504.254 Q -240.401 506.016 -232.399 494.876 "></path>
    <path id="STROKE_2d0328cd-db3e-4b42-8494-0bf5a84de688" opacity="1.000" fill="none" stroke="#171612" stroke-width="1.698" stroke-opacity="1.000" stroke-linecap="round" stroke-linejoin="round" d="M -231.784 493.133 Q -231.905 492.978 -231.547 493.608 Q -231.189 494.238 -231.297 494.652 Q -231.405 495.066 -232.099 495.704 Q -232.792 496.343 -233.243 497.131 Q -233.693 497.918 -233.784 498.367 Q -233.874 498.816 -233.977 499.637 Q -234.080 500.459 -233.904 501.056 Q -233.728 501.652 -233.333 502.072 Q -232.938 502.492 -232.337 502.509 Q -231.736 502.526 -231.730 502.556 Q -231.724 502.586 -231.268 502.594 Q -230.812 502.603 -229.462 500.674 Q -228.113 498.745 -227.291 497.344 Q -226.470 495.943 -224.741 495.081 Q -224.355 494.414 -224.688 496.478 Q -225.022 498.542 -225.179 499.382 Q -225.336 500.221 -225.309 501.469 Q -225.281 502.716 -223.498 503.127 Q -221.715 503.538 -219.997 502.571 Q -218.279 501.604 -216.893 500.123 Q -215.506 498.641 -214.926 497.303 Q -214.345 495.965 -214.347 495.235 Q -214.349 494.504 -214.540 494.241 Q -214.732 493.978 -215.820 493.779 Q -216.908 493.581 -217.970 494.748 Q -219.031 495.916 -219.545 496.890 Q -220.059 497.864 -220.388 499.037 Q -220.717 500.210 -220.737 501.368 Q -220.757 502.527 -219.712 502.987 Q -218.668 503.446 -217.563 503.556 Q -216.458 503.666 -214.912 503.107 Q -213.367 502.548 -212.272 501.274 Q -211.176 500.000 -210.504 496.583 "></path>
    <path id="STROKE_57a4ab19-5b73-464d-a148-992ac07eb617" opacity="1.000" fill="none" stroke="#171612" stroke-width="1.700" stroke-opacity="1.000" stroke-linecap="round" stroke-linejoin="round" d="M -231.134 483.362 Q -231.327 483.506 -233.971 485.665 Q -234.205 485.520 -232.300 482.577 "></path>
    <path id="STROKE_d3cdfedd-45b7-4ddd-905d-efd52177fa54" opacity="1.000" fill="none" stroke="#171612" stroke-width="1.688" stroke-opacity="1.000" stroke-linecap="round" stroke-linejoin="round" d="M -192.842 492.827 Q -192.842 492.827 -192.840 492.778 Q -192.837 492.729 -192.871 492.742 Q -192.905 492.756 -193.319 493.121 Q -193.733 493.486 -193.712 493.605 Q -193.690 493.724 -193.683 493.545 Q -193.677 493.367 -194.107 494.772 Q -194.537 496.177 -194.678 498.014 Q -194.819 499.852 -194.775 500.995 Q -194.732 502.138 -194.424 502.711 Q -194.117 503.285 -193.275 503.680 Q -192.434 504.075 -191.166 503.504 Q -189.898 502.934 -188.774 501.032 Q -187.650 499.131 -187.167 497.292 Q -186.684 495.452 -186.926 494.084 Q -187.169 492.715 -187.458 492.078 Q -187.748 491.442 -190.006 490.703 Q -189.976 491.637 -190.144 491.600 Q -190.312 491.562 -188.097 493.653 Q -185.883 495.743 -184.570 496.825 Q -183.257 497.906 -182.177 498.897 Q -181.096 499.888 -180.525 500.742 Q -179.953 501.595 -179.790 502.225 Q -179.627 502.854 -179.655 503.163 Q -179.682 503.472 -179.965 503.747 Q -180.248 504.022 -180.768 504.269 Q -181.288 504.515 -181.639 504.565 Q -181.989 504.615 -182.161 504.637 Q -182.334 504.659 -183.456 504.726 Q -184.578 504.792 -185.353 504.357 Q -186.128 503.923 -186.255 502.588 Q -186.383 501.252 -182.338 499.966 Q -178.294 498.680 -174.272 496.619 L -174.271 496.529 Q -175.336 496.077 -177.210 496.694 Q -179.084 497.311 -180.249 498.225 Q -181.414 499.140 -182.020 499.984 Q -182.626 500.828 -182.723 501.758 Q -182.821 502.688 -182.677 503.401 Q -182.532 504.115 -181.192 504.753 Q -179.852 505.392 -177.799 505.366 Q -175.746 505.341 -174.537 504.679 Q -173.328 504.017 -172.994 503.641 Q -172.660 503.264 -171.886 501.191 Q -171.113 499.117 -176.717 498.480 Q -176.562 498.534 -174.251 497.138 Q -171.939 495.742 -169.979 493.675 Q -168.020 491.609 -167.064 490.036 Q -166.109 488.464 -165.553 487.268 Q -164.998 486.073 -164.776 484.490 Q -164.554 482.907 -164.429 481.922 Q -164.305 480.938 -165.150 480.227 Q -165.994 479.515 -166.841 479.739 Q -167.689 479.962 -168.249 480.780 Q -168.810 481.598 -169.264 482.533 Q -169.718 483.468 -169.103 489.000 Q -168.487 494.532 -168.144 497.549 Q -167.801 500.566 -167.572 501.915 Q -167.343 503.264 -166.967 503.912 Q -166.592 504.559 -165.651 505.034 Q -164.710 505.508 -162.855 504.874 Q -161.000 504.240 -159.294 502.902 Q -157.587 501.565 -156.213 500.092 Q -154.839 498.620 -154.524 497.370 Q -154.210 496.121 -153.998 495.298 Q -153.786 494.476 -154.814 493.952 Q -155.841 493.428 -157.189 493.375 Q -158.537 493.322 -160.113 493.998 Q -161.688 494.673 -162.990 495.920 Q -164.291 497.166 -164.843 498.502 Q -165.396 499.839 -165.260 501.000 Q -165.124 502.161 -164.900 502.852 Q -164.675 503.543 -163.389 503.984 Q -162.103 504.425 -161.005 504.454 Q -159.908 504.483 -158.377 503.822 Q -156.847 503.161 -155.653 501.348 Q -154.458 499.535 -153.890 497.514 Q -153.936 497.461 -154.114 497.448 Q -154.293 497.435 -155.010 498.705 Q -155.727 499.976 -155.786 501.092 Q -155.845 502.207 -155.969 502.912 Q -156.092 503.617 -155.418 504.128 Q -154.745 504.640 -152.740 504.347 "></path>
    <path id="STROKE_01baf7b3-2f5b-4919-a48c-6c46b43c910d" opacity="1.000" fill="none" stroke="#171612" stroke-width="1.686" stroke-opacity="1.000" stroke-linecap="round" stroke-linejoin="round" d="M -149.166 502.097 Q -149.448 502.316 -151.902 505.838 Q -152.370 505.011 -151.664 502.674 Q -150.959 500.337 -149.867 498.803 Q -148.774 497.269 -147.140 497.109 Q -146.814 497.660 -146.663 499.793 Q -146.513 501.927 -146.290 503.218 Q -146.068 504.509 -145.642 505.158 Q -145.215 505.808 -144.106 505.967 Q -142.996 506.126 -141.934 505.010 Q -140.873 503.894 -139.812 501.494 Q -138.752 499.093 -138.256 495.755 Q -137.760 492.417 -137.830 489.501 Q -137.899 486.586 -139.347 483.951 Q -139.902 484.445 -139.414 489.027 Q -138.925 493.608 -138.532 496.208 Q -138.138 498.809 -137.805 500.058 Q -137.471 501.307 -137.036 502.054 Q -136.600 502.801 -135.495 503.180 Q -134.390 503.558 -132.769 503.163 Q -131.148 502.768 -129.688 501.457 Q -128.228 500.146 -127.623 498.944 Q -127.017 497.743 -126.956 497.130 Q -126.895 496.516 -126.910 496.078 Q -126.926 495.640 -128.078 495.433 Q -129.230 495.226 -130.481 495.961 Q -131.732 496.696 -132.563 497.938 Q -133.395 499.180 -133.701 500.613 Q -134.007 502.046 -133.921 503.252 Q -133.835 504.457 -133.117 505.361 Q -132.399 506.264 -131.015 506.941 Q -129.632 507.617 -127.842 507.496 Q -126.053 507.374 -124.309 506.783 Q -122.565 506.193 -120.326 500.917 "></path>
    <path id="STROKE_0189c002-9ecc-43f3-bcbf-72084a724843" opacity="1.000" fill="none" stroke="#171612" stroke-width="1.680" stroke-opacity="1.000" stroke-linecap="round" stroke-linejoin="round" d="M -138.013 493.332 Q -137.937 493.636 -137.887 494.384 Q -137.836 495.131 -135.823 495.006 Q -133.811 494.882 -131.428 493.992 Q -129.046 493.101 -126.248 490.379 "></path>
    <path id="STROKE_881d5d82-809d-451b-9718-41b2f0abd078" opacity="1.000" fill="none" stroke="#171612" stroke-width="1.700" stroke-opacity="1.000" stroke-linecap="round" stroke-linejoin="round" d="M -194.190 481.829 Q -194.631 482.008 -195.167 484.571 Q -195.068 484.699 -193.415 482.832 "></path>
    <path id="STROKE_de136880-5c59-47b1-b0c3-65e92b72c4bc" opacity="1.000" fill="none" stroke="#171612" stroke-width="1.598" stroke-opacity="1.000" stroke-linecap="round" stroke-linejoin="round" d="M -302.787 406.609 Q -302.666 406.556 -302.409 406.539 Q -302.656 406.191 -306.021 407.380 Q -309.387 408.570 -312.786 411.249 Q -316.185 413.929 -318.396 416.657 Q -320.608 419.386 -321.421 420.796 Q -322.235 422.207 -323.104 424.299 Q -323.972 426.391 -324.229 427.770 Q -324.486 429.150 -324.645 430.385 Q -324.804 431.621 -324.186 433.605 Q -323.567 435.589 -320.485 435.634 Q -317.402 435.678 -313.963 434.391 Q -310.524 433.104 -308.202 431.819 Q -305.881 430.535 -303.991 429.258 Q -302.102 427.981 -301.010 426.611 Q -299.919 425.241 -299.551 423.913 Q -299.183 422.584 -301.171 422.059 Q -303.160 421.533 -305.619 422.564 Q -308.077 423.594 -310.077 425.043 Q -312.077 426.492 -313.091 427.589 Q -314.105 428.685 -314.695 429.833 Q -315.285 430.981 -315.366 431.786 Q -315.446 432.591 -315.438 432.934 Q -315.430 433.278 -315.466 433.756 Q -315.501 434.233 -315.215 435.068 Q -314.929 435.903 -314.057 436.767 Q -313.184 437.631 -311.502 438.113 Q -309.819 438.594 -308.517 438.295 Q -307.214 437.996 -306.170 437.344 Q -305.126 436.692 -304.487 434.810 Q -303.848 432.927 -303.893 431.921 Q -303.938 430.915 -303.943 430.139 Q -303.948 429.364 -304.877 429.084 Q -305.807 428.803 -306.808 428.837 Q -307.809 428.871 -307.907 429.027 Q -308.006 429.184 -307.916 429.093 Q -307.827 429.001 -308.253 429.803 Q -308.680 430.604 -308.117 431.258 Q -307.554 431.913 -305.375 432.108 Q -303.197 432.302 -300.522 431.690 Q -297.848 431.079 -296.041 429.951 Q -294.234 428.824 -293.280 427.888 Q -292.325 426.952 -291.723 425.961 Q -291.120 424.970 -291.106 423.634 Q -291.092 422.299 -292.638 422.167 Q -294.184 422.034 -295.198 421.986 Q -296.212 421.938 -298.018 422.849 Q -299.824 423.760 -301.554 425.258 Q -303.285 426.756 -304.368 428.660 Q -305.451 430.563 -305.695 432.516 Q -305.939 434.469 -305.630 435.730 Q -305.321 436.991 -304.550 437.555 Q -303.780 438.119 -302.953 438.326 Q -302.125 438.534 -300.429 438.638 Q -298.733 438.743 -296.158 437.115 Q -293.583 435.487 -292.600 434.656 Q -291.618 433.824 -290.470 432.552 Q -289.322 431.280 -288.711 430.418 Q -288.099 429.555 -287.911 429.204 Q -287.724 428.853 -287.797 427.765 Q -288.014 427.174 -289.803 428.406 Q -291.592 429.637 -292.534 431.329 Q -293.475 433.022 -293.689 434.174 Q -293.904 435.327 -293.461 436.532 Q -293.019 437.738 -291.482 438.298 Q -289.945 438.859 -288.297 438.620 Q -286.649 438.381 -284.784 437.154 Q -282.918 435.927 -281.222 434.049 Q -279.525 432.171 -279.437 428.697 Q -280.926 427.855 -282.254 429.122 Q -283.582 430.390 -284.208 431.902 Q -284.835 433.415 -285.009 434.625 Q -285.182 435.835 -284.906 436.727 Q -284.631 437.619 -284.504 437.720 Q -284.377 437.821 -283.030 438.403 Q -281.683 438.984 -279.630 437.471 Q -277.576 435.959 -271.508 429.038 Q -271.359 429.427 -272.156 430.752 Q -272.954 432.077 -273.469 433.934 Q -273.984 435.791 -274.083 437.304 Q -274.182 438.817 -273.176 439.235 Q -272.170 439.653 -271.115 439.539 Q -270.061 439.426 -269.464 439.258 Q -268.867 439.091 -268.276 438.824 Q -267.684 438.558 -265.945 437.358 Q -264.206 436.158 -261.182 433.359 "></path>
    <path id="STROKE_873a4144-2ff0-47dd-956d-2ebca01c82c1" opacity="1.000" fill="none" stroke="#171612" stroke-width="1.666" stroke-opacity="1.000" stroke-linecap="round" stroke-linejoin="round" d="M -241.590 426.718 Q -240.918 426.688 -240.925 426.688 Q -239.789 426.563 -240.133 426.585 Q -239.603 426.479 -239.438 425.667 Q -239.530 425.565 -241.118 425.711 Q -242.706 425.857 -244.249 427.313 Q -245.791 428.769 -246.562 430.471 Q -247.333 432.173 -247.222 433.191 Q -247.112 434.208 -247.059 435.303 Q -247.006 436.397 -245.953 437.103 Q -244.901 437.810 -243.474 437.704 Q -242.048 437.599 -240.897 437.465 Q -239.746 437.331 -237.453 435.957 Q -235.160 434.583 -233.924 433.419 Q -232.688 432.255 -232.165 431.327 Q -231.641 430.398 -231.351 429.529 Q -231.061 428.660 -232.800 428.317 Q -234.539 427.975 -237.008 428.999 Q -239.478 430.023 -240.840 431.148 Q -242.202 432.274 -242.902 433.080 Q -243.602 433.887 -243.996 434.735 Q -244.390 435.583 -244.395 436.597 Q -244.400 437.610 -243.968 438.288 Q -243.536 438.965 -242.297 439.151 Q -241.058 439.338 -239.284 439.162 Q -237.510 438.986 -234.395 436.253 Q -231.280 433.520 -229.219 429.707 Q -229.533 429.198 -233.228 439.895 L -233.251 439.896 Q -233.347 438.860 -230.964 435.220 Q -228.580 431.579 -224.796 428.641 Q -224.322 428.434 -225.008 430.512 Q -225.693 432.590 -225.992 434.261 Q -226.291 435.932 -226.326 437.165 Q -226.360 438.398 -224.532 438.913 Q -222.703 439.428 -219.739 438.403 Q -216.776 437.377 -214.717 436.156 Q -212.657 434.935 -211.640 434.331 Q -210.623 433.727 -210.034 433.099 Q -209.445 432.471 -209.295 432.288 Q -209.145 432.104 -209.058 431.854 Q -208.972 431.604 -209.274 431.094 Q -209.577 430.584 -209.846 430.550 Q -210.115 430.517 -210.617 430.449 Q -211.119 430.382 -212.800 430.227 Q -214.481 430.073 -216.352 430.559 Q -218.222 431.045 -219.674 432.000 Q -221.127 432.956 -221.592 434.442 Q -222.057 435.928 -222.048 436.918 Q -222.039 437.908 -220.907 438.422 Q -219.775 438.935 -218.107 438.862 Q -216.438 438.790 -214.327 437.361 Q -212.215 435.931 -210.432 433.908 Q -208.649 431.884 -207.404 428.751 Q -206.158 425.617 -206.491 420.097 Q -207.076 420.586 -206.895 420.646 Q -207.070 422.089 -207.979 425.621 Q -208.887 429.153 -209.169 431.341 Q -209.452 433.529 -209.448 434.843 Q -209.445 436.156 -208.773 436.898 Q -208.102 437.640 -207.678 437.667 Q -207.253 437.695 -206.262 437.734 Q -205.271 437.774 -202.767 435.786 Q -200.263 433.798 -199.049 429.512 Q -199.228 429.416 -199.551 429.411 Q -199.873 429.406 -200.030 429.569 Q -200.188 429.733 -200.363 429.774 Q -200.537 429.814 -201.630 431.347 Q -202.722 432.880 -203.375 434.615 Q -204.028 436.350 -203.966 437.431 Q -203.904 438.513 -203.679 439.118 Q -203.454 439.724 -202.987 439.812 Q -202.521 439.900 -202.296 439.867 Q -202.070 439.834 -201.209 439.920 Q -200.347 440.007 -197.355 437.652 Q -194.363 435.298 -191.888 431.412 Q -192.199 431.434 -193.520 433.447 Q -194.840 435.459 -194.963 440.171 Q -194.196 441.356 -190.391 439.482 Q -186.586 437.609 -184.760 436.292 Q -182.935 434.975 -181.710 434.178 Q -180.485 433.381 -180.507 431.592 Q -180.314 431.667 -181.203 431.466 Q -182.093 431.266 -183.518 431.389 Q -184.943 431.513 -186.449 433.017 Q -187.954 434.522 -188.415 436.011 Q -188.876 437.500 -188.918 438.433 Q -188.959 439.365 -188.631 440.160 Q -188.302 440.954 -186.455 441.449 Q -184.607 441.945 -182.659 440.898 Q -180.710 439.852 -179.007 438.214 Q -177.305 436.577 -174.575 431.680 "></path>
    <path id="STROKE_ca58bde9-a5f9-4cc9-baf5-357b6c5f35af" opacity="1.000" fill="none" stroke="#171612" stroke-width="1.508" stroke-opacity="1.000" stroke-linecap="round" stroke-linejoin="round" d="M -173.601 420.381 Q -173.690 419.294 -173.677 417.129 Q -173.653 417.128 -173.606 417.126 Q -173.469 418.366 -173.510 418.196 Q -173.325 418.379 -175.303 439.757 Q -175.467 439.469 -175.007 437.879 "></path>
    <path id="STROKE_91ba6578-99e7-4f9d-b871-0c00bf7e8354" opacity="1.000" fill="none" stroke="#171612" stroke-width="1.635" stroke-opacity="1.000" stroke-linecap="round" stroke-linejoin="round" d="M -176.341 429.700 Q -176.209 429.806 -175.027 429.830 Q -173.844 429.854 -171.589 428.593 Q -169.334 427.333 -164.211 422.925 "></path>
    <path id="STROKE_4aad87ae-7b8b-4d2e-8357-880596127d7f" opacity="1.000" fill="none" stroke="#171612" stroke-width="1.652" stroke-opacity="1.000" stroke-linecap="round" stroke-linejoin="round" d="M -169.478 436.576 Q -169.376 436.637 -168.702 437.119 Q -168.028 437.600 -167.041 437.659 Q -166.054 437.718 -164.333 435.925 Q -162.613 434.133 -161.811 432.378 Q -161.009 430.624 -160.688 429.663 Q -160.367 428.702 -160.900 427.493 Q -162.515 427.117 -164.195 429.841 Q -165.875 432.564 -166.358 434.676 Q -166.841 436.789 -166.837 437.975 Q -166.833 439.161 -166.718 440.234 Q -166.604 441.307 -165.080 441.974 Q -163.556 442.641 -162.050 441.745 Q -160.545 440.850 -159.143 439.247 Q -157.741 437.644 -156.413 435.443 Q -155.085 433.242 -154.972 430.002 Q -154.840 429.919 -155.272 430.037 Q -155.704 430.155 -156.006 430.699 Q -156.309 431.242 -157.139 434.417 Q -157.970 437.592 -157.251 440.976 Q -155.305 441.836 -153.040 438.530 Q -150.775 435.225 -149.667 432.999 Q -148.559 430.774 -148.385 429.199 Q -149.163 428.100 -153.480 443.512 Q -152.305 443.581 -149.537 439.757 Q -146.769 435.934 -143.453 432.043 Q -142.942 431.664 -143.254 434.420 Q -143.566 437.177 -143.733 438.875 Q -143.901 440.573 -143.860 441.280 Q -143.819 441.986 -143.231 442.612 Q -142.643 443.238 -141.174 443.005 Q -139.706 442.773 -136.564 440.257 "></path>
  </g>
</svg>