<?xml version="1.0" encoding="UTF-8" standalone="yes"?>
<svg xmlns="http://www.w3.org/2000/svg" xmlns:xlink="http://www.w3.org/1999/xlink" width="820.070pt" height="694.926pt" version="1.1" viewBox="-489.900 402.973 820.070 694.926">
  <!--
	Exported with Concepts: Smarter Sketching
	Version: 1505 on iOS 15.3
	https://concepts.app/
	-->
  <title>B022F219-D7AD-484F-A491-B7004E61DDFD</title>
  <desc>Drawing exported from Concepts: Smarter Sketching</desc>
  <defs></defs>
  <g id="Stylo" opacity="1.000">
    <path id="STROKE_faefef2d-8e03-4298-88ad-8d52308cfc4b" opacity="1.000" fill="none" stroke="#171612" stroke-width="2.556" stroke-opacity="1.000" stroke-linecap="round" stroke-linejoin="round" d="M -64.000 416.000 Q -64.000 424.118 -64.000 432.000 Q -64.000 441.145 -64.000 448.000 Q -64.000 456.636 -64.000 464.000 Q -64.000 473.297 -64.000 480.000 Q -64.000 488.561 -64.000 496.000 Q -64.000 505.482 -64.000 512.000 Q -64.000 522.266 -64.000 528.000 Q -64.000 537.332 -64.000 544.000 Q -64.000 552.399 -64.000 560.000 Q -64.000 568.998 -64.000 576.000 Q -64.000 584.768 -64.000 592.000 Q -64.000 600.181 -64.000 608.000 Q -64.000 616.749 -64.000 624.000 Q -64.000 632.180 -64.000 640.000 Q -64.000 648.998 -64.000 656.000 Q -64.000 664.303 -64.000 672.000 Q -64.000 681.285 -64.000 688.000 Q -64.000 697.476 -64.000 704.000 Q -64.000 712.542 -64.000 720.000 Q -64.000 728.944 -64.000 736.000 Q -64.000 744.603 -64.000 752.000 Q -64.000 760.794 -64.000 768.000 Q -64.000 777.257 -64.000 784.000 Q -64.000 793.918 -64.000 800.000 Q -64.000 808.453 -64.000 816.000 Q -64.000 824.644 -64.000 832.000 Q -64.000 840.304 -64.000 848.000 Q -64.000 856.903 -64.000 864.000 Q -64.000 872.958 -64.000 880.000 Q -64.000 888.815 -64.000 896.000 Q -64.000 904.351 -64.000 912.000 L -64.000 915.569 "></path>
    <path id="STROKE_500b2e9c-1c32-41d2-9e1a-c9587b292777" opacity="1.000" fill="none" stroke="#171612" stroke-width="2.720" stroke-opacity="1.000" stroke-linecap="round" stroke-linejoin="round" d="M -64.000 1074.894 Q -64.000 1080.760 -64.000 1088.000 "></path>
    <path id="STROKE_d36704bd-5acf-41b5-881c-c5e8e520e155" opacity="1.000" fill="none" stroke="#171612" stroke-width="1.968" stroke-opacity="1.000" stroke-linecap="round" stroke-linejoin="round" d="M -480.000 768.000 Q -475.458 768.000 -464.000 768.000 Q -454.603 768.000 -448.000 768.000 Q -439.887 768.000 -432.000 768.000 Q -422.402 768.000 -416.000 768.000 Q -406.219 768.000 -400.000 768.000 Q -391.190 768.000 -384.000 768.000 Q -375.419 768.000 -368.000 768.000 Q -358.182 768.000 -352.000 768.000 Q -343.943 768.000 -336.000 768.000 Q -325.849 768.000 -320.000 768.000 Q -310.540 768.000 -304.000 768.000 Q -293.978 768.000 -288.000 768.000 Q -279.739 768.000 -272.000 768.000 Q -263.573 768.000 -256.000 768.000 Q -246.204 768.000 -240.000 768.000 Q -229.971 768.000 -224.000 768.000 Q -215.733 768.000 -208.000 768.000 Q -197.836 768.000 -192.000 768.000 Q -181.538 768.000 -176.000 768.000 Q -166.229 768.000 -160.000 768.000 Q -149.535 768.000 -144.000 768.000 Q -133.369 768.000 -128.000 768.000 Q -119.789 768.000 -112.000 768.000 Q -100.970 768.000 -96.000 768.000 Q -86.254 768.000 -80.000 768.000 Q -70.021 768.000 -64.000 768.000 Q -53.328 768.000 -48.000 768.000 Q -39.798 768.000 -32.000 768.000 Q -23.434 768.000 -16.000 768.000 Q -6.411 768.000 0.000 768.000 Q 8.701 768.000 16.000 768.000 Q 24.670 768.000 32.000 768.000 Q 43.160 768.000 48.000 768.000 Q 57.596 768.000 64.000 768.000 Q 73.630 768.000 80.000 768.000 Q 91.329 768.000 96.000 768.000 Q 106.095 768.000 112.000 768.000 Q 121.081 768.000 128.000 768.000 Q 137.505 768.000 144.000 768.000 Q 154.479 768.000 160.000 768.000 Q 170.316 768.000 176.000 768.000 Q 185.411 768.000 192.000 768.000 Q 200.588 768.000 208.000 768.000 Q 216.557 768.000 224.000 768.000 Q 233.027 768.000 240.000 768.000 Q 248.626 768.000 256.000 768.000 Q 264.529 768.000 272.000 768.000 Q 280.036 768.000 288.000 768.000 Q 296.136 768.000 304.000 768.000 Q 312.171 768.000 320.000 768.000 "></path>
    <path id="STROKE_1c7632d2-d18c-4402-8918-455af33ca06a" opacity="1.000" fill="none" stroke="#171612" stroke-width="1.460" stroke-opacity="1.000" stroke-linecap="round" stroke-linejoin="round" d="M -91.897 802.912 Q -91.818 802.999 -91.448 803.404 Q -91.472 803.661 -94.160 800.134 Q -96.847 796.606 -98.187 793.933 Q -99.526 791.261 -100.252 789.730 Q -100.978 788.200 -102.177 784.400 Q -103.375 780.601 -103.747 777.876 Q -104.119 775.151 -104.378 773.019 Q -104.637 770.886 -104.564 766.503 Q -104.491 762.120 -103.518 756.865 Q -102.545 751.610 -100.484 746.811 Q -98.424 742.011 -96.046 738.496 Q -93.668 734.982 -91.693 732.854 Q -89.718 730.726 -86.940 728.462 Q -84.161 726.197 -80.914 724.447 Q -77.666 722.697 -74.120 721.507 Q -70.575 720.316 -65.729 720.069 Q -60.884 719.821 -57.130 720.708 Q -53.376 721.595 -50.753 722.622 Q -48.130 723.649 -45.026 725.583 Q -41.922 727.516 -39.907 729.386 Q -37.893 731.255 -35.395 734.011 Q -32.898 736.766 -30.229 741.219 Q -27.560 745.671 -25.975 751.171 Q -24.391 756.672 -23.993 759.711 Q -23.595 762.750 -23.352 767.109 Q -23.108 771.469 -24.049 776.880 Q -24.991 782.290 -26.117 785.472 Q -27.243 788.654 -28.291 790.929 Q -29.338 793.205 -30.295 794.838 Q -31.252 796.471 -31.874 797.412 Q -32.496 798.352 -33.109 799.123 Q -33.721 799.894 -33.622 799.905 Q -33.523 799.917 -36.062 802.742 Q -38.601 805.567 -40.395 807.194 Q -42.188 808.820 -45.435 810.741 Q -48.682 812.661 -50.657 813.298 Q -52.632 813.934 -54.076 814.679 Q -55.521 815.424 -59.573 815.721 Q -63.626 816.017 -65.960 815.897 Q -68.295 815.776 -70.848 815.373 Q -73.402 814.971 -76.586 813.600 Q -79.770 812.229 -81.312 811.450 Q -82.855 810.672 -85.603 808.679 Q -88.351 806.686 -90.738 804.141 Q -93.124 801.596 -95.066 799.091 Q -97.008 796.586 -98.667 793.027 Q -100.327 789.469 -100.953 787.925 Q -101.580 786.382 -102.689 782.699 Q -103.797 779.016 -104.248 774.684 Q -104.698 770.352 -104.614 767.421 Q -104.529 764.490 -104.301 761.786 Q -104.073 759.081 -103.022 754.373 Q -101.971 749.665 -97.417 740.671 "></path>
    <path id="STROKE_029ed94b-55a5-4349-b55a-41ab4a7eedf9" opacity="1.000" fill="none" stroke="#171612" stroke-width="2.720" stroke-opacity="1.000" stroke-linecap="round" stroke-linejoin="round" d="M -65.374 706.313 Q -64.897 706.396 -65.009 706.343 Q -65.122 706.290 -65.089 706.173 Q -65.055 706.057 -64.479 706.788 Q -63.903 707.519 -64.023 708.191 Q -64.143 708.863 -64.063 708.850 Q -63.982 708.838 -65.518 713.014 Q -67.053 717.191 -69.692 724.024 Q -69.914 724.584 -69.164 722.368 "></path>
    <path id="STROKE_479c7b6e-ea16-467d-aa9b-10b97a8c7ebf" opacity="1.000" fill="none" stroke="#171612" stroke-width="2.720" stroke-opacity="1.000" stroke-linecap="round" stroke-linejoin="round" d="M -63.924 709.761 Q -63.234 709.244 -62.458 708.752 Q -61.683 708.259 -60.999 708.891 Q -60.315 709.523 -60.031 710.080 Q -59.746 710.637 -58.335 714.116 Q -56.925 717.596 -54.976 721.577 "></path>
    <path id="STROKE_4336bece-7662-41b2-9f94-108f5e902c94" opacity="1.000" fill="none" stroke="#171612" stroke-width="2.452" stroke-opacity="1.000" stroke-linecap="round" stroke-linejoin="round" d="M -105.073 761.524 Q -104.706 760.812 -104.357 759.284 Q -104.007 757.756 -104.062 755.576 Q -104.117 753.397 -104.970 751.916 Q -105.823 750.435 -106.896 749.752 Q -107.968 749.068 -108.225 749.070 Q -108.481 749.072 -109.313 749.234 Q -110.145 749.396 -111.013 751.607 Q -111.882 753.819 -112.235 759.096 Q -112.589 764.373 -112.331 768.234 Q -112.074 772.096 -111.132 774.944 Q -110.190 777.793 -109.025 780.130 Q -107.861 782.467 -105.172 783.128 Q -103.773 782.976 -99.635 759.929 "></path>
    <path id="STROKE_95904374-6c30-48a7-8969-6988a0a1fb91" opacity="1.000" fill="none" stroke="#171612" stroke-width="2.514" stroke-opacity="1.000" stroke-linecap="round" stroke-linejoin="round" d="M -19.396 761.326 Q -19.485 761.471 -19.067 759.595 Q -20.063 760.285 -21.420 766.774 Q -22.778 773.263 -22.864 776.966 Q -22.951 780.669 -22.806 782.366 Q -22.662 784.063 -22.218 784.693 Q -21.774 785.323 -21.463 785.440 Q -21.152 785.557 -20.333 785.545 Q -19.514 785.534 -17.936 782.281 Q -16.359 779.029 -15.380 774.568 Q -14.401 770.107 -14.217 767.041 Q -14.032 763.975 -14.263 761.878 Q -14.493 759.780 -19.001 756.419 "></path>
    <path id="STROKE_4932038b-54d5-4488-a722-bb77cfc1fc89" opacity="1.000" fill="none" stroke="#171612" stroke-width="1.441" stroke-opacity="1.000" stroke-linecap="round" stroke-linejoin="round" d="M -321.366 486.073 Q -320.966 486.419 -318.818 487.715 Q -316.671 489.012 -314.055 489.315 Q -311.439 489.618 -309.532 489.480 Q -307.624 489.342 -305.226 488.063 Q -302.828 486.785 -301.430 485.515 Q -300.032 484.245 -298.772 482.370 Q -297.512 480.495 -296.618 477.544 Q -295.723 474.593 -296.202 471.533 Q -296.680 468.474 -297.437 466.586 Q -298.194 464.699 -299.705 462.841 Q -301.217 460.984 -303.124 459.725 Q -305.031 458.467 -306.629 457.871 Q -308.227 457.276 -310.661 456.988 Q -313.096 456.699 -315.198 457.242 Q -317.299 457.784 -319.692 459.205 Q -322.084 460.625 -323.343 462.201 Q -324.601 463.778 -325.331 465.074 Q -326.060 466.369 -326.829 468.861 Q -327.598 471.352 -327.366 474.350 Q -327.133 477.347 -326.224 479.487 Q -325.314 481.626 -323.888 483.487 Q -322.463 485.348 -321.131 486.274 Q -319.800 487.200 -319.091 487.597 Q -318.381 487.994 -316.986 488.638 Q -315.590 489.282 -313.805 489.428 Q -312.020 489.574 -310.758 489.476 Q -309.496 489.377 -308.217 489.261 Q -306.938 489.144 -301.539 485.653 "></path>
    <path id="STROKE_c7a1ae85-c660-4a97-aad7-f75190c9bc0d" opacity="1.000" fill="none" stroke="#f66640" stroke-width="2.711" stroke-opacity="1.000" stroke-linecap="round" stroke-linejoin="round" d="M -301.019 489.738 Q -301.514 489.010 -301.495 489.038 Q -301.538 488.974 -301.851 488.513 Q -302.164 488.052 -302.567 487.459 Q -302.970 486.866 -302.969 486.867 L -302.990 486.837 Q -303.289 486.397 -300.879 489.944 Q -298.469 493.492 -293.346 501.034 Q -288.222 508.577 -285.503 512.580 Q -282.784 516.583 -279.575 521.307 Q -276.366 526.031 -271.509 533.181 Q -266.652 540.331 -262.899 545.856 Q -259.145 551.382 -255.762 556.362 Q -252.379 561.342 -249.184 566.046 Q -245.989 570.750 -243.671 574.163 Q -241.352 577.576 -231.117 592.644 Q -220.882 607.711 -215.602 615.483 Q -210.323 623.255 -208.039 626.617 Q -205.755 629.980 -204.844 631.321 Q -203.933 632.662 -201.103 636.829 Q -198.272 640.996 -196.338 643.843 Q -194.404 646.691 -192.887 648.923 Q -191.371 651.155 -187.723 656.525 Q -184.075 661.895 -180.307 667.442 Q -176.539 672.990 -174.159 676.494 Q -171.778 679.998 -166.154 688.278 Q -160.529 696.558 -156.574 702.381 Q -152.618 708.205 -150.784 710.905 Q -148.949 713.606 -146.125 717.763 Q -143.301 721.921 -141.761 724.188 Q -140.221 726.454 -136.382 732.106 Q -132.543 737.758 -130.404 740.907 Q -128.264 744.056 -127.201 745.623 Q -126.137 747.189 -125.559 748.039 Q -124.981 748.890 -124.496 749.605 Q -124.010 750.320 -123.594 750.931 Q -123.179 751.543 -123.018 751.780 Q -122.857 752.018 -122.925 751.917 Q -122.993 751.817 -122.972 751.848 Q -122.951 751.878 -122.505 752.535 Q -122.059 753.191 -122.090 753.146 Q -121.568 753.915 -121.635 753.817 Q -121.589 753.883 -121.244 754.392 Q -120.898 754.901 -120.417 755.609 Q -119.935 756.318 -119.977 756.256 Q -120.019 756.194 -119.954 756.290 Q -119.890 756.385 -119.665 756.716 Q -119.440 757.047 -119.098 757.551 Q -118.756 758.054 -118.780 758.019 Q -118.803 757.984 -118.746 758.069 Q -118.688 758.154 -118.348 758.654 Q -118.009 759.155 -118.095 759.027 Q -118.182 758.899 -118.157 758.937 Q -118.131 758.975 -118.125 758.983 Q -118.119 758.992 -118.120 758.990 Q -118.121 758.988 -117.975 759.204 Q -117.829 759.419 -117.234 760.294 Q -116.640 761.169 -116.369 761.569 Q -116.097 761.969 -116.071 762.007 Q -116.045 762.045 -116.017 762.086 Q -115.989 762.128 -115.885 762.281 Q -115.780 762.435 -115.663 762.607 Q -115.546 762.779 -115.153 763.359 Q -114.759 763.938 -114.424 764.431 Q -114.090 764.924 -114.083 764.933 Q -114.077 764.942 -114.116 764.885 Q -114.154 764.829 -114.114 764.888 Q -114.073 764.948 -114.078 764.940 Q -114.084 764.932 -114.070 764.953 Q -114.055 764.974 -113.003 766.524 "></path>
    <path id="STROKE_00fb41f1-3e83-463b-9c1b-05917589b633" opacity="1.000" fill="none" stroke="#6ac0c8" stroke-width="2.454" stroke-opacity="1.000" stroke-linecap="round" stroke-linejoin="round" d="M -25.930 765.421 Q -24.877 766.475 -23.956 767.396 Q -25.177 766.175 -24.962 766.390 Q -25.993 765.359 -31.126 760.226 Q -36.259 755.092 -41.012 750.340 Q -45.765 745.587 -47.994 743.358 Q -50.222 741.129 -52.826 738.526 Q -55.430 735.922 -60.907 730.445 Q -66.384 724.968 -69.051 722.301 Q -71.718 719.634 -75.717 715.635 Q -79.715 711.637 -98.571 692.781 Q -117.427 673.925 -127.315 664.037 Q -137.204 654.148 -152.772 638.579 Q -168.341 623.011 -177.072 614.280 Q -185.803 605.549 -192.024 599.328 Q -198.245 593.106 -201.693 589.659 Q -205.140 586.212 -213.419 577.932 Q -221.699 569.653 -226.062 565.290 Q -230.425 560.927 -232.546 558.806 Q -234.666 556.685 -242.795 548.556 Q -250.924 540.427 -255.698 535.653 Q -260.472 530.879 -262.892 528.460 Q -265.311 526.041 -266.197 525.155 Q -267.083 524.269 -273.352 518.000 Q -279.621 511.731 -282.573 508.779 Q -285.525 505.827 -287.116 504.236 Q -288.706 502.645 -289.461 501.891 Q -290.216 501.136 -290.461 500.891 Q -290.706 500.646 -291.154 500.198 Q -291.601 499.750 -291.665 499.687 Q -291.728 499.624 -291.648 499.703 Q -291.569 499.783 -292.454 498.898 Q -293.339 498.013 -293.045 498.307 Q -292.750 498.601 -293.049 498.303 Q -293.347 498.004 -293.764 497.587 Q -294.181 497.170 -294.767 496.585 Q -295.353 495.999 -296.141 495.211 Q -296.928 494.423 -297.029 494.323 Q -297.130 494.222 -297.094 494.258 Q -297.057 494.295 -297.105 494.247 Q -297.153 494.199 -300.199 491.152 "></path>
    <path id="STROKE_463917bb-7778-400b-8669-4a0766975bc5" opacity="1.000" fill="none" stroke="#6ac0c8" stroke-width="2.720" stroke-opacity="1.000" stroke-linecap="round" stroke-linejoin="round" d="M -275.806 515.545 Q -275.224 516.128 -274.958 516.393 Q -274.693 516.659 -274.698 516.653 Q -274.704 516.648 -274.784 516.568 Q -274.864 516.488 -274.162 517.190 Q -273.436 517.916 -276.447 514.905 Q -279.458 511.894 -283.272 508.080 Q -287.086 504.266 -289.061 502.291 Q -291.035 500.316 -291.836 499.515 Q -292.638 498.714 -292.673 498.679 Q -292.708 498.644 -293.523 497.829 Q -294.338 497.014 -294.282 497.070 Q -295.211 496.141 -295.015 496.337 Q -295.972 495.380 -295.651 495.701 Q -296.698 494.654 -296.302 495.050 Q -297.203 494.149 -297.072 494.280 Q -298.048 493.304 -297.759 493.593 Q -298.565 492.787 -298.395 492.956 Q -299.406 491.945 -299.083 492.269 Q -299.785 491.567 -299.833 491.519 Q -299.881 491.470 -299.824 491.527 Q -300.518 490.834 -300.503 490.849 Q -301.242 490.110 -301.145 490.207 Q -302.139 489.213 -301.827 489.525 Q -302.689 488.663 -302.512 488.840 Q -303.514 487.837 -303.241 488.110 Q -304.057 487.294 -303.892 487.460 Q -304.708 486.643 -304.616 486.735 Q -304.668 486.684 -304.710 486.642 "></path>
    <path id="STROKE_bd416005-9cc9-452c-8603-ccdc6c3f999f" opacity="1.000" fill="none" stroke="#f66640" stroke-width="2.708" stroke-opacity="1.000" stroke-linecap="round" stroke-linejoin="round" d="M -261.601 637.122 Q -261.340 637.115 -261.630 637.134 Q -261.920 637.153 -259.681 637.051 Q -259.439 635.654 -259.489 635.804 Q -259.539 635.954 -259.567 635.510 Q -259.595 635.066 -259.606 635.245 Q -259.617 635.423 -259.576 635.210 Q -259.536 634.997 -260.379 634.399 Q -261.222 633.801 -261.992 633.767 Q -262.761 633.733 -263.798 633.807 Q -264.834 633.880 -265.565 635.129 Q -266.297 636.378 -266.572 637.350 Q -266.847 638.323 -266.980 639.643 Q -267.113 640.963 -266.680 641.905 Q -266.246 642.847 -265.942 643.152 Q -265.638 643.457 -265.422 643.591 Q -265.206 643.725 -263.983 643.877 Q -262.759 644.030 -261.664 642.112 Q -260.568 640.194 -260.119 638.716 Q -259.669 637.238 -259.383 635.980 Q -259.098 634.722 -258.985 633.950 Q -258.872 633.179 -258.802 632.482 Q -258.732 631.785 -258.701 630.548 Q -258.671 629.311 -258.478 628.128 Q -258.285 626.944 -260.223 616.866 Q -260.157 616.562 -259.246 622.251 Q -258.336 627.939 -257.654 631.410 Q -256.972 634.881 -256.459 636.471 Q -255.945 638.061 -255.583 638.703 Q -255.221 639.344 -254.747 639.592 Q -254.274 639.840 -254.288 639.799 Q -254.302 639.759 -254.298 639.766 Q -254.294 639.772 -254.329 639.823 Q -254.364 639.875 -254.248 639.782 Q -254.132 639.688 -253.827 639.304 Q -253.914 639.437 -254.640 640.964 "></path>
    <path id="STROKE_62f6403d-cc7c-4a89-b75d-7f98f7786794" opacity="1.000" fill="none" stroke="#f66640" stroke-width="2.720" stroke-opacity="1.000" stroke-linecap="round" stroke-linejoin="round" d="M -247.337 645.328 Q -247.655 644.793 -246.701 647.152 Q -246.900 646.978 -246.228 647.363 Q -245.557 647.747 -242.944 639.869 Q -242.966 639.417 -242.858 642.988 Q -242.749 646.560 -241.707 651.203 "></path>
    <path id="STROKE_3605d005-ad32-4d5d-a103-d916163c9bb5" opacity="1.000" fill="none" stroke="#6ac0c8" stroke-width="2.688" stroke-opacity="1.000" stroke-linecap="round" stroke-linejoin="round" d="M -175.101 591.002 Q -175.636 590.915 -173.581 591.382 Q -173.220 590.622 -173.372 589.957 Q -173.525 589.293 -173.881 588.889 Q -174.237 588.485 -174.530 588.387 Q -174.822 588.288 -175.158 588.216 Q -175.493 588.143 -175.757 588.100 Q -176.021 588.057 -176.926 588.259 Q -177.831 588.460 -178.698 589.427 Q -179.564 590.394 -179.870 591.885 Q -180.175 593.377 -180.164 594.353 Q -180.152 595.329 -179.863 596.074 Q -179.574 596.819 -178.913 597.187 Q -178.251 597.556 -177.349 597.465 Q -176.447 597.373 -175.303 595.340 Q -174.159 593.307 -173.175 590.123 Q -172.190 586.940 -172.180 583.347 Q -172.169 579.754 -172.086 577.454 Q -172.002 575.154 -173.723 572.831 Q -173.833 572.344 -173.755 574.918 Q -173.678 577.493 -173.259 581.771 Q -172.840 586.049 -172.606 589.140 Q -172.372 592.230 -171.944 596.214 L -171.921 596.214 Q -171.897 596.458 -171.968 594.129 "></path>
    <path id="STROKE_69a74df8-a2d2-47f2-9f3f-f5d818027368" opacity="1.000" fill="none" stroke="#6ac0c8" stroke-width="2.720" stroke-opacity="1.000" stroke-linecap="round" stroke-linejoin="round" d="M -165.007 595.030 Q -164.812 594.951 -165.466 595.507 Q -165.610 595.003 -165.594 594.440 Q -165.578 593.878 -165.362 593.630 Q -165.147 593.382 -164.893 593.316 Q -164.640 593.250 -164.139 593.194 Q -163.639 593.138 -163.475 594.136 Q -163.312 595.135 -163.340 597.329 Q -163.368 599.522 -164.084 601.822 Q -164.800 604.121 -165.510 605.364 Q -166.220 606.606 -167.351 606.894 Q -167.494 606.102 -167.461 605.499 Q -167.429 604.895 -166.650 604.579 Q -165.870 604.263 -164.809 604.379 Q -163.749 604.495 -162.615 605.399 Q -161.481 606.304 -159.471 606.744 "></path>
    <path id="STROKE_ec710695-1cb5-40e8-a340-43b1cbd9bf57" opacity="1.000" fill="none" stroke="#f66640" stroke-width="2.720" stroke-opacity="1.000" stroke-linecap="round" stroke-linejoin="round" d="M -105.815 763.822 Q -105.815 763.822 -105.815 763.899 Q -105.815 763.975 -105.815 763.972 Q -105.824 764.278 -105.835 764.231 Q -105.835 764.249 -105.835 764.299 Q -105.619 764.273 -105.662 764.284 Q -105.705 764.295 -105.619 764.264 Q -105.533 764.234 -104.743 763.644 "></path>
    <path id="STROKE_1426ad53-9ce2-40d4-a682-ed0751801236" opacity="1.000" fill="none" stroke="#f66640" stroke-width="2.720" stroke-opacity="1.000" stroke-linecap="round" stroke-linejoin="round" d="M -98.269 760.103 Q -98.269 760.585 -98.269 760.462 Q -98.272 760.645 -98.259 760.631 Q -98.303 760.992 -97.060 759.388 "></path>
    <path id="STROKE_da5168b8-7a45-4ac0-8122-6d7232b89bbc" opacity="1.000" fill="none" stroke="#f66640" stroke-width="2.720" stroke-opacity="1.000" stroke-linecap="round" stroke-linejoin="round" d="M -90.526 755.489 Q -90.528 755.579 -90.586 756.226 Q -90.136 756.120 -90.289 756.137 Q -90.025 755.841 -90.056 755.876 Q -90.087 755.912 -90.079 755.906 Q -90.071 755.900 -90.007 755.774 Q -89.942 755.648 -89.297 754.914 "></path>
    <path id="STROKE_e112e045-dc90-48fc-a938-5ff1dbfd331e" opacity="1.000" fill="none" stroke="#f66640" stroke-width="2.720" stroke-opacity="1.000" stroke-linecap="round" stroke-linejoin="round" d="M -83.736 749.922 Q -83.736 750.378 -83.736 750.270 Q -83.732 750.625 -83.727 750.487 Q -83.466 750.487 -83.517 750.468 Q -83.553 750.556 -82.462 748.866 "></path>
    <path id="STROKE_ddf6e5a3-7d89-4cb6-9ef6-89f659e20654" opacity="1.000" fill="none" stroke="#f66640" stroke-width="2.720" stroke-opacity="1.000" stroke-linecap="round" stroke-linejoin="round" d="M -77.144 743.218 Q -77.232 743.215 -76.724 743.348 Q -76.763 743.447 -75.993 741.944 "></path>
    <path id="STROKE_d9fcb55c-8b76-48cb-ad8a-01f2234ab164" opacity="1.000" fill="none" stroke="#f66640" stroke-width="2.720" stroke-opacity="1.000" stroke-linecap="round" stroke-linejoin="round" d="M -70.394 736.815 Q -70.394 736.810 -70.394 737.293 Q -70.414 737.342 -70.275 736.896 "></path>
    <path id="STROKE_bb2a5301-c251-4ae9-b265-fadba41860ee" opacity="1.000" fill="none" stroke="#f66640" stroke-width="2.720" stroke-opacity="1.000" stroke-linecap="round" stroke-linejoin="round" d="M -63.465 727.508 Q -63.656 727.968 -63.594 727.797 Q -63.777 728.104 -63.712 728.006 Q -63.893 728.271 -63.831 728.174 Q -63.841 728.195 -63.900 728.282 Q -63.932 728.324 -62.927 727.289 Q -62.986 727.466 -65.149 730.530 Q -65.072 730.459 -62.512 727.148 Q -62.693 727.525 -62.590 727.365 Q -62.488 727.206 -64.952 730.748 Q -64.822 730.649 -61.638 726.452 Q -61.569 726.529 -64.754 730.393 Q -64.502 730.257 -61.757 726.393 Q -62.100 726.754 -64.774 730.093 Q -64.800 730.082 -64.618 729.876 Q -64.437 729.671 -64.186 729.378 Q -63.935 729.086 -63.860 728.995 Q -63.786 728.904 -63.542 728.624 Q -63.298 728.344 -62.868 727.985 "></path>
    <path id="STROKE_bc23b2fa-0429-4474-b9dc-509d3454bc25" opacity="1.000" fill="none" stroke="#9378e3" stroke-width="2.720" stroke-opacity="1.000" stroke-linecap="round" stroke-linejoin="round" d="M -23.684 767.667 Q -24.077 767.275 -23.904 767.448 Q -23.731 767.621 -24.223 767.129 Q -24.715 766.637 -25.140 766.212 Q -25.565 765.786 -25.522 765.830 Q -25.479 765.873 -25.438 765.914 Q -25.397 765.954 -26.534 764.817 Q -27.671 763.680 -29.826 761.526 Q -31.980 759.371 -34.420 756.931 Q -36.861 754.491 -37.917 753.435 Q -38.973 752.379 -39.622 751.730 Q -40.271 751.081 -40.523 750.828 Q -40.776 750.576 -40.797 750.555 Q -40.817 750.534 -40.824 750.528 Q -40.830 750.521 -41.175 750.176 Q -41.520 749.831 -41.846 749.506 Q -42.171 749.181 -42.257 749.095 Q -42.343 749.009 -42.258 749.094 Q -42.174 749.178 -42.701 748.650 Q -43.229 748.123 -43.108 748.243 Q -43.353 747.998 -43.588 747.764 Q -43.822 747.530 -43.886 747.465 Q -43.951 747.401 -43.870 747.482 Q -43.788 747.563 -44.116 747.236 Q -44.444 746.908 -44.918 746.434 Q -45.392 745.960 -45.751 745.601 Q -46.110 745.242 -46.124 745.227 Q -46.139 745.213 -46.088 745.264 Q -46.036 745.315 -46.263 745.089 Q -46.490 744.862 -46.721 744.630 Q -46.953 744.399 -46.928 744.424 Q -46.903 744.449 -46.903 744.449 Q -46.902 744.449 -47.016 744.336 Q -47.129 744.223 -47.404 743.948 Q -47.679 743.672 -47.670 743.682 Q -47.661 743.691 -47.711 743.641 Q -47.760 743.592 -47.733 743.618 Q -47.707 743.645 -48.073 743.278 Q -48.440 742.911 -48.450 742.902 Q -48.459 742.893 -48.437 742.915 Q -48.414 742.938 -48.390 742.962 Q -48.366 742.985 -48.782 742.570 Q -49.197 742.154 -49.174 742.178 Q -49.151 742.201 -49.159 742.193 Q -49.167 742.185 -49.166 742.185 Q -49.166 742.186 -49.596 741.756 Q -50.025 741.326 -50.012 741.339 Q -49.999 741.353 -49.996 741.356 Q -49.993 741.359 -50.124 741.228 Q -50.254 741.098 -50.519 740.833 Q -50.783 740.568 -50.805 740.546 Q -50.827 740.525 -50.807 740.545 Q -50.787 740.565 -50.970 740.382 Q -51.152 740.199 -52.126 739.226 Q -53.100 738.252 -53.604 737.748 Q -54.108 737.243 -54.298 737.054 Q -54.488 736.864 -54.467 736.884 Q -54.447 736.905 -54.442 736.910 Q -54.436 736.916 -54.787 736.565 Q -55.138 736.214 -55.183 736.168 Q -55.229 736.123 -55.196 736.156 Q -55.162 736.189 -55.163 736.189 Q -55.163 736.189 -55.172 736.180 Q -55.181 736.171 -55.176 736.176 Q -55.170 736.181 -55.159 736.192 Q -55.149 736.203 -55.224 736.128 Q -55.299 736.052 -55.221 736.130 Q -55.143 736.209 -55.362 735.990 Q -55.580 735.771 -55.882 735.470 Q -56.183 735.168 -56.103 735.249 Q -56.573 734.779 -56.456 734.895 Q -57.024 734.328 -56.863 734.488 Q -57.232 734.119 -57.256 734.096 Q -57.279 734.073 -57.243 734.109 Q -57.487 733.865 -57.496 733.856 Q -57.505 733.847 -57.489 733.863 Q -57.473 733.879 -57.577 733.775 Q -57.681 733.671 -57.570 733.782 Q -57.459 733.893 -57.664 733.688 Q -57.869 733.483 -58.181 733.170 Q -58.494 732.858 -58.409 732.943 Q -58.434 732.918 -58.466 732.886 Q -58.413 732.938 -58.161 733.191 "></path>
    <path id="STROKE_4355c3ee-35c1-4995-a68b-7742f18096d9" opacity="1.000" fill="none" stroke="#9378e3" stroke-width="2.484" stroke-opacity="1.000" stroke-linecap="round" stroke-linejoin="round" d="M -25.892 765.460 Q -25.789 765.562 -25.667 765.685 Q -25.712 765.640 -28.841 762.511 Q -31.969 759.382 -34.453 756.899 Q -36.936 754.416 -38.342 753.010 Q -39.748 751.604 -40.616 750.735 Q -41.485 749.866 -41.897 749.455 Q -42.309 749.043 -42.289 749.063 Q -42.269 749.083 -42.589 748.763 Q -42.910 748.442 -42.958 748.394 Q -43.006 748.346 -43.012 748.340 Q -43.018 748.333 -43.023 748.329 Q -43.027 748.325 -42.979 748.372 Q -42.932 748.420 -42.957 748.395 Q -42.982 748.370 -43.360 747.991 Q -43.739 747.612 -43.751 747.601 Q -43.762 747.590 -43.730 747.622 Q -43.698 747.654 -43.768 747.584 Q -43.838 747.514 -44.203 747.149 Q -44.568 746.784 -44.559 746.793 Q -44.551 746.801 -44.508 746.843 Q -44.466 746.886 -44.960 746.392 Q -45.454 745.898 -45.828 745.523 Q -46.203 745.149 -46.192 745.160 Q -46.181 745.171 -46.171 745.181 Q -46.161 745.190 -46.277 745.075 Q -46.392 744.960 -46.638 744.713 Q -46.885 744.466 -46.909 744.443 Q -46.933 744.419 -46.999 744.353 Q -47.065 744.287 -47.331 744.021 Q -47.598 743.754 -47.605 743.747 Q -47.612 743.740 -47.559 743.793 Q -47.506 743.845 -47.526 743.825 Q -47.546 743.805 -48.041 743.311 Q -48.536 742.816 -48.490 742.862 Q -48.444 742.907 -48.473 742.878 Q -48.502 742.850 -48.591 742.761 Q -48.680 742.672 -48.924 742.427 Q -49.169 742.183 -49.180 742.172 Q -49.191 742.161 -49.175 742.177 Q -49.159 742.193 -49.276 742.076 Q -49.393 741.959 -49.710 741.642 Q -50.027 741.324 -50.037 741.314 Q -50.048 741.304 -50.051 741.301 Q -50.053 741.298 -50.115 741.237 Q -50.176 741.176 -50.475 740.876 Q -50.775 740.577 -50.779 740.573 Q -50.783 740.569 -50.673 740.679 Q -50.563 740.789 -51.148 740.204 Q -51.123 740.229 -51.023 740.328 L -51.047 740.305 Q -51.022 740.330 -50.971 740.380 Q -51.086 740.266 -51.338 740.013 Q -51.591 739.761 -51.539 739.812 Q -51.488 739.864 -51.516 739.836 Q -51.543 739.808 -51.636 739.716 Q -51.728 739.624 -52.018 739.333 Q -52.309 739.042 -52.265 739.087 Q -52.629 738.723 -52.654 738.698 Q -52.680 738.672 -52.642 738.710 Q -53.239 738.113 -53.025 738.327 Q -53.605 737.747 -53.384 737.967 Q -54.041 737.310 -53.793 737.559 Q -54.232 737.120 -54.216 737.135 Q -54.201 737.151 -54.171 737.180 Q -54.650 736.702 -54.578 736.774 Q -54.978 736.373 -55.159 736.193 Q -55.339 736.013 -55.316 736.035 Q -55.791 735.560 -55.692 735.660 Q -56.175 735.177 -56.075 735.277 Q -56.124 735.228 -56.403 734.949 Q -56.378 734.974 -56.251 735.100 Q -56.457 734.895 -56.667 734.684 Q -56.878 734.474 -56.873 734.478 Q -56.869 734.483 -56.876 734.476 Q -56.883 734.469 -57.068 734.283 Q -57.254 734.098 -57.471 733.880 Q -57.689 733.663 -57.643 733.709 Q -57.597 733.754 -57.616 733.736 Q -57.635 733.717 -57.738 733.614 Q -57.842 733.510 -58.144 733.208 Q -58.447 732.905 -58.442 732.909 Q -58.438 732.913 -58.423 732.929 Q -58.408 732.944 -58.520 732.831 Q -58.633 732.719 -58.972 732.380 Q -58.529 732.823 -58.421 732.930 Q -58.314 733.038 -58.253 733.098 Q -58.193 733.159 -58.255 733.097 Q -58.317 733.035 -56.234 735.117 Q -54.152 737.200 -53.139 738.212 Q -52.127 739.225 -51.437 739.915 Q -50.747 740.604 -50.683 740.668 Q -50.619 740.732 -50.241 741.111 Q -49.862 741.489 -49.892 741.459 Q -49.922 741.430 -49.979 741.373 Q -50.035 741.317 -49.678 741.673 Q -49.703 741.648 -49.803 741.549 Q -49.048 742.303 -49.026 742.325 Q -49.004 742.347 -49.013 742.339 Q -49.021 742.331 -48.397 742.954 Q -47.774 743.578 -47.055 744.297 Q -46.336 745.015 -45.453 745.899 Q -44.570 746.782 -43.947 747.405 Q -43.324 748.027 -43.043 748.309 Q -42.761 748.591 -42.596 748.756 Q -42.430 748.921 -42.191 749.161 Q -41.951 749.401 -39.871 751.481 L -39.894 751.457 L -39.869 751.483 Q -40.065 751.287 -39.954 751.398 Q -39.843 751.509 -40.199 751.153 Q -40.556 750.796 -40.650 750.702 Q -40.744 750.608 -40.713 750.639 Q -40.681 750.670 -40.920 750.431 Q -41.159 750.192 -41.289 750.063 Q -41.418 749.934 -41.422 749.929 Q -41.427 749.925 -41.898 749.454 Q -42.369 748.983 -42.364 748.988 Q -42.359 748.993 -42.306 749.045 Q -42.254 749.097 -42.679 748.672 Q -43.104 748.248 -43.844 747.508 Q -44.583 746.768 -44.988 746.363 Q -45.393 745.958 -45.725 745.626 Q -46.058 745.294 -46.054 745.298 Q -46.051 745.301 -46.011 745.341 Q -45.971 745.380 -46.709 744.643 Q -47.446 743.906 -48.335 743.016 Q -49.225 742.127 -49.483 741.869 Q -49.741 741.611 -50.075 741.277 Q -50.410 740.942 -50.955 740.397 Q -51.501 739.851 -51.942 739.410 Q -52.383 738.969 -52.354 738.997 Q -52.326 739.026 -52.295 739.056 Q -52.264 739.087 -52.745 738.607 Q -53.226 738.126 -53.060 738.292 Q -52.894 738.458 -53.174 738.177 Q -53.455 737.897 -53.615 737.736 Q -53.776 737.576 -53.975 737.376 Q -54.174 737.177 -54.381 736.970 Q -54.588 736.764 -54.623 736.729 Q -54.657 736.695 -54.671 736.681 Q -54.685 736.667 -54.942 736.409 Q -55.200 736.152 -55.458 735.894 Q -55.715 735.636 -55.901 735.450 Q -56.087 735.265 -56.029 735.322 Q -55.972 735.380 -56.382 734.970 Q -56.793 734.559 -57.168 734.183 Q -57.544 733.808 -57.932 733.420 Q -58.320 733.032 -58.650 732.701 Q -58.980 732.371 -59.048 732.304 Q -59.115 732.237 -59.058 732.293 Q -59.002 732.350 -59.537 731.815 Q -60.071 731.280 -60.044 731.308 Q -60.169 731.182 -60.455 730.897 Q -60.741 730.611 -60.738 730.614 Q -60.735 730.616 -60.728 730.624 Q -60.720 730.631 -60.818 730.533 Q -60.916 730.435 -61.198 730.154 Q -61.480 729.872 -61.480 729.872 Q -61.480 729.872 -61.376 729.975 Q -61.273 730.078 -61.850 729.502 Q -61.816 729.535 -61.615 729.736 Q -61.415 729.937 -61.322 730.030 Q -61.230 730.122 -61.350 730.001 Q -61.471 729.881 -60.448 730.903 Q -59.426 731.926 -58.538 732.814 Q -57.650 733.702 -56.696 734.656 Q -55.742 735.609 -55.215 736.136 Q -54.688 736.664 -54.444 736.908 Q -54.199 737.152 -54.045 737.307 Q -53.890 737.462 -53.612 737.740 Q -53.335 738.017 -53.125 738.227 Q -52.915 738.436 -52.556 738.795 Q -52.359 738.992 -53.469 737.883 Q -54.578 736.773 -61.438 729.913 Q -61.559 729.793 -57.165 734.186 Q -52.772 738.580 -49.169 742.182 Q -45.567 745.785 -42.868 748.483 Q -40.170 751.182 -38.881 752.471 Q -37.592 753.760 -35.205 756.146 Q -32.819 758.533 -29.686 761.665 Q -29.770 761.581 -30.005 761.347 Q -30.240 761.112 -31.432 759.920 Q -32.624 758.727 -33.711 757.641 Q -34.798 756.554 -35.430 755.921 Q -36.063 755.289 -38.566 752.785 Q -41.070 750.282 -42.476 748.876 Q -43.882 747.470 -44.503 746.848 Q -45.124 746.227 -45.556 745.796 Q -45.988 745.364 -46.310 745.042 Q -46.636 744.716 -39.844 751.507 Q -33.053 758.299 -24.943 766.409 Q -24.699 766.653 -29.105 762.247 Q -33.510 757.842 -41.921 749.431 Q -40.911 750.441 -41.187 750.165 Q -41.463 749.889 -27.097 764.255 Q -26.770 764.582 -51.238 740.114 Q -51.224 740.128 -47.550 743.802 Q -43.876 747.476 -27.600 763.752 Q -27.931 763.420 -35.026 756.326 Q -42.120 749.232 -50.549 740.803 Q -49.915 741.436 -49.791 741.561 Q -49.667 741.685 -49.282 742.069 Q -48.898 742.454 -48.346 743.005 Q -47.795 743.557 -47.278 744.074 Q -46.761 744.591 -44.982 746.370 Q -43.203 748.148 -29.995 761.356 Q -30.197 761.154 -32.880 758.472 "></path>
    <path id="STROKE_3e934952-b87c-4dfc-b129-5e0e3b337d71" opacity="1.000" fill="none" stroke="#9378e3" stroke-width="2.233" stroke-opacity="1.000" stroke-linecap="round" stroke-linejoin="round" d="M -38.937 742.015 Q -38.031 742.015 -38.306 742.015 Q -37.443 741.778 -32.660 736.887 Q -27.877 731.997 -23.749 727.724 Q -19.620 723.451 -17.620 721.362 Q -15.620 719.274 -14.280 717.926 Q -12.939 716.579 -12.096 715.737 Q -11.252 714.896 -10.490 714.186 Q -9.727 713.477 -9.486 713.248 Q -9.246 713.019 -8.912 712.691 Q -8.578 712.362 -7.930 711.655 Q -7.283 710.948 -6.633 710.267 Q -5.983 709.586 -5.774 709.033 Q -5.564 708.480 3.517 698.271 Q 3.699 698.450 2.659 700.306 "></path>
    <path id="STROKE_23f5c14c-a82f-4bda-9171-e79ddf6c3fc7" opacity="1.000" fill="none" stroke="#9378e3" stroke-width="2.702" stroke-opacity="1.000" stroke-linecap="round" stroke-linejoin="round" d="M 4.640 699.748 Q 4.866 700.497 4.817 700.301 Q 4.944 701.142 4.892 700.964 Q 5.631 700.624 1.461 710.922 L 1.435 710.922 Q 1.116 710.269 2.963 706.849 Q 4.810 703.428 5.346 698.423 Q 5.017 697.823 -4.646 699.435 "></path>
    <path id="STROKE_780dcadf-de05-4a7d-8d7f-bb149e225320" opacity="1.000" fill="none" stroke="#171612" stroke-width="2.720" stroke-opacity="1.000" stroke-linecap="round" stroke-linejoin="round" d="M 318.716 767.855 Q 319.005 768.056 319.209 768.448 Q 319.413 768.840 319.409 768.894 Q 319.404 768.947 319.460 769.509 Q 319.516 770.070 319.626 770.410 Q 319.737 770.749 317.584 772.770 Q 315.430 774.792 308.720 778.436 Q 308.189 777.890 312.326 774.003 Q 316.463 770.117 320.307 765.509 Q 320.360 765.132 318.905 764.593 Q 317.451 764.055 316.531 762.759 Q 315.612 761.464 314.682 759.838 Q 313.753 758.212 311.027 756.913 "></path>
    <path id="STROKE_d4baeac0-4bdc-48d4-b142-d8b4856ae3c3" opacity="1.000" fill="none" stroke="#171612" stroke-width="2.707" stroke-opacity="1.000" stroke-linecap="round" stroke-linejoin="round" d="M -66.693 414.725 Q -65.896 415.186 -68.264 420.851 Q -70.633 426.516 -74.471 431.716 Q -75.167 431.032 -72.515 426.044 Q -69.863 421.057 -68.040 418.318 Q -66.217 415.579 -64.944 414.306 Q -63.670 413.032 -62.966 412.873 Q -62.262 412.715 -61.779 413.207 Q -61.296 413.699 -60.841 414.662 Q -60.386 415.624 -58.763 420.762 Q -57.141 425.899 -55.196 431.206 "></path>
    <path id="STROKE_ef9b2e78-8dcd-4302-a57b-736c68138f9d" opacity="1.000" fill="none" stroke="#9378e3" stroke-width="2.641" stroke-opacity="1.000" stroke-linecap="round" stroke-linejoin="round" d="M 30.775 655.414 Q 31.244 655.440 29.047 659.672 Q 26.850 663.904 21.802 671.537 Q 21.818 671.400 24.170 668.437 Q 26.522 665.474 27.948 663.211 Q 29.374 660.948 30.499 659.207 Q 31.623 657.467 32.802 652.460 Q 32.720 652.235 33.053 654.931 Q 33.387 657.626 35.021 661.498 Q 36.655 665.370 37.662 667.367 Q 38.669 669.364 39.015 670.375 Q 39.362 671.386 39.187 672.197 Q 39.013 673.008 36.460 673.350 Q 33.906 673.692 31.899 673.662 Q 29.891 673.632 28.570 673.390 Q 27.250 673.149 23.721 672.899 L 23.721 672.933 Q 24.207 672.999 26.836 671.506 "></path>
    <path id="STROKE_829f60bb-1c2e-4a3f-8ad9-e312c1977141" opacity="1.000" fill="none" stroke="#9378e3" stroke-width="2.720" stroke-opacity="1.000" stroke-linecap="round" stroke-linejoin="round" d="M 44.395 653.986 Q 44.495 654.621 44.477 654.431 Q 45.095 654.478 44.215 657.778 Q 43.335 661.077 42.794 663.023 Q 42.254 664.970 42.108 666.438 Q 41.962 667.906 41.916 668.873 Q 41.870 669.840 42.120 670.828 Q 42.370 671.816 43.819 672.087 Q 45.269 672.358 47.041 671.542 Q 48.812 670.725 49.679 670.215 Q 50.545 669.704 51.390 669.059 Q 52.236 668.415 52.149 667.155 "></path>
    <path id="STROKE_2b2fe180-5fe2-45ec-99d6-3377d672bf9a" opacity="1.000" fill="none" stroke="#9378e3" stroke-width="2.720" stroke-opacity="1.000" stroke-linecap="round" stroke-linejoin="round" d="M 44.230 663.175 Q 44.982 663.550 44.790 663.491 Q 45.066 663.857 46.737 663.545 Q 48.408 663.233 51.349 661.983 "></path>
    <path id="STROKE_24c43998-ce84-463f-aee1-093e14b08550" opacity="1.000" fill="none" stroke="#9378e3" stroke-width="2.720" stroke-opacity="1.000" stroke-linecap="round" stroke-linejoin="round" d="M 64.137 664.900 Q 64.130 664.846 64.062 664.965 Q 63.993 665.083 63.874 665.613 Q 63.850 665.703 69.312 665.666 "></path>
    <path id="STROKE_da493416-6887-448f-9ac0-298722504ffb" opacity="1.000" fill="none" stroke="#9378e3" stroke-width="2.720" stroke-opacity="1.000" stroke-linecap="round" stroke-linejoin="round" d="M 61.987 670.313 Q 62.065 670.064 62.105 670.692 Q 62.146 671.320 63.468 671.658 Q 64.790 671.996 66.846 671.983 Q 68.903 671.969 71.034 671.772 "></path>
    <path id="STROKE_f14b2c01-5101-438a-b003-06e6e646dc67" opacity="1.000" fill="none" stroke="#9378e3" stroke-width="2.720" stroke-opacity="1.000" stroke-linecap="round" stroke-linejoin="round" d="M 93.627 653.850 Q 93.859 653.716 94.181 653.839 Q 94.503 653.963 95.030 653.874 Q 95.558 653.786 95.852 653.315 Q 96.147 652.843 96.469 652.137 Q 96.791 651.430 96.848 650.256 Q 96.905 649.081 96.738 648.563 Q 96.571 648.045 95.508 647.615 Q 94.444 647.186 93.180 647.870 Q 91.915 648.554 90.938 649.941 Q 89.962 651.327 89.659 652.574 Q 89.357 653.822 89.254 654.602 Q 89.151 655.383 89.402 656.079 Q 89.653 656.776 90.723 657.049 Q 91.792 657.322 92.947 657.019 Q 94.102 656.717 95.451 655.550 Q 96.799 654.383 97.675 652.936 Q 98.550 651.490 99.077 649.510 Q 99.603 647.530 99.494 644.789 Q 99.384 642.048 98.629 639.117 Q 98.629 639.696 98.629 639.630 Q 98.325 639.991 100.433 657.268 Q 100.563 657.182 100.977 655.247 "></path>
    <path id="STROKE_1e6a4b87-6901-41ba-9868-e76bd5aa6ab8" opacity="1.000" fill="none" stroke="#9378e3" stroke-width="2.720" stroke-opacity="1.000" stroke-linecap="round" stroke-linejoin="round" d="M 105.583 652.256 Q 105.606 652.256 105.386 652.256 Q 105.197 651.915 105.737 651.000 Q 106.277 650.085 106.767 649.673 Q 107.258 649.262 107.995 649.121 Q 108.732 648.980 109.116 650.426 Q 109.500 651.872 108.926 653.635 Q 108.352 655.397 107.028 657.146 Q 105.704 658.895 104.646 659.997 Q 103.589 661.099 101.991 661.448 Q 101.971 661.404 101.949 661.141 Q 101.926 660.879 101.961 660.795 Q 101.995 660.711 101.973 660.457 Q 101.951 660.204 102.700 659.262 Q 103.448 658.319 104.094 657.742 Q 104.741 657.165 106.016 657.169 Q 106.030 656.817 106.433 658.236 Q 106.836 659.656 107.317 660.589 Q 107.799 661.523 108.717 661.960 Q 109.635 662.397 111.252 662.150 "></path>
    <path id="STROKE_d8d1319c-f938-46ed-9d1e-a6856593c18e" opacity="1.000" fill="none" stroke="#9378e3" stroke-width="2.720" stroke-opacity="1.000" stroke-linecap="round" stroke-linejoin="round" d="M 121.091 652.620 Q 120.937 652.542 120.225 653.584 Q 120.928 653.685 128.350 652.991 "></path>
    <path id="STROKE_dcdbdf9f-c2cd-4bec-aa94-6d48454a25e3" opacity="1.000" fill="none" stroke="#9378e3" stroke-width="2.720" stroke-opacity="1.000" stroke-linecap="round" stroke-linejoin="round" d="M 140.536 652.657 Q 140.436 652.774 140.860 652.683 Q 141.285 652.592 141.722 652.535 Q 142.158 652.479 142.335 651.955 Q 142.511 651.431 142.529 651.133 Q 142.548 650.835 141.862 650.381 Q 141.176 649.928 140.262 649.953 Q 139.347 649.977 138.565 650.520 Q 137.784 651.062 137.218 651.976 Q 136.653 652.891 136.557 653.556 Q 136.461 654.221 136.474 654.710 Q 136.487 655.199 136.767 655.743 Q 137.047 656.288 138.100 656.554 Q 139.153 656.821 140.224 656.550 Q 141.295 656.280 142.345 655.092 Q 143.394 653.904 143.963 652.382 Q 144.532 650.861 144.762 648.162 Q 144.992 645.463 144.285 641.472 Q 144.269 641.472 144.252 641.472 Q 143.788 640.932 145.039 643.882 Q 146.290 646.833 146.370 658.862 Q 146.791 659.482 148.488 655.611 "></path>
    <path id="STROKE_6a814095-3de1-46c6-860b-fad915a070ae" opacity="1.000" fill="none" stroke="#9378e3" stroke-width="2.720" stroke-opacity="1.000" stroke-linecap="round" stroke-linejoin="round" d="M 151.273 657.768 Q 151.209 657.672 151.756 657.791 Q 152.302 657.909 153.226 657.565 Q 154.150 657.222 155.957 654.769 Q 157.764 652.315 159.092 649.141 Q 158.723 649.514 155.417 662.514 Q 155.467 662.505 156.835 660.654 "></path>
    <path id="STROKE_6946285f-e4f8-4311-aa48-7de39c8bbd4c" opacity="1.000" fill="none" stroke="#9378e3" stroke-width="2.720" stroke-opacity="1.000" stroke-linecap="round" stroke-linejoin="round" d="M 84.462 668.512 Q 84.156 668.512 86.799 668.512 Q 89.443 668.512 90.880 668.512 Q 92.317 668.512 93.031 668.512 Q 93.746 668.512 94.104 668.512 Q 94.462 668.512 94.779 668.512 Q 95.095 668.512 95.484 668.512 Q 95.873 668.512 99.721 668.512 Q 103.570 668.512 107.256 668.512 Q 110.942 668.512 112.667 668.512 Q 114.393 668.512 123.885 668.512 Q 133.377 668.512 138.721 668.512 Q 144.066 668.512 146.237 668.512 Q 148.409 668.512 149.012 668.512 Q 149.615 668.512 151.585 668.512 Q 153.555 668.512 154.407 668.512 Q 155.259 668.512 156.449 668.512 Q 157.640 668.512 158.145 668.512 Q 158.649 668.512 159.123 668.512 Q 159.596 668.512 159.840 668.512 Q 160.083 668.512 160.280 668.512 Q 160.476 668.512 160.454 668.512 Q 160.433 668.512 160.489 668.512 Q 160.545 668.512 160.693 668.512 Q 160.841 668.512 161.078 668.512 Q 161.315 668.512 161.315 668.512 Q 161.314 668.512 161.255 668.512 Q 161.195 668.512 162.012 668.512 Q 161.986 668.512 161.716 668.512 "></path>
    <path id="STROKE_ced751a3-548c-45f0-9079-851d41daf114" opacity="1.000" fill="none" stroke="#9378e3" stroke-width="2.720" stroke-opacity="1.000" stroke-linecap="round" stroke-linejoin="round" d="M 122.747 679.257 Q 122.858 679.243 123.352 679.286 Q 123.665 679.313 122.100 679.127 Q 120.535 678.941 118.686 679.676 Q 116.837 680.411 115.732 681.065 Q 114.628 681.718 114.021 682.318 Q 113.415 682.917 112.962 683.550 Q 112.510 684.183 112.328 685.300 Q 112.147 686.417 112.309 687.279 Q 112.471 688.142 113.285 688.729 Q 114.099 689.315 116.245 689.443 Q 118.392 689.571 120.441 689.390 Q 122.490 689.210 124.675 688.930 Q 124.462 688.967 123.773 688.851 "></path>
  </g>
</svg>