<?xml version="1.0" encoding="UTF-8" standalone="yes"?>
<svg xmlns="http://www.w3.org/2000/svg" xmlns:xlink="http://www.w3.org/1999/xlink" width="479.426pt" height="216.206pt" version="1.1" viewBox="-376.866 628.792 479.426 216.206">
  <!--
	Exported with Concepts: Smarter Sketching
	Version: 1505 on iOS 15.3
	https://concepts.app/
	-->
  <title>92D1D273-4CD3-42E3-8040-1A881B13C8BE</title>
  <desc>Drawing exported from Concepts: Smarter Sketching</desc>
  <defs></defs>
  <g id="Stylo" opacity="1.000">
    <path id="STROKE_3aa60a07-989c-409d-b91c-ec24a83efcbe" opacity="1.000" fill="none" stroke="#171612" stroke-width="2.451" stroke-opacity="1.000" stroke-linecap="round" stroke-linejoin="round" d="M -115.393 832.000 Q -115.590 832.000 -115.788 832.000 L -112.000 832.000 Q -116.316 832.000 -116.645 832.000 L -112.000 832.000 Q -117.321 832.000 -118.507 832.000 L -112.000 832.000 Q -119.298 832.000 -128.000 832.000 Q -125.942 832.000 -112.000 832.000 Q -103.198 832.000 -96.000 832.000 Q -96.244 832.000 -112.000 832.000 Q -120.831 832.000 -128.000 832.000 Q -122.186 832.000 -112.000 832.000 Q -103.527 832.000 -96.000 832.000 Q -86.834 832.000 -80.000 832.000 L -80.670 832.000 L -80.000 832.000 Q -84.312 832.000 -85.647 832.000 L -80.000 832.000 "></path>
    <path id="STROKE_850e87e4-c54d-48b0-bbde-0d6035edc99b" opacity="1.000" fill="none" stroke="#171612" stroke-width="2.517" stroke-opacity="1.000" stroke-linecap="round" stroke-linejoin="round" d="M -123.880 816.000 Q -124.011 816.000 -128.000 816.000 Q -124.339 816.000 -123.138 816.000 L -128.000 816.000 Q -120.567 816.000 -112.000 816.000 Q -100.940 816.000 -96.000 816.000 Q -87.757 816.000 -80.000 816.000 Q -86.014 816.000 -96.000 816.000 Q -105.456 816.000 -112.000 816.000 Q -120.221 816.000 -128.000 816.000 Q -120.633 816.000 -112.000 816.000 Q -103.396 816.000 -96.000 816.000 Q -87.097 816.000 -80.000 816.000 "></path>
    <path id="STROKE_2a34b333-d3b5-4526-8d21-3f1b0d463ce0" opacity="1.000" fill="none" stroke="#171612" stroke-width="2.720" stroke-opacity="1.000" stroke-linecap="round" stroke-linejoin="round" d="M -128.000 816.000 L -128.000 820.259 L -128.000 816.000 Q -128.000 821.383 -128.000 832.000 "></path>
    <path id="STROKE_d69d5e24-30dc-4cf4-8b74-af41e1cc48c8" opacity="1.000" fill="none" stroke="#171612" stroke-width="2.720" stroke-opacity="1.000" stroke-linecap="round" stroke-linejoin="round" d="M -80.000 816.000 Q -80.000 824.572 -80.000 832.000 "></path>
    <path id="STROKE_4228485d-ac2d-42ed-8c5d-5fca6bd12708" opacity="1.000" fill="none" stroke="#171612" stroke-width="2.560" stroke-opacity="1.000" stroke-linecap="round" stroke-linejoin="round" d="M 48.000 784.000 Q 53.110 784.000 53.572 784.000 L 48.000 784.000 L 54.231 784.000 L 48.000 784.000 Q 55.434 784.000 64.000 784.000 Q 73.446 784.000 80.000 784.000 Q 88.426 784.000 96.000 784.000 "></path>
    <path id="STROKE_b8a23295-d0c3-42b7-b873-b9c09d5ab1a0" opacity="1.000" fill="none" stroke="#171612" stroke-width="2.168" stroke-opacity="1.000" stroke-linecap="round" stroke-linejoin="round" d="M 48.000 765.506 Q 48.000 765.565 48.000 764.245 L 48.000 768.000 Q 56.291 768.000 64.000 768.000 Q 72.589 768.000 80.000 768.000 Q 89.349 768.000 96.000 768.000 "></path>
    <path id="STROKE_e8288914-82df-4341-98c4-a17a36a9ed70" opacity="1.000" fill="none" stroke="#171612" stroke-width="2.720" stroke-opacity="1.000" stroke-linecap="round" stroke-linejoin="round" d="M 96.000 768.000 Q 96.000 769.639 96.000 773.008 L 96.000 768.000 L 96.000 784.000 "></path>
    <path id="STROKE_720b99fb-89e8-4490-b5c4-20c101c86a08" opacity="1.000" fill="none" stroke="#171612" stroke-width="2.720" stroke-opacity="1.000" stroke-linecap="round" stroke-linejoin="round" d="M 48.000 768.000 L 48.000 784.000 "></path>
    <path id="STROKE_95cc975e-b52e-481e-9d44-5dbe2d50b45a" opacity="1.000" fill="none" stroke="#171612" stroke-width="2.061" stroke-opacity="1.000" stroke-linecap="round" stroke-linejoin="round" d="M -129.155 829.166 Q -129.160 829.227 -129.561 830.049 Q -129.961 830.871 -130.410 831.541 Q -130.859 832.210 -131.114 832.510 Q -131.370 832.810 -131.566 833.109 Q -131.762 833.407 -132.543 834.125 Q -133.324 834.844 -133.780 835.181 Q -134.237 835.518 -134.523 835.727 Q -134.809 835.937 -135.352 836.248 Q -135.896 836.559 -136.225 836.700 Q -136.555 836.842 -136.779 836.984 Q -137.003 837.126 -138.204 837.514 Q -139.405 837.903 -140.555 838.112 Q -141.706 838.321 -143.173 838.289 Q -144.640 838.257 -145.986 838.043 Q -147.332 837.830 -148.751 837.156 Q -150.170 836.481 -150.859 836.053 Q -151.548 835.625 -151.939 835.315 Q -152.329 835.005 -152.542 834.846 Q -152.755 834.686 -153.288 834.184 Q -153.821 833.682 -154.389 833.007 Q -154.957 832.331 -155.286 831.846 Q -155.615 831.360 -155.832 830.959 Q -156.048 830.557 -156.114 830.500 Q -156.179 830.443 -156.637 829.369 Q -157.095 828.296 -157.381 827.303 Q -157.667 826.310 -157.869 824.761 Q -158.071 823.212 -157.795 821.556 Q -157.520 819.901 -157.226 818.879 Q -156.932 817.858 -156.306 816.636 Q -155.681 815.414 -155.108 814.648 Q -154.535 813.882 -153.898 813.200 Q -153.262 812.518 -152.647 812.019 Q -152.032 811.519 -151.406 811.058 Q -150.779 810.598 -149.627 810.036 Q -148.475 809.473 -147.481 809.162 Q -146.486 808.850 -145.165 808.627 Q -143.845 808.403 -142.391 808.474 Q -140.936 808.545 -139.749 808.806 Q -138.561 809.067 -137.277 809.581 Q -135.993 810.095 -134.918 810.773 Q -133.844 811.451 -132.991 812.242 Q -132.139 813.032 -131.632 813.631 Q -131.125 814.230 -130.968 814.473 Q -130.811 814.717 -130.303 815.436 Q -129.794 816.155 -129.185 817.520 Q -128.575 818.884 -128.301 820.334 Q -128.026 821.785 -128.017 822.582 Q -128.008 823.379 -127.991 823.664 Q -127.974 823.950 -128.088 825.104 Q -128.202 826.258 -128.529 827.351 Q -128.856 828.443 -129.158 829.258 Q -129.460 830.073 -131.328 832.786 "></path>
    <path id="STROKE_8aaa9c3c-9c81-4082-b83e-2312398c1fdb" opacity="1.000" fill="none" stroke="#171612" stroke-width="1.594" stroke-opacity="1.000" stroke-linecap="round" stroke-linejoin="round" d="M 45.399 784.750 Q 45.449 784.703 44.903 785.431 Q 44.357 786.158 43.963 786.659 Q 43.569 787.159 42.661 787.944 Q 41.753 788.729 41.277 789.041 Q 40.801 789.353 40.398 789.621 Q 39.996 789.890 38.882 790.467 Q 37.768 791.044 36.555 791.363 Q 35.342 791.682 34.551 791.831 Q 33.760 791.980 32.532 792.026 Q 31.304 792.073 30.177 791.954 Q 29.049 791.835 27.921 791.554 Q 26.793 791.274 25.846 790.875 Q 24.899 790.477 24.417 790.212 Q 23.934 789.948 23.669 789.789 Q 23.404 789.629 23.257 789.541 Q 23.110 789.452 22.859 789.273 Q 22.609 789.094 22.359 788.934 Q 22.108 788.774 21.616 788.326 Q 21.123 787.879 20.828 787.650 Q 20.533 787.420 19.731 786.486 Q 18.928 785.552 18.506 784.882 Q 18.083 784.211 17.797 783.711 Q 17.510 783.211 17.057 782.205 Q 16.605 781.199 16.331 780.048 Q 16.057 778.898 15.985 778.276 Q 15.913 777.654 15.874 777.282 Q 15.835 776.910 15.802 775.813 Q 15.770 774.716 16.023 773.383 Q 16.276 772.049 16.506 771.327 Q 16.736 770.604 16.915 770.158 Q 17.095 769.711 17.233 769.429 Q 17.372 769.147 17.435 769.002 Q 17.497 768.857 17.960 767.936 Q 18.423 767.015 19.306 765.982 Q 20.190 764.949 20.664 764.508 Q 21.138 764.066 21.340 763.894 Q 21.542 763.721 21.754 763.540 Q 21.966 763.359 22.482 763.009 Q 22.997 762.659 23.392 762.390 Q 23.786 762.121 24.886 761.566 Q 25.986 761.010 27.263 760.630 Q 28.539 760.250 29.655 760.103 Q 30.771 759.956 31.456 759.967 Q 32.142 759.978 32.591 759.971 Q 33.040 759.965 34.289 760.126 Q 35.537 760.287 36.719 760.680 Q 37.901 761.073 38.480 761.344 Q 39.059 761.616 39.373 761.781 Q 39.687 761.945 39.877 762.057 Q 40.068 762.168 40.545 762.460 Q 41.023 762.753 41.546 763.147 Q 42.069 763.541 42.531 763.941 Q 42.993 764.341 43.453 764.812 Q 43.912 765.284 44.253 765.713 Q 44.595 766.142 44.924 766.541 Q 45.253 766.941 45.668 767.688 Q 46.083 768.436 46.326 768.868 Q 46.569 769.300 46.946 770.309 Q 47.322 771.318 47.486 771.957 Q 47.651 772.597 47.773 773.339 Q 47.895 774.082 47.930 774.535 Q 47.964 774.988 48.005 775.800 Q 48.046 776.613 47.902 777.696 Q 47.758 778.779 47.611 779.546 Q 47.464 780.313 47.047 781.421 Q 46.630 782.529 46.428 782.902 Q 46.227 783.275 45.896 783.927 Q 45.564 784.578 44.767 785.655 Q 43.969 786.732 43.129 787.508 Q 42.288 788.283 41.678 788.760 Q 41.069 789.236 40.352 789.670 Q 39.635 790.104 39.009 790.404 Q 38.383 790.705 38.022 790.850 Q 37.662 790.994 37.491 791.045 Q 37.320 791.097 37.264 791.130 Q 37.209 791.163 36.164 791.473 Q 35.120 791.782 33.907 791.933 Q 32.695 792.084 31.521 792.046 Q 30.347 792.008 28.808 791.752 "></path>
    <path id="STROKE_446db491-a81b-42c6-ada1-c71b198293e9" opacity="1.000" fill="none" stroke="#6ac0c8" stroke-width="2.635" stroke-opacity="1.000" stroke-linecap="round" stroke-linejoin="round" d="M -288.000 816.000 Q -279.991 816.000 -272.000 816.000 Q -263.731 816.000 -256.000 816.000 Q -247.437 816.000 -240.000 816.000 Q -231.605 816.000 -224.000 816.000 Q -214.453 816.000 -208.000 816.000 Q -199.480 816.000 -192.000 816.000 Q -183.917 816.000 -176.000 816.000 Q -170.937 816.000 -166.141 816.000 Q -166.302 816.000 -167.194 816.000 "></path>
    <path id="STROKE_ff6e9580-1431-4c3d-9da9-8c874bcc5bf3" opacity="1.000" fill="none" stroke="#6ac0c8" stroke-width="2.013" stroke-opacity="1.000" stroke-linecap="round" stroke-linejoin="round" d="M -288.000 768.000 Q -284.919 768.000 -272.000 768.000 Q -263.348 768.000 -256.000 768.000 Q -247.598 768.000 -240.000 768.000 Q -229.445 768.000 -224.000 768.000 Q -214.614 768.000 -208.000 768.000 Q -199.373 768.000 -192.000 768.000 Q -183.756 768.000 -176.000 768.000 Q -166.818 768.000 -160.000 768.000 Q -151.765 768.000 -144.000 768.000 Q -134.505 768.000 -128.000 768.000 Q -119.995 768.000 -112.000 768.000 Q -103.674 768.000 -96.000 768.000 Q -86.549 768.000 -80.000 768.000 Q -70.986 768.000 -64.000 768.000 Q -55.154 768.000 -48.000 768.000 Q -39.806 768.000 -32.000 768.000 Q -23.921 768.000 -16.000 768.000 Q -7.716 768.000 -0.000 768.000 L 5.105 768.000 Q 4.998 768.000 4.347 768.000 "></path>
    <path id="STROKE_6d160683-7eb1-4ac0-a3a8-dc87b73bbebe" opacity="1.000" fill="none" stroke="#6ac0c8" stroke-width="2.707" stroke-opacity="1.000" stroke-linecap="round" stroke-linejoin="round" d="M -289.215 817.746 Q -289.165 817.807 -288.012 817.490 Q -286.859 817.172 -284.580 817.845 Q -282.301 818.517 -279.458 819.701 Q -276.615 820.885 -273.464 822.611 Q -273.222 822.750 -275.014 822.108 Q -276.807 821.466 -280.138 819.928 Q -283.469 818.391 -285.192 817.590 Q -286.915 816.789 -287.962 816.182 Q -289.009 815.575 -289.503 815.143 Q -289.997 814.711 -290.212 814.440 Q -290.426 814.169 -290.417 813.982 Q -290.409 813.795 -290.403 813.851 Q -290.396 813.907 -290.234 813.593 Q -290.072 813.280 -288.541 812.812 Q -287.010 812.345 -276.677 811.613 "></path>
    <path id="STROKE_c8561f15-8e14-4907-81c9-caf9a63f149f" opacity="1.000" fill="none" stroke="#6ac0c8" stroke-width="2.680" stroke-opacity="1.000" stroke-linecap="round" stroke-linejoin="round" d="M -168.327 815.940 Q -168.220 815.925 -167.033 815.155 Q -166.694 815.470 -170.661 817.575 Q -174.629 819.681 -178.658 822.395 Q -178.507 821.804 -175.089 819.570 Q -171.672 817.335 -169.770 816.340 Q -167.868 815.345 -166.967 814.740 Q -166.066 814.135 -165.711 813.437 Q -165.352 813.331 -168.027 812.675 Q -170.701 812.019 -174.282 811.284 Q -177.863 810.550 -180.080 810.096 Q -182.296 809.643 -184.595 809.158 Q -184.565 809.279 -184.534 809.399 "></path>
    <path id="STROKE_e606f511-5f37-479f-ae12-7baad44aa6e4" opacity="1.000" fill="none" stroke="#6ac0c8" stroke-width="2.626" stroke-opacity="1.000" stroke-linecap="round" stroke-linejoin="round" d="M -289.456 766.172 Q -289.435 766.206 -289.429 766.204 Q -289.423 766.202 -289.590 765.991 Q -289.758 765.780 -289.827 765.699 Q -289.897 765.619 -289.919 765.609 Q -290.143 765.931 -287.056 767.461 Q -283.970 768.992 -281.812 769.974 Q -279.654 770.956 -275.215 772.577 Q -274.522 772.820 -278.341 771.094 Q -282.161 769.368 -284.303 768.292 Q -286.445 767.216 -287.619 766.615 Q -288.794 766.014 -289.228 764.919 Q -289.192 764.784 -284.106 764.046 Q -279.021 763.308 -272.250 762.042 "></path>
    <path id="STROKE_ab68f5db-b41c-4cd4-a7ae-5be7db1a0d06" opacity="1.000" fill="none" stroke="#6ac0c8" stroke-width="2.713" stroke-opacity="1.000" stroke-linecap="round" stroke-linejoin="round" d="M 5.024 768.632 Q 5.029 768.628 4.817 768.360 Q 4.605 768.091 3.847 768.059 Q 3.089 768.026 1.553 768.850 Q 0.017 769.675 -10.163 776.441 Q -10.055 776.568 -7.705 775.503 Q -5.355 774.438 -3.479 773.521 Q -1.603 772.605 -0.564 772.094 Q 0.474 771.584 3.066 770.154 Q 5.658 768.723 7.106 767.885 Q 8.554 767.047 9.418 766.014 Q 9.108 765.526 4.524 765.237 Q -0.060 764.949 -3.463 764.660 Q -6.866 764.371 -12.886 762.907 "></path>
    <path id="STROKE_698497c8-2f0f-46d8-9660-7003e2434915" opacity="1.000" fill="none" stroke="#f66640" stroke-width="2.717" stroke-opacity="1.000" stroke-linecap="round" stroke-linejoin="round" d="M -160.000 704.000 L -157.846 704.000 L -160.000 704.000 Q -158.434 704.000 -156.227 704.000 Q -154.020 704.000 -144.000 704.000 Q -135.306 704.000 -128.000 704.000 Q -119.888 704.000 -112.000 704.000 Q -103.255 704.000 -96.000 704.000 Q -86.904 704.000 -80.000 704.000 Q -71.892 704.000 -64.000 704.000 Q -55.831 704.000 -48.000 704.000 Q -39.371 704.000 -32.000 704.000 Q -23.748 704.000 -16.000 704.000 Q -7.732 704.000 0.000 704.000 "></path>
    <path id="STROKE_14f43414-d2ac-49bf-a89f-6199169768c9" opacity="1.000" fill="none" stroke="#f66640" stroke-width="2.720" stroke-opacity="1.000" stroke-linecap="round" stroke-linejoin="round" d="M 0.000 704.000 Q 7.743 704.000 7.923 704.000 Q 7.898 704.000 0.000 704.000 "></path>
    <path id="STROKE_3755764f-c905-48e8-9d02-fd4e435e0aef" opacity="1.000" fill="none" stroke="#f66640" stroke-width="2.717" stroke-opacity="1.000" stroke-linecap="round" stroke-linejoin="round" d="M 7.923 704.292 Q 8.013 704.292 8.773 704.084 Q 8.532 703.720 5.395 705.920 Q 2.258 708.120 0.290 709.788 Q -1.678 711.457 -5.583 713.283 Q -5.629 712.834 -3.171 710.255 Q -0.713 707.676 2.274 705.516 Q 5.260 703.355 8.515 701.766 L 8.515 701.753 Q 8.704 701.794 7.213 701.620 Q 5.723 701.447 1.034 700.624 Q -3.655 699.801 -8.588 699.162 "></path>
    <path id="STROKE_fce6dcbf-e588-4790-b0e3-af8d2f5d5128" opacity="1.000" fill="none" stroke="#f66640" stroke-width="2.664" stroke-opacity="1.000" stroke-linecap="round" stroke-linejoin="round" d="M -160.066 707.530 Q -160.298 707.359 -161.321 704.734 Q -160.914 704.325 -156.907 705.946 Q -152.901 707.568 -148.889 710.098 Q -148.991 710.230 -150.749 709.335 Q -152.508 708.441 -153.947 707.630 Q -155.386 706.818 -156.853 705.955 Q -158.319 705.091 -159.655 704.250 Q -160.992 703.410 -161.735 702.749 Q -162.479 702.089 -162.768 701.489 Q -163.058 700.890 -162.074 700.344 Q -161.091 699.799 -160.254 699.542 Q -159.418 699.284 -158.189 698.967 Q -156.959 698.649 -154.638 697.942 Q -152.316 697.235 -149.256 696.464 "></path>
    <path id="STROKE_3a1d8537-89df-42db-b520-4b76c663fa63" opacity="1.000" fill="none" stroke="#6ac0c8" stroke-width="2.720" stroke-opacity="1.000" stroke-linecap="round" stroke-linejoin="round" d="M -235.126 802.221 Q -235.255 802.003 -235.529 801.402 Q -235.802 800.800 -236.444 800.642 Q -237.085 800.483 -237.542 800.465 Q -237.998 800.446 -238.245 800.587 Q -238.492 800.727 -238.674 800.987 Q -238.855 801.246 -238.963 801.793 Q -239.071 802.341 -238.604 803.055 Q -238.137 803.770 -237.650 804.199 Q -237.162 804.628 -236.129 805.212 Q -235.096 805.796 -233.881 806.015 Q -232.666 806.234 -231.821 806.189 Q -230.976 806.144 -230.599 805.944 Q -230.222 805.744 -229.770 805.247 Q -229.317 804.749 -229.451 803.875 Q -229.584 803.001 -231.330 802.012 Q -233.076 801.023 -235.397 800.391 Q -237.718 799.759 -240.766 799.675 Q -243.814 799.591 -248.581 800.044 Q -248.591 800.014 -230.416 799.190 Q -230.416 799.178 -230.674 798.930 "></path>
    <path id="STROKE_832b4239-fa46-48f8-b784-e33c09405feb" opacity="1.000" fill="none" stroke="#6ac0c8" stroke-width="2.720" stroke-opacity="1.000" stroke-linecap="round" stroke-linejoin="round" d="M -225.964 797.689 Q -225.862 797.533 -225.636 797.215 Q -225.410 796.898 -225.334 796.687 Q -225.258 796.477 -226.027 796.011 Q -226.796 795.545 -227.909 795.069 Q -229.021 794.593 -236.214 791.896 L -236.214 791.869 Q -236.110 791.644 -233.469 792.063 Q -230.828 792.481 -228.743 792.536 Q -226.657 792.590 -225.494 792.572 Q -224.332 792.554 -223.428 791.881 Q -223.448 791.888 -223.395 791.891 Q -223.342 791.893 -223.872 791.546 "></path>
    <path id="STROKE_a0a4ca92-5260-4c47-8008-90c9e231d7ef" opacity="1.000" fill="none" stroke="#6ac0c8" stroke-width="2.687" stroke-opacity="1.000" stroke-linecap="round" stroke-linejoin="round" d="M -136.316 755.809 Q -136.725 755.377 -137.865 754.880 Q -139.005 754.384 -139.706 754.385 Q -140.408 754.386 -140.865 754.429 Q -141.322 754.473 -141.339 754.733 Q -141.357 754.993 -141.018 755.414 Q -140.680 755.836 -138.844 756.719 Q -137.008 757.603 -135.280 757.993 Q -133.552 758.383 -132.461 758.463 Q -131.370 758.542 -130.815 758.565 Q -130.260 758.587 -129.584 757.743 Q -128.908 756.899 -129.585 756.197 Q -130.263 755.494 -130.848 755.226 Q -131.432 754.958 -133.469 754.302 Q -135.507 753.647 -138.623 753.330 Q -141.739 753.012 -143.922 753.013 Q -146.106 753.014 -147.189 752.995 Q -148.273 752.976 -149.503 752.993 Q -150.733 753.010 -152.049 753.751 Q -151.361 753.903 -151.350 753.840 Q -149.966 753.871 -145.573 753.852 Q -141.180 753.833 -138.162 753.518 Q -135.143 753.203 -133.413 753.084 Q -131.683 752.965 -128.890 752.909 Q -128.890 752.921 -128.890 752.933 "></path>
    <path id="STROKE_75b1c4cb-06c1-4523-b1b3-38c70806f445" opacity="1.000" fill="none" stroke="#6ac0c8" stroke-width="2.720" stroke-opacity="1.000" stroke-linecap="round" stroke-linejoin="round" d="M -130.055 748.657 Q -129.986 748.604 -130.585 747.992 Q -131.184 747.380 -131.695 747.253 Q -132.206 747.125 -132.588 746.862 Q -132.970 746.599 -133.021 746.116 Q -133.287 746.142 -131.831 745.954 Q -130.375 745.767 -127.536 746.276 Q -124.696 746.785 -123.095 747.318 Q -121.493 747.850 -120.473 748.274 Q -119.454 748.697 -118.604 749.180 Q -117.753 749.663 -117.226 750.327 Q -116.698 750.991 -116.938 751.508 Q -117.178 752.024 -118.400 752.201 Q -119.622 752.377 -120.571 752.340 Q -121.521 752.302 -122.103 751.991 Q -122.686 751.680 -122.892 751.445 Q -123.098 751.209 -123.312 750.577 Q -123.525 749.945 -122.349 749.000 Q -121.173 748.056 -119.898 747.272 Q -118.624 746.488 -117.856 745.885 Q -117.088 745.282 -116.559 744.751 Q -116.029 744.220 -115.816 743.749 Q -115.604 743.277 -115.574 742.889 Q -115.544 742.501 -115.764 742.087 Q -115.983 741.672 -117.610 740.830 "></path>
    <path id="STROKE_a4aca76b-ee2a-4c78-9305-593d47afb814" opacity="1.000" fill="none" stroke="#f66640" stroke-width="2.613" stroke-opacity="1.000" stroke-linecap="round" stroke-linejoin="round" d="M -88.521 682.802 Q -88.608 682.835 -89.071 682.397 Q -89.534 681.959 -90.275 681.884 Q -91.016 681.809 -91.571 681.926 Q -92.125 682.042 -92.434 682.333 Q -92.743 682.623 -92.852 683.096 Q -92.962 683.569 -92.924 683.970 Q -92.886 684.372 -92.431 684.989 Q -91.977 685.607 -90.740 686.150 Q -89.503 686.692 -88.086 686.854 Q -86.669 687.016 -85.614 686.987 Q -84.560 686.958 -83.807 686.467 Q -83.053 685.976 -82.830 685.181 Q -82.607 684.386 -83.444 683.602 Q -84.281 682.817 -86.734 682.075 Q -89.186 681.332 -90.979 681.032 Q -92.771 680.732 -95.475 680.525 Q -98.178 680.318 -106.716 680.615 Q -106.398 680.305 -103.124 680.269 Q -99.850 680.234 -95.392 680.349 Q -90.933 680.464 -85.398 679.849 L -85.398 679.834 Q -85.456 679.834 -87.402 680.018 "></path>
    <path id="STROKE_0e82b61d-9b05-4e75-b005-4014a9f24ba4" opacity="1.000" fill="none" stroke="#f66640" stroke-width="2.720" stroke-opacity="1.000" stroke-linecap="round" stroke-linejoin="round" d="M -85.423 677.492 Q -85.483 677.078 -86.442 676.699 Q -87.401 676.319 -87.984 676.180 Q -88.566 676.040 -88.952 675.841 Q -89.338 675.642 -89.422 675.125 Q -89.507 674.607 -87.537 674.459 Q -85.566 674.311 -83.664 674.490 Q -81.761 674.669 -80.166 675.174 Q -78.571 675.678 -77.682 676.163 Q -76.792 676.648 -76.478 677.036 Q -76.164 677.425 -76.071 677.772 Q -75.979 678.119 -76.014 678.309 Q -76.050 678.498 -76.294 678.741 Q -76.539 678.984 -76.589 679.011 Q -76.639 679.037 -77.066 679.184 Q -77.492 679.331 -77.442 679.297 Q -77.393 679.262 -77.866 679.353 Q -78.340 679.443 -78.822 679.264 Q -79.305 679.086 -79.369 678.919 Q -79.433 678.753 -79.465 678.378 Q -79.498 678.003 -79.417 677.910 Q -79.336 677.818 -78.746 677.466 Q -78.156 677.114 -77.030 676.687 Q -75.905 676.259 -75.144 675.910 Q -74.383 675.561 -74.027 675.299 Q -73.671 675.038 -73.422 674.725 Q -73.173 674.412 -73.166 673.813 Q -73.158 673.214 -77.134 671.687 "></path>
    <path id="STROKE_f000cdf8-6e9f-4f12-89b7-71fbaccb694e" opacity="1.000" fill="none" stroke="#f66640" stroke-width="2.720" stroke-opacity="1.000" stroke-linecap="round" stroke-linejoin="round" d="M -85.792 667.075 Q -85.792 667.075 -85.630 667.075 Q -85.467 667.075 -85.566 667.075 Q -85.540 667.075 -85.372 667.075 Q -85.385 667.296 -85.307 660.906 L -85.294 660.906 Q -85.289 660.971 -85.346 661.425 "></path>
    <path id="STROKE_2284d00a-f84d-4298-b1ba-643461fabd75" opacity="1.000" fill="none" stroke="#f66640" stroke-width="2.720" stroke-opacity="1.000" stroke-linecap="round" stroke-linejoin="round" d="M -89.348 648.719 Q -89.394 649.060 -88.288 647.832 Q -88.215 647.887 -88.216 647.813 Q -88.218 647.739 -88.755 647.882 Q -89.292 648.025 -89.418 648.861 Q -89.544 649.697 -89.426 650.505 Q -89.309 651.313 -88.800 651.954 Q -88.291 652.594 -87.699 652.911 Q -87.108 653.227 -86.424 653.335 Q -85.740 653.443 -85.245 653.242 Q -84.750 653.042 -84.599 652.286 Q -84.447 651.530 -84.626 650.605 Q -84.805 649.680 -85.609 648.649 Q -86.413 647.617 -87.556 646.754 Q -88.699 645.891 -90.386 645.507 Q -92.073 645.123 -93.390 645.038 Q -94.706 644.954 -96.234 645.032 Q -97.761 645.109 -98.518 645.245 Q -99.274 645.381 -99.589 645.479 Q -99.903 645.577 -100.080 645.669 Q -100.258 645.760 -100.283 645.943 Q -100.004 645.978 -100.145 645.997 Q -100.287 646.017 -99.541 646.128 Q -98.795 646.240 -97.836 646.275 Q -96.877 646.311 -95.564 646.102 Q -94.250 645.893 -91.581 645.436 Q -88.912 644.978 -85.999 644.420 Q -86.017 644.367 -87.428 643.797 "></path>
    <path id="STROKE_98093055-3222-4252-9b4d-a291e1833c5b" opacity="1.000" fill="none" stroke="#f66640" stroke-width="2.720" stroke-opacity="1.000" stroke-linecap="round" stroke-linejoin="round" d="M -83.109 643.249 Q -82.865 643.297 -82.290 643.308 Q -81.714 643.319 -81.451 643.168 Q -81.189 643.017 -81.168 642.874 Q -81.146 642.731 -81.114 642.035 Q -81.082 641.339 -82.112 640.119 Q -83.141 638.899 -84.610 637.902 Q -86.079 636.905 -88.159 636.399 Q -88.547 636.730 -84.513 636.882 Q -80.480 637.034 -76.119 636.649 Q -75.847 636.467 -77.418 635.330 "></path>
    <path id="STROKE_d2196f9f-a4b3-4458-a0e7-92a76910404f" opacity="1.000" fill="none" stroke="#171612" stroke-width="2.720" stroke-opacity="1.000" stroke-linecap="round" stroke-linejoin="round" d="M -347.172 822.288 L -347.172 820.256 L -347.172 822.288 Q -353.898 822.288 -358.739 822.288 Q -364.598 822.288 -370.306 822.288 "></path>
    <path id="STROKE_e0e46595-cfc7-4e34-958f-638bd393ef43" opacity="1.000" fill="none" stroke="#171612" stroke-width="2.720" stroke-opacity="1.000" stroke-linecap="round" stroke-linejoin="round" d="M -370.306 818.645 Q -370.306 817.761 -370.306 817.932 Q -370.306 816.858 -370.306 817.044 Q -370.306 816.021 -370.306 806.550 Q -370.306 798.625 -370.306 790.812 Q -370.306 782.759 -370.306 775.075 "></path>
    <path id="STROKE_f96ce281-b4d3-4ec5-a1c1-2dc2aa1356b9" opacity="1.000" fill="none" stroke="#171612" stroke-width="2.720" stroke-opacity="1.000" stroke-linecap="round" stroke-linejoin="round" d="M -347.172 819.698 L -347.172 819.533 L -347.172 822.288 Q -347.172 819.418 -347.172 806.550 Q -347.172 798.574 -347.172 790.812 Q -347.172 782.759 -347.172 775.075 "></path>
    <path id="STROKE_a15ad98e-9ee7-4323-b42f-163242965fc0" opacity="1.000" fill="none" stroke="#171612" stroke-width="2.720" stroke-opacity="1.000" stroke-linecap="round" stroke-linejoin="round" d="M -347.172 775.075 Q -347.172 766.954 -347.172 759.337 "></path>
    <path id="STROKE_13c149cb-7108-4c56-863c-a87a2869eb3a" opacity="1.000" fill="none" stroke="#171612" stroke-width="2.720" stroke-opacity="1.000" stroke-linecap="round" stroke-linejoin="round" d="M -347.172 759.337 Q -353.776 759.337 -358.739 759.337 Q -364.679 759.337 -370.306 759.337 Q -370.306 767.233 -370.306 775.075 Q -370.306 782.986 -370.306 790.812 L -370.306 775.075 "></path>
    <path id="STROKE_99facb3b-ce71-4778-9d43-25bfd8127552" opacity="1.000" fill="none" stroke="#171612" stroke-width="2.248" stroke-opacity="1.000" stroke-linecap="round" stroke-linejoin="round" d="M -348.974 760.010 Q -349.018 760.032 -350.626 760.813 Q -350.177 760.595 -348.699 759.877 Q -347.221 759.159 -338.620 754.978 Q -330.019 750.798 -324.487 748.109 Q -318.955 745.420 -316.585 744.269 Q -314.216 743.117 -313.149 742.599 Q -312.082 742.080 -311.599 741.846 "></path>
    <path id="STROKE_cb647d3d-ea64-45f4-9a1c-933caa7b1d92" opacity="1.000" fill="none" stroke="#171612" stroke-width="2.720" stroke-opacity="1.000" stroke-linecap="round" stroke-linejoin="round" d="M -348.338 821.749 Q -348.350 821.744 -348.537 821.657 Q -347.956 821.926 -347.854 821.973 Q -347.753 822.020 -347.763 822.015 Q -346.986 822.374 -347.046 822.346 Q -346.890 822.418 -342.666 824.368 Q -338.442 826.318 -335.159 827.833 Q -331.876 829.349 -330.443 830.011 Q -329.010 830.672 -328.281 831.009 Q -327.552 831.345 -327.335 831.445 Q -327.118 831.546 -326.936 831.630 Q -326.755 831.713 -326.171 831.983 Q -325.587 832.252 -325.449 832.316 Q -325.310 832.380 -325.097 832.479 Q -324.883 832.577 -324.456 832.775 Q -324.029 832.972 -323.985 832.992 Q -323.942 833.012 -323.707 833.120 Q -323.473 833.229 -323.282 833.317 Q -323.091 833.405 -322.886 833.499 Q -322.682 833.594 -322.605 833.629 Q -322.529 833.664 -322.610 833.627 Q -322.691 833.590 -322.066 833.878 Q -321.442 834.166 -321.043 834.350 Q -320.645 834.534 -320.418 834.639 Q -320.191 834.744 -320.189 834.745 Q -320.187 834.745 -320.214 834.733 Q -320.242 834.720 -320.023 834.821 Q -319.805 834.922 -319.418 835.100 Q -319.031 835.279 -318.704 835.430 Q -318.376 835.581 -318.086 835.716 Q -317.795 835.850 -317.758 835.867 Q -317.721 835.884 -317.752 835.870 Q -317.783 835.855 -317.601 835.939 Q -317.420 836.023 -316.922 836.253 Q -316.424 836.483 -315.554 836.884 Q -314.685 837.286 -314.477 837.381 Q -314.270 837.477 -313.857 837.668 Q -313.444 837.859 -313.117 838.009 Q -312.790 838.160 -312.819 838.147 Q -312.847 838.134 -312.806 838.153 Q -312.765 838.172 -312.546 838.273 Q -312.327 838.374 -312.171 838.446 Q -312.291 838.391 -313.372 837.892 "></path>
    <path id="STROKE_597d53df-e5d1-48b1-91c4-4259c0ca618c" opacity="1.000" fill="none" stroke="#171612" stroke-width="1.440" stroke-opacity="1.000" stroke-linecap="round" stroke-linejoin="round" d="M -311.599 741.846 Q -312.047 741.963 -312.367 742.452 Q -312.686 742.941 -313.259 745.410 Q -313.832 747.878 -314.159 750.100 Q -314.487 752.321 -315.154 759.544 Q -315.820 766.767 -316.155 777.818 Q -316.490 788.869 -316.343 797.750 Q -316.197 806.631 -316.087 811.517 Q -315.977 816.404 -315.499 821.668 Q -315.021 826.933 -314.689 829.574 Q -314.358 832.216 -314.092 833.704 Q -313.826 835.193 -313.401 836.535 Q -312.976 837.878 -312.171 838.446 "></path>
    <path id="STROKE_30432b69-c118-4d16-92f4-8df3377fb8d3" opacity="1.000" fill="none" stroke="#171612" stroke-width="1.603" stroke-opacity="1.000" stroke-linecap="round" stroke-linejoin="round" d="M -311.599 838.446 Q -310.806 837.993 -310.967 837.966 Q -310.300 836.701 -309.679 833.824 Q -309.058 830.948 -308.405 823.925 Q -307.753 816.902 -307.439 809.037 Q -307.125 801.172 -307.112 794.088 Q -307.099 787.004 -307.138 784.011 Q -307.177 781.018 -307.252 779.140 Q -307.327 777.261 -307.331 775.931 Q -307.336 774.601 -307.620 767.475 Q -307.903 760.348 -308.474 755.173 Q -309.045 749.998 -309.497 747.523 Q -309.949 745.048 -310.153 744.256 Q -310.357 743.464 -310.670 742.840 Q -310.984 742.217 -311.599 741.845 "></path>
  </g>
</svg>