<?xml version="1.0" encoding="UTF-8" standalone="yes"?>
<svg xmlns="http://www.w3.org/2000/svg" xmlns:xlink="http://www.w3.org/1999/xlink" width="927.983pt" height="554.509pt" version="1.1" viewBox="-515.523 437.042 927.983 554.509">
  <!--
	Exported with Concepts: Smarter Sketching
	Version: 1505 on iOS 15.3
	https://concepts.app/
	-->
  <title>DD87D4DB-0626-4B73-A8B3-ECD3F7037264</title>
  <desc>Drawing exported from Concepts: Smarter Sketching</desc>
  <defs></defs>
  <g id="Remplir" opacity="1.000">
    <path id="ERASER_176e22b8-87de-4078-b94b-bbb9ebee66ee" opacity="1.000" fill="none" stroke="#ffffff" stroke-width="65.586" stroke-opacity="1.000" stroke-linecap="round" stroke-linejoin="round" d="M -11.484 829.456 Q -12.887 828.605 -13.699 826.822 Q -14.512 825.040 -18.407 822.266 Q -22.301 819.491 -27.111 815.660 Q -31.922 811.828 -35.999 808.392 Q -40.077 804.955 -41.973 803.310 Q -43.869 801.664 -45.154 800.500 Q -46.439 799.335 -48.490 797.267 Q -50.541 795.198 -51.728 793.849 Q -52.915 792.501 -56.888 788.987 Q -60.860 785.473 -76.123 773.106 Q -76.189 773.875 -63.833 782.183 Q -51.477 790.491 -44.812 794.762 Q -38.148 799.034 -34.900 801.024 Q -31.653 803.015 -28.057 804.865 Q -24.462 806.715 -21.818 807.482 Q -19.173 808.249 -16.881 807.795 Q -15.709 806.336 -19.194 801.882 Q -22.679 797.429 -25.014 794.832 Q -27.349 792.234 -30.084 789.349 Q -32.819 786.464 -39.442 780.989 Q -46.065 775.513 -50.710 771.840 Q -55.356 768.167 -61.005 765.186 Q -61.247 765.492 -52.421 771.829 Q -43.595 778.166 -37.626 781.928 Q -31.658 785.690 -27.983 787.880 Q -24.308 790.069 -22.459 791.217 Q -20.610 792.365 -19.307 793.185 Q -18.004 794.005 -16.611 794.874 Q -15.217 795.743 -11.933 797.920 Q -8.648 800.097 -4.451 802.600 Q -0.253 805.103 3.319 806.521 Q 6.891 807.939 10.185 808.380 Q 10.730 808.371 10.042 806.117 Q 9.354 803.863 6.736 800.781 Q 4.117 797.698 2.481 795.644 Q 0.846 793.590 -2.968 789.895 Q -6.782 786.201 -9.831 783.747 Q -12.880 781.293 -16.203 779.439 Q -19.527 777.585 -24.493 775.533 "></path>
    <path id="ERASER_93111434-715b-4b25-b3b2-dbce36af8ff5" opacity="1.000" fill="none" stroke="#ffffff" stroke-width="65.586" stroke-opacity="1.000" stroke-linecap="round" stroke-linejoin="round" d="M -67.634 793.258 Q -67.095 793.893 -64.634 794.417 Q -65.042 794.667 -66.117 794.079 Q -67.193 793.492 -67.770 792.545 Q -68.348 791.598 -71.800 786.449 "></path>
    <path id="ERASER_23f6a32c-e19f-4264-acf1-7c9bca752136" opacity="1.000" fill="none" stroke="#ffffff" stroke-width="65.586" stroke-opacity="1.000" stroke-linecap="round" stroke-linejoin="round" d="M -74.014 781.015 Q -74.109 780.876 -73.950 781.295 Q -73.791 781.714 -72.363 782.663 Q -70.936 783.613 -69.968 784.252 Q -69.000 784.891 -68.487 785.111 Q -67.973 785.330 -67.744 785.303 Q -67.514 785.275 -67.505 785.360 Q -67.496 785.445 -67.658 785.301 Q -67.820 785.157 -65.655 785.502 Q -63.490 785.848 -58.642 790.039 Q -53.794 794.230 -51.172 797.211 Q -48.551 800.192 -45.935 802.921 Q -43.319 805.651 -40.184 807.580 Q -37.049 809.509 -34.051 810.755 Q -31.052 812.001 -28.081 812.183 Q -25.110 812.366 -23.076 812.297 Q -21.042 812.229 -19.287 811.282 Q -17.533 810.335 -15.665 807.536 Q -13.798 804.737 -13.117 803.026 Q -12.437 801.315 -11.910 800.136 Q -11.383 798.958 -9.888 794.146 Q -8.394 789.334 -7.577 784.370 Q -6.760 779.406 -6.661 772.282 Q -6.562 765.157 -8.389 753.604 Q -10.217 742.051 -11.391 736.310 Q -12.564 730.569 -13.049 727.922 Q -13.533 725.275 -14.122 722.846 Q -14.711 720.417 -16.405 711.833 Q -18.099 703.248 -18.650 690.059 Q -18.352 690.146 -16.689 696.976 Q -15.027 703.805 -12.198 720.230 Q -9.369 736.655 -7.789 745.690 Q -6.208 754.726 -5.368 758.488 Q -4.527 762.251 -2.866 769.266 Q -1.205 776.282 1.866 782.971 Q 2.399 782.847 2.445 772.657 Q 2.491 762.467 2.574 756.594 Q 2.656 750.721 2.732 747.953 Q 2.808 745.185 3.295 743.558 Q 3.783 741.931 4.343 741.010 Q 4.903 740.088 6.037 739.591 Q 7.171 739.094 9.601 740.373 Q 12.030 741.652 16.026 745.740 Q 20.023 749.828 27.369 760.288 Q 34.715 770.748 38.238 776.224 Q 41.762 781.700 44.217 784.949 Q 46.673 788.197 48.515 790.132 Q 50.358 792.067 52.369 793.824 Q 54.380 795.581 56.509 796.769 Q 58.639 797.957 58.996 794.372 Q 59.352 790.786 59.675 788.583 Q 59.997 786.380 60.415 784.925 Q 60.834 783.470 61.667 782.654 Q 62.500 781.839 63.629 781.895 Q 64.759 781.951 66.619 783.102 Q 68.478 784.252 71.855 787.283 Q 75.232 790.314 77.692 792.756 Q 80.152 795.198 81.823 796.701 Q 83.495 798.204 84.497 799.214 Q 85.499 800.225 90.574 804.679 Q 95.649 809.133 103.032 813.997 Q 110.416 818.862 114.206 821.061 Q 117.997 823.259 119.757 824.242 Q 121.516 825.225 123.480 826.396 Q 125.444 827.568 131.680 830.506 Q 137.916 833.444 141.221 834.888 Q 144.526 836.333 146.375 837.165 Q 148.223 837.998 153.820 840.199 Q 159.417 842.399 162.472 843.558 Q 165.528 844.717 169.244 846.108 Q 172.960 847.499 188.500 852.762 Q 204.039 858.026 212.933 861.083 Q 221.826 864.140 225.793 865.583 Q 229.760 867.026 232.020 867.925 Q 234.281 868.824 239.461 870.967 Q 244.641 873.110 248.143 874.595 Q 251.644 876.081 255.472 878.102 Q 255.038 878.287 251.050 878.614 Q 247.061 878.941 239.387 877.407 Q 231.714 875.872 224.673 874.358 Q 217.633 872.845 214.125 872.104 Q 210.618 871.363 204.411 869.966 Q 198.203 868.569 191.890 867.101 Q 185.577 865.634 181.372 864.718 Q 177.166 863.802 174.343 863.007 Q 171.520 862.212 147.449 858.464 Q 123.378 854.716 110.117 852.749 Q 96.855 850.783 88.924 849.443 Q 80.992 848.104 77.180 847.421 Q 73.367 846.738 66.420 845.539 Q 59.472 844.340 54.697 843.487 Q 49.922 842.634 37.741 840.506 Q 25.560 838.379 11.626 836.410 Q -2.309 834.440 -12.329 832.943 Q -22.349 831.446 -26.847 830.744 Q -31.345 830.042 -33.375 829.573 Q -35.404 829.104 -36.401 828.812 Q -37.399 828.520 -38.911 828.124 Q -40.424 827.727 -44.563 824.120 "></path>
    <path id="ERASER_f948ddfe-512b-4d9b-8926-2c6f7f541be2" opacity="1.000" fill="none" stroke="#ffffff" stroke-width="65.586" stroke-opacity="1.000" stroke-linecap="round" stroke-linejoin="round" d="M 75.375 663.363 Q 75.452 663.329 74.982 663.727 Q 74.801 663.905 74.432 661.889 "></path>
  </g>
  <g id="Stylo" opacity="1.000">
    <path id="STROKE_64cefed6-1a87-454c-bf34-f89a01e99b3b" opacity="1.000" fill="none" stroke="#171612" stroke-width="2.191" stroke-opacity="1.000" stroke-linecap="round" stroke-linejoin="round" d="M -448.000 453.176 Q -448.000 453.805 -448.000 448.000 Q -448.000 451.688 -448.000 464.000 Q -448.000 472.843 -448.000 480.000 Q -448.000 489.488 -448.000 496.000 Q -448.000 504.814 -448.000 512.000 Q -448.000 520.673 -448.000 528.000 Q -448.000 536.937 -448.000 544.000 Q -448.000 552.399 -448.000 560.000 Q -448.000 569.068 -448.000 576.000 Q -448.000 585.251 -448.000 592.000 Q -448.000 601.023 -448.000 608.000 Q -448.000 617.645 -448.000 624.000 Q -448.000 632.180 -448.000 640.000 Q -448.000 648.433 -448.000 656.000 Q -448.000 664.303 -448.000 672.000 Q -448.000 681.129 -448.000 688.000 Q -448.000 696.623 -448.000 704.000 Q -448.000 712.740 -448.000 720.000 Q -448.000 728.746 -448.000 736.000 Q -448.000 744.331 -448.000 752.000 Q -448.000 760.201 -448.000 768.000 Q -448.000 776.528 -448.000 784.000 Q -448.000 792.385 -448.000 800.000 Q -448.000 808.651 -448.000 816.000 Q -448.000 824.174 -448.000 832.000 Q -448.000 840.242 -448.000 848.000 Q -448.000 856.371 -448.000 864.000 Q -448.000 872.426 -448.000 880.000 Q -448.000 888.222 -448.000 896.000 Q -439.294 896.000 -432.000 896.000 Q -423.655 896.000 -416.000 896.000 Q -407.027 896.000 -400.000 896.000 Q -391.234 896.000 -384.000 896.000 Q -375.947 896.000 -368.000 896.000 Q -359.451 896.000 -352.000 896.000 Q -341.093 896.000 -336.000 896.000 Q -326.376 896.000 -320.000 896.000 Q -311.545 896.000 -304.000 896.000 Q -294.307 896.000 -288.000 896.000 Q -277.350 896.000 -272.000 896.000 Q -263.046 896.000 -256.000 896.000 Q -247.868 896.000 -240.000 896.000 Q -231.132 896.000 -224.000 896.000 Q -215.272 896.000 -208.000 896.000 Q -198.561 896.000 -192.000 896.000 Q -183.598 896.000 -176.000 896.000 Q -165.965 896.000 -160.000 896.000 Q -151.990 896.000 -144.000 896.000 Q -134.489 896.000 -128.000 896.000 Q -119.641 896.000 -112.000 896.000 Q -101.959 896.000 -96.000 896.000 Q -87.506 896.000 -80.000 896.000 Q -70.285 896.000 -64.000 896.000 Q -55.305 896.000 -48.000 896.000 Q -38.018 896.000 -32.000 896.000 Q -20.781 896.000 -16.000 896.000 Q -6.874 896.000 0.000 896.000 Q 10.283 896.000 16.000 896.000 Q 25.129 896.000 32.000 896.000 Q 43.094 896.000 48.000 896.000 Q 58.189 896.000 64.000 896.000 Q 74.224 896.000 80.000 896.000 Q 89.099 896.000 96.000 896.000 Q 105.831 896.000 112.000 896.000 Q 120.877 896.000 128.000 896.000 Q 136.648 896.000 144.000 896.000 Q 152.353 896.000 160.000 896.000 Q 168.190 896.000 176.000 896.000 Q 186.746 896.000 192.000 896.000 Q 201.076 896.000 208.000 896.000 Q 216.887 896.000 224.000 896.000 Q 234.388 896.000 240.000 896.000 Q 251.147 896.000 256.000 896.000 Q 264.529 896.000 272.000 896.000 Q 280.102 896.000 288.000 896.000 Q 297.669 896.000 304.000 896.000 Q 312.830 896.000 320.000 896.000 Q 329.260 896.000 336.000 896.000 Q 345.839 896.000 352.000 896.000 Q 360.802 896.000 368.000 896.000 Q 376.243 896.000 384.000 896.000 Q 392.212 896.000 400.000 896.000 "></path>
    <path id="STROKE_d4b51849-9f09-4185-9bec-cc0eeece1bb8" opacity="1.000" fill="none" stroke="#171612" stroke-width="2.269" stroke-opacity="1.000" stroke-linecap="round" stroke-linejoin="round" d="M -449.548 451.633 Q -449.546 451.522 -449.058 451.259 Q -448.570 450.996 -447.935 450.577 Q -447.300 450.158 -447.304 450.152 Q -447.309 450.146 -447.399 450.256 Q -447.490 450.366 -447.013 449.786 Q -448.236 450.171 -461.305 469.914 Q -461.130 469.466 -460.088 467.723 "></path>
    <path id="STROKE_b5fb4479-752b-49cf-9c32-70d928aaadfc" opacity="1.000" fill="none" stroke="#171612" stroke-width="2.701" stroke-opacity="1.000" stroke-linecap="round" stroke-linejoin="round" d="M -447.314 450.011 Q -446.682 450.868 -446.301 451.028 Q -445.920 451.189 -444.608 453.420 Q -443.295 455.652 -442.882 456.679 Q -442.468 457.706 -441.172 460.806 Q -439.877 463.905 -439.024 466.092 Q -438.171 468.279 -436.888 468.700 "></path>
    <path id="STROKE_f32f7e7f-cc31-4e97-a06b-9f5ba75992e7" opacity="1.000" fill="none" stroke="#171612" stroke-width="2.720" stroke-opacity="1.000" stroke-linecap="round" stroke-linejoin="round" d="M 400.451 897.894 Q 401.452 897.528 401.136 897.649 Q 401.558 897.663 401.541 897.614 Q 400.520 895.373 400.467 895.517 Q 400.413 895.660 397.893 893.083 Q 395.374 890.505 392.757 888.459 Q 390.140 886.414 388.309 885.138 Q 386.478 883.862 385.657 883.140 Q 384.835 882.417 384.748 881.930 Q 384.662 881.443 384.721 881.241 Q 384.780 881.040 385.111 880.584 "></path>
    <path id="STROKE_88577667-62ea-4872-a645-55b774a0abbb" opacity="1.000" fill="none" stroke="#171612" stroke-width="2.426" stroke-opacity="1.000" stroke-linecap="round" stroke-linejoin="round" d="M 401.198 900.219 Q 401.198 900.189 401.510 899.903 Q 401.129 899.746 397.918 901.727 Q 394.706 903.708 383.538 913.452 Q 383.769 913.302 385.547 911.443 "></path>
    <path id="STROKE_4d5a5276-c243-4fce-9fdf-6175395261e5" opacity="1.000" fill="none" stroke="#6ac0c8" stroke-width="2.680" stroke-opacity="1.000" stroke-linecap="round" stroke-linejoin="round" d="M -320.000 565.745 Q -320.000 565.661 -320.000 560.000 Q -320.000 565.466 -320.000 576.000 Q -320.000 584.865 -320.000 592.000 Q -320.000 601.265 -320.000 608.000 Q -320.000 617.950 -320.000 624.000 Q -320.000 632.907 -320.000 640.000 Q -320.000 649.676 -320.000 656.000 Q -320.000 664.853 -320.000 672.000 Q -320.000 680.412 -320.000 688.000 Q -320.000 696.896 -320.000 704.000 Q -320.000 713.044 -320.000 720.000 Q -320.000 729.360 -320.000 736.000 Q -320.000 745.322 -320.000 752.000 Q -320.000 760.532 -320.000 768.000 Q -320.000 776.848 -320.000 784.000 Q -320.000 793.265 -320.000 800.000 Q -320.000 808.306 -320.000 816.000 Q -320.000 824.807 -320.000 832.000 Q -320.000 840.586 -320.000 848.000 Q -320.000 856.717 -320.000 864.000 Q -320.000 872.043 -320.000 880.000 Q -320.000 888.174 -320.000 896.000 "></path>
    <path id="STROKE_dcabb4c7-470d-4ec5-823b-94d9151228f0" opacity="1.000" fill="none" stroke="#6ac0c8" stroke-width="2.720" stroke-opacity="1.000" stroke-linecap="round" stroke-linejoin="round" d="M -272.000 578.184 L -272.000 592.000 Q -272.000 601.586 -272.000 608.000 Q -272.000 616.137 -272.000 624.000 Q -272.000 633.360 -272.000 640.000 Q -272.000 648.132 -272.000 656.000 Q -272.000 664.179 -272.000 672.000 Q -272.000 680.865 -272.000 688.000 Q -272.000 696.459 -272.000 704.000 Q -272.000 713.581 -272.000 720.000 Q -272.000 729.360 -272.000 736.000 Q -272.000 745.492 -272.000 752.000 Q -272.000 760.448 -272.000 768.000 Q -272.000 776.949 -272.000 784.000 Q -272.000 792.812 -272.000 800.000 Q -272.000 808.138 -272.000 816.000 Q -272.000 824.454 -272.000 832.000 Q -272.000 840.586 -272.000 848.000 Q -272.000 856.079 -272.000 864.000 Q -272.000 872.395 -272.000 880.000 Q -272.000 888.174 -272.000 896.000 "></path>
    <path id="STROKE_d7c14b40-ff7b-42ea-adde-4e548dc6958f" opacity="1.000" fill="none" stroke="#6ac0c8" stroke-width="2.718" stroke-opacity="1.000" stroke-linecap="round" stroke-linejoin="round" d="M -240.000 597.303 L -240.000 592.000 L -240.000 608.000 Q -240.000 617.950 -240.000 624.000 Q -240.000 632.638 -240.000 640.000 Q -240.000 648.954 -240.000 656.000 Q -240.000 665.086 -240.000 672.000 Q -240.000 681.671 -240.000 688.000 Q -240.000 697.534 -240.000 704.000 Q -240.000 712.054 -240.000 720.000 Q -240.000 728.353 -240.000 736.000 Q -240.000 744.132 -240.000 752.000 Q -240.000 761.707 -240.000 768.000 Q -240.000 776.043 -240.000 784.000 Q -240.000 792.997 -240.000 800.000 Q -240.000 808.490 -240.000 816.000 Q -240.000 824.353 -240.000 832.000 Q -240.000 840.317 -240.000 848.000 Q -240.000 856.448 -240.000 864.000 Q -240.000 872.311 -240.000 880.000 Q -240.000 885.423 -240.000 887.735 Q -240.000 890.047 -240.000 896.000 L -240.000 892.958 "></path>
    <path id="STROKE_3dc1b0ae-8a42-4ef3-a2c0-d3e064f9ba89" opacity="1.000" fill="none" stroke="#6ac0c8" stroke-width="2.692" stroke-opacity="1.000" stroke-linecap="round" stroke-linejoin="round" d="M -208.000 608.000 Q -208.000 616.322 -208.000 624.000 Q -208.000 634.082 -208.000 640.000 Q -208.000 649.223 -208.000 656.000 Q -208.000 664.853 -208.000 672.000 Q -208.000 680.143 -208.000 688.000 Q -208.000 696.006 -208.000 704.000 Q -208.000 712.221 -208.000 720.000 Q -208.000 728.269 -208.000 736.000 Q -208.000 744.669 -208.000 752.000 Q -208.000 760.532 -208.000 768.000 Q -208.000 776.227 -208.000 784.000 Q -208.000 792.275 -208.000 800.000 Q -208.000 808.037 -208.000 816.000 Q -208.000 824.723 -208.000 832.000 Q -208.000 840.048 -208.000 848.000 Q -208.000 856.264 -208.000 864.000 Q -208.000 872.043 -208.000 880.000 Q -208.000 884.552 -208.000 886.497 Q -208.000 888.441 -208.000 896.000 "></path>
    <path id="STROKE_6f26c79c-c891-4eb9-9b2e-09b160b5ffa2" opacity="1.000" fill="none" stroke="#6ac0c8" stroke-width="2.720" stroke-opacity="1.000" stroke-linecap="round" stroke-linejoin="round" d="M -192.000 616.720 Q -192.000 616.665 -192.000 616.248 Q -192.000 617.008 -192.000 624.000 Q -192.000 632.528 -192.000 640.000 Q -192.000 648.522 -192.000 656.000 Q -192.000 664.330 -192.000 672.000 Q -192.000 680.192 -192.000 688.000 Q -192.000 696.176 -192.000 704.000 Q -192.000 712.577 -192.000 720.000 Q -192.000 728.802 -192.000 736.000 Q -192.000 744.258 -192.000 752.000 Q -192.000 760.538 -192.000 768.000 Q -192.000 776.049 -192.000 784.000 Q -192.000 792.099 -192.000 800.000 Q -192.000 808.016 -192.000 816.000 Q -192.000 824.296 -192.000 832.000 Q -192.000 840.049 -192.000 848.000 Q -192.000 856.395 -192.000 864.000 Q -192.000 872.016 -192.000 880.000 Q -192.000 889.243 -192.000 896.000 "></path>
    <path id="STROKE_19b80f1e-1284-4b27-a10f-b0c833ab9683" opacity="1.000" fill="none" stroke="#6ac0c8" stroke-width="2.720" stroke-opacity="1.000" stroke-linecap="round" stroke-linejoin="round" d="M -176.000 624.000 Q -176.000 632.000 -176.000 640.000 Q -176.000 648.874 -176.000 656.000 Q -176.000 664.385 -176.000 672.000 Q -176.000 681.137 -176.000 688.000 Q -176.000 696.352 -176.000 704.000 Q -176.000 712.753 -176.000 720.000 Q -176.000 728.209 -176.000 736.000 Q -176.000 744.906 -176.000 752.000 Q -176.000 761.186 -176.000 768.000 Q -176.000 776.049 -176.000 784.000 Q -176.000 792.033 -176.000 800.000 Q -176.000 808.313 -176.000 816.000 Q -176.000 824.296 -176.000 832.000 Q -176.000 840.401 -176.000 848.000 Q -176.000 856.099 -176.000 864.000 Q -176.000 872.024 -176.000 880.000 Q -176.000 888.620 -176.000 896.000 Q -176.000 893.909 -176.000 893.261 L -176.000 896.000 "></path>
    <path id="STROKE_42b873ed-303f-4442-94f9-ac5abec44687" opacity="1.000" fill="none" stroke="#9378e3" stroke-width="2.720" stroke-opacity="1.000" stroke-linecap="round" stroke-linejoin="round" d="M -160.000 634.814 L -160.000 634.177 "></path>
    <path id="STROKE_f89e9917-ae93-40a8-8922-d3ecf6657a2e" opacity="1.000" fill="none" stroke="#9378e3" stroke-width="2.720" stroke-opacity="1.000" stroke-linecap="round" stroke-linejoin="round" d="M -160.000 634.177 L -160.000 640.000 Q -160.000 648.735 -160.000 656.000 Q -160.000 664.781 -160.000 672.000 Q -160.000 680.351 -160.000 688.000 Q -160.000 696.397 -160.000 704.000 Q -160.000 713.248 -160.000 720.000 Q -160.000 729.036 -160.000 736.000 Q -160.000 744.278 -160.000 752.000 Q -160.000 760.761 -160.000 768.000 Q -160.000 776.917 -160.000 784.000 Q -160.000 792.645 -160.000 800.000 Q -160.000 808.583 -160.000 816.000 Q -160.000 824.486 -160.000 832.000 Q -160.000 840.149 -160.000 848.000 Q -160.000 856.304 -160.000 864.000 Q -160.000 872.192 -160.000 880.000 Q -160.000 882.947 -160.000 885.985 Q -160.000 889.023 -160.000 896.000 L -160.000 894.434 "></path>
    <path id="STROKE_d211e9cc-fbc3-4d84-9e5a-738522ff2525" opacity="1.000" fill="none" stroke="#9378e3" stroke-width="2.255" stroke-opacity="1.000" stroke-linecap="round" stroke-linejoin="round" d="M 328.303 893.033 Q 328.172 892.982 328.431 893.083 Q 328.690 893.183 326.740 892.427 Q 324.790 891.670 322.862 890.917 Q 320.935 890.165 318.793 889.324 Q 316.651 888.484 314.632 887.688 Q 312.614 886.893 308.425 885.231 Q 304.237 883.569 299.404 881.619 Q 294.570 879.670 290.468 878.000 Q 286.365 876.330 279.224 873.411 Q 272.082 870.492 262.066 866.239 Q 252.050 861.987 247.140 859.880 Q 242.231 857.773 237.443 855.684 Q 232.655 853.594 226.497 850.888 Q 220.339 848.182 211.272 844.118 Q 202.205 840.053 192.801 835.725 Q 183.397 831.397 177.691 828.722 Q 171.986 826.046 168.782 824.528 Q 165.578 823.011 163.552 822.047 Q 161.526 821.083 158.532 819.634 Q 155.538 818.186 153.048 817.032 Q 150.557 815.878 138.547 809.963 Q 126.536 804.048 119.727 800.640 Q 112.918 797.233 105.842 793.617 Q 98.767 790.002 94.488 787.789 Q 90.209 785.576 87.356 784.085 Q 84.503 782.593 80.055 780.275 Q 75.606 777.956 65.917 772.778 Q 56.228 767.600 50.871 764.678 Q 45.515 761.756 42.264 759.972 Q 39.014 758.189 35.016 755.978 Q 31.018 753.767 25.989 750.951 Q 20.959 748.135 17.455 746.150 Q 13.950 744.165 11.054 742.522 Q 8.159 740.880 2.535 737.643 Q -3.089 734.406 -6.112 732.647 Q -9.136 730.887 -10.360 730.172 Q -11.585 729.457 -12.657 728.827 Q -13.730 728.198 -14.453 727.775 Q -15.175 727.352 -17.881 725.762 Q -20.587 724.172 -24.602 721.785 Q -28.617 719.399 -30.909 718.028 Q -33.200 716.657 -34.862 715.658 Q -36.524 714.659 -37.745 713.921 Q -38.965 713.183 -40.360 712.339 Q -41.754 711.494 -46.474 708.630 Q -51.195 705.767 -57.854 701.652 Q -64.513 697.538 -68.637 694.953 Q -72.761 692.369 -74.824 691.068 Q -76.888 689.766 -79.539 688.092 Q -82.190 686.418 -86.986 683.354 Q -91.782 680.290 -95.290 678.021 Q -98.798 675.752 -100.142 674.879 Q -101.487 674.006 -102.796 673.153 Q -104.106 672.299 -105.796 671.198 Q -107.487 670.096 -111.761 667.282 Q -116.036 664.468 -118.089 663.104 Q -120.143 661.740 -122.090 660.442 Q -124.038 659.144 -124.874 658.584 Q -125.711 658.024 -126.302 657.628 Q -126.894 657.232 -127.709 656.684 Q -128.524 656.137 -128.452 656.186 Q -128.380 656.234 -128.434 656.198 Q -128.488 656.161 -128.321 656.274 Q -128.154 656.386 -129.374 655.566 Q -130.595 654.746 -132.093 653.735 Q -133.591 652.724 -134.172 652.331 Q -134.753 651.938 -134.859 651.866 Q -134.965 651.794 -135.968 651.114 Q -136.971 650.434 -136.408 650.816 Q -135.846 651.198 -137.606 650.004 Q -139.365 648.809 -141.193 647.562 Q -143.022 646.314 -143.979 645.658 Q -144.937 645.002 -145.462 644.642 Q -145.987 644.282 -145.866 644.366 Q -145.744 644.449 -145.864 644.366 Q -145.985 644.284 -146.438 643.973 Q -146.891 643.662 -147.710 643.099 Q -148.529 642.536 -148.185 642.773 Q -147.840 643.010 -148.497 642.558 Q -149.153 642.106 -149.483 641.878 Q -149.813 641.651 -149.879 641.606 Q -149.944 641.560 -149.919 641.578 Q -149.894 641.596 -150.859 640.930 Q -151.825 640.263 -152.740 639.630 Q -153.656 638.996 -154.065 638.713 Q -154.474 638.429 -154.819 638.190 Q -155.163 637.951 -155.070 638.015 Q -154.978 638.080 -155.549 637.684 Q -155.151 637.960 -154.306 638.546 Q -153.460 639.132 -152.779 639.603 Q -152.097 640.075 -152.022 640.127 Q -151.947 640.179 -152.036 640.114 Q -152.125 640.050 -152.003 640.137 Q -151.882 640.224 -145.631 644.524 Q -139.380 648.824 -132.450 653.494 Q -125.519 658.164 -121.115 661.094 Q -116.710 664.023 -113.379 666.218 Q -110.048 668.413 -108.194 669.628 Q -106.339 670.843 -104.954 671.747 Q -103.569 672.651 -102.435 673.389 Q -101.300 674.127 -100.568 674.600 Q -99.836 675.072 -99.030 675.598 Q -98.225 676.124 -93.913 678.911 Q -89.601 681.698 -84.203 685.128 Q -78.806 688.559 -76.097 690.271 Q -73.387 691.982 -69.227 694.582 Q -65.068 697.183 -62.845 698.562 Q -60.623 699.942 -56.968 702.200 Q -53.312 704.457 -48.331 707.494 Q -43.351 710.530 -42.480 711.060 Q -41.609 711.590 -36.606 714.608 Q -31.604 717.625 -26.610 720.573 Q -21.616 723.521 -18.360 725.476 Q -15.104 727.431 -2.773 734.580 Q 9.557 741.728 19.317 747.207 Q 29.077 752.686 33.860 755.335 Q 38.643 757.984 40.740 759.137 Q 42.836 760.291 46.403 762.239 Q 49.970 764.187 52.938 765.797 Q 55.905 767.407 60.013 769.616 Q 64.120 771.825 69.309 774.579 Q 74.497 777.333 80.809 780.672 Q 87.121 784.010 98.137 789.668 Q 109.153 795.326 115.046 798.275 Q 120.940 801.223 123.750 802.650 Q 126.560 804.077 136.586 809.000 Q 146.611 813.922 152.513 816.758 Q 158.414 819.593 161.891 821.253 Q 165.368 822.914 171.946 826.022 Q 178.524 829.130 186.282 832.717 Q 194.040 836.303 197.974 838.085 Q 201.907 839.868 204.791 841.198 Q 207.675 842.529 217.755 847.015 Q 227.836 851.502 233.430 853.937 Q 239.023 856.372 241.902 857.622 Q 244.782 858.871 250.559 861.347 Q 256.336 863.822 261.843 866.144 Q 267.351 868.466 270.996 869.984 Q 274.641 871.501 275.835 871.996 Q 277.029 872.490 278.102 872.934 Q 279.175 873.378 281.383 874.288 Q 283.591 875.198 285.725 876.071 Q 287.860 876.943 289.600 877.650 Q 291.341 878.357 294.569 879.673 Q 297.797 880.990 303.768 883.373 Q 309.740 885.756 312.588 886.881 Q 315.436 888.007 317.251 888.720 Q 319.067 889.433 320.017 889.805 Q 320.967 890.177 321.384 890.340 Q 321.800 890.503 321.844 890.520 Q 321.888 890.537 321.910 890.545 Q 321.932 890.554 322.044 890.598 Q 322.156 890.643 323.766 891.270 Q 325.377 891.898 326.311 892.260 Q 327.244 892.622 327.774 892.828 Q 328.304 893.033 328.323 893.041 Q 328.341 893.048 328.487 893.104 Q 328.632 893.160 328.951 893.284 Q 329.271 893.408 330.103 893.730 Q 330.935 894.051 331.596 894.306 Q 332.257 894.561 332.959 894.831 Q 333.661 895.102 333.561 895.063 Q 333.461 895.025 333.494 895.037 Q 333.527 895.050 333.657 895.100 Q 333.787 895.150 333.568 895.066 Q 333.349 894.982 335.369 895.758 Q 335.278 895.724 333.239 894.939 Q 331.199 894.155 329.318 893.426 Q 327.436 892.698 325.887 892.096 Q 324.339 891.493 323.365 891.114 Q 322.391 890.734 321.057 890.212 Q 319.723 889.691 318.555 889.232 Q 317.387 888.774 315.999 888.227 Q 314.610 887.681 313.137 887.098 Q 311.665 886.516 310.647 886.112 Q 309.629 885.709 308.221 885.148 Q 306.813 884.587 305.211 883.946 Q 303.610 883.304 300.682 882.129 Q 297.754 880.953 291.087 878.262 Q 284.419 875.571 274.444 871.404 Q 264.469 867.238 259.672 865.252 Q 254.874 863.266 243.052 858.125 Q 231.229 852.985 225.133 850.290 Q 219.036 847.595 215.441 845.990 Q 211.846 844.386 207.300 842.330 Q 202.753 840.274 200.375 839.182 Q 197.996 838.091 196.335 837.346 Q 194.673 836.601 186.048 832.607 Q 177.423 828.613 171.035 825.579 Q 164.646 822.546 159.004 819.889 Q 153.361 817.233 141.289 811.304 Q 129.217 805.375 123.376 802.454 Q 117.536 799.534 109.520 795.488 Q 101.504 791.442 90.871 785.916 Q 80.239 780.391 74.059 777.112 Q 67.879 773.832 64.737 772.155 Q 61.594 770.477 56.894 767.938 Q 52.193 765.399 49.538 763.952 Q 46.883 762.505 45.209 761.580 Q 43.535 760.656 42.028 759.846 Q 40.521 759.035 32.587 754.627 Q 24.652 750.218 20.334 747.778 Q 16.015 745.338 11.800 742.939 Q 7.584 740.541 2.677 737.727 Q -2.231 734.912 -8.845 731.056 Q -15.459 727.200 -19.692 724.695 Q -23.925 722.189 -25.921 720.996 Q -27.918 719.803 -29.586 718.808 Q -31.255 717.812 -38.538 713.448 Q -45.822 709.084 -56.730 702.343 Q -67.638 695.603 -73.315 692.022 Q -78.993 688.440 -81.728 686.705 Q -84.464 684.970 -88.421 682.435 Q -92.377 679.900 -94.596 678.468 Q -96.814 677.036 -99.813 675.094 Q -102.812 673.152 -107.314 670.203 Q -111.816 667.254 -113.856 665.904 Q -115.896 664.555 -116.908 663.885 Q -117.921 663.215 -118.158 663.057 Q -118.395 662.900 -118.947 662.533 Q -119.500 662.167 -120.245 661.671 Q -120.990 661.176 -121.394 660.907 Q -121.798 660.637 -122.233 660.347 Q -122.669 660.057 -122.544 660.138 Q -122.419 660.220 -122.897 659.906 Q -123.374 659.591 -126.685 657.371 Q -129.996 655.151 -131.588 654.076 Q -133.180 653.001 -134.245 652.281 Q -135.310 651.560 -135.727 651.278 Q -136.144 650.996 -137.293 650.216 Q -138.442 649.436 -139.659 648.607 Q -140.876 647.778 -141.614 647.275 Q -142.351 646.772 -142.511 646.663 Q -142.670 646.553 -142.762 646.491 Q -142.854 646.428 -142.743 646.504 Q -142.631 646.580 -143.667 645.872 Q -144.702 645.163 -144.418 645.358 Q -144.134 645.552 -144.323 645.423 Q -144.512 645.294 -145.170 644.843 Q -145.828 644.392 -145.811 644.403 Q -146.761 643.751 -146.654 643.825 Q -147.189 643.457 -147.726 643.088 Q -148.262 642.719 -148.249 642.729 Q -148.884 642.291 -148.781 642.362 Q -149.511 641.859 -149.646 641.766 Q -149.780 641.674 -149.680 641.743 Q -150.955 640.863 -150.603 641.106 Q -151.369 640.578 -151.182 640.707 Q -152.450 639.831 -152.108 640.067 Q -153.058 639.410 -152.743 639.628 Q -153.570 639.056 -153.628 639.015 Q -153.687 638.975 -153.580 639.048 Q -154.706 638.269 -154.517 638.399 Q -155.279 637.871 -155.095 637.999 Q -156.451 637.058 -156.083 637.313 Q -156.754 636.846 -156.704 636.881 Q -157.855 636.080 -157.594 636.262 Q -158.320 635.756 -158.294 635.775 Q -158.352 635.735 -160.452 634.270 "></path>
    <path id="STROKE_8334bc6a-d4e6-460d-8d39-0b1e7aa2ee71" opacity="1.000" fill="none" stroke="#9378e3" stroke-width="1.985" stroke-opacity="1.000" stroke-linecap="round" stroke-linejoin="round" d="M -160.451 634.271 Q -154.110 638.685 -151.202 640.697 Q -148.293 642.709 -144.691 645.172 Q -141.089 647.634 -139.300 648.851 Q -137.510 650.069 -136.884 650.494 Q -136.257 650.919 -134.643 652.012 Q -133.028 653.104 -132.301 653.595 Q -131.574 654.085 -131.062 654.430 Q -130.550 654.775 -130.682 654.686 Q -130.814 654.597 -130.713 654.665 Q -130.612 654.733 -130.225 654.993 Q -129.839 655.254 -129.892 655.218 Q -129.060 655.777 -129.164 655.707 Q -128.260 656.314 -128.297 656.290 Q -127.576 656.774 -127.040 657.133 Q -126.505 657.492 -125.879 657.911 Q -125.252 658.331 -125.184 658.376 Q -125.115 658.421 -124.136 659.079 Q -123.158 659.737 -120.998 661.171 Q -118.839 662.605 -116.175 664.369 Q -113.512 666.133 -112.005 667.109 Q -110.498 668.085 -110.048 668.410 Q -109.599 668.736 -99.959 674.991 Q -90.319 681.247 -83.479 685.594 Q -76.639 689.940 -71.062 693.434 Q -65.486 696.927 -61.940 699.120 Q -58.393 701.314 -56.500 702.495 Q -54.606 703.675 -47.376 708.078 Q -40.145 712.480 -36.393 714.738 Q -32.640 716.996 -30.910 718.028 Q -29.180 719.060 -27.087 720.303 Q -24.994 721.546 -25.627 721.176 Q -26.260 720.807 -20.380 724.285 Q -14.500 727.762 -9.096 730.910 Q -3.692 734.057 1.440 737.017 Q 6.572 739.976 11.370 742.701 Q 16.167 745.426 18.378 746.673 Q 20.589 747.921 21.584 748.474 Q 22.578 749.028 23.144 749.362 Q 23.710 749.696 30.475 753.455 Q 37.240 757.214 41.321 759.454 Q 45.403 761.694 48.452 763.365 Q 51.501 765.036 57.787 768.417 Q 64.073 771.799 70.967 775.472 "></path>
    <path id="STROKE_0e679096-48b8-4cd6-814d-47804e6002c7" opacity="1.000" fill="none" stroke="#9378e3" stroke-width="2.652" stroke-opacity="1.000" stroke-linecap="round" stroke-linejoin="round" d="M 6.420 660.444 Q 7.555 660.444 7.317 660.444 Q 8.947 660.444 8.429 660.444 Q 9.383 659.683 9.170 659.742 Q 9.864 658.825 9.940 657.667 Q 10.016 656.508 10.105 655.500 Q 10.195 654.492 8.639 654.436 Q 7.084 654.381 4.366 655.092 Q 1.648 655.803 -1.434 658.558 Q -4.517 661.314 -6.535 663.623 Q -8.553 665.932 -10.015 668.930 Q -11.477 671.928 -11.903 673.813 Q -12.329 675.698 -12.180 677.892 Q -12.032 680.085 -8.904 682.121 Q -5.777 684.158 -1.506 684.678 Q 2.765 685.199 6.583 685.651 Q 10.400 686.103 20.620 677.488 "></path>
    <path id="STROKE_e85bd597-e174-4db9-9915-c3364206cf5f" opacity="1.000" fill="none" stroke="#9378e3" stroke-width="2.671" stroke-opacity="1.000" stroke-linecap="round" stroke-linejoin="round" d="M 19.996 648.038 Q 19.183 648.344 19.120 648.431 Q 19.057 648.518 19.146 648.560 Q 19.234 648.603 19.224 648.318 Q 19.214 648.034 18.411 649.630 Q 17.608 651.226 17.581 652.035 Q 17.554 652.844 17.501 655.239 Q 17.449 657.635 17.419 661.618 Q 17.389 665.601 17.485 668.766 Q 17.581 671.931 17.674 676.647 Q 17.766 681.362 16.504 686.060 Q 16.426 686.060 16.309 686.060 Q 15.523 686.143 17.520 681.307 Q 19.518 676.471 26.179 671.446 Q 26.312 673.038 26.257 672.894 Q 26.079 673.080 26.204 675.689 Q 26.328 678.298 26.266 679.817 Q 26.204 681.336 26.992 682.299 Q 27.780 683.262 29.122 683.782 Q 30.465 684.302 32.956 683.866 Q 35.447 683.429 37.273 681.915 Q 39.099 680.401 40.748 678.208 Q 42.396 676.014 42.829 674.348 Q 43.262 672.681 43.003 671.907 Q 42.745 671.133 40.210 670.895 Q 37.675 670.657 34.989 672.198 Q 32.304 673.739 30.535 675.906 Q 28.766 678.073 28.319 679.820 Q 27.872 681.567 28.183 682.939 Q 28.493 684.311 29.666 684.876 Q 30.840 685.440 32.646 685.419 Q 34.452 685.398 36.082 684.282 Q 37.713 683.166 39.725 680.557 Q 41.737 677.947 42.116 674.503 Q 41.780 674.453 41.560 674.788 Q 41.341 675.123 41.144 676.640 Q 40.947 678.156 40.929 679.002 Q 40.910 679.847 40.930 680.219 Q 40.949 680.591 41.075 681.298 Q 41.201 682.006 41.145 681.884 Q 41.088 681.763 41.225 682.007 Q 41.362 682.251 42.345 682.432 Q 43.327 682.613 44.148 682.461 Q 44.969 682.309 45.079 682.220 Q 45.189 682.131 47.441 680.633 "></path>
    <path id="STROKE_57af141d-f21e-417e-8582-a581b264ba50" opacity="1.000" fill="none" stroke="#9378e3" stroke-width="2.720" stroke-opacity="1.000" stroke-linecap="round" stroke-linejoin="round" d="M 49.411 680.092 Q 48.836 680.436 48.745 680.583 Q 48.654 680.729 48.336 681.184 Q 48.018 681.639 47.831 681.964 Q 47.437 683.315 48.658 680.021 Q 49.879 676.727 50.911 674.250 Q 51.943 671.773 54.424 670.495 Q 54.607 670.933 54.971 671.293 Q 55.336 671.653 55.596 675.325 Q 55.855 678.997 55.165 682.842 Q 55.087 682.842 55.048 682.842 Q 54.667 682.081 55.755 679.145 Q 56.842 676.208 58.382 674.394 Q 59.923 672.579 61.132 672.480 Q 62.341 672.382 62.054 672.446 Q 61.767 672.510 62.010 672.537 Q 62.253 672.564 62.718 674.871 Q 63.184 677.178 61.953 682.593 Q 61.876 681.365 62.905 679.453 Q 63.934 677.541 64.454 676.412 Q 64.973 675.283 66.637 675.783 Q 68.302 676.284 69.473 676.413 Q 70.643 676.542 71.281 676.651 Q 71.918 676.761 73.521 675.601 Q 75.124 674.441 75.795 673.620 Q 76.465 672.800 76.668 672.513 Q 76.871 672.227 76.853 672.256 Q 76.835 672.286 76.905 672.167 Q 76.974 672.047 77.870 670.890 Q 77.952 671.017 77.821 674.021 Q 77.689 677.025 77.526 679.692 Q 77.362 682.358 77.301 683.852 Q 77.241 685.346 77.192 686.322 Q 77.144 687.297 77.113 688.605 Q 77.083 689.913 77.090 695.555 Q 77.146 695.511 76.820 690.010 Q 76.495 684.510 76.491 681.306 Q 76.488 678.103 76.543 676.831 Q 76.598 675.558 77.063 674.209 Q 77.528 672.859 77.970 672.525 Q 78.411 672.190 78.879 672.159 Q 79.347 672.128 80.039 671.829 Q 80.732 671.531 83.458 673.469 Q 86.185 675.406 87.712 677.244 Q 89.240 679.081 89.512 680.260 Q 89.785 681.439 89.961 681.872 Q 90.136 682.304 88.426 683.563 Q 86.716 684.821 84.742 684.762 Q 82.769 684.704 81.439 684.658 Q 80.110 684.612 77.480 681.423 "></path>
    <path id="STROKE_94b4b854-911c-4c18-baab-1b66cc7302f7" opacity="1.000" fill="none" stroke="#9378e3" stroke-width="2.720" stroke-opacity="1.000" stroke-linecap="round" stroke-linejoin="round" d="M 61.177 713.971 Q 61.407 713.862 62.113 714.439 Q 61.077 714.204 61.488 714.211 Q 61.898 714.218 60.145 713.771 Q 58.392 713.324 56.944 713.284 Q 55.497 713.244 54.173 714.364 Q 52.849 715.484 52.565 716.633 Q 52.281 717.782 52.197 719.406 Q 52.113 721.031 53.755 721.095 Q 55.396 721.160 56.612 721.126 Q 57.828 721.092 60.603 718.669 Q 63.378 716.246 64.703 711.970 Q 66.027 707.694 66.171 704.643 Q 66.314 701.593 66.360 699.836 Q 66.405 698.080 64.317 697.630 Q 64.317 699.013 64.317 698.654 Q 64.319 699.783 64.356 699.751 Q 64.928 700.045 65.693 705.090 Q 66.458 710.135 66.602 712.997 Q 66.747 715.858 66.949 717.015 Q 67.152 718.172 68.086 719.875 Q 69.020 721.578 71.283 720.441 Q 73.546 719.304 74.383 718.071 Q 75.219 716.837 75.802 716.137 Q 76.386 715.437 76.654 715.028 Q 76.922 714.618 76.872 714.691 Q 76.821 714.764 77.330 714.166 Q 77.839 713.569 78.498 711.776 Q 78.154 711.201 77.519 712.220 Q 76.883 713.240 76.594 714.292 Q 76.304 715.343 76.314 715.622 Q 76.325 715.901 76.624 716.907 Q 76.924 717.913 78.776 718.260 Q 80.627 718.607 84.311 717.116 "></path>
    <path id="STROKE_8c274012-7ff2-45b2-9ecd-f8791cb4d6ba" opacity="1.000" fill="none" stroke="#9378e3" stroke-width="2.427" stroke-opacity="1.000" stroke-linecap="round" stroke-linejoin="round" d="M 91.840 704.623 Q 92.223 704.326 93.381 704.127 Q 94.540 703.927 96.245 702.315 Q 97.950 700.702 98.258 699.234 Q 98.566 697.765 98.628 696.519 Q 98.691 695.273 98.874 694.832 Q 99.056 694.391 98.688 693.862 Q 98.321 693.334 97.951 692.840 Q 97.581 692.347 97.085 692.246 Q 96.590 692.145 95.966 692.062 Q 95.342 691.978 94.995 692.034 Q 94.649 692.090 94.119 692.636 Q 93.589 693.182 93.066 693.777 Q 92.543 694.372 91.268 696.980 Q 89.994 699.587 89.628 706.691 Q 89.262 713.795 90.571 721.154 Q 91.879 728.512 92.593 733.545 Q 93.307 738.578 92.230 742.645 Q 92.074 742.645 91.996 742.608 Q 91.996 742.337 91.996 741.152 "></path>
    <path id="STROKE_9783885f-3a1f-4ff9-87ae-50c6459b106c" opacity="1.000" fill="none" stroke="#9378e3" stroke-width="2.480" stroke-opacity="1.000" stroke-linecap="round" stroke-linejoin="round" d="M 97.243 713.576 Q 97.285 713.412 98.923 713.620 Q 100.562 713.828 102.508 712.281 Q 104.455 710.734 106.258 707.999 Q 108.062 705.263 108.863 702.536 Q 109.665 699.810 109.747 697.864 Q 109.829 695.917 108.643 694.745 Q 107.458 693.574 106.568 693.538 Q 105.677 693.502 105.878 693.495 Q 106.078 693.488 104.801 693.922 Q 103.524 694.356 102.328 698.533 Q 101.131 702.709 100.568 710.159 Q 100.004 717.609 100.658 725.177 Q 101.311 732.744 103.368 739.192 Q 103.627 739.146 102.354 737.305 "></path>
    <path id="STROKE_8bea093e-3c1f-4db3-811b-0517b33e7f1d" opacity="1.000" fill="none" stroke="#9378e3" stroke-width="2.720" stroke-opacity="1.000" stroke-linecap="round" stroke-linejoin="round" d="M 83.452 726.859 Q 84.763 726.188 84.428 726.464 Q 86.122 726.464 85.832 726.464 Q 84.142 726.381 89.415 726.383 Q 94.687 726.385 99.277 725.739 Q 103.866 725.094 109.805 721.359 "></path>
    <path id="STROKE_4a198594-a520-4117-98bb-aa44d71ad192" opacity="1.000" fill="none" stroke="#9378e3" stroke-width="2.689" stroke-opacity="1.000" stroke-linecap="round" stroke-linejoin="round" d="M 115.832 711.689 Q 114.447 711.689 114.935 711.689 Q 113.921 712.271 114.233 712.164 Q 113.820 712.604 113.393 714.935 Q 112.966 717.266 113.801 719.052 Q 114.635 720.837 116.259 721.470 Q 117.883 722.102 119.346 721.740 Q 120.809 721.378 122.526 720.026 Q 124.243 718.675 125.332 712.910 Q 123.247 712.834 123.361 712.878 Q 123.476 712.922 122.716 713.972 Q 121.956 715.021 121.808 716.378 Q 121.661 717.735 121.866 718.620 Q 122.071 719.505 122.784 719.965 Q 123.497 720.425 124.775 720.771 Q 126.054 721.117 128.727 720.382 Q 131.399 719.646 137.133 710.913 Q 136.820 711.366 142.848 720.810 Q 141.873 721.272 136.941 721.685 Q 132.009 722.098 120.787 717.277 "></path>
    <path id="STROKE_9b753d93-bd18-4742-bfaf-f3510b4ead91" opacity="1.000" fill="none" stroke="#9378e3" stroke-width="2.720" stroke-opacity="1.000" stroke-linecap="round" stroke-linejoin="round" d="M 80.078 698.654 Q 79.327 699.365 78.342 703.130 Q 78.958 702.947 79.532 702.194 "></path>
    <path id="STROKE_9a88c9f8-8691-469e-a0c2-dfb7afbbbbe2" opacity="1.000" fill="none" stroke="#6ac0c8" stroke-width="2.720" stroke-opacity="1.000" stroke-linecap="round" stroke-linejoin="round" d="M -296.699 511.616 Q -296.701 511.576 -296.792 517.045 Q -296.882 522.514 -297.519 531.015 Q -297.558 531.015 -297.967 530.781 "></path>
    <path id="STROKE_bc5a10a0-f3f9-4ff2-a942-ddf5a7bf6b0d" opacity="1.000" fill="none" stroke="#6ac0c8" stroke-width="2.712" stroke-opacity="1.000" stroke-linecap="round" stroke-linejoin="round" d="M -311.992 510.431 Q -311.585 510.824 -312.471 509.905 Q -313.356 508.987 -311.627 506.491 Q -309.897 503.994 -306.760 501.805 Q -303.623 499.616 -300.607 499.106 Q -297.591 498.596 -294.545 498.485 Q -291.499 498.375 -288.936 498.796 Q -286.373 499.217 -284.949 500.502 Q -283.524 501.788 -282.977 502.514 Q -282.429 503.240 -282.043 504.690 Q -281.657 506.140 -282.887 508.234 Q -284.116 510.329 -285.656 511.440 Q -287.196 512.551 -290.334 514.379 Q -293.472 516.207 -302.356 517.468 Q -302.434 517.270 -302.122 516.254 "></path>
    <path id="STROKE_18684c4e-cea2-4711-93cd-ae5f0667f4e1" opacity="1.000" fill="none" stroke="#6ac0c8" stroke-width="2.720" stroke-opacity="1.000" stroke-linecap="round" stroke-linejoin="round" d="M -285.405 529.054 Q -286.568 529.337 -286.303 529.325 Q -288.250 526.934 -287.755 522.887 Q -287.260 518.840 -286.072 516.601 Q -284.884 514.362 -283.633 513.056 Q -282.383 511.749 -280.492 512.036 Q -278.602 512.323 -278.951 516.605 Q -279.299 520.887 -279.751 523.084 Q -280.202 525.281 -279.868 527.036 Q -279.534 528.791 -277.383 529.595 Q -275.231 530.400 -272.706 529.845 Q -270.180 529.291 -268.750 526.592 Q -267.320 523.894 -266.485 521.132 Q -265.651 518.371 -267.604 517.678 Q -269.557 516.985 -271.355 518.142 Q -273.152 519.300 -274.569 521.224 Q -275.986 523.148 -276.344 524.727 Q -276.703 526.307 -276.505 527.483 Q -276.307 528.659 -274.831 529.620 Q -273.355 530.580 -270.937 531.032 Q -268.519 531.484 -265.634 530.588 Q -262.749 529.693 -259.209 525.514 "></path>
    <path id="STROKE_ff4aaa31-5765-4a56-83fe-a3bde81f5e17" opacity="1.000" fill="none" stroke="#6ac0c8" stroke-width="2.720" stroke-opacity="1.000" stroke-linecap="round" stroke-linejoin="round" d="M -257.180 520.964 Q -257.180 522.478 -257.180 522.339 Q -256.051 521.524 -259.209 533.458 Q -259.728 532.665 -259.733 530.206 Q -259.737 527.747 -258.949 524.868 Q -258.161 521.989 -257.409 520.461 Q -256.656 518.934 -256.468 518.629 Q -256.280 518.325 -255.588 517.899 Q -254.895 517.474 -254.349 518.056 Q -253.803 518.638 -253.261 520.185 Q -252.720 521.732 -252.399 524.989 Q -252.078 528.245 -252.129 530.126 Q -252.180 532.006 -252.751 533.285 Q -253.323 534.563 -253.244 534.242 Q -253.166 533.920 -253.416 534.006 Q -253.481 533.866 -253.536 533.398 Q -253.591 532.930 -253.526 532.750 Q -253.460 532.570 -253.461 532.437 Q -253.461 532.303 -253.587 530.158 Q -253.713 528.013 -252.806 525.188 Q -251.899 522.363 -250.889 520.673 Q -249.879 518.982 -249.611 518.675 Q -249.342 518.368 -248.303 517.927 Q -247.264 517.487 -246.482 519.741 Q -245.699 521.995 -245.925 532.346 Q -246.003 532.346 -246.042 532.346 Q -246.624 533.115 -245.428 528.505 Q -244.233 523.896 -241.371 518.916 L -241.283 518.916 Q -241.010 518.330 -241.264 522.204 Q -241.518 526.078 -241.616 528.113 Q -241.714 530.148 -241.459 531.249 Q -241.205 532.351 -240.067 532.867 Q -238.928 533.384 -238.023 532.233 Q -237.118 531.082 -236.111 529.679 Q -235.105 528.276 -232.466 520.803 Q -232.864 520.629 -233.933 523.614 Q -235.003 526.599 -235.087 528.742 Q -235.172 530.885 -234.460 532.550 Q -233.749 534.215 -231.840 534.779 Q -229.931 535.342 -228.597 534.951 Q -227.264 534.559 -226.869 534.044 Q -226.474 533.530 -225.642 532.747 Q -224.809 531.964 -224.053 529.763 Q -223.297 527.563 -223.099 526.435 Q -222.901 525.306 -223.158 524.051 Q -223.414 522.796 -224.114 522.794 Q -224.813 522.792 -225.385 523.126 Q -225.957 523.460 -226.116 523.610 Q -226.275 523.760 -226.683 525.496 Q -227.091 527.231 -226.992 528.349 Q -226.893 529.467 -226.580 530.877 Q -226.267 532.286 -225.582 533.325 Q -224.896 534.364 -223.361 536.071 Q -221.826 537.778 -219.583 534.080 Q -217.339 530.381 -213.682 525.280 Q -213.321 525.622 -213.824 528.865 Q -214.327 532.109 -214.353 534.055 Q -214.379 536.001 -213.755 537.343 Q -213.132 538.685 -211.075 538.760 Q -209.018 538.835 -207.227 537.737 Q -205.436 536.640 -202.583 533.352 Q -199.730 530.064 -199.843 522.654 Q -202.674 521.404 -204.664 525.291 Q -206.654 529.178 -206.991 531.972 Q -207.328 534.766 -207.240 536.381 Q -207.152 537.997 -206.060 538.331 Q -204.968 538.665 -203.474 538.115 Q -201.980 537.564 -200.345 535.170 Q -198.710 532.777 -197.728 531.338 Q -196.747 529.900 -196.413 529.515 Q -196.079 529.130 -194.853 528.610 Q -193.626 528.090 -190.261 529.698 Q -186.896 531.307 -184.501 534.943 Q -184.896 535.279 -188.415 534.895 Q -191.935 534.511 -200.242 525.602 "></path>
    <path id="STROKE_af32a175-fb49-4e80-b30f-945309ec9759" opacity="1.000" fill="none" stroke="#6ac0c8" stroke-width="2.720" stroke-opacity="1.000" stroke-linecap="round" stroke-linejoin="round" d="M -214.501 509.261 Q -215.470 509.645 -216.058 510.041 Q -216.646 510.437 -217.904 508.622 Q -219.162 506.807 -221.172 505.954 "></path>
    <path id="STROKE_0d7554fd-e243-4433-9590-2cf59ffa3d71" opacity="1.000" fill="none" stroke="#6ac0c8" stroke-width="2.720" stroke-opacity="1.000" stroke-linecap="round" stroke-linejoin="round" d="M -234.046 502.970 Q -234.046 502.300 -234.046 505.325 Q -234.096 504.930 -233.793 504.067 "></path>
    <path id="STROKE_8e95f79d-c1a2-4bc7-b551-cb9896bb7e9c" opacity="1.000" fill="none" stroke="#6ac0c8" stroke-width="2.656" stroke-opacity="1.000" stroke-linecap="round" stroke-linejoin="round" d="M -228.858 556.002 Q -230.042 556.522 -229.638 556.389 Q -230.304 558.562 -230.077 557.918 Q -229.979 559.441 -231.296 577.361 Q -231.227 576.304 -231.084 570.514 Q -230.940 564.723 -229.701 559.762 Q -228.463 554.801 -227.212 551.703 Q -225.961 548.605 -224.240 547.713 Q -222.519 546.822 -220.552 547.024 Q -218.585 547.226 -216.746 549.432 Q -214.908 551.638 -214.787 554.017 Q -214.666 556.396 -215.007 557.707 Q -215.348 559.019 -216.930 560.971 Q -218.511 562.922 -220.312 564.642 Q -222.114 566.362 -226.712 565.460 Q -226.790 565.145 -226.946 564.633 Q -226.985 564.633 -227.024 564.633 Q -226.868 563.807 -227.170 565.991 Q -227.472 568.174 -226.653 570.463 Q -225.835 572.751 -225.150 573.547 Q -224.464 574.343 -223.805 575.554 Q -223.147 576.765 -220.543 577.501 Q -217.940 578.236 -216.523 578.298 Q -215.105 578.360 -212.988 577.913 Q -210.870 577.466 -208.080 575.078 Q -205.290 572.691 -204.553 564.516 Q -207.010 562.838 -209.176 565.515 Q -211.342 568.192 -212.077 570.233 Q -212.811 572.275 -213.002 573.399 Q -213.193 574.524 -212.906 576.158 Q -212.619 577.792 -209.763 578.639 Q -206.908 579.485 -202.983 578.433 Q -199.058 577.381 -193.493 573.118 "></path>
    <path id="STROKE_6e960d5c-3337-4cf4-adf7-898fa679d019" opacity="1.000" fill="none" stroke="#6ac0c8" stroke-width="2.436" stroke-opacity="1.000" stroke-linecap="round" stroke-linejoin="round" d="M -191.289 564.092 Q -191.022 564.298 -189.487 563.322 Q -187.952 562.347 -186.250 559.467 Q -184.548 556.588 -185.769 547.787 Q -187.506 546.907 -188.977 548.990 Q -190.448 551.073 -191.227 556.479 Q -192.006 561.885 -191.832 568.242 Q -191.657 574.598 -191.220 579.526 Q -190.783 584.454 -190.520 588.575 Q -190.258 592.697 -189.885 598.018 Q -189.405 598.454 -190.509 588.435 "></path>
    <path id="STROKE_b1834f83-5ab3-4553-951b-b9df377a3094" opacity="1.000" fill="none" stroke="#6ac0c8" stroke-width="2.720" stroke-opacity="1.000" stroke-linecap="round" stroke-linejoin="round" d="M -199.833 582.072 Q -199.607 581.232 -199.784 583.367 Q -199.961 585.502 -198.498 586.427 Q -197.034 587.353 -194.412 587.201 Q -191.790 587.049 -189.455 586.636 Q -187.120 586.223 -185.184 584.193 "></path>
    <path id="STROKE_b316f2e1-9451-4e39-9155-1016d886cf0c" opacity="1.000" fill="none" stroke="#6ac0c8" stroke-width="2.425" stroke-opacity="1.000" stroke-linecap="round" stroke-linejoin="round" d="M -174.748 550.735 Q -175.401 552.535 -175.177 551.949 Q -175.607 553.346 -175.567 553.325 Q -176.408 555.392 -177.176 563.553 Q -177.943 571.713 -177.255 579.950 Q -176.310 580.390 -174.982 577.449 "></path>
    <path id="STROKE_73e7965f-d4d9-435a-92f2-f61fa706af43" opacity="1.000" fill="none" stroke="#6ac0c8" stroke-width="2.649" stroke-opacity="1.000" stroke-linecap="round" stroke-linejoin="round" d="M -174.280 572.343 Q -174.004 573.100 -173.466 574.758 Q -172.928 576.415 -170.405 576.942 Q -167.883 577.469 -165.926 576.846 Q -163.970 576.224 -162.193 574.549 Q -160.416 572.874 -160.587 567.427 Q -159.833 567.679 -162.341 567.053 Q -164.848 566.426 -167.190 569.701 Q -169.532 572.976 -170.500 576.284 Q -171.468 579.592 -171.476 581.321 Q -171.484 583.050 -171.585 583.529 Q -171.687 584.009 -169.270 585.449 Q -166.854 586.889 -146.972 567.076 Q -146.615 568.287 -160.704 584.676 Q -160.296 584.704 -158.831 584.515 "></path>
    <path id="STROKE_5f6e0b17-69d3-4f2c-a29c-8f7319e95205" opacity="1.000" fill="none" stroke="#6ac0c8" stroke-width="2.625" stroke-opacity="1.000" stroke-linecap="round" stroke-linejoin="round" d="M -149.020 583.491 Q -150.284 583.586 -149.917 583.608 Q -150.533 584.083 -154.654 580.705 Q -158.776 577.326 -162.069 571.948 Q -161.833 571.601 -160.314 570.997 "></path>
    <path id="STROKE_d569895c-c4e8-4338-8309-78eaddfe402b" opacity="1.000" fill="none" stroke="#6ac0c8" stroke-width="2.720" stroke-opacity="1.000" stroke-linecap="round" stroke-linejoin="round" d="M -143.539 568.729 Q -143.472 569.101 -143.445 573.513 Q -143.418 577.926 -143.528 579.697 Q -143.639 581.468 -143.398 583.161 Q -143.157 584.854 -140.476 584.281 "></path>
    <path id="STROKE_61c0c167-327e-4a48-91f9-562bdcb47cb7" opacity="1.000" fill="none" stroke="#6ac0c8" stroke-width="2.720" stroke-opacity="1.000" stroke-linecap="round" stroke-linejoin="round" d="M -128.870 571.158 Q -128.831 571.556 -128.856 572.474 Q -128.881 573.392 -131.208 574.556 Q -133.534 575.719 -134.973 577.573 Q -136.413 579.426 -136.730 581.021 Q -137.047 582.617 -136.463 584.403 Q -135.879 586.190 -133.554 586.453 Q -131.229 586.716 -129.392 586.283 Q -127.554 585.850 -125.615 583.871 Q -123.676 581.893 -122.873 579.775 Q -122.069 577.658 -122.118 576.310 Q -122.167 574.963 -122.742 573.676 Q -123.317 572.389 -132.323 572.650 "></path>
    <path id="STROKE_34febdcc-0502-4760-979d-0510e3e8ccac" opacity="1.000" fill="none" stroke="#6ac0c8" stroke-width="2.720" stroke-opacity="1.000" stroke-linecap="round" stroke-linejoin="round" d="M -121.185 583.417 Q -121.302 583.651 -122.043 585.451 Q -122.167 585.260 -120.980 581.680 Q -119.793 578.100 -118.446 575.925 Q -117.100 573.749 -115.138 572.577 Q -114.330 572.875 -114.371 576.135 Q -114.412 579.394 -114.427 581.402 Q -114.441 583.409 -113.738 584.729 Q -113.034 586.048 -112.416 586.561 Q -111.799 587.074 -109.189 586.853 Q -106.580 586.632 -105.081 583.465 Q -103.581 580.297 -103.235 577.586 Q -102.889 574.874 -102.858 573.180 Q -102.828 571.485 -105.248 570.690 Q -105.994 571.386 -105.599 573.539 Q -105.204 575.692 -103.848 577.332 Q -102.492 578.972 -99.411 580.849 Q -96.331 582.725 -93.720 584.829 Q -94.130 585.264 -97.154 585.520 Q -100.179 585.775 -109.091 580.901 "></path>
    <path id="STROKE_6293c879-71c1-478d-843f-06cafda8f07c" opacity="1.000" fill="none" stroke="#6ac0c8" stroke-width="2.720" stroke-opacity="1.000" stroke-linecap="round" stroke-linejoin="round" d="M -134.429 559.293 Q -134.624 559.337 -135.366 560.318 Q -134.449 559.627 -135.678 557.099 "></path>
    <path id="STROKE_fa36abab-600c-4bad-a011-d8b08aa619c9" opacity="1.000" fill="none" stroke="#f66640" stroke-width="7.500" stroke-opacity="1.000" stroke-linecap="round" stroke-linejoin="round" d="M -448.000 890.295 Q -448.000 890.456 -448.000 896.000 Q -448.000 891.424 -448.000 889.900 L -448.000 896.000 L -448.000 880.000 Q -448.000 871.042 -448.000 864.000 Q -448.000 855.096 -448.000 848.000 Q -448.000 838.916 -448.000 832.000 Q -448.000 821.873 -448.000 816.000 Q -448.000 807.024 -448.000 800.000 Q -448.000 791.941 -448.000 784.000 Q -448.000 774.897 -448.000 768.000 Q -448.000 759.580 -448.000 752.000 Q -448.000 741.586 -448.000 736.000 Q -448.000 726.196 -448.000 720.000 Q -448.000 710.791 -448.000 704.000 Q -448.000 694.538 -448.000 688.000 Q -448.000 679.762 -448.000 672.000 Q -448.000 662.879 -448.000 656.000 Q -448.000 647.796 -448.000 640.000 Q -448.000 631.616 -448.000 624.000 Q -448.000 615.670 -448.000 608.000 Q -448.000 599.797 -448.000 592.000 Q -448.000 583.924 -448.000 576.000 Q -448.000 567.817 -448.000 560.000 Q -448.000 551.798 -448.000 544.000 Q -448.000 544.410 -448.000 549.984 L -448.000 544.000 L -448.000 560.000 Q -448.000 569.470 -448.000 576.000 Q -448.000 584.319 -448.000 592.000 Q -448.000 601.758 -448.000 608.000 Q -448.000 618.333 -448.000 624.000 Q -448.000 633.182 -448.000 640.000 Q -448.000 650.064 -448.000 656.000 Q -448.000 664.138 -448.000 672.000 Q -448.000 682.929 -448.000 688.000 Q -448.000 696.498 -448.000 704.000 Q -448.000 714.009 -448.000 720.000 Q -448.000 729.092 -448.000 736.000 Q -448.000 745.434 -448.000 752.000 Q -448.000 760.122 -448.000 768.000 Q -448.000 778.277 -448.000 784.000 Q -448.000 792.627 -448.000 800.000 Q -448.000 808.355 -448.000 816.000 Q -448.000 825.018 -448.000 832.000 Q -448.000 840.876 -448.000 848.000 Q -448.000 856.837 -448.000 864.000 Q -448.000 872.066 -448.000 880.000 Q -448.000 885.392 -448.000 896.000 L -448.000 890.617 Q -448.000 890.763 -448.000 891.085 Q -448.000 889.777 -448.000 890.134 Q -448.000 888.905 -448.000 888.963 Q -448.000 888.495 -448.000 880.000 Q -448.000 871.042 -448.000 864.000 Q -448.000 855.028 -448.000 848.000 Q -448.000 839.633 -448.000 832.000 Q -448.000 823.526 -448.000 816.000 Q -448.000 807.492 -448.000 800.000 Q -448.000 790.682 -448.000 784.000 Q -448.000 775.131 -448.000 768.000 Q -448.000 759.492 -448.000 752.000 Q -448.000 742.215 -448.000 736.000 Q -448.000 726.269 -448.000 720.000 Q -448.000 710.791 -448.000 704.000 Q -448.000 695.708 -448.000 688.000 Q -448.000 678.591 -448.000 672.000 Q -448.000 663.816 -448.000 656.000 Q -448.000 647.241 -448.000 640.000 Q -448.000 631.923 -448.000 624.000 Q -448.000 615.187 -448.000 608.000 Q -448.000 599.958 -448.000 592.000 Q -448.000 583.690 -448.000 576.000 Q -448.000 567.978 -448.000 560.000 Q -448.000 553.451 -448.000 553.217 "></path>
    <path id="STROKE_f51a1a98-9e10-41ba-8b4e-9ff55a104248" opacity="1.000" fill="none" stroke="#f66640" stroke-width="2.285" stroke-opacity="1.000" stroke-linecap="round" stroke-linejoin="round" d="M -481.665 915.818 Q -481.503 915.785 -481.269 915.793 Q -481.576 915.822 -483.355 915.785 Q -485.134 915.749 -488.166 915.841 Q -491.198 915.933 -493.004 916.052 Q -494.810 916.170 -497.049 916.284 Q -499.289 916.397 -501.017 916.513 Q -502.746 916.628 -504.568 917.811 "></path>
    <path id="STROKE_b3b4f077-1d48-4e6a-9630-8cac76cf4333" opacity="1.000" fill="none" stroke="#f66640" stroke-width="2.720" stroke-opacity="1.000" stroke-linecap="round" stroke-linejoin="round" d="M -494.098 916.777 Q -494.304 916.661 -493.597 918.169 Q -492.890 919.677 -492.650 923.735 Q -492.410 927.792 -492.350 930.479 Q -492.290 933.167 -492.773 935.334 "></path>
    <path id="STROKE_0c343aae-c2e9-43de-ab2d-62bda9489365" opacity="1.000" fill="none" stroke="#f66640" stroke-width="2.614" stroke-opacity="1.000" stroke-linecap="round" stroke-linejoin="round" d="M -503.084 941.574 Q -503.005 941.576 -503.243 942.103 Q -503.477 942.306 -501.630 941.239 Q -499.782 940.171 -497.034 939.315 Q -494.285 938.460 -490.892 937.969 Q -487.500 937.479 -485.727 937.306 Q -483.954 937.132 -483.010 936.974 Q -482.065 936.817 -480.471 935.468 "></path>
    <path id="STROKE_ed9ba010-ad94-46a0-bacb-b1d680249553" opacity="1.000" fill="none" stroke="#f66640" stroke-width="2.720" stroke-opacity="1.000" stroke-linecap="round" stroke-linejoin="round" d="M -477.188 928.723 Q -477.385 929.120 -476.766 935.947 Q -477.034 935.789 -476.514 933.654 Q -475.994 931.520 -475.514 930.328 Q -475.034 929.137 -474.737 928.618 Q -474.440 928.098 -474.313 927.924 Q -474.185 927.749 -473.613 927.619 Q -473.041 927.488 -472.289 928.556 Q -471.537 929.623 -470.935 931.074 Q -470.333 932.524 -470.826 934.513 Q -471.350 934.193 -471.257 934.184 Q -471.165 934.175 -471.160 934.196 Q -471.155 934.218 -471.260 933.963 Q -471.366 933.709 -471.067 932.464 Q -470.768 931.220 -470.355 930.425 Q -469.943 929.630 -469.753 929.248 Q -469.563 928.866 -469.269 928.278 Q -468.974 927.690 -467.695 927.341 Q -466.700 927.501 -467.101 933.530 L -467.114 933.530 Q -467.223 933.310 -466.481 931.860 Q -465.738 930.411 -465.228 929.476 Q -464.718 928.541 -463.851 928.273 Q -463.570 928.614 -463.239 929.415 Q -462.908 930.216 -462.515 930.601 Q -462.122 930.985 -461.660 931.249 Q -461.198 931.513 -460.384 930.977 Q -459.570 930.441 -458.682 928.194 "></path>
    <path id="STROKE_5b1526d5-659a-4695-be53-aabbef5a4916" opacity="1.000" fill="none" stroke="#f66640" stroke-width="2.720" stroke-opacity="1.000" stroke-linecap="round" stroke-linejoin="round" d="M -458.761 926.731 Q -458.640 926.518 -458.616 926.573 Q -457.771 926.411 -457.346 932.228 Q -456.921 938.045 -456.553 944.175 Q -456.201 944.260 -456.927 942.039 Q -457.652 939.818 -458.033 937.497 Q -458.414 935.177 -458.459 933.837 Q -458.504 932.497 -458.449 931.446 Q -458.394 930.395 -457.920 929.404 Q -457.447 928.412 -456.612 927.830 Q -455.778 927.248 -454.455 927.166 Q -453.133 927.085 -452.163 927.404 Q -451.194 927.724 -450.672 928.046 Q -450.150 928.368 -449.690 928.814 Q -449.231 929.259 -448.972 929.920 Q -448.714 930.580 -448.880 931.297 Q -449.047 932.014 -449.312 932.432 Q -449.578 932.849 -450.365 933.367 Q -451.151 933.884 -452.144 934.021 Q -453.137 934.159 -453.730 934.062 Q -454.323 933.966 -454.909 933.607 Q -455.496 933.247 -455.625 932.364 Q -455.755 931.481 -455.346 930.345 "></path>
    <path id="STROKE_8b070701-7f70-4627-a9c6-19c6aadc437f" opacity="1.000" fill="none" stroke="#f66640" stroke-width="2.720" stroke-opacity="1.000" stroke-linecap="round" stroke-linejoin="round" d="M -448.187 927.769 Q -448.038 927.443 -445.958 926.602 Q -445.991 926.827 -446.309 927.584 Q -446.628 928.340 -446.696 929.377 Q -446.764 930.414 -446.736 931.031 Q -446.709 931.648 -446.550 932.016 Q -446.391 932.383 -446.034 932.770 Q -445.677 933.156 -444.933 933.250 Q -444.189 933.345 -443.335 932.473 Q -442.481 931.602 -441.722 930.028 Q -440.964 928.455 -440.856 926.256 Q -441.056 926.013 -441.148 927.504 Q -441.241 928.995 -441.220 929.936 Q -441.198 930.877 -441.122 931.270 Q -441.046 931.662 -440.344 932.427 Q -439.643 933.192 -436.788 931.433 "></path>
    <path id="STROKE_29beb8d9-ce36-4ba1-8b1e-ff3bee4d886c" opacity="1.000" fill="none" stroke="#f66640" stroke-width="2.355" stroke-opacity="1.000" stroke-linecap="round" stroke-linejoin="round" d="M -430.083 912.500 Q -430.101 912.752 -430.043 910.963 Q -429.853 910.506 -430.004 931.843 Q -430.046 931.836 -429.740 930.637 "></path>
    <path id="STROKE_af96a895-dada-455b-bd7f-bc6f3cce0704" opacity="1.000" fill="none" stroke="#f66640" stroke-width="2.720" stroke-opacity="1.000" stroke-linecap="round" stroke-linejoin="round" d="M -423.747 922.404 Q -423.615 922.613 -421.638 922.842 Q -421.335 922.077 -422.788 921.860 Q -424.241 921.644 -425.136 921.711 Q -426.030 921.778 -426.881 922.082 Q -427.731 922.387 -428.096 923.264 Q -428.462 924.141 -428.380 925.216 Q -428.299 926.290 -427.241 927.631 Q -426.183 928.972 -424.949 929.847 Q -423.714 930.721 -423.013 931.078 Q -422.313 931.434 -422.066 932.135 Q -422.152 932.274 -422.874 932.087 Q -423.596 931.900 -423.959 931.073 Q -424.321 930.246 -424.412 929.542 Q -424.502 928.837 -424.322 928.266 Q -424.142 927.695 -423.554 927.130 Q -422.966 926.565 -422.403 926.384 Q -421.840 926.203 -421.514 926.150 Q -421.188 926.096 -420.559 926.305 Q -419.931 926.514 -419.603 928.044 Q -419.275 929.574 -419.140 930.429 Q -419.006 931.284 -418.927 931.835 Q -418.848 932.387 -418.470 932.556 Q -418.091 932.725 -417.658 932.728 Q -417.225 932.730 -416.485 932.312 Q -415.744 931.894 -414.483 930.665 Q -413.222 929.435 -412.376 928.232 Q -411.530 927.029 -411.300 925.670 Q -411.374 925.503 -412.004 925.578 Q -412.634 925.654 -413.200 926.102 Q -413.767 926.550 -414.449 927.509 Q -415.132 928.469 -415.483 929.260 Q -415.834 930.052 -415.952 930.881 Q -416.070 931.711 -415.965 932.232 Q -415.860 932.754 -415.389 933.145 Q -414.918 933.536 -414.075 933.695 Q -413.232 933.854 -412.554 933.737 Q -411.876 933.620 -411.220 933.056 Q -410.564 932.491 -410.146 931.424 Q -409.729 930.356 -409.583 929.397 Q -409.438 928.438 -409.682 927.591 Q -409.926 926.743 -412.902 925.885 "></path>
    <path id="STROKE_46d5e826-dfdc-4c2c-828b-8de626122fa2" opacity="1.000" fill="none" stroke="#f66640" stroke-width="2.720" stroke-opacity="1.000" stroke-linecap="round" stroke-linejoin="round" d="M -406.488 931.804 Q -406.542 931.915 -406.413 931.620 Q -406.285 931.325 -405.720 929.519 Q -405.155 927.714 -404.813 926.817 Q -404.471 925.920 -404.314 925.496 Q -404.158 925.071 -403.957 924.916 Q -403.756 924.761 -403.493 924.656 Q -403.229 924.550 -402.987 924.764 Q -402.745 924.979 -402.573 925.121 Q -402.401 925.263 -402.088 926.853 Q -401.775 928.443 -401.785 929.720 Q -401.794 930.997 -401.717 932.389 Q -401.640 933.782 -401.596 934.494 Q -401.552 935.207 -401.353 935.541 Q -401.155 935.876 -400.914 936.105 Q -400.673 936.335 -399.809 934.830 "></path>
    <path id="STROKE_5530c628-011d-4d9f-b6af-9e019c005e5e" opacity="1.000" fill="none" stroke="#f66640" stroke-width="2.720" stroke-opacity="1.000" stroke-linecap="round" stroke-linejoin="round" d="M -414.946 914.384 Q -415.232 914.508 -414.511 916.006 Q -414.000 915.951 -414.109 915.796 Q -413.964 915.502 -413.858 915.314 "></path>
    <path id="STROKE_ff169fe4-cedc-47a2-90b5-2ee9f67b710a" opacity="1.000" fill="none" stroke="#f66640" stroke-width="2.719" stroke-opacity="1.000" stroke-linecap="round" stroke-linejoin="round" d="M -493.274 978.827 Q -493.205 978.525 -493.466 980.607 Q -493.657 980.878 -491.876 978.072 Q -490.096 975.267 -488.648 972.102 Q -487.200 968.937 -486.649 965.392 Q -486.604 965.379 -487.150 967.417 Q -487.697 969.455 -488.188 972.630 Q -488.679 975.804 -488.640 978.718 Q -488.495 978.651 -486.701 975.904 "></path>
    <path id="STROKE_ef8908d7-015c-4a10-b0af-3c557166f657" opacity="1.000" fill="none" stroke="#f66640" stroke-width="2.720" stroke-opacity="1.000" stroke-linecap="round" stroke-linejoin="round" d="M -481.295 967.993 Q -481.153 968.366 -480.995 970.365 Q -480.836 972.364 -480.994 974.034 Q -481.153 975.703 -482.528 978.134 Q -482.579 977.620 -482.567 977.624 Q -482.556 977.628 -482.538 977.387 Q -482.519 977.147 -482.483 976.988 Q -482.447 976.829 -482.206 976.211 Q -481.964 975.592 -481.494 974.382 Q -481.023 973.171 -480.426 971.813 Q -479.830 970.455 -479.174 969.100 Q -478.518 967.746 -477.149 967.064 Q -476.305 967.037 -477.109 977.022 Q -477.295 977.214 -476.718 976.951 Q -476.141 976.688 -474.775 975.321 "></path>
    <path id="STROKE_d49320b6-759c-4fa8-a4a2-89befcf288a1" opacity="1.000" fill="none" stroke="#f66640" stroke-width="2.720" stroke-opacity="1.000" stroke-linecap="round" stroke-linejoin="round" d="M -471.143 968.764 L -471.129 968.764 Q -470.620 969.213 -471.630 976.211 Q -471.499 976.534 -470.108 975.667 "></path>
    <path id="STROKE_a99cfd35-d0de-4c2d-a262-1b29ab43cc93" opacity="1.000" fill="none" stroke="#f66640" stroke-width="2.660" stroke-opacity="1.000" stroke-linecap="round" stroke-linejoin="round" d="M -462.605 954.984 Q -462.715 955.052 -462.170 956.681 Q -461.624 958.310 -461.790 961.949 Q -461.956 965.589 -462.188 967.490 Q -462.420 969.391 -462.574 970.947 Q -462.728 972.503 -462.753 977.951 Q -462.706 978.039 -461.946 975.771 "></path>
    <path id="STROKE_2e1e1bf6-b760-43fe-9bb5-004706b31084" opacity="1.000" fill="none" stroke="#f66640" stroke-width="2.720" stroke-opacity="1.000" stroke-linecap="round" stroke-linejoin="round" d="M -463.297 968.206 Q -463.227 968.033 -462.973 968.337 Q -462.718 968.641 -461.450 968.104 Q -460.182 967.567 -458.877 966.609 Q -457.573 965.650 -456.058 964.369 Q -456.027 964.282 -457.014 964.384 "></path>
    <path id="STROKE_2354d11b-3daa-4618-8f0e-e2bf6e6236a8" opacity="1.000" fill="none" stroke="#f66640" stroke-width="2.720" stroke-opacity="1.000" stroke-linecap="round" stroke-linejoin="round" d="M -466.903 962.816 Q -467.027 962.980 -466.971 963.283 Q -466.916 963.587 -466.817 963.719 Q -466.719 963.851 -466.576 963.874 Q -466.433 963.897 -466.364 963.919 Q -466.296 963.942 -466.217 963.903 Q -466.139 963.865 -465.895 963.612 "></path>
    <path id="STROKE_65bfbe0e-1cbf-4189-bc97-2a9fec7b8256" opacity="1.000" fill="none" stroke="#f66640" stroke-width="2.720" stroke-opacity="1.000" stroke-linecap="round" stroke-linejoin="round" d="M -481.961 959.602 L -481.974 959.602 Q -481.961 959.447 -482.093 960.453 Q -482.303 960.132 -482.410 959.286 "></path>
    <path id="STROKE_5c7dbccb-969c-4bd3-9b69-61578eb031b2" opacity="1.000" fill="none" stroke="#f66640" stroke-width="2.700" stroke-opacity="1.000" stroke-linecap="round" stroke-linejoin="round" d="M -452.004 968.230 Q -451.909 968.212 -450.797 968.258 Q -450.674 968.592 -450.992 968.891 Q -451.311 969.191 -452.061 970.205 Q -452.812 971.220 -453.179 971.994 Q -453.547 972.767 -453.727 973.419 Q -453.906 974.072 -453.951 974.781 Q -453.997 975.491 -453.406 975.847 Q -452.815 976.204 -451.934 976.240 Q -451.052 976.277 -449.951 975.752 Q -448.850 975.227 -448.212 974.729 Q -447.575 974.231 -447.285 973.979 Q -446.995 973.726 -446.566 973.495 Q -446.137 973.263 -445.172 972.200 Q -444.207 971.136 -443.681 970.447 Q -443.155 969.758 -442.901 969.007 Q -442.647 968.257 -442.551 967.815 Q -442.455 967.374 -442.548 967.082 Q -442.641 966.789 -443.328 966.632 Q -444.016 966.474 -445.058 967.234 Q -446.100 967.994 -447.197 969.383 Q -448.294 970.771 -448.848 972.019 Q -449.401 973.268 -449.419 974.550 Q -449.008 975.001 -447.845 973.712 Q -446.681 972.423 -444.805 971.128 Q -444.594 970.974 -444.444 972.015 Q -444.294 973.056 -443.682 974.173 Q -443.071 975.290 -441.857 975.022 Q -440.642 974.754 -439.534 973.571 Q -438.426 972.388 -437.373 970.704 Q -436.321 969.019 -435.832 968.180 Q -435.344 967.341 -434.600 965.846 Q -433.856 964.350 -433.257 963.066 Q -432.657 961.782 -432.089 960.118 Q -431.520 958.453 -431.292 956.825 Q -431.063 955.197 -430.989 954.359 Q -430.916 953.521 -430.979 953.145 Q -431.043 952.768 -431.303 952.559 Q -431.562 952.350 -431.832 952.673 Q -432.102 952.995 -432.276 953.241 Q -432.451 953.488 -433.087 954.997 Q -433.724 956.507 -434.398 958.906 Q -435.072 961.304 -435.480 963.328 Q -435.888 965.353 -436.073 966.883 Q -436.258 968.414 -436.288 969.419 Q -436.319 970.424 -436.265 971.179 Q -436.211 971.933 -435.835 972.326 Q -435.458 972.718 -434.729 972.869 Q -434.000 973.019 -433.162 972.546 Q -432.325 972.072 -431.756 971.692 Q -431.187 971.311 -430.251 970.248 Q -429.315 969.186 -428.868 968.488 Q -428.420 967.789 -428.209 967.318 Q -427.998 966.846 -427.888 966.538 Q -427.779 966.231 -427.778 965.908 Q -427.778 965.586 -427.769 965.393 Q -427.760 965.200 -428.410 965.022 Q -429.059 964.843 -430.101 965.642 Q -431.143 966.441 -431.648 966.976 Q -432.154 967.512 -432.737 968.424 Q -433.319 969.335 -433.579 970.200 Q -433.838 971.065 -433.876 971.569 Q -433.914 972.074 -433.955 972.309 Q -433.996 972.545 -433.971 973.080 Q -433.946 973.615 -433.827 974.067 Q -433.709 974.519 -433.442 974.948 Q -433.175 975.377 -432.453 975.623 Q -431.732 975.870 -431.154 975.819 Q -430.576 975.768 -430.132 975.665 Q -429.688 975.561 -427.960 973.729 "></path>
    <path id="STROKE_de1522a3-fa7e-4650-8704-b53c698cfcec" opacity="1.000" fill="none" stroke="#f66640" stroke-width="2.720" stroke-opacity="1.000" stroke-linecap="round" stroke-linejoin="round" d="M -445.141 958.035 Q -445.414 958.198 -446.143 959.924 Q -446.130 959.924 -445.299 958.569 "></path>
    <path id="STROKE_fd28a1e8-b7b6-4886-ae39-2b951737e384" opacity="1.000" fill="none" stroke="#264649" stroke-width="2.687" stroke-opacity="1.000" stroke-linecap="round" stroke-linejoin="round" d="M -320.000 912.000 Q -320.000 917.868 -320.000 928.000 Q -320.000 936.180 -320.000 944.000 Q -311.808 944.000 -304.000 944.000 Q -295.123 944.000 -288.000 944.000 Q -279.312 944.000 -272.000 944.000 Q -262.599 944.000 -256.000 944.000 Q -246.909 944.000 -240.000 944.000 Q -231.501 944.000 -224.000 944.000 Q -214.835 944.000 -208.000 944.000 Q -199.671 944.000 -192.000 944.000 Q -183.587 944.000 -176.000 944.000 Q -166.151 944.000 -162.230 944.000 "></path>
    <path id="STROKE_77cdad5c-a9e8-4acd-99d7-1679c705650d" opacity="1.000" fill="none" stroke="#264649" stroke-width="2.720" stroke-opacity="1.000" stroke-linecap="round" stroke-linejoin="round" d="M 165.729 944.000 Q 168.139 944.000 176.000 944.000 Q 184.504 944.000 192.000 944.000 Q 201.114 944.000 208.000 944.000 Q 216.278 944.000 224.000 944.000 Q 233.263 944.000 240.000 944.000 Q 249.028 944.000 256.000 944.000 Q 264.117 944.000 272.000 944.000 Q 281.252 944.000 288.000 944.000 Q 296.341 944.000 304.000 944.000 Q 312.181 944.000 320.000 944.000 Q 328.415 944.000 336.000 944.000 Q 344.756 944.000 352.000 944.000 Q 352.000 935.885 352.000 928.000 Q 352.000 919.697 352.000 913.546 "></path>
    <path id="STROKE_0b636d12-cd84-4aa7-ab81-6a2177fc877c" opacity="1.000" fill="none" stroke="#264649" stroke-width="2.720" stroke-opacity="1.000" stroke-linecap="round" stroke-linejoin="round" d="M -147.785 935.969 Q -147.617 936.036 -147.281 934.667 Q -146.946 933.297 -147.507 931.409 Q -149.171 931.584 -149.066 949.932 L -149.106 949.932 Q -149.229 949.550 -149.543 944.824 Q -149.857 940.098 -149.921 937.421 Q -149.986 934.744 -149.855 933.476 Q -149.724 932.208 -148.911 930.701 Q -148.099 929.193 -146.517 929.279 Q -144.934 929.364 -144.261 929.614 Q -143.588 929.863 -142.225 930.689 Q -140.861 931.516 -140.117 932.638 Q -139.374 933.761 -139.376 934.480 Q -139.379 935.199 -139.356 936.169 Q -139.333 937.139 -140.133 937.988 Q -140.933 938.836 -142.126 939.105 Q -143.319 939.373 -144.055 939.142 Q -144.791 938.911 -145.669 937.854 Q -145.669 938.656 -145.669 938.551 Q -145.781 939.078 -144.554 941.540 Q -143.327 944.001 -142.595 945.322 Q -141.863 946.644 -141.136 947.495 Q -140.410 948.346 -139.412 948.090 Q -138.413 947.834 -137.443 946.535 "></path>
    <path id="STROKE_53688f30-fa53-43cc-be06-4e3f70f6196d" opacity="1.000" fill="none" stroke="#264649" stroke-width="2.720" stroke-opacity="1.000" stroke-linecap="round" stroke-linejoin="round" d="M -125.620 932.571 Q -124.926 932.606 -125.094 932.609 Q -125.189 932.592 -124.657 932.728 Q -125.060 932.799 -126.858 932.708 Q -128.656 932.616 -130.083 933.162 Q -131.511 933.708 -132.823 934.457 Q -134.135 935.207 -134.837 936.131 Q -135.538 937.055 -135.530 939.254 Q -135.523 941.453 -135.447 942.824 Q -135.372 944.195 -135.549 945.290 Q -135.727 946.386 -135.508 947.212 Q -135.289 948.039 -134.213 948.520 Q -133.137 949.000 -130.817 948.823 Q -128.497 948.646 -126.624 948.030 Q -124.751 947.415 -123.735 946.795 Q -122.718 946.176 -122.342 945.290 "></path>
    <path id="STROKE_9ae7d3fd-95eb-4461-ae02-58d6da4bdcf6" opacity="1.000" fill="none" stroke="#264649" stroke-width="2.720" stroke-opacity="1.000" stroke-linecap="round" stroke-linejoin="round" d="M -134.929 941.214 Q -134.934 941.407 -135.007 941.727 Q -135.081 942.048 -135.086 942.100 Q -135.091 942.153 -135.086 942.065 Q -135.081 941.976 -135.128 942.653 Q -134.855 943.284 -128.690 940.574 "></path>
    <path id="STROKE_b64e8e9b-3b25-426e-9595-b2bef15dd865" opacity="1.000" fill="none" stroke="#264649" stroke-width="2.720" stroke-opacity="1.000" stroke-linecap="round" stroke-linejoin="round" d="M -116.669 932.728 Q -116.686 932.991 -117.762 936.074 Q -118.839 939.157 -118.408 947.533 Q -118.209 947.473 -118.070 947.414 "></path>
    <path id="STROKE_1fe20a56-f2a8-4391-9c32-23f0d1a11bbc" opacity="1.000" fill="none" stroke="#264649" stroke-width="2.720" stroke-opacity="1.000" stroke-linecap="round" stroke-linejoin="round" d="M -120.464 933.369 Q -120.504 933.369 -120.782 933.532 Q -121.020 933.984 -120.398 932.874 Q -119.777 931.764 -118.793 931.119 Q -117.809 930.474 -116.330 930.230 Q -114.850 929.987 -113.211 930.236 Q -111.571 930.485 -110.176 931.327 Q -108.781 932.169 -108.445 933.252 Q -108.110 934.334 -108.331 935.395 Q -108.551 936.455 -109.926 937.810 Q -111.300 939.164 -113.300 940.292 Q -115.301 941.420 -116.905 941.810 Q -118.510 942.200 -119.720 942.066 Q -120.930 941.932 -120.027 939.128 "></path>
    <path id="STROKE_fc9a2b37-dba1-4c09-bbc6-1bc95be5645a" opacity="1.000" fill="none" stroke="#264649" stroke-width="2.720" stroke-opacity="1.000" stroke-linecap="round" stroke-linejoin="round" d="M -103.963 934.211 Q -103.943 934.211 -103.685 934.367 Q -104.022 934.173 -105.740 934.846 Q -107.458 935.519 -108.885 936.904 Q -110.313 938.288 -110.739 939.833 Q -111.165 941.377 -111.102 942.819 Q -111.039 944.261 -110.295 945.139 Q -109.551 946.018 -108.259 946.272 Q -106.967 946.526 -106.020 946.474 Q -105.073 946.422 -103.761 945.067 Q -102.449 943.711 -101.840 942.010 Q -101.230 940.308 -101.062 938.906 Q -100.895 937.503 -101.081 936.406 Q -101.267 935.308 -102.691 933.927 "></path>
    <path id="STROKE_74f1aaf8-960e-4972-afbb-2d4a0a94292f" opacity="1.000" fill="none" stroke="#264649" stroke-width="2.720" stroke-opacity="1.000" stroke-linecap="round" stroke-linejoin="round" d="M -96.253 946.050 Q -95.944 945.424 -97.138 947.891 Q -97.158 947.891 -97.197 947.891 Q -97.171 947.925 -97.515 934.129 Q -97.555 934.110 -97.615 934.091 Q -97.968 933.803 -97.276 935.863 Q -96.585 937.923 -95.642 938.938 Q -94.699 939.954 -88.485 948.211 Q -88.465 947.906 -88.365 944.666 Q -88.266 941.425 -88.684 938.567 Q -89.101 935.708 -89.403 934.196 Q -89.704 932.683 -89.426 931.717 Q -89.147 930.750 -87.749 929.725 "></path>
    <path id="STROKE_e19cd1d8-ccb3-4e45-bc37-673843f78537" opacity="1.000" fill="none" stroke="#264649" stroke-width="2.720" stroke-opacity="1.000" stroke-linecap="round" stroke-linejoin="round" d="M -76.801 935.291 Q -76.099 935.247 -76.285 935.231 Q -75.878 934.823 -75.947 934.792 Q -75.369 933.835 -77.482 933.434 Q -79.594 933.032 -80.927 933.263 Q -82.260 933.495 -83.147 934.123 Q -84.035 934.752 -84.272 935.423 Q -84.510 936.095 -84.607 937.055 Q -84.705 938.016 -82.109 940.250 Q -79.512 942.484 -77.860 943.699 Q -76.208 944.915 -75.450 945.800 Q -74.692 946.685 -74.912 947.158 Q -75.132 947.631 -76.599 947.786 Q -78.066 947.940 -79.261 947.791 Q -80.456 947.641 -80.978 947.382 Q -81.499 947.123 -81.725 946.984 Q -81.950 946.846 -82.753 945.581 Q -83.556 944.315 -81.401 941.855 "></path>
    <path id="STROKE_cf45ea1f-8b44-496a-abf7-d15d1943e96d" opacity="1.000" fill="none" stroke="#264649" stroke-width="2.720" stroke-opacity="1.000" stroke-linecap="round" stroke-linejoin="round" d="M -64.582 933.808 Q -64.060 933.815 -63.300 933.670 L -63.300 933.652 Q -63.608 933.411 -65.448 934.563 Q -67.287 935.715 -68.508 937.086 Q -69.729 938.458 -70.312 940.211 Q -70.896 941.964 -70.889 943.589 Q -70.882 945.213 -70.508 946.328 Q -70.133 947.443 -69.196 948.334 Q -68.259 949.225 -66.538 949.644 Q -64.817 950.062 -63.237 950.067 Q -61.657 950.072 -60.692 949.635 Q -59.727 949.197 -59.245 948.787 Q -58.763 948.376 -58.489 948.033 Q -58.215 947.689 -58.015 947.284 Q -57.815 946.879 -57.429 945.171 "></path>
    <path id="STROKE_dc84569d-fed3-4b5e-8397-5af6d878e4b1" opacity="1.000" fill="none" stroke="#264649" stroke-width="2.720" stroke-opacity="1.000" stroke-linecap="round" stroke-linejoin="round" d="M -67.214 940.328 Q -67.400 941.089 -67.451 941.857 Q -67.502 942.625 -66.458 942.802 Q -65.413 942.980 -61.303 939.694 "></path>
    <path id="STROKE_860e64ee-e35a-42ba-8b83-b587f25977b5" opacity="1.000" fill="none" stroke="#264649" stroke-width="2.720" stroke-opacity="1.000" stroke-linecap="round" stroke-linejoin="round" d="M -66.459 934.769 Q -66.457 935.717 -66.439 935.630 Q -65.845 938.066 -55.511 932.370 "></path>
    <path id="STROKE_c419932a-3537-4fb6-8557-a21468eb715f" opacity="1.000" fill="none" stroke="#264649" stroke-width="2.720" stroke-opacity="1.000" stroke-linecap="round" stroke-linejoin="round" d="M -28.588 933.890 Q -28.597 933.861 -28.234 934.693 Q -27.872 935.525 -17.282 934.367 "></path>
    <path id="STROKE_fe7f7b0d-74eb-4c18-9f0e-3e82c975e7c1" opacity="1.000" fill="none" stroke="#264649" stroke-width="2.720" stroke-opacity="1.000" stroke-linecap="round" stroke-linejoin="round" d="M -24.157 934.889 Q -23.993 935.458 -25.479 948.293 "></path>
    <path id="STROKE_4eb42e0e-ae65-45ed-845d-1810c27f5598" opacity="1.000" fill="none" stroke="#264649" stroke-width="2.720" stroke-opacity="1.000" stroke-linecap="round" stroke-linejoin="round" d="M -29.751 949.612 Q -29.811 949.727 -30.050 950.103 Q -30.289 950.479 -30.347 951.415 Q -29.485 951.560 -29.532 951.516 Q -29.174 951.697 -25.808 951.470 Q -22.442 951.242 -18.763 949.694 "></path>
    <path id="STROKE_903d9fdc-fda3-41bc-9c47-56dd3ca0f929" opacity="1.000" fill="none" stroke="#264649" stroke-width="2.720" stroke-opacity="1.000" stroke-linecap="round" stroke-linejoin="round" d="M -9.980 936.930 Q -10.035 936.672 -10.453 938.010 Q -10.872 939.347 -11.041 940.080 Q -11.211 940.812 -11.175 941.626 Q -11.139 942.439 -11.391 951.296 L -11.411 951.296 Q -11.463 951.231 -12.255 936.930 Q -11.941 937.078 -11.013 937.663 Q -10.086 938.248 -7.756 938.013 Q -5.426 937.777 -4.284 937.356 Q -3.142 936.935 -2.494 936.852 Q -1.846 936.770 -1.307 936.889 Q -0.936 937.511 -1.535 940.596 Q -2.134 943.681 -2.512 945.758 Q -2.889 947.835 -2.827 950.793 Q -2.447 951.432 0.173 948.852 "></path>
    <path id="STROKE_9db5ccce-af7a-41f2-9bbe-1f67488bdd05" opacity="1.000" fill="none" stroke="#264649" stroke-width="2.720" stroke-opacity="1.000" stroke-linecap="round" stroke-linejoin="round" d="M 6.084 936.647 Q 5.839 936.988 5.775 937.118 Q 5.712 937.248 5.726 937.251 Q 5.516 937.847 5.528 937.809 Q 5.354 938.029 5.154 941.384 Q 4.953 944.740 4.910 946.531 Q 4.866 948.322 5.806 951.013 Q 6.204 951.205 6.203 947.396 Q 6.202 943.586 6.151 941.420 Q 6.101 939.254 6.173 938.156 Q 6.245 937.057 6.516 936.278 Q 6.787 935.499 7.516 935.493 Q 8.245 935.487 9.221 935.985 Q 10.197 936.484 11.221 937.290 Q 12.245 938.096 12.862 938.758 Q 13.478 939.419 13.671 940.448 Q 13.864 941.477 13.393 942.106 Q 12.921 942.736 12.151 943.217 Q 11.381 943.698 10.280 943.982 Q 9.180 944.266 8.302 944.375 Q 7.423 944.484 6.727 944.240 Q 6.030 943.996 5.806 943.092 "></path>
    <path id="STROKE_108a6ff7-239c-457d-b5c1-64d6a05036fa" opacity="1.000" fill="none" stroke="#264649" stroke-width="2.720" stroke-opacity="1.000" stroke-linecap="round" stroke-linejoin="round" d="M 16.913 938.614 Q 16.913 938.305 16.913 938.312 Q 16.913 938.271 16.913 938.212 Q 16.837 938.529 16.540 941.271 Q 16.243 944.012 16.195 945.575 Q 16.147 947.138 16.458 948.473 Q 16.769 949.807 17.419 950.713 Q 18.070 951.619 19.507 951.703 Q 20.945 951.786 22.463 949.297 Q 23.980 946.808 24.580 944.123 Q 25.180 941.439 24.880 938.972 Q 24.546 939.132 24.533 939.247 "></path>
    <path id="STROKE_a653928b-37a3-4449-90f4-8ffaec38b88a" opacity="1.000" fill="none" stroke="#264649" stroke-width="2.720" stroke-opacity="1.000" stroke-linecap="round" stroke-linejoin="round" d="M 30.533 936.289 Q 30.561 936.669 30.515 936.479 Q 30.470 936.288 30.777 936.814 Q 31.085 937.339 29.958 939.714 Q 28.831 942.088 27.857 944.775 Q 26.884 947.461 26.997 951.612 Q 27.055 951.965 29.112 951.759 Q 31.169 951.552 33.604 950.768 Q 36.039 949.984 38.402 948.494 "></path>
    <path id="STROKE_695df879-20dc-4227-9d96-9db18d9a2e2a" opacity="1.000" fill="none" stroke="#264649" stroke-width="2.720" stroke-opacity="1.000" stroke-linecap="round" stroke-linejoin="round" d="M 44.273 936.893 Q 44.293 936.893 44.591 936.893 Q 44.139 936.799 43.073 936.604 Q 42.008 936.410 41.479 936.451 Q 40.951 936.493 40.544 936.654 Q 40.137 936.815 39.903 937.254 Q 39.668 937.693 39.618 938.660 Q 39.569 939.628 39.997 940.802 Q 40.426 941.976 42.928 943.965 Q 45.431 945.954 47.710 948.394 Q 48.248 949.485 40.538 949.515 Q 40.324 949.264 40.245 948.072 Q 40.166 946.881 51.744 937.929 Q 51.699 938.582 51.645 938.551 Q 51.264 939.334 50.498 941.961 Q 49.733 944.587 49.726 946.032 Q 49.719 947.477 49.551 948.446 Q 49.383 949.415 51.943 949.731 "></path>
    <path id="STROKE_fcdfa462-0c53-4d9f-9af2-396045b37352" opacity="1.000" fill="none" stroke="#264649" stroke-width="2.720" stroke-opacity="1.000" stroke-linecap="round" stroke-linejoin="round" d="M 61.689 942.809 Q 62.252 942.647 62.245 942.671 Q 62.380 943.035 62.901 941.490 Q 62.327 940.973 60.951 940.827 Q 59.574 940.680 58.421 940.864 Q 57.267 941.048 56.094 942.229 Q 54.921 943.411 54.337 945.161 Q 53.754 946.910 53.984 948.154 Q 54.215 949.399 54.786 950.041 Q 55.357 950.684 56.482 950.940 Q 57.607 951.196 59.230 951.050 Q 60.852 950.904 61.947 949.868 Q 63.042 948.832 63.714 947.701 Q 64.387 946.569 64.423 944.935 Q 64.460 943.301 64.251 942.555 Q 64.043 941.809 61.569 940.849 "></path>
    <path id="STROKE_638c0b07-363c-4c10-8692-753cf0d7df34" opacity="1.000" fill="none" stroke="#264649" stroke-width="2.720" stroke-opacity="1.000" stroke-linecap="round" stroke-linejoin="round" d="M 68.553 948.651 Q 68.551 949.335 68.534 949.314 Q 68.514 949.655 68.136 950.491 Q 67.508 949.952 67.520 939.933 Q 67.510 940.095 67.889 942.158 Q 68.267 944.221 69.084 946.092 Q 69.901 947.963 70.782 949.034 Q 71.663 950.105 72.533 950.688 Q 73.402 951.270 74.180 951.308 Q 74.957 951.346 75.167 950.907 Q 75.377 950.468 75.487 950.079 Q 75.596 949.691 75.664 949.514 Q 75.731 949.336 76.021 948.018 Q 76.311 946.700 76.226 944.062 Q 76.141 941.425 76.407 938.830 Q 76.958 938.903 76.869 938.934 "></path>
    <path id="STROKE_17fd5444-ec0e-4629-a4c2-1e2e7eb83faf" opacity="1.000" fill="none" stroke="#264649" stroke-width="2.720" stroke-opacity="1.000" stroke-linecap="round" stroke-linejoin="round" d="M 81.260 941.289 Q 80.501 941.466 81.598 951.095 L 81.637 951.095 Q 81.845 952.067 81.180 937.690 Q 81.004 937.677 81.575 940.147 Q 82.145 942.617 83.169 944.593 Q 84.193 946.570 85.903 948.086 Q 87.612 949.602 90.291 949.832 Q 90.559 949.366 90.880 946.388 Q 91.200 943.409 89.406 938.368 "></path>
    <path id="STROKE_46e43c1f-3861-4fe3-958b-b0e50a2a89b6" opacity="1.000" fill="none" stroke="#264649" stroke-width="2.720" stroke-opacity="1.000" stroke-linecap="round" stroke-linejoin="round" d="M 98.040 938.048 Q 98.369 938.151 98.571 938.399 Q 98.773 938.648 98.959 938.823 Q 99.145 938.998 99.152 938.934 Q 98.956 938.820 97.432 939.723 Q 95.908 940.626 94.691 942.358 Q 93.473 944.090 93.008 945.597 Q 92.543 947.104 92.493 948.216 Q 92.442 949.327 92.698 949.841 Q 92.954 950.354 93.342 950.936 Q 93.730 951.519 95.366 952.051 Q 97.003 952.584 98.352 952.603 Q 99.701 952.622 100.793 952.120 Q 101.885 951.618 102.510 949.776 "></path>
    <path id="STROKE_c3a5f7c2-a10b-4571-bd09-cc73e7517199" opacity="1.000" fill="none" stroke="#264649" stroke-width="2.720" stroke-opacity="1.000" stroke-linecap="round" stroke-linejoin="round" d="M 93.082 945.454 L 93.062 945.454 Q 92.861 945.485 93.043 946.911 Q 94.392 947.216 96.774 947.272 Q 99.156 947.329 100.438 946.895 Q 101.720 946.460 102.351 945.253 "></path>
    <path id="STROKE_e653112f-c891-4612-a359-0db6d59ce90b" opacity="1.000" fill="none" stroke="#264649" stroke-width="2.720" stroke-opacity="1.000" stroke-linecap="round" stroke-linejoin="round" d="M 96.440 940.291 Q 95.963 940.405 96.083 941.751 Q 96.310 941.879 97.805 942.005 Q 99.300 942.132 105.630 939.329 "></path>
    <path id="STROKE_4336f9e9-f287-4dcf-8292-9c59135723ee" opacity="1.000" fill="none" stroke="#264649" stroke-width="2.720" stroke-opacity="1.000" stroke-linecap="round" stroke-linejoin="round" d="M 110.186 938.362 Q 110.186 939.038 110.186 938.828 Q 110.206 939.386 110.235 939.292 Q 110.795 939.510 109.454 941.785 Q 108.114 944.059 107.258 945.569 Q 106.401 947.079 106.067 948.294 Q 105.732 949.510 105.677 950.247 Q 105.622 950.983 105.581 951.427 Q 105.539 951.871 107.140 952.134 Q 108.741 952.396 109.871 952.266 Q 111.002 952.136 111.999 951.721 Q 112.996 951.306 113.737 949.912 "></path>
    <path id="STROKE_72ef974b-7fdc-44b6-aef2-0e80ed196889" opacity="1.000" fill="none" stroke="#264649" stroke-width="2.720" stroke-opacity="1.000" stroke-linecap="round" stroke-linejoin="round" d="M 116.852 938.028 Q 116.951 938.515 117.106 938.946 Q 117.260 939.376 117.107 940.214 Q 116.955 941.052 116.615 941.619 Q 116.275 942.185 114.899 944.464 Q 113.523 946.742 112.840 947.924 Q 112.158 949.106 111.857 949.897 Q 111.556 950.687 111.484 951.619 Q 111.412 952.551 113.458 952.711 Q 115.505 952.872 117.342 952.534 Q 119.180 952.196 120.148 951.879 Q 121.116 951.562 121.820 950.307 "></path>
    <path id="STROKE_b2b8de01-f246-467d-b58e-10cd80f0421b" opacity="1.000" fill="none" stroke="#264649" stroke-width="2.720" stroke-opacity="1.000" stroke-linecap="round" stroke-linejoin="round" d="M 127.283 939.987 Q 128.016 939.723 127.831 939.789 Q 128.230 939.538 128.165 939.588 Q 128.247 939.539 128.346 939.425 Q 127.802 939.693 126.273 941.501 Q 124.744 943.308 124.034 944.948 Q 123.324 946.589 123.168 947.847 Q 123.012 949.104 123.155 950.096 Q 123.298 951.087 123.974 951.966 Q 124.650 952.845 126.362 953.064 Q 128.075 953.284 129.700 953.043 Q 131.325 952.802 132.269 952.424 Q 133.213 952.047 133.939 951.587 Q 134.665 951.128 135.153 950.405 Q 135.642 949.683 135.037 948.286 "></path>
    <path id="STROKE_d0d6b78d-482b-4d04-a320-384df6e466f2" opacity="1.000" fill="none" stroke="#264649" stroke-width="2.720" stroke-opacity="1.000" stroke-linecap="round" stroke-linejoin="round" d="M 125.989 944.869 Q 126.004 945.609 126.022 945.382 Q 126.253 945.597 127.292 945.841 Q 128.331 946.084 131.065 943.806 "></path>
    <path id="STROKE_ecc378fe-3dd3-4ac4-89b1-d751b4b00aa4" opacity="1.000" fill="none" stroke="#264649" stroke-width="2.720" stroke-opacity="1.000" stroke-linecap="round" stroke-linejoin="round" d="M 128.774 938.862 Q 128.822 939.732 130.180 939.911 Q 131.539 940.089 132.507 940.067 Q 133.475 940.045 135.465 939.575 Q 137.454 939.104 138.849 938.785 Q 140.244 938.466 141.068 937.200 "></path>
    <path id="STROKE_3634e46b-360e-4fdd-bdec-af5b5d17b812" opacity="1.000" fill="none" stroke="#264649" stroke-width="2.720" stroke-opacity="1.000" stroke-linecap="round" stroke-linejoin="round" d="M 53.999 928.443 Q 53.547 929.546 53.633 929.274 Q 53.718 929.002 53.438 930.235 Q 54.132 929.900 54.197 929.636 "></path>
    <path id="STROKE_c1968986-feaa-419b-8181-21a062ef3d83" opacity="1.000" fill="none" stroke="#f3ba38" stroke-width="2.720" stroke-opacity="1.000" stroke-linecap="round" stroke-linejoin="round" d="M -432.000 688.000 L -428.771 688.000 L -432.000 688.000 Q -427.512 688.000 -427.476 688.000 L -432.000 688.000 Q -426.504 688.000 -425.857 688.000 L -432.000 688.000 Q -424.622 688.000 -416.000 688.000 Q -407.787 688.000 -400.000 688.000 Q -391.599 688.000 -384.000 688.000 Q -375.977 688.000 -368.000 688.000 Q -359.708 688.000 -352.000 688.000 Q -343.844 688.000 -336.000 688.000 "></path>
    <path id="STROKE_c354855d-7078-47ed-92b5-d926570ba5c4" opacity="1.000" fill="none" stroke="#f3ba38" stroke-width="2.621" stroke-opacity="1.000" stroke-linecap="round" stroke-linejoin="round" d="M -334.799 691.235 Q -334.758 691.280 -334.556 691.364 Q -334.779 692.548 -335.001 692.381 Q -336.125 692.974 -341.881 698.975 Q -339.672 698.190 -339.847 698.003 Q -338.534 697.385 -336.187 695.079 Q -333.841 692.773 -331.543 690.464 Q -329.246 688.155 -329.650 686.289 Q -330.054 684.424 -335.916 683.051 Q -341.778 681.679 -349.854 678.365 "></path>
    <path id="STROKE_b6bd2198-b169-4f73-80bd-542dbad3922f" opacity="1.000" fill="none" stroke="#f3ba38" stroke-width="2.720" stroke-opacity="1.000" stroke-linecap="round" stroke-linejoin="round" d="M -422.842 679.261 Q -422.842 679.261 -423.005 679.313 Q -423.169 679.366 -422.032 679.746 Q -422.723 680.241 -425.676 682.950 Q -428.629 685.659 -430.823 688.055 Q -433.016 690.451 -433.506 693.435 Q -433.637 693.435 -429.272 694.872 Q -424.906 696.309 -419.827 699.551 "></path>
    <path id="STROKE_21e868a0-24b6-4d02-b651-eaac807ff405" opacity="1.000" fill="none" stroke="#f3ba38" stroke-width="2.720" stroke-opacity="1.000" stroke-linecap="round" stroke-linejoin="round" d="M -419.462 720.514 Q -419.872 721.008 -419.755 720.921 Q -419.638 720.833 -419.809 720.838 Q -419.981 720.842 -419.852 724.647 Q -419.723 728.452 -418.934 735.451 Q -418.934 735.333 -419.066 734.820 "></path>
    <path id="STROKE_3e5ae3f5-a748-4377-9121-864f64f8fb33" opacity="1.000" fill="none" stroke="#f3ba38" stroke-width="2.720" stroke-opacity="1.000" stroke-linecap="round" stroke-linejoin="round" d="M -428.575 721.812 Q -428.458 721.690 -426.625 719.678 Q -424.791 717.667 -422.701 716.508 Q -420.612 715.348 -419.578 714.833 Q -418.545 714.318 -416.512 714.042 Q -414.478 713.767 -412.965 713.905 Q -411.452 714.042 -410.401 714.462 Q -409.351 714.883 -408.619 715.496 Q -407.888 716.110 -407.607 716.799 Q -407.326 717.488 -407.424 718.161 Q -407.522 718.833 -407.768 719.164 Q -408.013 719.494 -408.722 720.370 Q -409.430 721.246 -411.981 722.611 Q -414.531 723.976 -416.316 724.738 Q -418.101 725.500 -421.489 726.292 "></path>
    <path id="STROKE_8930fb4a-004d-4a0a-9c59-2037e4ad0b1f" opacity="1.000" fill="none" stroke="#f3ba38" stroke-width="2.720" stroke-opacity="1.000" stroke-linecap="round" stroke-linejoin="round" d="M -410.019 733.325 Q -410.290 733.098 -410.240 733.288 Q -410.190 733.478 -410.450 732.952 Q -410.709 732.425 -410.734 730.945 Q -410.758 729.465 -410.338 728.127 Q -409.917 726.790 -408.182 725.792 Q -407.715 726.252 -407.783 727.896 Q -407.851 729.540 -407.607 730.638 Q -407.363 731.737 -407.052 732.476 Q -406.741 733.216 -406.438 733.521 Q -406.135 733.827 -405.641 734.101 Q -405.148 734.376 -404.180 734.474 Q -403.212 734.573 -401.851 734.178 Q -400.490 733.783 -399.149 732.589 Q -397.808 731.394 -396.980 730.278 Q -396.152 729.163 -396.193 727.167 Q -397.208 726.722 -398.874 727.392 Q -400.540 728.063 -401.468 729.152 Q -402.395 730.241 -402.921 731.167 Q -403.446 732.093 -403.258 733.214 Q -403.070 734.334 -400.704 734.735 Q -398.338 735.136 -396.507 735.130 Q -394.677 735.125 -393.292 734.724 Q -391.908 734.324 -390.943 733.527 Q -389.978 732.730 -389.082 731.533 "></path>
    <path id="STROKE_33ab62b4-af9b-49c6-be47-d47f646390cd" opacity="1.000" fill="none" stroke="#f3ba38" stroke-width="2.720" stroke-opacity="1.000" stroke-linecap="round" stroke-linejoin="round" d="M -399.851 721.447 Q -398.660 721.476 -398.804 721.434 Q -398.948 721.392 -398.419 721.054 Q -397.889 720.717 -395.410 718.129 "></path>
    <path id="STROKE_a1e59053-74aa-4037-8316-49d4f01fe4a4" opacity="1.000" fill="none" stroke="#f3ba38" stroke-width="2.720" stroke-opacity="1.000" stroke-linecap="round" stroke-linejoin="round" d="M -385.374 726.490 Q -385.776 726.566 -385.654 726.552 Q -385.687 726.570 -385.901 726.620 Q -385.901 726.638 -385.901 726.719 Q -385.885 726.719 -385.868 726.719 Q -385.896 726.888 -379.211 726.422 "></path>
    <path id="STROKE_02528472-c47d-4c12-a9a1-ef4adfb208b3" opacity="1.000" fill="none" stroke="#f3ba38" stroke-width="2.720" stroke-opacity="1.000" stroke-linecap="round" stroke-linejoin="round" d="M -374.242 717.764 Q -374.763 717.142 -374.226 732.994 Q -373.872 733.092 -373.517 731.168 "></path>
    <path id="STROKE_90c314d9-345c-42d4-aa60-8544f285d4bb" opacity="1.000" fill="none" stroke="#f3ba38" stroke-width="2.720" stroke-opacity="1.000" stroke-linecap="round" stroke-linejoin="round" d="M -376.459 718.623 Q -376.263 718.206 -376.277 718.277 Q -375.864 717.759 -375.931 717.844 Q -375.840 717.856 -375.219 717.039 Q -374.598 716.222 -373.218 716.738 Q -371.838 717.254 -371.023 717.964 Q -370.208 718.674 -369.996 718.812 Q -369.784 718.951 -368.389 720.167 Q -366.994 721.383 -366.102 722.706 Q -365.210 724.029 -364.930 725.318 Q -364.651 726.607 -364.861 727.520 Q -365.071 728.434 -365.435 729.174 Q -365.798 729.914 -366.672 730.958 Q -367.545 732.002 -368.286 732.346 Q -369.027 732.690 -369.998 732.968 Q -370.970 733.246 -371.380 733.148 Q -371.791 733.050 -372.005 732.524 Q -372.219 731.997 -372.249 731.478 Q -372.279 730.960 -371.664 730.158 Q -371.049 729.356 -369.008 729.116 Q -366.967 728.876 -365.717 728.889 Q -364.466 728.903 -363.710 728.895 Q -362.954 728.886 -362.633 728.911 Q -362.312 728.936 -361.169 728.582 Q -360.027 728.229 -359.072 727.478 Q -358.116 726.727 -357.825 725.811 Q -357.534 724.895 -357.536 724.516 Q -357.537 724.136 -357.687 723.702 Q -357.836 723.267 -358.550 723.118 Q -359.264 722.969 -359.822 723.047 Q -360.380 723.125 -361.318 723.775 Q -362.257 724.425 -362.966 725.823 Q -363.676 727.220 -363.903 728.161 Q -364.131 729.103 -364.143 729.753 Q -364.154 730.404 -364.131 731.310 Q -364.108 732.216 -363.751 732.775 Q -363.394 733.334 -363.117 733.602 Q -362.840 733.870 -362.039 734.149 Q -361.238 734.428 -360.195 734.311 Q -359.152 734.194 -357.950 733.062 Q -356.747 731.930 -355.854 730.632 Q -354.961 729.334 -354.062 727.840 Q -353.163 726.345 -352.493 724.413 Q -351.822 722.481 -351.530 719.962 Q -351.238 717.443 -351.309 715.413 Q -351.380 713.382 -351.663 712.284 Q -351.945 711.187 -352.224 710.466 Q -352.503 709.745 -353.282 709.135 Q -354.061 708.525 -354.954 709.472 Q -355.846 710.418 -356.194 712.286 Q -356.542 714.155 -356.532 716.924 Q -356.523 719.693 -356.260 721.922 Q -355.998 724.152 -355.505 726.014 Q -355.012 727.876 -354.446 728.911 Q -353.880 729.946 -353.474 730.467 Q -353.068 730.987 -352.386 731.114 Q -351.703 731.241 -350.617 731.035 Q -349.530 730.829 -348.705 729.498 Q -347.879 728.166 -347.671 726.934 Q -347.463 725.703 -347.492 725.128 Q -347.522 724.553 -347.610 724.075 Q -347.697 723.597 -348.350 723.435 Q -349.003 723.272 -349.876 723.818 Q -350.749 724.363 -351.483 725.601 Q -352.217 726.838 -352.366 728.239 Q -352.514 729.641 -352.490 730.438 Q -352.465 731.234 -352.156 731.921 Q -351.846 732.608 -351.188 732.790 Q -350.529 732.972 -349.944 733.028 Q -349.359 733.083 -348.455 732.366 Q -347.551 731.649 -346.656 729.812 Q -345.760 727.974 -345.700 725.408 Q -345.687 725.254 -346.027 725.545 Q -346.367 725.836 -346.383 726.107 Q -346.399 726.377 -346.611 727.461 Q -346.823 728.544 -346.833 729.700 Q -346.843 730.856 -346.889 731.427 Q -346.936 731.997 -346.462 732.581 Q -345.987 733.166 -344.972 732.958 Q -343.957 732.750 -342.808 731.299 Q -341.660 729.848 -340.352 726.657 Q -340.273 726.572 -340.581 728.324 Q -340.889 730.076 -340.904 730.993 Q -340.919 731.911 -340.727 732.576 Q -340.536 733.241 -340.264 733.536 Q -339.993 733.830 -339.856 733.901 Q -339.720 733.972 -339.274 734.216 Q -338.828 734.460 -338.245 734.184 Q -337.663 733.908 -337.434 733.637 Q -337.205 733.365 -336.977 733.012 Q -336.749 732.659 -336.579 732.307 Q -336.410 731.955 -336.076 731.366 "></path>
    <path id="STROKE_566bbd60-e92a-4d9e-baf8-ed15a869865e" opacity="1.000" fill="none" stroke="#f3ba38" stroke-width="2.720" stroke-opacity="1.000" stroke-linecap="round" stroke-linejoin="round" d="M -337.765 717.294 Q -337.828 717.259 -338.045 718.920 Q -338.012 718.920 -337.847 718.904 Q -337.757 718.898 -337.962 718.555 "></path>
    <path id="STROKE_d962250f-1a4b-4329-adcb-f0c08d48cb4a" opacity="1.000" fill="none" stroke="#f3ba38" stroke-width="2.720" stroke-opacity="1.000" stroke-linecap="round" stroke-linejoin="round" d="M -362.179 715.076 Q -361.342 715.894 -359.563 714.061 Q -357.783 712.227 -354.862 709.366 "></path>
  </g>
</svg>