<?xml version="1.0" encoding="UTF-8" standalone="yes"?>
<svg xmlns="http://www.w3.org/2000/svg" xmlns:xlink="http://www.w3.org/1999/xlink" width="1210.149pt" height="531.553pt" version="1.1" viewBox="-553.733 498.276 1210.149 531.553">
  <!--
	Exported with Concepts: Smarter Sketching
	Version: 1505 on iOS 15.3
	https://concepts.app/
	-->
  <title>6098C986-07A0-4107-93C0-7CF0A56DD472</title>
  <desc>Drawing exported from Concepts: Smarter Sketching</desc>
  <defs></defs>
  <g id="Stylo" opacity="1.000">
    <path id="STROKE_1f79dd8b-9261-4225-a8f1-c37482c8fdea" opacity="1.000" fill="none" stroke="#171612" stroke-width="2.459" stroke-opacity="1.000" stroke-linecap="round" stroke-linejoin="round" d="M -512.000 517.161 Q -512.000 517.100 -512.000 516.890 Q -512.000 517.297 -512.000 517.619 L -512.000 512.000 L -512.000 518.422 L -512.000 512.000 Q -512.000 519.621 -512.000 528.000 Q -512.000 537.271 -512.000 544.000 Q -512.000 553.993 -512.000 560.000 Q -512.000 569.455 -512.000 576.000 Q -512.000 586.116 -512.000 592.000 Q -512.000 600.057 -512.000 608.000 Q -512.000 616.582 -512.000 624.000 Q -512.000 633.367 -512.000 640.000 Q -512.000 649.298 -512.000 656.000 Q -512.000 664.426 -512.000 672.000 Q -512.000 681.483 -512.000 688.000 Q -512.000 697.476 -512.000 704.000 Q -512.000 712.419 -512.000 720.000 Q -512.000 728.808 -512.000 736.000 Q -512.000 746.062 -512.000 752.000 Q -512.000 761.857 -512.000 768.000 Q -512.000 776.194 -512.000 784.000 Q -512.000 792.855 -512.000 800.000 Q -512.000 808.984 -512.000 816.000 Q -512.000 824.310 -512.000 832.000 Q -512.000 840.440 -512.000 848.000 Q -512.000 856.099 -512.000 864.000 Q -512.000 872.896 -512.000 880.000 Q -512.000 888.753 -512.000 896.000 Q -512.000 904.277 -512.000 912.000 Q -512.000 920.814 -512.000 928.000 Q -512.000 936.672 -512.000 944.000 Q -512.000 952.072 -512.000 960.000 L -512.000 953.864 Q -512.000 953.988 -512.000 960.000 Q -503.945 960.000 -496.000 960.000 L -503.615 960.000 Q -502.106 960.000 -504.489 960.000 Q -503.755 960.000 -496.000 960.000 Q -487.779 960.000 -480.000 960.000 Q -470.755 960.000 -464.000 960.000 Q -454.259 960.000 -448.000 960.000 Q -439.873 960.000 -432.000 960.000 Q -423.641 960.000 -416.000 960.000 Q -406.749 960.000 -400.000 960.000 Q -391.901 960.000 -384.000 960.000 Q -375.735 960.000 -368.000 960.000 Q -359.634 960.000 -352.000 960.000 Q -342.937 960.000 -336.000 960.000 Q -327.170 960.000 -320.000 960.000 Q -310.476 960.000 -304.000 960.000 Q -294.507 960.000 -288.000 960.000 Q -278.258 960.000 -272.000 960.000 Q -261.697 960.000 -256.000 960.000 Q -245.926 960.000 -240.000 960.000 Q -231.819 960.000 -224.000 960.000 Q -215.389 960.000 -208.000 960.000 Q -199.486 960.000 -192.000 960.000 Q -183.847 960.000 -176.000 960.000 Q -166.017 960.000 -160.000 960.000 Q -151.146 960.000 -144.000 960.000 Q -135.678 960.000 -128.000 960.000 Q -119.000 960.000 -112.000 960.000 Q -101.747 960.000 -96.000 960.000 Q -86.239 960.000 -80.000 960.000 Q -71.194 960.000 -64.000 960.000 Q -54.500 960.000 -48.000 960.000 Q -38.531 960.000 -32.000 960.000 Q -21.574 960.000 -16.000 960.000 Q -6.726 960.000 0.000 960.000 Q 9.441 960.000 16.000 960.000 Q 24.882 960.000 32.000 960.000 Q 40.785 960.000 48.000 960.000 Q 58.665 960.000 64.000 960.000 Q 72.722 960.000 80.000 960.000 Q 89.679 960.000 96.000 960.000 Q 105.029 960.000 112.000 960.000 Q 122.737 960.000 128.000 960.000 Q 137.651 960.000 144.000 960.000 Q 152.850 960.000 160.000 960.000 Q 169.391 960.000 176.000 960.000 Q 184.239 960.000 192.000 960.000 Q 201.068 960.000 208.000 960.000 Q 217.001 960.000 224.000 960.000 Q 232.408 960.000 240.000 960.000 Q 248.640 960.000 256.000 960.000 Q 264.082 960.000 272.000 960.000 Q 281.009 960.000 288.000 960.000 Q 296.414 960.000 304.000 960.000 Q 312.713 960.000 320.000 960.000 Q 328.615 960.000 336.000 960.000 Q 344.650 960.000 352.000 960.000 Q 360.421 960.000 368.000 960.000 Q 377.312 960.000 384.000 960.000 Q 392.556 960.000 400.000 960.000 Q 408.788 960.000 416.000 960.000 Q 424.163 960.000 432.000 960.000 Q 440.396 960.000 448.000 960.000 L 448.792 960.000 "></path>
    <path id="STROKE_9a7933a4-68ee-49a2-9908-4e98ef14735b" opacity="1.000" fill="none" stroke="#171612" stroke-width="2.390" stroke-opacity="1.000" stroke-linecap="round" stroke-linejoin="round" d="M -510.438 515.097 Q -510.471 514.696 -510.305 513.904 Q -510.140 513.111 -510.041 512.898 Q -509.943 512.685 -510.035 512.808 Q -510.126 512.930 -509.779 512.650 Q -508.894 512.672 -513.840 519.565 Q -518.785 526.458 -527.478 536.467 Q -527.628 536.140 -523.358 530.238 "></path>
    <path id="STROKE_ff219b3c-8e79-4088-b2dd-0a9759164406" opacity="1.000" fill="none" stroke="#171612" stroke-width="2.720" stroke-opacity="1.000" stroke-linecap="round" stroke-linejoin="round" d="M -509.911 512.181 Q -508.646 512.375 -509.087 512.415 Q -509.098 512.839 -507.962 517.445 Q -506.827 522.051 -505.624 524.799 Q -504.421 527.548 -503.050 529.896 Q -501.679 532.243 -500.314 533.801 Q -498.950 535.358 -495.804 534.552 "></path>
    <path id="STROKE_d51e97b6-6f62-45d9-9f09-1fd2094beab0" opacity="1.000" fill="none" stroke="#171612" stroke-width="2.720" stroke-opacity="1.000" stroke-linecap="round" stroke-linejoin="round" d="M -511.637 960.087 Q -511.637 960.087 -511.637 960.079 Q -511.637 960.070 -511.637 959.900 Q -512.081 959.768 -518.029 966.482 Q -518.029 966.465 -517.918 966.004 "></path>
    <path id="STROKE_cf3569b4-4fe4-4940-b84b-886545eb965d" opacity="1.000" fill="none" stroke="#171612" stroke-width="2.720" stroke-opacity="1.000" stroke-linecap="round" stroke-linejoin="round" d="M -532.329 973.965 Q -532.298 974.203 -532.493 973.628 Q -532.687 973.053 -533.395 972.990 Q -534.102 972.926 -534.585 972.982 Q -535.069 973.038 -536.059 973.776 Q -537.049 974.515 -538.084 976.064 Q -539.119 977.614 -539.573 979.186 Q -540.026 980.758 -540.010 982.230 Q -539.994 983.702 -539.847 984.466 Q -539.699 985.230 -539.086 986.125 Q -538.473 987.019 -537.416 987.413 Q -536.359 987.806 -535.220 987.617 Q -534.082 987.427 -533.157 986.462 Q -532.232 985.496 -531.763 984.089 Q -531.295 982.681 -531.165 981.392 Q -531.035 980.103 -531.701 978.604 Q -532.366 977.106 -533.247 975.962 Q -534.127 974.818 -535.516 974.408 "></path>
    <path id="STROKE_ff4db834-98cc-4220-84da-a47151858cc9" opacity="1.000" fill="none" stroke="#171612" stroke-width="2.720" stroke-opacity="1.000" stroke-linecap="round" stroke-linejoin="round" d="M -448.000 960.000 L -448.000 968.246 "></path>
    <circle id="STROKE_867fc58e-69e0-4230-b5de-582bc6734d15" opacity="1.000" fill="#171612" stroke="#171612" stroke-width="0.1" stroke-opacity="1.000" fill-opacity="1.000" cx="448.000" cy="960.000" r="1.360"></circle>
    <path id="STROKE_ef211a0b-83fa-4957-8524-b2f231e0b342" opacity="1.000" fill="none" stroke="#171612" stroke-width="2.720" stroke-opacity="1.000" stroke-linecap="round" stroke-linejoin="round" d="M 432.000 960.000 Q 440.516 960.000 448.000 960.000 Q 456.282 960.000 464.000 960.000 Q 472.073 960.000 480.000 960.000 Q 488.418 960.000 496.000 960.000 Q 504.016 960.000 512.000 960.000 Q 520.457 960.000 528.000 960.000 Q 536.440 960.000 544.000 960.000 Q 552.592 960.000 560.000 960.000 Q 568.576 960.000 576.000 960.000 Q 584.054 960.000 592.000 960.000 Q 600.302 960.000 608.000 960.000 Q 616.574 960.000 624.000 960.000 Q 632.245 960.000 640.000 960.000 "></path>
    <circle id="STROKE_86e330ef-9049-4854-a314-8047e560d62b" opacity="1.000" fill="#171612" stroke="#171612" stroke-width="0.1" stroke-opacity="1.000" fill-opacity="1.000" cx="639.707" cy="958.307" r="1.360"></circle>
    <path id="STROKE_6e7615a9-22a4-4921-9497-d58e035f609b" opacity="1.000" fill="none" stroke="#171612" stroke-width="2.312" stroke-opacity="1.000" stroke-linecap="round" stroke-linejoin="round" d="M 640.092 958.686 Q 638.996 958.005 642.403 961.701 Q 644.423 959.196 616.189 943.756 "></path>
    <path id="STROKE_4e43719c-a498-4857-9c66-1691bcb7a627" opacity="1.000" fill="none" stroke="#171612" stroke-width="2.149" stroke-opacity="1.000" stroke-linecap="round" stroke-linejoin="round" d="M 642.692 959.174 Q 642.764 960.347 642.513 963.270 Q 642.262 966.193 637.080 968.802 Q 631.899 971.411 628.498 972.800 Q 625.098 974.189 622.895 975.022 Q 620.693 975.854 616.574 977.498 "></path>
    <circle id="STROKE_532399c7-a904-4c95-a1dc-4404bb340b72" opacity="1.000" fill="#171612" stroke="#171612" stroke-width="0.1" stroke-opacity="1.000" fill-opacity="1.000" cx="-320.000" cy="960.000" r="1.360"></circle>
    <circle id="STROKE_396d76b2-c4e5-4550-a411-7be034dade2d" opacity="1.000" fill="#171612" stroke="#171612" stroke-width="0.1" stroke-opacity="1.000" fill-opacity="1.000" cx="-320.000" cy="960.000" r="1.360"></circle>
    <path id="STROKE_ed92afe9-5a78-4965-9fc0-3be665908b59" opacity="1.000" fill="none" stroke="#171612" stroke-width="2.720" stroke-opacity="1.000" stroke-linecap="round" stroke-linejoin="round" d="M -320.000 960.000 L -320.000 962.845 L -320.000 960.000 Q -320.000 963.193 -320.000 963.620 L -320.000 960.000 Q -320.000 963.957 -320.000 965.556 Q -320.000 965.152 -320.000 960.000 Q -320.000 960.747 -320.000 966.226 L -320.000 960.000 Q -320.000 966.967 -320.000 967.499 Q -320.000 967.387 -320.000 960.000 "></path>
    <path id="STROKE_3a928e50-3166-470e-b634-a528dc72ce0d" opacity="1.000" fill="none" stroke="#171612" stroke-width="2.720" stroke-opacity="1.000" stroke-linecap="round" stroke-linejoin="round" d="M -192.000 960.000 Q -192.000 961.646 -192.000 967.952 Q -192.000 967.919 -192.000 960.000 "></path>
    <path id="STROKE_a4dd9fd6-66b5-4cc4-a864-0fd5181a08ca" opacity="1.000" fill="none" stroke="#171612" stroke-width="2.720" stroke-opacity="1.000" stroke-linecap="round" stroke-linejoin="round" d="M -64.000 960.000 Q -64.000 960.231 -64.000 967.919 L -64.000 967.499 "></path>
    <path id="STROKE_e7825d57-65a7-4474-a3ee-ef781f7820b1" opacity="1.000" fill="none" stroke="#171612" stroke-width="2.720" stroke-opacity="1.000" stroke-linecap="round" stroke-linejoin="round" d="M 64.000 960.000 Q 64.000 962.025 64.000 965.341 "></path>
    <path id="STROKE_f52327c2-df51-4222-b705-9e9417c0f9ee" opacity="1.000" fill="none" stroke="#171612" stroke-width="2.720" stroke-opacity="1.000" stroke-linecap="round" stroke-linejoin="round" d="M 192.000 960.000 L 192.000 961.567 L 192.000 960.000 Q 192.000 961.886 192.000 966.542 "></path>
    <path id="STROKE_be0e3c40-69f2-4d0c-8cea-d8637a8e80e8" opacity="1.000" fill="none" stroke="#171612" stroke-width="2.720" stroke-opacity="1.000" stroke-linecap="round" stroke-linejoin="round" d="M 320.000 960.103 L 320.000 960.000 L 320.000 961.728 L 320.000 960.000 L 320.000 962.328 L 320.000 960.000 L 320.000 962.958 L 320.000 960.000 L 320.000 963.589 L 320.000 960.000 Q 320.000 964.019 320.000 965.745 "></path>
    <circle id="STROKE_28c789c4-89eb-42c9-80f2-d5211d0f43fd" opacity="1.000" fill="#171612" stroke="#171612" stroke-width="0.1" stroke-opacity="1.000" fill-opacity="1.000" cx="448.000" cy="960.000" r="1.360"></circle>
    <path id="STROKE_a56d9a92-cedb-4bb4-9a27-1029ef877c14" opacity="1.000" fill="none" stroke="#171612" stroke-width="2.720" stroke-opacity="1.000" stroke-linecap="round" stroke-linejoin="round" d="M 448.000 960.000 Q 448.000 960.771 448.000 966.217 "></path>
    <path id="STROKE_994ee048-499d-4d3a-9453-501d11bc878a" opacity="1.000" fill="none" stroke="#171612" stroke-width="2.720" stroke-opacity="1.000" stroke-linecap="round" stroke-linejoin="round" d="M 576.000 960.021 Q 576.000 961.349 576.000 962.802 L 576.000 960.000 Q 576.000 963.738 576.000 967.204 "></path>
    <path id="STROKE_c7b68073-00cb-4be3-8dda-666ea5df4a2a" opacity="1.000" fill="none" stroke="#171612" stroke-width="2.681" stroke-opacity="1.000" stroke-linecap="round" stroke-linejoin="round" d="M -460.007 987.348 Q -460.864 986.922 -460.568 987.051 Q -461.025 986.058 -461.018 986.260 Q -461.011 986.462 -461.599 984.974 Q -462.187 983.486 -462.237 982.393 Q -462.287 981.300 -462.218 980.543 Q -462.150 979.787 -461.427 979.556 Q -460.704 979.325 -459.583 980.476 Q -458.462 981.626 -457.985 983.932 Q -457.509 986.238 -457.417 988.144 Q -457.325 990.050 -458.208 992.379 Q -459.091 994.708 -460.039 996.271 Q -460.987 997.834 -462.683 999.977 Q -464.378 1002.121 -465.673 1003.534 Q -466.968 1004.948 -469.641 1005.266 Q -470.062 1005.130 -470.045 1003.983 Q -470.028 1002.836 -469.762 1002.238 Q -469.495 1001.640 -469.052 1000.920 Q -468.609 1000.200 -467.636 999.441 Q -466.662 998.683 -465.520 998.355 Q -464.377 998.026 -463.438 998.227 Q -462.500 998.428 -461.890 1000.544 Q -461.280 1002.660 -461.031 1003.792 Q -460.782 1004.923 -460.396 1005.690 Q -460.010 1006.456 -459.847 1006.606 Q -459.684 1006.756 -459.154 1006.905 Q -458.625 1007.054 -457.530 1007.115 Q -456.436 1007.176 -454.756 1005.876 Q -453.077 1004.576 -451.647 1003.090 Q -450.218 1001.603 -449.677 1000.476 Q -449.135 999.349 -449.038 998.655 Q -448.940 997.962 -449.128 997.402 Q -449.316 996.842 -451.005 996.475 Q -452.693 996.109 -454.066 996.724 Q -455.440 997.340 -456.599 998.164 Q -457.758 998.989 -458.225 1000.231 Q -458.692 1001.473 -459.003 1002.738 Q -459.315 1004.003 -458.431 1004.877 Q -457.547 1005.751 -455.971 1005.979 Q -454.395 1006.206 -452.940 1006.024 Q -451.484 1005.841 -450.343 1005.071 Q -449.202 1004.301 -448.878 1003.392 Q -448.554 1002.484 -448.357 1001.363 Q -448.159 1000.241 -449.444 998.698 Q -450.728 997.154 -453.012 995.595 "></path>
    <path id="STROKE_dd9a2202-1e03-45e0-9d59-2e0dd37937c6" opacity="1.000" fill="none" stroke="#171612" stroke-width="2.699" stroke-opacity="1.000" stroke-linecap="round" stroke-linejoin="round" d="M -327.332 987.848 Q -327.201 988.564 -327.254 988.359 Q -326.991 988.698 -329.038 988.976 Q -331.085 989.255 -332.460 989.834 Q -333.835 990.412 -334.706 990.899 Q -335.578 991.385 -335.936 991.804 Q -336.294 992.223 -336.969 993.398 Q -337.645 994.572 -336.723 996.081 Q -335.802 997.590 -335.242 998.082 Q -334.682 998.575 -333.674 999.445 Q -332.666 1000.316 -330.685 1001.516 Q -328.703 1002.715 -327.550 1003.493 Q -326.397 1004.271 -325.841 1005.257 Q -325.286 1006.242 -325.536 1006.941 Q -325.785 1007.640 -326.260 1008.117 Q -326.734 1008.594 -328.391 1009.519 Q -330.049 1010.444 -331.902 1010.781 Q -333.756 1011.118 -334.835 1011.185 Q -335.914 1011.252 -336.894 1010.870 Q -337.875 1010.488 -338.320 1009.622 Q -338.766 1008.756 -338.787 1007.130 Q -338.807 1005.504 -335.421 1002.287 Q -332.034 999.070 -329.996 997.470 Q -327.959 995.871 -327.027 995.021 Q -326.095 994.171 -325.837 993.534 Q -325.579 992.897 -325.564 992.179 Q -325.550 991.460 -327.076 990.829 Q -328.601 990.197 -332.501 989.877 "></path>
    <path id="STROKE_fca9394c-23dd-48c1-8a9d-5311aadf452f" opacity="1.000" fill="none" stroke="#171612" stroke-width="2.696" stroke-opacity="1.000" stroke-linecap="round" stroke-linejoin="round" d="M -318.896 999.834 Q -319.093 1000.147 -319.090 1000.150 Q -320.180 1000.720 -319.863 1000.524 Q -319.546 1000.328 -320.870 1000.866 Q -322.194 1001.404 -322.973 1002.017 Q -323.751 1002.630 -324.124 1003.864 Q -324.496 1005.097 -324.387 1006.147 Q -324.278 1007.197 -323.938 1007.942 Q -323.598 1008.687 -322.781 1009.584 Q -321.964 1010.482 -320.558 1010.691 Q -319.152 1010.901 -318.200 1010.866 Q -317.248 1010.830 -316.147 1009.976 Q -315.046 1009.122 -314.425 1007.366 Q -313.803 1005.609 -313.791 1004.053 Q -313.779 1002.497 -313.842 1001.579 Q -313.906 1000.662 -314.813 999.521 Q -315.721 998.381 -316.942 997.722 Q -318.163 997.062 -320.259 996.175 "></path>
    <path id="STROKE_0a794550-111d-4ff4-a43f-2ccb72963abf" opacity="1.000" fill="none" stroke="#171612" stroke-width="2.566" stroke-opacity="1.000" stroke-linecap="round" stroke-linejoin="round" d="M -215.358 1004.199 Q -214.867 1004.437 -213.383 1004.054 Q -211.898 1003.671 -210.473 1002.308 Q -209.049 1000.946 -207.299 999.107 Q -205.549 997.268 -204.181 995.042 Q -202.813 992.817 -201.874 991.267 Q -200.935 989.718 -200.445 984.138 Q -201.751 983.697 -201.865 989.273 Q -201.980 994.849 -201.864 998.018 Q -201.747 1001.188 -201.765 1003.095 Q -201.783 1005.003 -202.746 1006.916 Q -202.801 1006.916 -202.838 1006.895 Q -202.986 1006.546 -202.469 1005.648 "></path>
    <path id="STROKE_68186228-b49e-4d02-a71d-e5d9b836351f" opacity="1.000" fill="none" stroke="#171612" stroke-width="2.720" stroke-opacity="1.000" stroke-linecap="round" stroke-linejoin="round" d="M -184.267 987.264 Q -184.256 987.221 -183.574 987.343 Q -183.888 988.024 -183.981 987.863 Q -184.651 988.083 -186.989 989.831 Q -189.326 991.579 -190.731 993.059 Q -192.137 994.539 -193.080 996.417 Q -194.022 998.296 -194.296 999.176 Q -194.570 1000.056 -194.727 1001.641 Q -194.884 1003.226 -194.838 1004.391 Q -194.793 1005.556 -194.480 1006.191 Q -194.168 1006.826 -193.215 1007.485 Q -192.262 1008.144 -191.070 1008.195 Q -189.878 1008.246 -188.688 1007.430 Q -187.499 1006.613 -187.009 1005.317 Q -186.519 1004.020 -186.458 1002.716 Q -186.397 1001.412 -187.690 1000.323 Q -188.983 999.233 -191.051 998.902 Q -193.118 998.572 -194.703 998.679 Q -196.287 998.787 -197.033 999.117 Q -197.779 999.447 -197.932 1000.513 Q -197.532 1000.828 -195.927 1001.331 "></path>
    <path id="STROKE_e5a673d8-a607-4ee3-bfd9-97f3454bd406" opacity="1.000" fill="none" stroke="#171612" stroke-width="2.719" stroke-opacity="1.000" stroke-linecap="round" stroke-linejoin="round" d="M -178.022 1000.069 Q -177.673 1000.063 -177.172 998.282 Q -176.719 998.483 -177.717 998.145 Q -178.715 997.806 -179.802 998.242 Q -180.890 998.678 -181.779 999.687 Q -182.668 1000.697 -182.922 1001.917 Q -183.175 1003.136 -183.292 1003.846 Q -183.410 1004.556 -182.778 1005.745 Q -182.146 1006.934 -180.591 1007.255 Q -179.037 1007.576 -177.518 1007.379 Q -175.998 1007.182 -174.991 1006.346 Q -173.984 1005.510 -173.554 1004.846 Q -173.125 1004.182 -172.938 1003.213 Q -172.751 1002.245 -172.937 1001.430 Q -173.123 1000.616 -174.782 999.590 Q -176.441 998.564 -181.366 997.353 "></path>
    <path id="STROKE_ca982e83-34f4-4b6a-b07b-bcc99c090994" opacity="1.000" fill="none" stroke="#171612" stroke-width="2.720" stroke-opacity="1.000" stroke-linecap="round" stroke-linejoin="round" d="M -79.633 986.927 Q -79.560 987.281 -79.763 985.076 Q -79.286 984.835 -77.873 984.833 Q -76.460 984.832 -75.359 985.796 Q -74.258 986.760 -74.129 987.749 Q -74.001 988.739 -74.273 990.261 Q -74.546 991.783 -79.074 994.285 Q -79.034 994.483 -77.237 996.062 Q -75.439 997.641 -74.393 998.658 Q -73.348 999.676 -72.852 1000.302 Q -72.356 1000.929 -72.209 1001.871 Q -72.062 1002.813 -72.258 1003.678 Q -72.455 1004.542 -73.908 1005.833 Q -75.362 1007.125 -77.154 1007.969 Q -78.947 1008.813 -80.353 1008.931 Q -81.760 1009.049 -82.390 1008.858 Q -83.020 1008.667 -83.220 1008.002 Q -83.419 1007.337 -82.794 1006.439 Q -82.170 1005.540 -79.857 1003.740 "></path>
    <path id="STROKE_827f1466-885b-417d-bdd8-1fb2a265dad7" opacity="1.000" fill="none" stroke="#171612" stroke-width="2.720" stroke-opacity="1.000" stroke-linecap="round" stroke-linejoin="round" d="M -63.850 988.991 Q -63.850 988.515 -63.850 988.558 Q -63.850 988.451 -63.885 988.109 Q -63.946 988.101 -64.815 988.049 Q -65.684 987.997 -66.467 988.384 Q -67.249 988.771 -68.098 989.620 Q -68.948 990.469 -69.440 991.995 Q -69.932 993.521 -69.399 994.693 Q -68.865 995.865 -68.131 996.713 Q -67.398 997.562 -66.229 998.729 Q -65.061 999.896 -63.936 1000.759 Q -62.811 1001.623 -62.136 1002.159 Q -61.460 1002.696 -60.719 1004.130 Q -59.979 1005.564 -61.089 1005.997 Q -62.199 1006.430 -63.204 1006.349 Q -64.208 1006.268 -64.885 1006.263 Q -65.563 1006.258 -66.642 1005.524 Q -67.721 1004.791 -68.186 1003.600 Q -68.650 1002.409 -68.803 1001.140 Q -68.956 999.871 -66.987 997.987 Q -65.018 996.102 -63.569 994.891 Q -62.120 993.681 -61.464 992.902 Q -60.809 992.123 -60.520 991.027 Q -60.231 989.932 -60.948 988.902 Q -61.665 987.873 -64.815 988.052 "></path>
    <path id="STROKE_f634f82c-9bb9-473c-9ba8-f63303977e14" opacity="1.000" fill="none" stroke="#171612" stroke-width="2.720" stroke-opacity="1.000" stroke-linecap="round" stroke-linejoin="round" d="M -51.775 998.489 Q -51.888 998.484 -51.398 998.533 Q -50.908 998.581 -50.748 998.216 Q -50.589 997.851 -50.550 997.535 Q -50.511 997.218 -51.348 996.877 Q -52.184 996.537 -53.398 996.755 Q -54.612 996.973 -55.557 997.808 Q -56.503 998.644 -56.909 1000.100 Q -57.315 1001.557 -57.195 1002.781 Q -57.074 1004.004 -56.341 1005.045 Q -55.608 1006.086 -54.619 1006.503 Q -53.631 1006.920 -52.478 1007.035 Q -51.325 1007.150 -50.233 1006.524 Q -49.142 1005.898 -48.459 1004.464 Q -47.777 1003.030 -47.537 1001.959 Q -47.298 1000.888 -47.627 999.540 Q -47.955 998.192 -49.534 997.109 Q -51.113 996.027 -54.215 995.540 "></path>
    <path id="STROKE_bcdc65b5-570c-47d6-8d79-25bc4858cf9f" opacity="1.000" fill="none" stroke="#171612" stroke-width="2.693" stroke-opacity="1.000" stroke-linecap="round" stroke-linejoin="round" d="M 43.502 987.442 Q 43.502 987.442 43.551 987.527 Q 43.600 987.611 43.571 987.610 Q 43.543 987.609 43.470 987.634 Q 43.396 987.659 43.679 987.806 Q 43.962 987.953 44.601 987.908 Q 45.240 987.863 45.158 987.941 Q 45.075 988.019 47.009 987.387 Q 48.944 986.755 50.025 986.396 Q 51.107 986.036 52.462 985.728 Q 53.816 985.419 54.039 986.850 Q 54.261 988.281 54.082 989.609 Q 53.903 990.937 53.669 992.322 Q 53.436 993.707 49.570 1005.762 Q 49.274 1005.909 50.866 1002.022 "></path>
    <path id="STROKE_51413532-9f27-4503-ac77-5274ac33cd8b" opacity="1.000" fill="none" stroke="#171612" stroke-width="2.720" stroke-opacity="1.000" stroke-linecap="round" stroke-linejoin="round" d="M 46.263 996.257 Q 46.263 996.257 46.255 996.297 Q 46.248 996.338 46.582 996.560 Q 46.917 996.783 57.355 996.833 Q 57.391 996.944 57.409 997.055 "></path>
    <path id="STROKE_c427ba32-bf96-4d94-8586-ace1c54fcf11" opacity="1.000" fill="none" stroke="#171612" stroke-width="2.720" stroke-opacity="1.000" stroke-linecap="round" stroke-linejoin="round" d="M 68.867 988.448 Q 69.084 988.231 69.493 988.145 Q 69.901 988.060 70.359 987.771 Q 70.817 987.483 70.610 986.557 Q 69.653 986.099 68.051 986.673 Q 66.448 987.248 65.010 988.466 Q 63.572 989.683 62.200 991.529 Q 60.829 993.374 60.012 995.405 Q 59.195 997.437 58.893 998.982 Q 58.592 1000.526 58.606 1001.476 Q 58.620 1002.426 58.930 1003.098 Q 59.239 1003.771 60.109 1004.119 Q 60.979 1004.466 62.149 1004.148 Q 63.319 1003.830 64.248 1003.146 Q 65.178 1002.462 65.791 1001.683 Q 66.405 1000.904 66.647 1000.281 Q 66.889 999.658 67.114 998.477 Q 67.339 997.295 66.132 996.420 Q 64.925 995.546 62.500 995.337 Q 60.074 995.128 56.577 997.014 "></path>
    <path id="STROKE_41fbc46f-521f-45ae-9795-72b0c151ccf9" opacity="1.000" fill="none" stroke="#171612" stroke-width="2.720" stroke-opacity="1.000" stroke-linecap="round" stroke-linejoin="round" d="M 75.016 998.027 Q 75.034 998.027 75.195 998.201 Q 75.035 998.176 73.889 998.108 Q 72.742 998.039 72.057 998.282 Q 71.371 998.525 70.727 999.203 Q 70.084 999.881 69.915 1000.935 Q 69.746 1001.988 69.948 1003.034 Q 70.151 1004.080 71.126 1004.895 Q 72.101 1005.709 72.980 1005.930 Q 73.860 1006.150 74.879 1006.246 Q 75.899 1006.342 76.414 1005.211 Q 76.930 1004.079 77.043 1003.025 Q 77.156 1001.971 76.643 1000.873 Q 76.129 999.776 75.609 999.044 Q 75.089 998.311 72.210 996.800 "></path>
    <path id="STROKE_2b5b3902-f8ca-4f15-b1dd-b4f5e7389c4d" opacity="1.000" fill="none" stroke="#171612" stroke-width="2.720" stroke-opacity="1.000" stroke-linecap="round" stroke-linejoin="round" d="M 171.042 1001.900 Q 170.944 1001.932 171.042 1002.181 Q 171.139 1002.430 171.571 1002.581 Q 172.002 1002.731 172.385 1002.543 Q 172.768 1002.355 173.022 1002.160 Q 173.276 1001.965 173.534 1001.742 Q 173.791 1001.520 174.011 1001.316 Q 174.230 1001.112 174.546 1000.820 Q 174.861 1000.527 175.288 1000.046 Q 175.714 999.565 176.269 999.011 Q 176.824 998.458 177.740 997.218 Q 178.656 995.978 179.365 994.794 Q 180.073 993.610 180.163 991.382 Q 180.213 991.264 179.691 991.600 Q 179.170 991.936 178.924 994.741 Q 178.677 997.546 178.736 1000.880 Q 178.795 1004.214 178.392 1007.147 Q 178.389 1006.694 179.191 1004.792 "></path>
    <path id="STROKE_a5951cbf-7c0a-4178-b356-bbf4bbd6741b" opacity="1.000" fill="none" stroke="#171612" stroke-width="2.720" stroke-opacity="1.000" stroke-linecap="round" stroke-linejoin="round" d="M 184.061 1005.021 Q 184.077 1004.982 184.028 1006.646 Q 184.188 1006.451 184.206 1006.423 Q 184.223 1006.394 184.285 1006.300 Q 184.347 1006.206 184.456 1006.053 "></path>
    <path id="STROKE_6a52bde8-10b0-4784-aeaf-8256b0c89b45" opacity="1.000" fill="none" stroke="#171612" stroke-width="2.720" stroke-opacity="1.000" stroke-linecap="round" stroke-linejoin="round" d="M 195.724 995.353 Q 195.724 995.337 196.086 995.124 Q 196.126 995.124 196.020 1008.460 Q 195.705 1008.355 196.031 1006.714 Q 196.358 1005.073 196.841 1003.907 Q 197.323 1002.741 197.100 1001.560 Q 197.150 1001.312 195.418 1001.434 Q 193.687 1001.555 192.514 1001.363 Q 191.340 1001.171 190.562 1000.826 Q 189.784 1000.481 189.278 999.774 Q 188.772 999.068 188.953 997.675 Q 189.134 996.283 190.309 994.386 Q 191.484 992.489 192.289 990.872 Q 193.095 989.254 193.396 988.107 Q 193.697 986.959 193.735 986.427 Q 193.773 985.896 193.457 985.398 Q 193.142 984.900 191.950 984.872 "></path>
    <path id="STROKE_9e6d0673-f29d-48bb-941f-3c4ac8b2fc3e" opacity="1.000" fill="none" stroke="#171612" stroke-width="2.715" stroke-opacity="1.000" stroke-linecap="round" stroke-linejoin="round" d="M 201.220 996.780 Q 201.332 996.786 202.313 997.115 Q 203.293 997.443 204.771 995.736 Q 206.249 994.029 207.321 991.805 Q 208.394 989.581 208.965 987.194 Q 209.536 984.807 209.039 982.628 Q 208.281 981.987 207.385 984.202 Q 206.490 986.418 206.262 988.852 Q 206.034 991.287 206.019 993.172 Q 206.003 995.057 206.308 996.344 Q 206.613 997.631 207.055 999.883 Q 207.497 1002.135 207.554 1004.015 Q 207.611 1005.896 207.389 1007.005 Q 207.167 1008.115 207.010 1008.549 Q 206.854 1008.983 206.306 1009.439 Q 205.758 1009.895 205.397 1008.199 Q 205.036 1006.503 205.290 1004.724 Q 205.544 1002.945 206.134 1001.648 Q 206.725 1000.352 207.103 999.826 Q 207.482 999.301 208.510 999.008 Q 209.539 998.714 210.923 999.231 Q 212.308 999.748 212.902 1000.547 Q 213.496 1001.345 213.507 1001.847 Q 213.518 1002.349 213.282 1002.729 Q 213.046 1003.109 211.695 1003.930 Q 210.344 1004.751 209.527 1005.115 Q 208.710 1005.479 208.411 1005.943 Q 208.113 1006.406 208.220 1006.752 Q 208.328 1007.097 208.462 1007.200 Q 208.596 1007.302 208.709 1007.449 Q 208.822 1007.596 209.197 1007.865 Q 209.572 1008.134 209.961 1008.326 Q 210.349 1008.518 210.559 1008.778 Q 210.768 1009.038 212.607 1009.430 Q 214.446 1009.821 216.694 1009.888 "></path>
    <path id="STROKE_a76aa135-a6df-43a9-852c-b1a124fd5b15" opacity="1.000" fill="none" stroke="#171612" stroke-width="2.720" stroke-opacity="1.000" stroke-linecap="round" stroke-linejoin="round" d="M 302.348 991.451 Q 302.329 991.451 302.127 991.527 Q 302.066 991.798 302.246 990.912 Q 302.426 990.027 303.036 989.419 Q 303.647 988.811 304.037 988.603 Q 304.427 988.395 304.771 988.334 Q 305.115 988.274 305.344 988.257 Q 305.573 988.241 305.957 988.269 Q 306.341 988.297 306.586 988.397 Q 306.832 988.497 307.159 988.683 Q 307.486 988.868 308.153 989.430 Q 308.820 989.991 309.174 990.799 Q 309.527 991.607 309.635 992.309 Q 309.743 993.010 309.333 993.924 Q 308.923 994.838 308.198 995.407 Q 307.474 995.975 306.547 996.453 Q 305.621 996.932 305.367 996.970 Q 305.112 997.009 304.882 997.298 Q 304.653 997.587 304.657 997.641 Q 304.661 997.694 304.664 997.653 Q 304.668 997.613 304.655 997.981 Q 304.641 998.349 304.854 998.554 Q 305.068 998.759 306.992 1000.061 Q 308.917 1001.363 310.313 1002.485 Q 311.710 1003.606 312.323 1004.450 Q 312.936 1005.293 313.137 1005.818 Q 313.338 1006.343 313.261 1007.383 Q 313.184 1008.424 311.620 1009.464 Q 310.056 1010.505 307.683 1010.905 Q 305.311 1011.305 303.978 1011.279 Q 302.645 1011.252 301.941 1010.945 Q 301.237 1010.638 300.939 1010.173 Q 300.641 1009.708 302.862 1008.574 "></path>
    <path id="STROKE_1a22a3e2-3182-486d-8321-a3dece2648de" opacity="1.000" fill="none" stroke="#171612" stroke-width="2.720" stroke-opacity="1.000" stroke-linecap="round" stroke-linejoin="round" d="M 318.410 1008.802 Q 318.329 1009.182 317.629 1010.503 Q 317.541 1010.630 317.785 1009.242 "></path>
    <path id="STROKE_757cb99d-f67b-42f1-ab46-3beab082b6fc" opacity="1.000" fill="none" stroke="#171612" stroke-width="2.720" stroke-opacity="1.000" stroke-linecap="round" stroke-linejoin="round" d="M 327.456 994.709 Q 326.787 995.210 326.941 995.095 Q 326.990 995.135 326.271 995.243 Q 326.209 994.604 326.234 994.637 Q 326.123 993.850 326.455 993.391 Q 326.787 992.931 327.411 992.705 Q 328.035 992.479 328.842 992.568 Q 329.649 992.658 330.272 993.397 Q 330.896 994.135 331.255 995.729 Q 331.615 997.323 331.197 999.023 Q 330.778 1000.723 329.867 1002.115 Q 328.956 1003.507 327.997 1004.616 Q 327.038 1005.726 325.353 1005.599 Q 325.210 1005.620 325.353 1004.194 Q 325.878 1004.300 326.179 1005.643 Q 326.481 1006.987 327.032 1007.708 Q 327.584 1008.429 327.937 1008.815 Q 328.289 1009.201 328.499 1009.435 Q 328.709 1009.668 328.921 1009.873 Q 329.133 1010.078 329.810 1010.253 Q 330.487 1010.427 330.933 1010.094 Q 331.379 1009.760 331.508 1009.563 Q 331.637 1009.366 331.991 1008.946 Q 332.344 1008.525 332.847 1007.872 "></path>
    <path id="STROKE_2b71a197-bf06-49d0-b855-4bb8cfcac08a" opacity="1.000" fill="none" stroke="#171612" stroke-width="2.720" stroke-opacity="1.000" stroke-linecap="round" stroke-linejoin="round" d="M 337.392 1001.363 Q 337.997 1001.266 338.190 1001.388 Q 338.383 1001.510 339.421 1001.160 Q 340.460 1000.810 341.713 998.630 Q 342.967 996.449 343.767 994.267 Q 344.568 992.085 344.778 990.385 Q 344.989 988.685 344.984 988.036 Q 344.979 987.386 344.877 986.954 Q 344.774 986.522 344.394 986.325 Q 344.013 986.128 343.586 986.138 Q 343.159 986.148 342.810 986.360 Q 342.460 986.573 342.006 987.252 Q 341.552 987.931 341.023 988.887 Q 340.495 989.844 339.895 991.835 Q 339.295 993.825 339.692 997.225 Q 340.089 1000.625 340.500 1002.766 Q 340.911 1004.906 340.956 1006.351 Q 341.002 1007.796 340.702 1008.597 Q 340.402 1009.399 339.976 1009.998 Q 339.551 1010.596 339.042 1010.814 Q 338.533 1011.031 337.941 1011.068 Q 337.349 1011.105 337.108 1010.030 Q 336.867 1008.955 336.829 1007.935 Q 336.791 1006.916 337.730 1005.421 Q 338.669 1003.925 339.596 1002.961 Q 340.523 1001.996 341.475 1001.624 Q 342.428 1001.251 343.412 1001.278 Q 344.396 1001.305 344.900 1002.049 Q 345.403 1002.794 345.479 1003.598 Q 345.554 1004.402 345.503 1004.837 Q 345.452 1005.272 345.397 1005.524 Q 345.343 1005.776 344.118 1006.752 Q 342.893 1007.727 341.926 1008.215 Q 340.958 1008.703 339.128 1010.410 Q 339.152 1010.566 342.122 1010.800 Q 345.093 1011.034 349.873 1011.426 "></path>
    <path id="STROKE_86c61d93-c147-43ff-94b8-d475f4105f53" opacity="1.000" fill="none" stroke="#171612" stroke-width="2.703" stroke-opacity="1.000" stroke-linecap="round" stroke-linejoin="round" d="M 438.192 991.858 Q 438.351 991.858 438.532 991.858 Q 438.349 991.726 436.683 992.149 Q 435.017 992.572 433.932 993.293 Q 432.848 994.014 432.519 994.475 Q 432.191 994.936 431.973 996.128 Q 431.755 997.320 434.684 999.691 Q 437.612 1002.061 439.352 1003.428 Q 441.091 1004.796 442.082 1005.811 Q 443.073 1006.825 443.379 1007.540 Q 443.685 1008.254 443.686 1009.164 Q 443.688 1010.073 442.696 1010.835 Q 441.705 1011.597 439.895 1011.836 Q 438.085 1012.076 436.791 1012.023 Q 435.497 1011.971 434.085 1011.372 Q 432.674 1010.772 431.598 1009.965 Q 430.522 1009.157 430.089 1008.255 Q 429.655 1007.354 429.606 1006.238 Q 429.557 1005.123 433.167 1003.370 Q 436.777 1001.616 438.930 1000.523 Q 441.083 999.431 442.554 998.432 Q 444.026 997.433 444.835 996.557 Q 445.643 995.681 445.906 995.091 Q 446.169 994.500 445.918 993.511 Q 445.666 992.522 442.795 991.772 Q 439.924 991.023 435.979 990.673 "></path>
    <path id="STROKE_af830b4f-58fa-430e-8c71-c4d4515f088b" opacity="1.000" fill="none" stroke="#171612" stroke-width="2.720" stroke-opacity="1.000" stroke-linecap="round" stroke-linejoin="round" d="M 451.784 1000.998 Q 451.529 1001.107 451.449 1001.310 Q 451.369 1001.513 451.380 1002.014 Q 451.635 1002.574 453.463 1000.671 Q 455.291 998.769 456.249 997.145 Q 457.206 995.520 457.735 994.304 Q 458.263 993.087 458.451 991.710 Q 458.639 990.332 458.722 989.422 Q 458.804 988.511 457.896 987.943 Q 456.988 987.375 456.066 987.807 Q 455.143 988.239 454.530 989.117 Q 453.918 989.995 453.626 992.172 Q 453.335 994.348 453.630 996.679 Q 453.926 999.011 454.511 1001.288 Q 455.097 1003.566 455.207 1005.299 Q 455.318 1007.033 455.335 1007.795 Q 455.352 1008.556 455.309 1008.928 Q 455.267 1009.300 454.896 1009.729 Q 454.525 1010.157 454.095 1009.899 Q 453.666 1009.641 453.608 1009.305 Q 453.550 1008.968 453.500 1008.729 Q 453.450 1008.490 453.483 1008.170 Q 453.515 1007.851 453.340 1007.399 Q 453.166 1006.948 453.790 1005.778 Q 454.414 1004.608 455.445 1003.689 Q 456.477 1002.769 457.600 1002.164 Q 458.723 1001.559 459.935 1001.453 Q 461.148 1001.347 461.701 1001.378 Q 462.254 1001.408 462.660 1001.577 Q 463.066 1001.746 463.409 1002.358 Q 463.752 1002.969 462.586 1003.824 Q 461.420 1004.679 460.357 1005.129 Q 459.293 1005.578 458.255 1006.039 Q 457.217 1006.501 456.650 1007.075 Q 456.084 1007.649 455.835 1008.201 Q 455.586 1008.752 464.632 1011.977 "></path>
    <path id="STROKE_10e8c7a8-8ef6-472b-b4fe-0b8314519b71" opacity="1.000" fill="none" stroke="#171612" stroke-width="2.689" stroke-opacity="1.000" stroke-linecap="round" stroke-linejoin="round" d="M 560.454 999.255 Q 559.471 999.819 559.037 999.992 Q 558.603 1000.165 558.052 999.522 Q 557.501 998.879 557.515 998.602 Q 557.529 998.325 557.401 997.299 Q 557.273 996.273 557.704 995.175 Q 558.136 994.076 559.062 993.650 Q 559.988 993.224 560.713 993.012 Q 561.437 992.801 562.341 993.481 Q 563.245 994.162 563.440 996.147 Q 563.635 998.133 562.702 1000.506 Q 561.769 1002.880 560.578 1004.980 Q 559.387 1007.081 558.030 1008.512 Q 556.673 1009.942 555.861 1010.698 Q 555.050 1011.455 554.041 1011.851 Q 553.031 1012.246 551.904 1012.201 Q 551.714 1012.113 551.902 1011.014 Q 552.091 1009.915 552.945 1009.186 Q 553.800 1008.457 554.552 1008.030 Q 555.304 1007.603 556.277 1008.837 Q 557.250 1010.071 557.870 1010.975 Q 558.491 1011.880 559.322 1012.461 Q 560.153 1013.042 561.484 1013.193 Q 562.816 1013.345 564.284 1013.046 Q 565.752 1012.748 567.290 1011.737 Q 568.828 1010.727 569.946 1009.579 Q 571.065 1008.431 571.473 1006.986 Q 571.881 1005.541 571.966 1004.610 Q 572.051 1003.679 571.897 1002.962 Q 571.743 1002.245 571.195 1002.002 Q 570.647 1001.758 569.734 1001.797 Q 568.820 1001.836 567.389 1003.205 Q 565.957 1004.574 564.952 1005.942 Q 563.946 1007.310 563.477 1008.560 Q 563.007 1009.810 562.998 1010.555 Q 562.988 1011.300 563.062 1011.875 Q 563.135 1012.451 563.783 1012.935 Q 564.432 1013.419 565.556 1013.563 Q 566.679 1013.707 567.480 1013.454 Q 568.280 1013.201 568.885 1012.814 Q 569.490 1012.428 570.031 1011.754 Q 570.572 1011.079 570.675 1010.083 Q 570.779 1009.088 570.926 1008.030 Q 571.073 1006.972 567.838 1003.622 "></path>
    <path id="STROKE_efa960f5-1acf-454e-8684-28fb04289f1b" opacity="1.000" fill="none" stroke="#171612" stroke-width="2.712" stroke-opacity="1.000" stroke-linecap="round" stroke-linejoin="round" d="M 578.362 1005.323 Q 578.263 1005.288 578.472 1007.469 Q 579.108 1007.683 580.162 1007.273 Q 581.216 1006.862 583.070 1004.517 Q 584.925 1002.171 585.759 1000.693 Q 586.592 999.215 587.370 997.553 Q 588.147 995.891 588.419 994.182 Q 588.690 992.473 588.591 991.403 Q 588.492 990.334 588.223 989.693 Q 587.955 989.053 587.562 988.760 Q 587.170 988.467 586.364 988.491 Q 585.558 988.516 584.987 989.988 Q 584.415 991.460 584.392 993.834 Q 584.370 996.207 584.502 997.517 Q 584.634 998.827 584.864 999.494 Q 585.094 1000.162 585.585 1002.141 Q 586.077 1004.121 586.260 1005.838 Q 586.444 1007.556 586.386 1008.930 Q 586.328 1010.304 585.815 1011.427 Q 585.303 1012.550 583.808 1012.962 Q 583.929 1013.140 583.643 1012.525 Q 583.358 1011.910 583.365 1011.022 Q 583.373 1010.133 583.548 1009.589 Q 583.722 1009.044 584.080 1008.452 Q 584.438 1007.859 584.829 1007.404 Q 585.221 1006.949 586.008 1006.183 Q 586.795 1005.416 588.531 1005.052 Q 590.267 1004.688 591.586 1004.729 Q 592.905 1004.769 593.550 1005.211 Q 594.195 1005.654 594.264 1006.285 Q 594.333 1006.916 593.285 1007.482 Q 592.236 1008.049 590.554 1008.723 Q 588.872 1009.396 587.370 1010.071 Q 585.868 1010.746 585.177 1012.886 Q 585.425 1013.405 595.352 1016.158 "></path>
    <path id="STROKE_df9bfc2c-7b95-427d-bb48-a2be8f22beca" opacity="1.000" fill="none" stroke="#bb3e45" stroke-width="2.720" stroke-opacity="1.000" stroke-linecap="round" stroke-linejoin="round" d="M -448.000 960.000 L -448.000 958.319 L -448.000 960.000 Q -448.000 957.096 -448.000 944.000 Q -448.000 934.811 -448.000 928.000 Q -448.000 919.859 -448.000 912.000 Q -448.000 903.817 -448.000 896.000 Q -448.000 887.452 -448.000 880.000 Q -448.000 871.208 -448.000 864.000 Q -448.000 855.610 -448.000 848.000 Q -448.000 839.669 -448.000 832.000 Q -448.000 823.628 -448.000 816.000 Q -448.000 807.808 -448.000 800.000 Q -448.000 790.797 -448.000 784.000 Q -448.000 775.421 -448.000 768.000 Q -448.000 759.924 -448.000 752.000 Q -448.000 742.914 -448.000 736.000 Q -448.000 727.961 -448.000 720.000 Q -448.000 711.597 -448.000 704.000 "></path>
    <path id="STROKE_5238f3d7-eef2-453d-8ce8-9d010ce7f26d" opacity="1.000" fill="none" stroke="#bb3e45" stroke-width="2.720" stroke-opacity="1.000" stroke-linecap="round" stroke-linejoin="round" d="M -448.000 704.000 L -445.755 704.000 L -448.000 704.000 Q -445.195 704.000 -432.000 704.000 Q -422.913 704.000 -416.000 704.000 Q -407.874 704.000 -400.000 704.000 Q -391.435 704.000 -384.000 704.000 Q -375.534 704.000 -368.000 704.000 Q -359.311 704.000 -352.000 704.000 Q -343.518 704.000 -336.000 704.000 Q -327.940 704.000 -320.000 704.000 "></path>
    <path id="STROKE_0bbc46e3-6566-4c3b-8ce6-847c4ed037f6" opacity="1.000" fill="none" stroke="#bb3e45" stroke-width="2.651" stroke-opacity="1.000" stroke-linecap="round" stroke-linejoin="round" d="M -320.000 707.379 Q -320.000 709.379 -320.000 709.115 Q -320.000 709.845 -320.000 720.000 Q -320.000 729.374 -320.000 736.000 Q -320.000 746.061 -320.000 752.000 Q -320.000 761.437 -320.000 768.000 Q -320.000 777.580 -320.000 784.000 Q -320.000 792.976 -320.000 800.000 Q -320.000 809.442 -320.000 816.000 Q -320.000 824.939 -320.000 832.000 Q -320.000 841.082 -320.000 848.000 Q -320.000 857.124 -320.000 864.000 Q -320.000 872.500 -320.000 880.000 Q -320.000 888.764 -320.000 896.000 Q -320.000 904.584 -320.000 912.000 Q -320.000 920.504 -320.000 928.000 Q -320.000 936.324 -320.000 944.000 "></path>
    <path id="STROKE_d21ccb6d-d4a4-4e6e-9f72-9863be31879f" opacity="1.000" fill="none" stroke="#bb3e45" stroke-width="2.720" stroke-opacity="1.000" stroke-linecap="round" stroke-linejoin="round" d="M -320.000 937.515 L -320.000 944.000 Q -320.000 952.043 -320.000 960.000 "></path>
    <path id="STROKE_4705830c-c021-472d-aa3b-a29ee5a1c87f" opacity="1.000" fill="none" stroke="#f9642d" stroke-width="2.690" stroke-opacity="1.000" stroke-linecap="round" stroke-linejoin="round" d="M -192.000 960.000 Q -192.000 950.732 -192.000 944.000 Q -192.000 935.134 -192.000 928.000 Q -192.000 918.991 -192.000 912.000 Q -192.000 903.918 -192.000 896.000 Q -192.000 887.997 -192.000 880.000 Q -192.000 871.854 -192.000 864.000 Q -192.000 855.388 -192.000 848.000 Q -192.000 839.992 -192.000 832.000 Q -192.000 823.305 -192.000 816.000 Q -192.000 806.960 -192.000 800.000 Q -192.000 791.342 -192.000 784.000 Q -192.000 775.522 -192.000 768.000 Q -192.000 759.500 -192.000 752.000 Q -192.000 743.136 -192.000 736.000 Q -192.000 727.638 -192.000 720.000 Q -192.000 711.597 -192.000 704.000 Q -200.089 704.000 -208.000 704.000 Q -216.851 704.000 -224.000 704.000 Q -232.106 704.000 -240.000 704.000 Q -248.437 704.000 -256.000 704.000 Q -264.445 704.000 -272.000 704.000 Q -280.884 704.000 -288.000 704.000 Q -296.246 704.000 -304.000 704.000 Q -312.039 704.000 -320.000 704.000 Q -320.000 712.242 -320.000 720.000 Q -320.000 729.374 -320.000 736.000 Q -320.000 744.871 -320.000 752.000 Q -320.000 761.559 -320.000 768.000 Q -320.000 777.903 -320.000 784.000 Q -320.000 792.432 -320.000 800.000 Q -320.000 808.675 -320.000 816.000 Q -320.000 824.939 -320.000 832.000 Q -320.000 841.849 -320.000 848.000 Q -320.000 856.680 -320.000 864.000 Q -320.000 872.500 -320.000 880.000 Q -320.000 888.965 -320.000 896.000 Q -320.000 904.362 -320.000 912.000 Q -320.000 920.726 -320.000 928.000 Q -320.000 937.192 -320.000 944.000 Q -320.000 952.467 -320.000 960.000 "></path>
    <path id="STROKE_bc99c3c2-8b23-479e-9d8e-6355d3f2debb" opacity="1.000" fill="none" stroke="#ffcb12" stroke-width="2.716" stroke-opacity="1.000" stroke-linecap="round" stroke-linejoin="round" d="M -186.912 960.000 Q -186.510 960.000 -186.210 960.000 L -192.000 960.000 Q -192.000 951.066 -192.000 944.000 Q -192.000 934.801 -192.000 928.000 Q -192.000 919.250 -192.000 912.000 Q -192.000 902.194 -192.000 896.000 Q -192.000 887.057 -192.000 880.000 Q -192.000 871.901 -192.000 864.000 Q -192.000 854.733 -192.000 848.000 Q -192.000 839.027 -192.000 832.000 Q -192.000 823.443 -192.000 816.000 Q -192.000 806.482 -192.000 800.000 Q -192.000 791.326 -192.000 784.000 Q -192.000 774.759 -192.000 768.000 Q -192.000 759.829 -192.000 752.000 Q -192.000 743.864 -192.000 736.000 Q -192.000 727.918 -192.000 720.000 Q -192.000 711.860 -192.000 704.000 Q -183.878 704.000 -176.000 704.000 Q -167.456 704.000 -160.000 704.000 Q -151.710 704.000 -144.000 704.000 Q -134.987 704.000 -128.000 704.000 Q -119.568 704.000 -112.000 704.000 Q -103.948 704.000 -96.000 704.000 Q -87.601 704.000 -80.000 704.000 Q -84.693 704.000 -85.294 704.000 L -80.000 704.000 L -96.000 704.000 "></path>
    <path id="STROKE_1fdd60d2-c2e2-459b-aa6d-397c3ca86ed0" opacity="1.000" fill="none" stroke="#ffcb12" stroke-width="2.720" stroke-opacity="1.000" stroke-linecap="round" stroke-linejoin="round" d="M -80.000 704.000 Q -71.781 704.000 -64.000 704.000 "></path>
    <path id="STROKE_63ffc3a8-e3f1-44f1-a318-74155c9c71d7" opacity="1.000" fill="none" stroke="#45b046" stroke-width="2.691" stroke-opacity="1.000" stroke-linecap="round" stroke-linejoin="round" d="M -64.000 960.000 L -64.000 953.078 L -64.000 960.000 L -64.000 944.000 Q -64.000 934.882 -64.000 928.000 Q -64.000 919.757 -64.000 912.000 Q -64.000 902.589 -64.000 896.000 Q -64.000 886.136 -64.000 880.000 Q -64.000 870.846 -64.000 864.000 Q -64.000 855.034 -64.000 848.000 Q -64.000 838.787 -64.000 832.000 Q -64.000 823.932 -64.000 816.000 Q -64.000 807.591 -64.000 800.000 Q -64.000 791.232 -64.000 784.000 Q -64.000 775.775 -64.000 768.000 Q -64.000 759.829 -64.000 752.000 Q -64.000 743.356 -64.000 736.000 Q -64.000 727.505 -64.000 720.000 Q -64.000 711.954 -64.000 704.000 Q -55.659 704.000 -48.000 704.000 Q -39.112 704.000 -32.000 704.000 Q -23.492 704.000 -16.000 704.000 Q -7.571 704.000 0.000 704.000 Q 8.174 704.000 16.000 704.000 Q 24.597 704.000 32.000 704.000 Q 40.317 704.000 48.000 704.000 Q 56.137 704.000 64.000 704.000 "></path>
    <path id="STROKE_f5c7c860-dd41-48a7-af74-c5b8a3f00486" opacity="1.000" fill="none" stroke="#00944c" stroke-width="2.596" stroke-opacity="1.000" stroke-linecap="round" stroke-linejoin="round" d="M 64.000 960.000 Q 64.000 955.975 64.000 944.000 Q 64.000 934.222 64.000 928.000 Q 64.000 919.776 64.000 912.000 Q 64.000 902.673 64.000 896.000 Q 64.000 885.821 64.000 880.000 Q 64.000 871.274 64.000 864.000 Q 64.000 853.935 64.000 848.000 Q 64.000 839.405 64.000 832.000 Q 64.000 823.411 64.000 816.000 Q 64.000 806.341 64.000 800.000 Q 64.000 791.710 64.000 784.000 Q 64.000 774.605 64.000 768.000 Q 64.000 758.479 64.000 752.000 Q 64.000 742.855 64.000 736.000 Q 64.000 727.871 64.000 720.000 Q 64.000 711.979 64.000 704.000 Q 72.337 704.000 80.000 704.000 Q 88.662 704.000 96.000 704.000 Q 104.996 704.000 112.000 704.000 Q 121.108 704.000 128.000 704.000 Q 136.535 704.000 144.000 704.000 Q 152.568 704.000 160.000 704.000 Q 168.534 704.000 176.000 704.000 Q 184.230 704.000 192.000 704.000 "></path>
    <path id="STROKE_f59c05fe-4ce2-47e2-8199-2324b1bc1b89" opacity="1.000" fill="none" stroke="#00bacb" stroke-width="2.670" stroke-opacity="1.000" stroke-linecap="round" stroke-linejoin="round" d="M 192.000 960.000 Q 192.000 951.106 192.000 944.000 Q 192.000 933.229 192.000 928.000 Q 192.000 917.606 192.000 912.000 Q 192.000 903.160 192.000 896.000 Q 192.000 886.628 192.000 880.000 Q 192.000 870.635 192.000 864.000 Q 192.000 854.574 192.000 848.000 Q 192.000 839.220 192.000 832.000 Q 192.000 823.495 192.000 816.000 Q 192.000 806.526 192.000 800.000 Q 192.000 791.979 192.000 784.000 Q 192.000 774.605 192.000 768.000 Q 192.000 759.656 192.000 752.000 Q 192.000 742.956 192.000 736.000 Q 192.000 727.871 192.000 720.000 Q 192.000 711.557 192.000 704.000 Q 200.711 704.000 208.000 704.000 Q 217.304 704.000 224.000 704.000 Q 233.987 704.000 240.000 704.000 Q 249.773 704.000 256.000 704.000 Q 264.102 704.000 272.000 704.000 Q 280.426 704.000 288.000 704.000 Q 296.279 704.000 304.000 704.000 Q 312.245 704.000 320.000 704.000 "></path>
    <path id="STROKE_19a05e87-031d-434d-b628-fd5dec70b141" opacity="1.000" fill="none" stroke="#0097c9" stroke-width="2.661" stroke-opacity="1.000" stroke-linecap="round" stroke-linejoin="round" d="M 320.000 960.000 Q 320.000 951.106 320.000 944.000 Q 320.000 934.491 320.000 928.000 Q 320.000 919.406 320.000 912.000 Q 320.000 902.673 320.000 896.000 Q 320.000 887.082 320.000 880.000 Q 320.000 871.728 320.000 864.000 Q 320.000 855.196 320.000 848.000 Q 320.000 839.489 320.000 832.000 Q 320.000 823.327 320.000 816.000 Q 320.000 807.065 320.000 800.000 Q 320.000 791.979 320.000 784.000 L 320.000 786.211 Q 320.000 784.000 320.000 768.000 Q 320.000 759.572 320.000 752.000 Q 320.000 743.579 320.000 736.000 Q 320.000 726.778 320.000 720.000 Q 320.000 711.440 320.000 704.000 Q 328.120 704.000 336.000 704.000 Q 345.252 704.000 352.000 704.000 Q 361.105 704.000 368.000 704.000 Q 376.263 704.000 384.000 704.000 Q 392.408 704.000 400.000 704.000 Q 408.799 704.000 416.000 704.000 Q 424.406 704.000 432.000 704.000 Q 440.461 704.000 448.000 704.000 "></path>
    <path id="STROKE_620cfec9-2b63-44b0-b26e-a6b7fb85ac13" opacity="1.000" fill="none" stroke="#a26b98" stroke-width="2.545" stroke-opacity="1.000" stroke-linecap="round" stroke-linejoin="round" d="M 448.000 960.000 Q 452.816 960.000 453.265 960.000 L 448.000 960.000 Q 448.000 951.645 448.000 944.000 Q 448.000 933.583 448.000 928.000 Q 448.000 918.144 448.000 912.000 Q 448.000 901.798 448.000 896.000 Q 448.000 886.981 448.000 880.000 Q 448.000 871.997 448.000 864.000 Q 448.000 855.465 448.000 848.000 Q 448.000 838.766 448.000 832.000 Q 448.000 821.881 448.000 816.000 Q 448.000 807.603 448.000 800.000 Q 448.000 790.449 448.000 784.000 Q 448.000 775.818 448.000 768.000 Q 448.000 759.656 448.000 752.000 Q 448.000 743.764 448.000 736.000 Q 448.000 727.686 448.000 720.000 Q 448.000 711.878 448.000 704.000 Q 457.951 704.000 464.000 704.000 Q 472.101 704.000 480.000 704.000 Q 489.142 704.000 496.000 704.000 Q 505.108 704.000 512.000 704.000 Q 520.602 704.000 528.000 704.000 Q 536.568 704.000 544.000 704.000 Q 552.174 704.000 560.000 704.000 Q 568.297 704.000 576.000 704.000 "></path>
    <path id="STROKE_d6a77aa0-c3cc-410a-883f-1bc004c46af8" opacity="1.000" fill="none" stroke="#a26b98" stroke-width="2.438" stroke-opacity="1.000" stroke-linecap="round" stroke-linejoin="round" d="M 576.000 704.000 Q 576.000 709.271 576.000 720.000 Q 576.000 730.041 576.000 736.000 Q 576.000 746.017 576.000 752.000 Q 576.000 760.564 576.000 768.000 Q 576.000 778.525 576.000 784.000 Q 576.000 793.257 576.000 800.000 Q 576.000 809.419 576.000 816.000 Q 576.000 824.403 576.000 832.000 Q 576.000 841.658 576.000 848.000 Q 576.000 856.020 576.000 864.000 Q 576.000 872.266 576.000 880.000 Q 576.000 888.344 576.000 896.000 Q 576.000 905.413 576.000 912.000 Q 576.000 920.667 576.000 928.000 Q 576.000 936.391 576.000 944.000 Q 576.000 952.368 576.000 960.000 "></path>
    <path id="STROKE_af0e1e15-3454-416f-8a23-0cb7e232db65" opacity="1.000" fill="none" stroke="#bb3e45" stroke-width="2.692" stroke-opacity="1.000" stroke-linecap="round" stroke-linejoin="round" d="M -430.877 909.917 Q -430.885 909.665 -430.422 908.598 Q -429.958 907.532 -430.129 906.543 Q -430.300 905.555 -431.679 904.852 Q -432.622 905.185 -433.619 907.250 Q -434.616 909.315 -434.669 911.550 Q -434.721 913.784 -434.398 915.684 Q -434.075 917.584 -433.437 918.752 Q -432.800 919.920 -431.774 921.067 Q -430.749 922.214 -427.342 920.777 Q -423.935 919.340 -421.882 918.162 Q -419.830 916.984 -418.303 916.480 Q -416.776 915.975 -415.767 915.926 Q -414.759 915.877 -413.321 916.511 Q -411.883 917.146 -411.110 919.679 Q -410.336 922.212 -410.236 924.757 Q -410.136 927.303 -410.366 929.706 Q -410.597 932.109 -411.041 933.867 Q -411.485 935.625 -412.625 937.126 Q -412.885 937.039 -413.036 936.937 Q -413.187 936.835 -413.250 936.763 Q -413.314 936.691 -413.531 936.509 Q -413.749 936.326 -414.314 930.560 "></path>
    <path id="STROKE_c0f8722b-bb1b-410a-87c1-8850538ed892" opacity="1.000" fill="none" stroke="#bb3e45" stroke-width="2.720" stroke-opacity="1.000" stroke-linecap="round" stroke-linejoin="round" d="M -414.123 909.354 Q -414.188 909.260 -414.332 908.342 Q -414.018 908.642 -412.083 909.937 Q -410.147 911.232 -408.314 911.901 Q -406.482 912.570 -405.243 912.710 Q -404.005 912.849 -403.339 912.672 Q -402.674 912.495 -402.337 912.032 Q -402.001 911.570 -401.979 911.234 Q -401.956 910.897 -403.201 908.700 Q -404.445 906.503 -406.175 904.519 Q -407.904 902.535 -410.247 900.678 Q -410.297 900.711 -410.398 900.897 Q -409.794 901.511 -408.284 902.761 Q -406.775 904.010 -404.846 904.813 Q -402.918 905.617 -401.746 905.888 Q -400.574 906.159 -399.797 906.014 Q -399.020 905.868 -398.893 905.902 Q -398.767 905.936 -398.724 905.333 Q -398.682 904.729 -398.904 904.239 Q -399.127 903.749 -399.368 903.242 Q -399.609 902.736 -400.055 901.899 "></path>
    <path id="STROKE_2ae00f79-1773-45a0-9f7f-ff8938eb2021" opacity="1.000" fill="none" stroke="#bb3e45" stroke-width="2.673" stroke-opacity="1.000" stroke-linecap="round" stroke-linejoin="round" d="M -421.290 885.433 Q -421.260 885.457 -421.017 885.826 L -421.029 885.841 Q -421.075 886.001 -419.624 886.901 Q -418.173 887.800 -416.752 888.508 Q -415.332 889.216 -413.433 890.257 Q -411.535 891.298 -410.162 892.030 Q -408.790 892.762 -406.015 894.171 Q -403.240 895.581 -399.042 898.849 Q -398.967 899.078 -400.866 897.687 Q -402.765 896.296 -404.517 894.449 Q -406.268 892.602 -407.140 891.451 Q -408.012 890.299 -408.220 889.551 Q -408.429 888.803 -408.315 888.600 Q -408.200 888.398 -407.797 887.799 Q -407.395 887.201 -405.558 886.852 Q -403.721 886.503 -402.092 886.442 Q -400.464 886.380 -399.370 886.562 Q -398.275 886.743 -397.010 887.513 Q -395.745 888.282 -394.933 889.634 Q -394.120 890.985 -393.887 892.516 Q -393.655 894.048 -394.294 895.471 Q -394.934 896.895 -395.608 897.617 Q -396.283 898.338 -397.079 898.545 Q -397.874 898.753 -399.467 898.217 Q -401.059 897.681 -402.866 892.457 "></path>
    <path id="STROKE_4b1ae51e-3b94-4f94-be3e-b7be84a3493d" opacity="1.000" fill="none" stroke="#bb3e45" stroke-width="2.720" stroke-opacity="1.000" stroke-linecap="round" stroke-linejoin="round" d="M -396.011 877.118 Q -396.044 877.679 -396.003 877.612 Q -395.958 877.770 -395.677 878.267 Q -395.903 879.152 -392.429 872.237 "></path>
    <path id="STROKE_2dc525e8-b0d4-4a27-bbea-ee1ba06ae113" opacity="1.000" fill="none" stroke="#bb3e45" stroke-width="2.679" stroke-opacity="1.000" stroke-linecap="round" stroke-linejoin="round" d="M -407.423 848.411 Q -407.589 848.419 -407.114 849.174 Q -406.638 849.929 -404.891 851.272 Q -403.144 852.615 -402.065 853.230 Q -400.986 853.846 -398.569 855.104 Q -396.152 856.363 -392.983 858.506 Q -389.814 860.649 -387.699 862.203 Q -385.584 863.756 -384.698 865.629 Q -384.801 865.775 -385.176 865.730 Q -385.550 865.686 -385.653 865.566 Q -385.757 865.447 -386.125 865.137 Q -386.494 864.827 -386.588 864.831 Q -386.682 864.836 -388.657 862.986 Q -390.632 861.137 -392.359 858.760 Q -394.086 856.384 -394.824 854.987 Q -395.562 853.591 -395.780 853.134 Q -395.999 852.677 -395.961 851.956 Q -395.922 851.234 -395.069 851.440 Q -394.215 851.646 -393.447 851.847 Q -392.678 852.048 -390.359 853.545 Q -388.039 855.042 -386.490 856.399 Q -384.940 857.756 -383.688 858.590 Q -382.436 859.424 -381.682 859.450 Q -380.927 859.476 -380.146 859.011 Q -379.364 858.545 -382.137 852.543 "></path>
    <path id="STROKE_927a2d14-dd0d-493e-850c-5befc5e98be3" opacity="1.000" fill="none" stroke="#bb3e45" stroke-width="2.720" stroke-opacity="1.000" stroke-linecap="round" stroke-linejoin="round" d="M -385.038 844.356 Q -384.549 843.755 -384.668 843.902 Q -384.558 843.766 -384.403 843.520 Q -384.336 843.340 -384.698 843.220 Q -385.060 843.100 -385.782 843.776 Q -386.505 844.452 -386.802 845.074 Q -387.100 845.696 -387.104 846.274 Q -387.108 846.853 -387.096 847.485 Q -387.084 848.117 -386.568 849.435 Q -386.051 850.754 -384.894 852.068 Q -383.736 853.381 -382.594 854.079 Q -381.452 854.776 -380.522 854.822 Q -379.592 854.868 -379.031 854.762 Q -378.471 854.656 -377.604 854.002 Q -376.738 853.348 -376.584 852.173 Q -376.431 850.999 -377.420 849.277 Q -378.408 847.556 -379.798 846.260 Q -381.189 844.964 -382.348 843.983 Q -383.507 843.003 -385.535 843.586 Q -385.569 843.590 -384.654 844.411 Q -383.739 845.232 -381.023 846.052 Q -378.306 846.873 -376.533 847.182 Q -374.760 847.492 -373.423 847.151 Q -372.942 846.518 -384.526 837.522 Q -384.536 837.315 -383.079 836.906 Q -381.623 836.496 -380.737 836.410 Q -379.852 836.324 -379.140 836.631 Q -378.428 836.938 -378.039 837.171 Q -377.650 837.403 -377.026 838.000 Q -376.403 838.597 -376.364 840.007 Q -376.325 841.417 -376.449 842.045 Q -376.574 842.674 -376.415 842.900 Q -376.256 843.126 -375.938 843.344 Q -375.619 843.561 -375.073 843.221 Q -374.526 842.881 -373.408 842.460 Q -372.290 842.040 -371.179 841.562 Q -370.068 841.085 -369.501 840.632 Q -368.934 840.179 -368.616 839.722 Q -368.299 839.266 -368.460 838.410 "></path>
    <path id="STROKE_a98e9039-d19f-43a3-acfa-3dc3794bdbda" opacity="1.000" fill="none" stroke="#bb3e45" stroke-width="2.720" stroke-opacity="1.000" stroke-linecap="round" stroke-linejoin="round" d="M -374.093 830.435 Q -374.093 830.435 -374.099 830.442 Q -374.104 830.449 -374.116 830.464 Q -374.998 830.342 -365.281 837.514 Q -365.292 837.533 -368.373 835.482 Q -371.453 833.431 -373.185 831.977 Q -374.916 830.523 -375.864 829.569 Q -376.812 828.615 -376.934 828.039 Q -377.056 827.463 -376.454 827.050 Q -375.851 826.636 -374.180 826.673 Q -372.508 826.709 -370.543 827.104 Q -368.578 827.498 -366.978 828.518 Q -365.379 829.539 -364.420 830.266 Q -363.462 830.994 -363.163 832.500 Q -364.106 832.474 -364.115 832.408 Q -364.124 832.342 -365.869 831.102 Q -367.615 829.861 -369.320 827.990 Q -371.025 826.120 -372.071 824.497 Q -373.117 822.874 -373.467 822.087 Q -373.817 821.300 -373.839 820.697 Q -373.862 820.093 -373.723 819.772 Q -373.583 819.452 -373.361 819.342 Q -373.139 819.233 -372.578 819.172 Q -372.017 819.111 -370.591 819.640 Q -369.165 820.168 -367.512 821.435 Q -365.859 822.701 -364.655 823.735 Q -363.451 824.769 -363.663 826.342 Q -364.535 826.205 -367.271 823.740 Q -370.007 821.275 -372.568 815.311 Q -372.304 815.056 -370.025 817.172 Q -367.747 819.288 -366.395 820.334 Q -365.043 821.381 -364.320 821.901 Q -363.597 822.421 -363.364 822.442 Q -363.131 822.463 -362.558 822.487 Q -361.984 822.512 -361.641 822.322 Q -361.299 822.132 -361.008 821.829 Q -360.718 821.526 -360.656 821.435 Q -360.594 821.343 -360.202 820.871 Q -359.811 820.398 -359.479 818.722 Q -359.146 817.046 -359.493 814.823 Q -359.840 812.600 -360.397 811.140 Q -360.954 809.680 -361.740 808.652 Q -362.527 807.623 -363.377 807.058 Q -364.226 806.492 -365.048 806.363 Q -365.869 806.234 -366.900 806.968 Q -367.930 807.703 -368.279 809.197 Q -368.627 810.692 -368.110 812.724 Q -367.594 814.756 -366.231 816.426 Q -364.868 818.096 -363.906 818.852 Q -362.943 819.608 -362.071 819.991 Q -361.198 820.375 -360.129 820.177 Q -359.059 819.979 -358.245 819.342 Q -357.430 818.705 -357.165 817.897 Q -356.900 817.089 -356.716 816.130 Q -356.532 815.171 -357.230 813.737 Q -357.928 812.304 -359.598 810.635 Q -361.269 808.967 -364.765 807.604 "></path>
    <path id="STROKE_8d667eed-2311-40d4-8beb-8f35f462a184" opacity="1.000" fill="none" stroke="#bb3e45" stroke-width="2.670" stroke-opacity="1.000" stroke-linecap="round" stroke-linejoin="round" d="M -365.536 805.173 Q -364.698 804.861 -361.989 806.117 Q -359.280 807.373 -357.970 808.301 Q -356.660 809.230 -355.916 809.753 Q -355.172 810.277 -354.511 810.887 Q -355.115 811.220 -358.376 808.687 Q -361.636 806.155 -363.437 804.463 Q -365.238 802.772 -366.092 801.772 Q -366.945 800.773 -367.232 799.636 Q -367.518 798.499 -366.597 798.428 Q -365.675 798.357 -364.514 798.750 Q -363.352 799.143 -361.321 800.260 Q -359.291 801.376 -356.992 802.832 Q -354.694 804.288 -352.309 805.137 Q -351.786 804.922 -352.490 803.897 Q -353.195 802.872 -353.659 802.246 Q -354.122 801.621 -354.378 801.322 Q -354.635 801.022 -354.865 800.757 Q -355.095 800.492 -355.573 799.920 Q -356.051 799.349 -357.207 798.152 Q -358.364 796.954 -360.908 794.734 Q -360.996 794.844 -358.436 796.476 Q -355.877 798.108 -354.172 798.967 Q -352.467 799.826 -351.562 800.017 Q -350.657 800.208 -350.309 800.189 Q -349.961 800.171 -349.378 799.905 Q -348.794 799.639 -348.642 798.101 Q -348.490 796.562 -349.398 793.636 Q -350.305 790.710 -351.397 788.586 Q -352.490 786.462 -353.282 785.413 Q -354.075 784.363 -354.652 783.951 Q -355.230 783.539 -355.164 783.581 Q -355.097 783.623 -355.530 783.798 Q -355.962 783.974 -355.890 785.551 Q -355.818 787.129 -354.727 789.315 Q -353.636 791.502 -352.617 792.789 Q -351.598 794.077 -350.939 794.640 Q -350.280 795.204 -349.593 795.440 Q -348.906 795.677 -348.098 794.955 Q -347.291 794.234 -348.257 791.359 Q -349.223 788.485 -350.236 785.367 Q -350.206 784.966 -347.039 787.407 Q -343.872 789.848 -341.112 792.582 Q -338.351 795.315 -336.165 797.780 Q -333.978 800.245 -330.079 803.819 Q -330.117 803.786 -331.258 801.530 "></path>
    <path id="STROKE_ab15f41f-abcb-4893-afc3-677762c76264" opacity="1.000" fill="none" stroke="#bb3e45" stroke-width="2.720" stroke-opacity="1.000" stroke-linecap="round" stroke-linejoin="round" d="M -347.503 781.585 Q -347.336 781.447 -347.188 780.915 Q -347.041 780.384 -346.808 779.823 Q -345.810 780.372 -346.044 780.276 Q -345.692 780.674 -344.236 781.699 Q -342.779 782.725 -341.695 783.394 Q -340.611 784.063 -339.906 784.134 Q -339.201 784.205 -339.199 784.175 Q -339.198 784.145 -338.598 783.722 Q -337.999 783.300 -338.992 781.253 Q -339.985 779.205 -341.525 777.311 Q -343.065 775.417 -345.495 773.667 L -345.560 773.712 Q -345.332 773.981 -343.847 775.232 Q -342.362 776.482 -340.895 777.214 Q -339.428 777.946 -338.289 778.144 Q -337.150 778.343 -336.478 778.351 Q -335.805 778.360 -335.198 777.899 Q -334.591 777.438 -334.040 776.555 Q -333.488 775.672 -333.930 773.728 Q -334.372 771.784 -335.365 769.875 Q -336.358 767.966 -337.490 766.757 Q -338.621 765.547 -339.293 764.987 Q -339.964 764.426 -340.832 764.121 Q -341.701 763.816 -342.351 763.787 Q -343.001 763.759 -343.773 764.100 Q -344.545 764.442 -345.100 765.025 Q -345.655 765.608 -344.894 767.134 Q -344.133 768.660 -342.681 770.022 Q -341.230 771.383 -340.215 772.110 Q -339.200 772.836 -337.862 773.210 Q -336.524 773.585 -335.212 773.572 Q -333.900 773.560 -332.699 772.701 Q -331.499 771.841 -330.910 770.126 Q -330.321 768.410 -332.505 761.667 "></path>
    <path id="STROKE_9a21123d-3e6c-43cf-bc23-3c31e96bbe28" opacity="1.000" fill="none" stroke="#bb3e45" stroke-width="2.720" stroke-opacity="1.000" stroke-linecap="round" stroke-linejoin="round" d="M -365.235 777.683 Q -365.430 777.909 -364.213 779.929 Q -364.013 780.075 -363.495 778.565 "></path>
    <path id="STROKE_7cb162fc-5212-4b5d-a61b-a5eddfad32c8" opacity="1.000" fill="none" stroke="#f9642d" stroke-width="2.695" stroke-opacity="1.000" stroke-linecap="round" stroke-linejoin="round" d="M -288.357 855.734 Q -288.096 855.380 -287.806 854.332 Q -287.515 853.284 -287.759 852.061 Q -288.221 851.725 -290.266 853.289 Q -292.310 854.853 -293.730 857.697 Q -295.149 860.541 -295.522 862.154 Q -295.895 863.768 -296.122 864.827 Q -296.349 865.886 -296.434 868.478 Q -296.519 871.069 -295.980 873.426 Q -295.441 875.784 -294.602 877.670 Q -293.762 879.557 -293.020 880.901 Q -292.278 882.246 -290.682 883.493 Q -289.085 884.741 -287.422 885.249 Q -285.758 885.757 -283.829 885.392 Q -281.900 885.028 -280.000 884.016 Q -278.099 883.005 -276.890 881.490 Q -275.681 879.975 -275.334 878.292 Q -274.988 876.608 -275.553 874.902 Q -276.118 873.195 -277.015 872.143 Q -277.912 871.091 -279.218 870.646 Q -280.524 870.201 -281.989 870.456 Q -283.454 870.712 -284.242 871.267 Q -285.029 871.823 -285.099 872.406 Q -285.168 872.989 -284.558 873.948 Q -283.949 874.907 -282.966 874.797 Q -281.983 874.687 -280.659 874.190 Q -279.336 873.693 -278.385 872.656 Q -277.435 871.618 -276.644 869.414 Q -275.852 867.211 -276.256 865.227 Q -276.659 863.242 -277.304 862.184 Q -277.948 861.126 -277.451 860.633 Q -276.953 860.141 -276.283 859.897 Q -275.614 859.654 -275.751 859.707 Q -275.889 859.760 -275.794 859.755 Q -275.700 859.749 -275.267 860.064 Q -274.835 860.378 -274.400 860.890 Q -273.965 861.401 -274.059 861.308 Q -274.152 861.216 -273.513 861.985 Q -272.874 862.754 -271.611 865.064 Q -270.348 867.374 -267.071 874.085 L -267.090 874.098 Q -267.120 874.080 -269.592 870.452 Q -272.063 866.824 -273.452 864.777 Q -274.840 862.731 -275.323 861.454 Q -275.805 860.177 -275.737 859.478 Q -275.669 858.778 -274.450 857.697 Q -273.231 856.616 -272.108 856.274 Q -270.985 855.931 -270.099 855.824 Q -269.213 855.717 -268.231 856.343 Q -267.250 856.970 -267.264 857.530 Q -267.278 858.090 -267.886 859.198 Q -268.494 860.306 -269.048 861.002 Q -269.602 861.698 -269.759 862.327 Q -269.917 862.956 -269.806 862.903 Q -269.695 862.850 -269.821 862.826 Q -269.948 862.801 -269.741 863.137 Q -269.534 863.473 -268.850 863.997 Q -268.167 864.521 -267.013 864.996 Q -265.859 865.472 -265.004 865.897 Q -264.148 866.323 -262.359 866.527 Q -260.570 866.730 -259.592 864.471 Q -258.614 862.211 -258.476 860.154 Q -258.338 858.097 -259.185 855.333 Q -260.032 852.570 -263.897 848.389 Q -263.443 848.187 -263.854 850.525 Q -264.265 852.863 -263.954 855.116 Q -263.643 857.369 -263.075 858.639 Q -262.507 859.910 -261.794 861.047 Q -261.080 862.185 -260.608 862.731 Q -260.135 863.277 -258.673 863.362 Q -257.211 863.447 -257.126 860.650 Q -257.042 857.853 -261.264 849.522 L -261.336 849.539 Q -260.976 850.151 -259.635 852.134 Q -258.294 854.116 -256.762 855.445 Q -255.230 856.774 -254.216 856.882 Q -253.203 856.990 -252.584 855.899 Q -251.965 854.807 -251.949 853.844 Q -251.933 852.880 -251.982 851.984 Q -252.032 851.089 -253.364 847.584 "></path>
    <path id="STROKE_610eb94b-c3aa-4673-831a-63e2c216f821" opacity="1.000" fill="none" stroke="#f9642d" stroke-width="2.709" stroke-opacity="1.000" stroke-linecap="round" stroke-linejoin="round" d="M -259.439 844.249 Q -259.689 844.218 -261.369 844.128 Q -262.226 844.899 -247.179 853.213 Q -246.174 852.173 -254.952 841.425 Q -254.607 841.653 -253.055 842.254 Q -251.503 842.854 -250.340 843.021 Q -249.177 843.189 -248.492 843.007 Q -247.808 842.825 -246.863 842.337 Q -245.918 841.849 -245.268 840.941 Q -244.618 840.034 -244.412 838.498 Q -244.207 836.963 -244.543 835.157 Q -244.879 833.351 -245.496 832.302 Q -246.112 831.254 -246.722 830.835 Q -247.332 830.416 -248.251 830.811 Q -249.170 831.206 -249.627 833.075 Q -250.083 834.945 -249.824 837.306 Q -249.566 839.668 -249.079 841.308 Q -248.591 842.948 -246.952 845.218 Q -245.313 847.489 -243.395 846.844 Q -241.477 846.200 -240.297 845.066 Q -239.117 843.932 -239.104 843.927 Q -239.091 843.923 -238.253 842.148 Q -237.415 840.373 -237.155 839.087 Q -236.895 837.801 -236.843 836.921 Q -236.791 836.041 -237.117 833.281 "></path>
    <path id="STROKE_f239afd0-20a6-48ac-9525-b61d72a77f97" opacity="1.000" fill="none" stroke="#ffcb12" stroke-width="2.720" stroke-opacity="1.000" stroke-linecap="round" stroke-linejoin="round" d="M -174.674 891.020 Q -175.062 891.877 -172.076 894.966 Q -169.089 898.055 -167.166 900.183 Q -165.242 902.311 -164.230 903.651 Q -163.219 904.991 -163.021 906.307 Q -163.061 906.259 -162.985 906.308 Q -162.908 906.357 -162.950 906.390 Q -162.993 906.422 -163.324 906.356 Q -163.655 906.289 -164.030 906.193 Q -164.405 906.097 -165.026 905.960 "></path>
    <path id="STROKE_0cbccbc6-3448-4319-adb1-135717858581" opacity="1.000" fill="none" stroke="#ffcb12" stroke-width="2.714" stroke-opacity="1.000" stroke-linecap="round" stroke-linejoin="round" d="M -179.310 901.787 Q -179.303 901.101 -179.310 897.750 Q -179.316 894.400 -178.897 891.677 Q -178.477 888.955 -177.558 886.913 Q -176.638 884.872 -175.676 883.724 Q -174.713 882.577 -174.332 882.180 Q -173.950 881.783 -172.993 881.180 Q -172.037 880.578 -171.342 881.048 Q -170.648 881.519 -169.948 882.279 Q -169.247 883.039 -168.735 886.448 Q -168.223 889.858 -169.019 893.897 Q -169.153 893.414 -167.878 892.055 Q -166.604 890.696 -165.215 890.041 Q -163.826 889.385 -162.867 889.474 Q -161.908 889.562 -161.261 889.840 Q -160.614 890.117 -159.960 891.177 Q -159.305 892.237 -159.363 893.935 Q -159.421 895.633 -159.668 897.715 Q -159.915 899.796 -160.178 901.567 Q -160.441 903.337 -161.700 904.923 Q -163.047 904.977 -162.607 897.338 "></path>
    <path id="STROKE_9583608c-0f93-4555-98f1-0b867ad3e7cd" opacity="1.000" fill="none" stroke="#ffcb12" stroke-width="2.720" stroke-opacity="1.000" stroke-linecap="round" stroke-linejoin="round" d="M -155.900 880.724 Q -155.815 880.280 -155.602 879.788 Q -155.389 879.297 -155.665 878.678 Q -155.941 878.060 -156.410 877.803 Q -156.879 877.546 -157.590 877.933 Q -158.300 878.319 -158.863 879.596 Q -159.425 880.872 -159.416 882.771 Q -159.407 884.669 -158.805 886.210 Q -158.202 887.752 -157.753 888.367 Q -157.304 888.982 -156.884 889.420 Q -156.464 889.857 -155.359 890.048 Q -154.253 890.238 -153.397 889.510 Q -152.541 888.781 -152.173 887.547 Q -151.805 886.312 -152.001 884.356 Q -152.196 882.399 -152.937 880.584 Q -153.679 878.769 -155.472 877.824 Q -155.917 878.378 -154.922 879.730 Q -153.927 881.081 -152.930 881.837 Q -151.933 882.592 -151.166 882.807 Q -150.398 883.022 -149.155 882.256 Q -147.911 881.491 -147.844 879.442 Q -147.776 877.392 -147.973 875.518 Q -148.169 873.645 -148.779 872.171 Q -149.388 870.696 -149.957 869.738 Q -150.525 868.779 -151.194 868.395 Q -151.863 868.011 -152.353 868.103 Q -152.843 868.194 -153.385 868.448 Q -153.927 868.703 -154.434 869.280 Q -154.940 869.857 -155.013 870.227 Q -155.085 870.597 -155.107 871.009 Q -155.130 871.421 -155.132 871.450 Q -155.134 871.479 -154.898 872.076 Q -154.662 872.674 -153.792 873.434 Q -152.922 874.194 -150.333 874.884 Q -147.745 875.573 -146.103 875.843 Q -144.461 876.113 -143.362 877.218 Q -143.182 877.084 -144.128 878.276 Q -145.075 879.468 -147.644 878.590 "></path>
    <path id="STROKE_8745cc79-7430-459b-b514-5c9d7302c0a5" opacity="1.000" fill="none" stroke="#ffcb12" stroke-width="2.720" stroke-opacity="1.000" stroke-linecap="round" stroke-linejoin="round" d="M -142.630 861.254 Q -142.345 861.803 -142.392 861.728 Q -142.256 862.081 -141.938 862.305 Q -141.261 861.817 -141.393 861.905 Q -141.629 862.189 -140.346 861.082 Q -139.064 859.974 -137.983 857.647 "></path>
    <path id="STROKE_263f851f-7867-435b-bc4c-95b025feeb1d" opacity="1.000" fill="none" stroke="#ffcb12" stroke-width="2.709" stroke-opacity="1.000" stroke-linecap="round" stroke-linejoin="round" d="M -143.273 846.255 Q -143.255 846.076 -142.144 847.953 Q -141.032 849.831 -139.906 851.440 Q -138.779 853.049 -130.862 857.015 Q -130.809 856.738 -133.618 855.110 Q -136.426 853.482 -138.138 852.025 Q -139.849 850.568 -140.879 849.632 Q -141.910 848.695 -142.248 847.135 Q -142.586 845.574 -142.309 843.382 Q -142.032 841.189 -141.846 839.474 Q -141.659 837.760 -140.898 835.950 Q -140.117 836.478 -140.211 836.439 Q -139.910 836.542 -136.058 839.868 Q -132.206 843.193 -128.169 847.986 Q -128.123 848.052 -128.503 844.439 "></path>
    <path id="STROKE_7038b59a-8a24-424d-9a0b-ec1c4a897897" opacity="1.000" fill="none" stroke="#ffcb12" stroke-width="2.720" stroke-opacity="1.000" stroke-linecap="round" stroke-linejoin="round" d="M -131.456 833.047 Q -131.571 833.323 -129.086 835.766 Q -128.570 835.718 -128.001 834.751 Q -127.433 833.784 -127.392 832.072 Q -127.352 830.360 -128.424 828.667 Q -128.453 828.570 -129.344 829.222 Q -130.234 829.875 -130.762 831.065 Q -131.289 832.256 -131.164 833.552 Q -131.039 834.847 -130.788 835.663 Q -130.537 836.479 -129.419 838.161 Q -128.302 839.844 -127.092 840.850 Q -125.881 841.856 -124.768 842.359 Q -123.655 842.863 -122.372 842.310 Q -121.089 841.757 -120.306 840.849 Q -119.523 839.941 -119.266 838.278 Q -119.009 836.614 -119.048 835.508 Q -119.088 834.402 -119.657 832.555 Q -120.226 830.709 -121.521 828.849 "></path>
    <path id="STROKE_4dea868e-435d-4b2d-bfd7-cef393444b4d" opacity="1.000" fill="none" stroke="#ffcb12" stroke-width="2.712" stroke-opacity="1.000" stroke-linecap="round" stroke-linejoin="round" d="M -120.622 825.248 Q -120.482 825.108 -119.697 824.931 Q -118.913 824.754 -118.550 824.357 Q -118.186 823.959 -118.428 823.398 Q -118.669 822.837 -118.991 822.284 Q -119.313 821.730 -119.774 821.465 Q -120.235 821.200 -121.496 821.647 Q -122.757 822.094 -123.241 823.182 Q -123.725 824.270 -123.529 825.972 Q -123.333 827.674 -122.484 829.065 Q -121.636 830.455 -120.818 831.365 Q -120.000 832.275 -119.219 832.560 Q -118.438 832.844 -116.903 832.489 Q -115.368 832.133 -115.304 829.886 Q -115.240 827.640 -116.410 825.019 Q -117.579 822.397 -118.913 820.491 Q -120.248 818.585 -122.396 816.902 Q -124.544 815.220 -128.236 814.572 Q -128.604 814.409 -128.077 815.012 Q -127.549 815.615 -127.043 816.131 Q -126.537 816.646 -125.594 816.921 Q -124.650 817.196 -124.031 817.375 Q -123.412 817.554 -121.774 818.164 Q -120.137 818.773 -111.481 824.907 Q -111.072 824.468 -111.140 824.534 Q -111.208 824.600 -111.199 823.917 Q -111.191 823.234 -111.951 819.421 "></path>
    <path id="STROKE_227c9015-b469-44c5-a260-616935bea947" opacity="1.000" fill="none" stroke="#ffcb12" stroke-width="2.720" stroke-opacity="1.000" stroke-linecap="round" stroke-linejoin="round" d="M -115.147 814.254 Q -115.147 814.254 -115.200 814.305 Q -115.254 814.355 -113.529 815.934 Q -111.805 817.513 -110.510 818.364 Q -109.216 819.214 -108.426 819.375 Q -107.635 819.535 -107.082 819.534 Q -106.529 819.532 -106.047 818.505 Q -105.564 817.478 -107.751 812.789 "></path>
    <path id="STROKE_fa0b930a-384f-4809-97a6-0e82cc73be8f" opacity="1.000" fill="none" stroke="#ffcb12" stroke-width="2.720" stroke-opacity="1.000" stroke-linecap="round" stroke-linejoin="round" d="M -112.261 808.926 Q -112.290 808.873 -112.826 808.320 Q -112.663 808.055 -110.496 809.835 Q -108.329 811.614 -106.913 812.564 Q -105.497 813.514 -104.816 813.967 Q -104.135 814.420 -103.506 814.499 Q -102.878 814.577 -102.494 814.455 Q -102.109 814.333 -101.936 813.867 Q -101.762 813.400 -101.808 813.268 Q -101.853 813.135 -102.267 811.674 Q -102.681 810.214 -103.929 808.443 Q -105.178 806.672 -105.955 805.604 Q -106.733 804.536 -107.859 804.181 Q -107.898 804.289 -106.670 806.009 Q -105.442 807.729 -104.111 808.792 Q -102.780 809.855 -102.105 810.187 Q -101.430 810.519 -101.185 810.688 Q -100.939 810.857 -100.587 810.791 Q -100.235 810.725 -99.988 810.489 Q -99.740 810.252 -99.794 809.967 Q -99.847 809.682 -99.931 809.433 Q -100.014 809.184 -100.141 808.666 Q -100.268 808.148 -101.693 805.766 Q -103.118 803.383 -103.880 802.165 Q -104.642 800.946 -105.000 800.300 Q -105.357 799.654 -105.154 799.066 Q -104.950 798.477 -102.636 799.668 Q -100.322 800.859 -96.697 805.015 Q -96.932 804.788 -97.904 803.635 Q -98.876 802.482 -99.847 800.867 Q -100.819 799.251 -101.377 798.024 Q -101.934 796.798 -102.417 793.921 Q -101.797 792.596 -94.962 801.960 Q -94.952 802.083 -95.820 801.021 Q -96.687 799.959 -97.668 797.495 Q -98.650 795.031 -99.182 793.500 Q -99.715 791.969 -99.172 790.544 Q -99.168 790.091 -97.513 791.161 Q -95.859 792.231 -94.684 793.059 Q -93.510 793.888 -92.217 794.243 Q -90.925 794.598 -89.568 794.005 Q -88.210 793.413 -89.837 788.432 "></path>
    <path id="STROKE_be105b7b-55eb-4518-8901-d282bf0e3455" opacity="1.000" fill="none" stroke="#ffcb12" stroke-width="2.720" stroke-opacity="1.000" stroke-linecap="round" stroke-linejoin="round" d="M -127.189 793.615 Q -126.904 793.795 -126.274 794.795 Q -125.644 795.795 -124.403 796.360 Q -123.162 796.925 -121.922 796.509 Q -121.955 796.345 -122.664 795.280 "></path>
    <path id="STROKE_088d7fb9-0077-47dd-b59b-8d37de5455af" opacity="1.000" fill="none" stroke="#45b046" stroke-width="2.567" stroke-opacity="1.000" stroke-linecap="round" stroke-linejoin="round" d="M -44.999 856.889 Q -44.966 856.962 -45.190 856.554 Q -45.413 856.147 -45.337 856.211 Q -45.259 856.128 -45.201 856.091 Q -44.908 856.220 -43.079 858.962 Q -41.251 861.704 -39.203 863.718 Q -37.156 865.732 -35.261 867.251 Q -33.366 868.770 -31.392 868.481 Q -31.558 868.100 -32.742 866.544 Q -33.927 864.988 -36.635 863.838 Q -39.344 862.689 -42.070 862.178 Q -44.797 861.668 -47.187 860.659 Q -47.089 859.837 -45.987 855.103 Q -44.885 850.370 -44.111 848.039 Q -43.337 845.708 -43.127 844.150 Q -42.918 842.591 -42.409 841.437 Q -42.491 841.052 -38.721 845.285 Q -34.951 849.518 -24.198 861.383 Q -25.017 861.591 -28.012 859.037 "></path>
    <path id="STROKE_7602b3bd-802d-4521-aa12-e609f7c02347" opacity="1.000" fill="none" stroke="#45b046" stroke-width="2.720" stroke-opacity="1.000" stroke-linecap="round" stroke-linejoin="round" d="M -25.820 849.538 Q -25.728 849.681 -25.505 850.014 Q -25.282 850.347 -25.163 850.506 Q -25.044 850.665 -24.833 850.938 Q -24.621 851.211 -24.667 851.135 Q -24.712 851.059 -24.532 851.164 Q -24.353 851.268 -24.000 851.092 Q -23.647 850.916 -23.161 850.575 Q -22.676 850.234 -22.376 849.641 Q -22.077 849.047 -21.801 848.151 Q -21.525 847.256 -21.485 846.228 Q -21.444 845.201 -21.461 844.561 Q -21.479 843.921 -21.709 842.874 Q -21.940 841.827 -22.334 841.199 Q -22.728 840.571 -23.200 840.650 Q -23.671 840.729 -24.090 841.019 Q -24.508 841.309 -24.677 841.429 Q -24.845 841.549 -24.811 841.582 Q -24.778 841.615 -25.191 842.007 Q -25.605 842.398 -25.986 843.953 Q -26.368 845.507 -26.386 847.116 Q -26.403 848.725 -25.702 850.097 Q -25.000 851.470 -24.456 852.245 Q -23.911 853.021 -22.846 853.279 Q -21.780 853.536 -20.443 852.892 Q -19.106 852.247 -17.449 851.174 Q -15.793 850.100 -14.864 848.075 Q -13.935 846.050 -13.420 844.412 Q -12.904 842.774 -12.649 841.868 Q -12.394 840.963 -12.551 840.433 Q -12.708 839.904 -13.077 839.223 Q -13.447 838.541 -14.268 838.324 Q -15.088 838.107 -15.860 838.320 Q -16.631 838.534 -17.192 838.928 Q -17.754 839.322 -18.207 840.108 Q -18.661 840.893 -18.745 841.972 Q -18.829 843.052 -18.610 843.971 Q -18.390 844.890 -17.900 845.808 Q -17.409 846.727 -16.753 847.355 Q -16.096 847.982 -15.205 848.101 Q -14.315 848.219 -13.487 847.720 Q -12.660 847.221 -12.365 846.872 Q -12.070 846.522 -11.742 845.907 Q -11.414 845.292 -11.395 843.639 Q -11.376 841.987 -11.895 840.401 Q -12.415 838.816 -13.325 837.327 Q -14.235 835.838 -15.279 834.464 Q -16.324 833.089 -17.624 832.127 Q -18.923 831.166 -20.329 830.402 Q -21.734 829.638 -23.810 830.468 Q -23.870 830.477 -23.710 830.957 Q -23.550 831.438 -21.919 831.621 Q -20.288 831.804 -19.347 832.025 Q -18.406 832.247 -17.249 833.041 Q -16.091 833.835 -14.623 835.459 Q -13.155 837.083 -11.950 838.125 Q -10.745 839.167 -9.754 839.611 Q -8.763 840.054 -8.109 839.877 Q -7.456 839.700 -6.736 839.011 Q -6.015 838.323 -6.482 835.975 Q -6.948 833.627 -7.438 832.244 Q -7.928 830.861 -8.866 829.836 Q -9.322 829.918 -9.038 830.893 Q -8.755 831.867 -8.152 832.329 Q -7.549 832.790 -6.924 832.854 Q -6.298 832.917 -5.661 833.025 Q -5.024 833.134 -3.883 833.086 Q -2.741 833.038 -1.874 832.668 Q -1.006 832.299 -0.725 831.923 Q -0.443 831.548 -0.709 830.270 Q -0.976 828.993 -1.793 827.593 Q -2.610 826.192 -3.249 825.333 Q -3.887 824.474 -4.837 824.597 Q -4.775 824.818 -4.075 825.883 Q -3.376 826.948 -2.487 827.710 Q -1.598 828.473 -0.588 828.774 Q 0.421 829.075 1.542 828.871 Q 2.662 828.667 3.141 827.034 Q 3.620 825.401 2.987 823.727 Q 2.353 822.053 1.677 820.749 Q 1.001 819.444 -0.580 819.317 Q -0.449 820.115 -0.457 819.884 Q -0.063 820.654 -0.146 820.465 Q 0.279 821.806 1.812 822.508 Q 3.345 823.210 4.402 823.401 Q 5.459 823.591 5.865 823.468 Q 6.272 823.344 6.396 823.102 Q 6.521 822.860 6.488 822.699 Q 6.456 822.538 6.485 822.422 Q 6.514 822.307 5.494 819.981 Q 4.474 817.655 3.965 816.242 Q 3.456 814.829 3.327 814.030 Q 3.197 813.230 3.365 813.066 Q 3.533 812.902 3.645 812.864 Q 3.756 812.826 4.053 812.719 Q 4.349 812.611 5.457 813.399 Q 6.564 814.187 7.483 815.436 Q 8.402 816.686 9.030 817.532 Q 9.658 818.378 9.398 819.993 Q 9.023 819.710 8.205 818.507 Q 7.387 817.305 6.875 815.494 Q 6.363 813.683 6.229 812.691 Q 6.095 811.699 6.132 811.264 Q 6.169 810.829 6.291 810.680 Q 6.413 810.531 6.631 810.287 Q 6.848 810.043 7.691 810.653 Q 8.534 811.263 9.384 812.067 Q 10.234 812.871 12.107 816.472 Q 12.048 816.514 11.990 816.557 Q 11.857 816.870 10.818 814.811 Q 9.779 812.752 9.612 811.455 Q 9.444 810.157 9.350 809.147 Q 9.256 808.137 9.301 807.906 Q 9.347 807.676 9.728 807.304 Q 10.109 806.931 11.131 807.451 Q 12.152 807.971 13.248 808.409 Q 14.345 808.847 15.602 809.002 Q 16.859 809.157 17.531 808.973 Q 18.203 808.788 18.668 808.350 Q 19.133 807.913 17.911 806.143 "></path>
    <path id="STROKE_c39797ff-b879-4e12-8f16-874847d29a20" opacity="1.000" fill="none" stroke="#45b046" stroke-width="2.720" stroke-opacity="1.000" stroke-linecap="round" stroke-linejoin="round" d="M -12.524 809.368 Q -12.780 809.298 -12.228 809.585 Q -11.675 809.873 -11.319 809.996 Q -10.962 810.120 -10.472 810.209 "></path>
    <path id="STROKE_1eff3067-16fc-4b32-b9a7-0a91e72f8283" opacity="1.000" fill="none" stroke="#45b046" stroke-width="2.704" stroke-opacity="1.000" stroke-linecap="round" stroke-linejoin="round" d="M -0.783 866.142 Q -0.806 865.964 0.192 865.738 Q 1.190 865.512 2.016 864.309 Q 2.842 863.106 3.106 861.590 Q 3.370 860.074 3.457 859.055 Q 3.544 858.036 3.531 857.578 Q 3.517 857.120 3.517 856.399 Q 3.517 855.679 3.365 854.598 Q 3.212 853.518 3.240 853.093 Q 3.268 852.668 1.902 848.872 Q 1.512 849.481 4.347 851.991 Q 7.182 854.501 9.226 856.114 Q 11.270 857.726 12.934 860.021 Q 12.605 859.888 10.698 857.514 "></path>
    <path id="STROKE_0b05b3f8-49b7-4a1d-aa1b-941e12fd9f76" opacity="1.000" fill="none" stroke="#00944c" stroke-width="2.709" stroke-opacity="1.000" stroke-linecap="round" stroke-linejoin="round" d="M 86.415 844.891 Q 86.541 844.377 86.509 844.530 Q 86.531 844.468 86.594 844.401 Q 86.645 844.195 88.445 847.193 Q 90.246 850.191 95.041 853.882 L 95.100 853.840 Q 94.857 853.092 91.965 849.655 Q 89.073 846.218 87.335 844.426 Q 85.596 842.633 84.752 841.754 Q 83.909 840.874 83.120 840.729 Q 83.070 840.714 83.208 840.980 Q 83.346 841.245 83.924 841.562 Q 84.503 841.879 86.075 841.005 Q 87.647 840.131 88.680 839.156 Q 89.712 838.180 90.313 837.220 Q 90.913 836.261 91.488 834.932 Q 92.064 833.603 91.687 831.599 Q 91.310 829.595 90.088 827.262 Q 90.273 827.493 92.022 830.094 Q 93.770 832.695 96.716 835.648 Q 99.663 838.600 101.552 840.584 Q 103.442 842.569 104.757 844.531 Q 104.347 844.283 101.783 836.364 "></path>
    <path id="STROKE_f9e3ad9c-4a8b-470d-b11e-bd2c9381512d" opacity="1.000" fill="none" stroke="#00944c" stroke-width="2.720" stroke-opacity="1.000" stroke-linecap="round" stroke-linejoin="round" d="M 101.799 834.729 Q 101.952 834.849 102.348 835.491 Q 102.744 836.132 103.234 836.374 Q 103.724 836.617 104.607 836.335 Q 105.491 836.053 106.450 835.053 Q 107.410 834.053 107.836 832.532 Q 108.262 831.011 108.046 829.613 Q 107.830 828.214 106.843 826.663 Q 105.856 825.112 104.903 825.661 Q 103.950 826.210 103.230 826.961 Q 102.510 827.712 102.307 829.549 Q 102.104 831.386 102.507 833.123 Q 102.909 834.861 103.560 835.919 Q 104.210 836.977 104.841 837.551 Q 105.472 838.125 106.749 838.629 Q 108.026 839.133 109.813 838.302 Q 111.600 837.470 112.920 836.119 Q 114.241 834.768 115.083 832.981 Q 115.925 831.193 116.118 830.162 Q 116.311 829.132 116.388 828.492 Q 116.466 827.852 116.246 826.760 Q 116.026 825.668 115.458 824.732 Q 114.890 823.795 114.219 823.627 Q 113.548 823.460 112.117 823.874 Q 110.685 824.288 109.906 825.441 Q 109.126 826.594 108.996 828.036 Q 108.867 829.479 109.443 831.057 Q 110.020 832.635 110.746 833.510 Q 111.473 834.386 112.237 834.804 Q 113.001 835.223 113.982 835.060 Q 114.963 834.897 115.856 833.814 Q 116.749 832.732 116.717 830.879 Q 116.684 829.025 115.980 827.147 Q 115.275 825.269 114.589 824.190 Q 113.902 823.111 112.958 821.753 Q 112.014 820.396 109.790 819.195 Q 107.566 817.995 104.741 818.059 Q 104.854 818.367 104.770 818.217 Q 104.686 818.067 104.866 818.492 Q 105.046 818.918 105.671 819.021 Q 106.297 819.125 107.241 819.456 Q 108.185 819.787 108.908 820.145 Q 109.631 820.502 111.588 822.273 Q 113.546 824.043 114.737 825.180 Q 115.928 826.316 116.970 827.015 Q 118.013 827.714 118.833 827.881 Q 119.652 828.047 120.532 827.634 Q 121.412 827.220 121.636 826.093 Q 121.861 824.965 121.482 823.069 Q 121.102 821.172 120.183 819.394 Q 119.263 817.617 117.556 816.710 Q 117.319 816.801 118.104 818.060 Q 118.888 819.319 119.504 820.144 Q 120.119 820.969 121.289 821.497 Q 122.459 822.025 123.721 821.777 Q 124.984 821.529 125.825 820.961 Q 126.667 820.394 126.889 819.139 Q 127.110 817.884 126.555 816.291 Q 126.001 814.699 125.143 813.241 Q 124.285 811.784 122.317 811.540 Q 122.190 811.454 123.131 813.048 Q 124.071 814.643 125.419 815.557 Q 126.766 816.471 127.483 816.873 Q 128.200 817.275 128.597 817.261 Q 128.994 817.246 129.410 817.146 Q 129.827 817.045 130.244 816.760 Q 130.662 816.474 130.850 816.274 Q 131.038 816.073 131.189 815.522 Q 131.340 814.971 131.444 813.780 Q 131.547 812.590 130.671 810.071 Q 129.794 807.552 127.807 805.012 Q 127.881 805.770 134.640 813.133 Q 134.617 812.910 133.408 810.511 Q 132.198 808.111 131.561 806.421 Q 130.923 804.731 131.384 803.197 Q 131.859 803.215 132.597 803.536 Q 133.335 803.856 134.591 805.180 Q 135.848 806.504 136.640 808.399 Q 135.525 808.276 134.670 806.018 Q 133.816 803.760 133.803 802.281 Q 133.790 800.802 134.473 799.624 Q 135.024 799.021 139.268 804.606 Q 138.652 804.042 137.971 802.411 Q 137.291 800.781 137.262 798.699 Q 137.233 796.618 138.988 797.213 Q 140.744 797.808 141.889 798.294 Q 143.035 798.781 143.855 798.667 Q 144.674 798.554 145.186 798.490 Q 145.699 798.425 146.313 797.539 Q 146.928 796.653 145.937 794.225 "></path>
    <path id="STROKE_e40e9ad5-6708-460e-8fac-6f6ab8986e5d" opacity="1.000" fill="none" stroke="#00944c" stroke-width="2.720" stroke-opacity="1.000" stroke-linecap="round" stroke-linejoin="round" d="M 113.458 795.574 Q 113.215 795.968 113.118 797.400 Q 113.022 798.833 114.101 800.184 Q 114.131 800.163 114.089 799.155 "></path>
    <path id="STROKE_7fa3e88c-1e6b-4a4d-8a92-3869c0de0145" opacity="1.000" fill="none" stroke="#00944c" stroke-width="2.692" stroke-opacity="1.000" stroke-linecap="round" stroke-linejoin="round" d="M 130.202 851.084 Q 130.479 851.433 129.066 850.371 Q 127.654 849.309 126.987 848.054 Q 126.321 846.798 126.152 845.983 Q 125.982 845.167 125.981 844.485 Q 125.980 843.802 126.714 843.222 Q 127.447 842.642 128.950 844.195 Q 130.453 845.749 131.491 847.460 Q 132.529 849.171 133.222 850.887 Q 133.916 852.604 134.445 854.756 Q 134.974 856.907 135.094 858.621 Q 135.213 860.334 134.941 861.563 Q 134.668 862.793 134.002 863.433 Q 133.335 864.073 132.618 862.985 Q 131.901 861.897 131.831 860.507 Q 131.761 859.117 132.061 858.092 Q 132.361 857.066 132.973 856.286 Q 133.585 855.507 134.203 855.477 Q 134.820 855.447 136.106 855.988 Q 137.391 856.529 138.907 857.176 Q 140.423 857.823 141.808 857.651 Q 143.192 857.479 144.819 856.483 Q 146.446 855.487 147.587 853.264 Q 148.727 851.042 149.470 846.998 "></path>
    <path id="STROKE_86a2be16-3b59-4239-89b9-2b91cf5fc50f" opacity="1.000" fill="none" stroke="#00bacb" stroke-width="2.485" stroke-opacity="1.000" stroke-linecap="round" stroke-linejoin="round" d="M 206.808 877.103 Q 207.844 876.991 207.847 877.275 Q 207.850 877.559 210.087 881.080 Q 212.324 884.601 213.781 887.477 Q 215.238 890.353 221.649 897.790 L 221.737 897.737 Q 221.708 897.541 220.251 893.988 "></path>
    <path id="STROKE_49c35853-b72c-487d-9526-c17fd27a79f6" opacity="1.000" fill="none" stroke="#00bacb" stroke-width="2.623" stroke-opacity="1.000" stroke-linecap="round" stroke-linejoin="round" d="M 213.048 871.282 Q 213.634 871.158 217.079 876.429 Q 220.524 881.700 223.199 885.807 Q 225.874 889.915 228.869 892.947 L 228.913 892.920 Q 228.828 892.730 228.451 891.808 "></path>
    <path id="STROKE_ce0558f6-b0d7-4ae8-acc7-9965ba9ecbe8" opacity="1.000" fill="none" stroke="#00bacb" stroke-width="2.720" stroke-opacity="1.000" stroke-linecap="round" stroke-linejoin="round" d="M 215.710 889.144 Q 214.944 888.555 217.497 890.865 Q 217.915 892.503 221.932 880.617 "></path>
    <path id="STROKE_a05dabb8-b8d9-4e0a-829b-257095aaebae" opacity="1.000" fill="none" stroke="#00bacb" stroke-width="2.720" stroke-opacity="1.000" stroke-linecap="round" stroke-linejoin="round" d="M 229.648 876.867 Q 230.421 876.679 230.188 876.721 L 230.210 876.708 Q 229.721 876.114 229.704 876.317 Q 229.306 876.328 228.856 876.487 Q 228.405 876.645 228.085 876.926 Q 227.765 877.207 227.666 877.444 Q 227.566 877.682 227.326 878.250 Q 227.085 878.817 227.502 880.708 Q 227.919 882.599 229.043 884.489 Q 230.168 886.378 230.886 887.437 Q 231.605 888.495 232.135 888.885 Q 232.666 889.276 234.272 889.388 Q 235.878 889.500 235.426 886.067 Q 234.974 882.633 233.988 879.875 Q 233.002 877.118 232.041 875.318 Q 231.080 873.518 230.278 872.699 Q 229.476 871.880 228.248 872.444 Q 227.865 872.116 228.761 873.942 Q 229.656 875.768 230.331 876.852 Q 231.005 877.935 232.890 879.019 Q 234.776 880.102 236.140 880.601 Q 237.504 881.100 238.280 880.958 Q 239.056 880.816 239.763 880.599 Q 240.469 880.382 240.540 878.943 Q 240.610 877.504 239.663 875.366 Q 238.716 873.228 237.889 871.743 Q 237.062 870.258 235.904 870.082 Q 236.116 870.948 237.518 873.081 Q 238.920 875.214 240.374 876.284 Q 241.828 877.354 242.962 877.733 Q 244.096 878.112 244.934 877.663 Q 245.772 877.214 245.411 875.227 Q 245.050 873.241 244.508 871.796 Q 243.967 870.351 243.561 869.315 Q 243.155 868.280 240.638 865.680 Q 240.516 865.726 240.428 865.779 Q 240.553 866.103 241.778 867.882 Q 243.003 869.661 244.499 870.807 Q 245.995 871.953 248.206 872.027 Q 250.418 872.102 247.255 863.283 "></path>
    <path id="STROKE_1822a165-1850-4a87-9bca-81572f57a70c" opacity="1.000" fill="none" stroke="#00bacb" stroke-width="2.470" stroke-opacity="1.000" stroke-linecap="round" stroke-linejoin="round" d="M 234.379 852.318 Q 234.041 853.164 234.213 852.935 Q 234.664 853.682 234.638 853.638 Q 234.625 854.325 240.156 858.608 Q 245.688 862.892 253.279 866.693 Q 253.861 866.995 251.742 865.635 "></path>
    <path id="STROKE_c4eccde3-1d27-4f1d-85a2-70187fd7627b" opacity="1.000" fill="none" stroke="#00bacb" stroke-width="2.720" stroke-opacity="1.000" stroke-linecap="round" stroke-linejoin="round" d="M 246.809 862.644 Q 246.174 862.425 244.993 860.974 Q 244.643 861.117 245.858 859.994 Q 247.074 858.870 248.019 854.687 "></path>
    <path id="STROKE_dfc194ea-a9cf-4624-9899-b5e5855ec86b" opacity="1.000" fill="none" stroke="#00bacb" stroke-width="2.720" stroke-opacity="1.000" stroke-linecap="round" stroke-linejoin="round" d="M 253.570 850.425 Q 253.349 850.516 253.360 850.890 Q 253.371 851.265 253.372 851.143 Q 253.374 851.022 253.454 851.225 Q 253.552 851.055 258.074 845.842 "></path>
    <path id="STROKE_3c9358ca-1c82-42f9-883d-eb6de7ac8e4c" opacity="1.000" fill="none" stroke="#00bacb" stroke-width="2.704" stroke-opacity="1.000" stroke-linecap="round" stroke-linejoin="round" d="M 253.476 832.149 Q 253.463 832.128 253.451 832.108 Q 253.387 832.331 271.137 846.553 Q 271.355 845.878 266.054 842.431 Q 260.752 838.985 257.007 837.285 Q 253.262 835.585 251.482 833.381 Q 251.526 833.413 252.834 831.408 Q 254.141 829.403 254.849 828.261 Q 255.556 827.120 255.965 826.611 Q 256.375 826.102 257.044 825.444 Q 257.714 824.786 259.693 826.432 Q 261.672 828.078 262.526 829.025 Q 263.380 829.972 265.359 831.932 Q 267.338 833.891 268.703 834.866 Q 270.068 835.842 271.001 835.922 Q 271.935 836.003 273.017 835.153 Q 274.099 834.303 274.056 832.140 Q 274.012 829.977 273.262 827.958 Q 272.513 825.939 271.964 824.903 Q 271.414 823.866 270.714 823.258 Q 270.013 822.650 268.800 822.511 Q 267.587 822.372 266.757 823.577 Q 265.926 824.782 266.648 827.023 Q 267.370 829.264 267.901 830.347 Q 268.432 831.429 269.089 832.282 Q 269.746 833.135 270.649 833.465 Q 271.551 833.794 272.261 833.920 Q 272.971 834.046 274.447 833.620 Q 275.922 833.193 277.370 832.034 Q 278.817 830.875 279.643 828.215 Q 280.469 825.556 280.656 823.251 Q 280.844 820.946 280.155 818.953 Q 279.467 816.961 278.854 815.931 Q 278.242 814.901 276.989 814.279 Q 275.737 813.656 274.748 814.109 Q 273.759 814.563 273.470 814.885 Q 273.181 815.207 272.645 815.990 Q 272.109 816.773 272.217 819.071 Q 272.326 821.368 273.353 823.275 Q 274.381 825.182 275.141 826.325 Q 275.901 827.468 277.791 827.298 Q 279.682 827.128 280.401 825.091 Q 281.121 823.053 280.280 820.717 Q 279.439 818.380 278.241 816.102 Q 277.043 813.825 275.050 812.007 Q 273.057 810.189 270.973 809.652 Q 268.889 809.115 267.401 809.102 Q 265.913 809.089 264.525 810.108 Q 264.460 810.386 264.697 810.704 Q 264.933 811.021 265.566 811.225 Q 266.198 811.429 266.256 811.456 Q 266.314 811.484 266.310 811.381 Q 266.307 811.278 268.470 811.677 Q 270.633 812.077 272.840 812.993 Q 275.048 813.910 277.560 815.412 Q 280.071 816.915 281.470 817.557 Q 282.870 818.198 283.535 818.307 Q 284.201 818.415 284.888 817.903 Q 285.574 817.391 284.635 815.028 Q 283.695 812.665 282.564 810.254 Q 281.433 807.843 277.990 807.431 Q 278.039 807.549 278.712 808.901 Q 279.386 810.252 280.883 811.027 Q 282.380 811.801 283.606 812.095 Q 284.832 812.388 285.832 812.126 Q 286.831 811.865 287.466 811.461 Q 288.101 811.057 288.462 810.639 Q 288.823 810.221 288.761 808.388 Q 288.699 806.555 287.695 804.218 Q 286.692 801.881 283.971 800.660 Q 284.177 801.397 285.196 802.815 Q 286.215 804.233 287.768 805.040 Q 289.321 805.846 290.175 806.025 Q 291.028 806.203 291.508 806.037 Q 291.988 805.872 292.368 805.714 Q 292.749 805.557 293.284 804.938 Q 293.820 804.320 293.903 803.382 Q 293.987 802.445 293.960 801.448 Q 293.934 800.450 293.189 798.597 Q 292.445 796.743 291.579 795.229 Q 290.714 793.714 288.614 793.458 Q 288.652 794.014 289.509 795.567 Q 290.366 797.121 291.868 798.160 Q 293.369 799.199 294.233 799.509 Q 295.096 799.818 295.536 799.864 Q 295.977 799.910 296.508 799.598 Q 297.040 799.286 296.729 798.360 Q 296.418 797.434 295.997 796.341 Q 295.576 795.249 294.294 792.836 Q 293.011 790.422 292.311 787.612 Q 292.130 787.366 292.426 787.405 Q 292.722 787.443 293.069 787.549 Q 293.417 787.654 294.171 788.169 Q 294.925 788.684 299.412 795.432 Q 298.690 795.121 298.707 795.075 Q 298.724 795.029 298.504 794.705 Q 298.283 794.380 298.133 794.146 Q 297.983 793.912 296.448 791.673 Q 294.913 789.433 294.663 784.744 Q 294.940 784.553 294.973 784.556 Q 295.006 784.559 295.011 784.405 Q 295.016 784.250 296.075 784.739 Q 297.134 785.227 298.053 786.249 Q 298.972 787.271 299.912 788.484 Q 300.853 789.697 302.098 791.728 Q 301.784 791.871 300.590 789.988 Q 299.396 788.105 298.966 786.175 Q 298.536 784.245 298.366 782.907 Q 298.195 781.570 299.497 780.680 Q 300.070 780.986 301.451 781.867 Q 302.833 782.747 304.126 782.933 Q 305.418 783.118 306.281 782.785 Q 307.143 782.451 307.822 782.202 Q 308.501 781.954 309.254 781.092 Q 310.007 780.230 310.070 777.426 "></path>
    <path id="STROKE_bd616acc-883b-4f62-935d-7477c3255d08" opacity="1.000" fill="none" stroke="#00bacb" stroke-width="2.720" stroke-opacity="1.000" stroke-linecap="round" stroke-linejoin="round" d="M 266.084 783.082 Q 266.339 783.730 266.656 784.812 Q 266.973 785.893 267.830 786.530 Q 268.688 787.168 269.729 787.086 Q 269.728 786.586 268.884 785.240 "></path>
    <path id="STROKE_0ce9a93a-a4e0-4146-b1d3-48fa69b7c684" opacity="1.000" fill="none" stroke="#0097c9" stroke-width="2.308" stroke-opacity="1.000" stroke-linecap="round" stroke-linejoin="round" d="M 353.036 851.917 Q 353.217 852.346 353.704 852.818 Q 354.191 853.290 355.754 855.675 Q 357.317 858.060 358.325 859.862 Q 359.333 861.664 360.406 863.440 Q 361.478 865.216 363.545 868.437 Q 365.611 871.658 369.338 876.811 Q 369.397 876.770 369.455 876.730 Q 369.642 876.750 364.821 868.714 Q 360.000 860.678 357.339 856.525 Q 354.679 852.371 353.561 850.444 Q 352.443 848.517 352.063 847.435 Q 351.684 846.353 352.150 845.737 Q 352.615 845.122 354.051 844.957 Q 355.486 844.792 358.374 846.588 Q 361.262 848.384 363.330 850.312 Q 365.399 852.239 366.415 853.289 Q 367.431 854.339 368.208 855.201 Q 368.985 856.064 370.427 857.668 Q 371.870 859.272 378.085 867.522 Q 377.685 867.051 373.669 860.966 "></path>
    <path id="STROKE_9efff0e8-5354-4e01-bc38-337d6c980464" opacity="1.000" fill="none" stroke="#0097c9" stroke-width="2.720" stroke-opacity="1.000" stroke-linecap="round" stroke-linejoin="round" d="M 371.043 857.750 Q 370.610 857.449 369.906 858.220 Q 369.202 858.991 368.873 859.910 Q 368.545 860.828 364.356 867.296 Q 364.315 867.067 364.876 865.202 "></path>
    <path id="STROKE_f0253798-f2f6-496b-8650-a2083fff63e8" opacity="1.000" fill="none" stroke="#0097c9" stroke-width="2.532" stroke-opacity="1.000" stroke-linecap="round" stroke-linejoin="round" d="M 370.445 848.448 Q 372.415 848.761 380.178 860.119 Q 380.302 859.801 379.904 857.873 "></path>
    <path id="STROKE_7e3c4c77-84be-4ad7-9c9b-fe99d7ca85cd" opacity="1.000" fill="none" stroke="#0097c9" stroke-width="2.691" stroke-opacity="1.000" stroke-linecap="round" stroke-linejoin="round" d="M 377.745 842.303 Q 378.079 842.072 379.337 840.971 Q 379.402 840.925 379.113 840.522 Q 378.840 840.262 378.520 841.371 Q 378.200 842.479 378.226 843.041 Q 378.253 843.604 378.264 844.482 Q 378.275 845.361 378.997 846.587 Q 379.129 846.372 379.113 846.511 Q 379.097 846.650 379.522 845.904 Q 379.947 845.159 379.881 845.353 Q 379.816 845.547 379.889 844.667 Q 379.962 843.787 379.648 842.558 Q 379.334 841.328 378.698 840.254 Q 378.244 840.265 377.783 841.827 Q 377.321 843.390 377.802 845.912 Q 378.282 848.435 379.359 850.467 Q 380.436 852.500 381.414 853.662 Q 382.392 854.824 383.139 854.982 Q 383.887 855.141 384.751 854.966 Q 385.616 854.792 386.204 853.960 Q 386.792 853.129 386.738 851.777 Q 386.684 850.425 386.589 849.342 Q 386.495 848.259 385.665 846.270 Q 384.836 844.281 383.834 843.128 Q 382.832 841.975 382.359 842.349 Q 381.886 842.723 381.527 842.823 Q 381.168 842.923 381.603 844.155 Q 382.039 845.388 382.487 846.137 Q 382.934 846.886 384.252 847.664 Q 385.570 848.442 388.529 848.951 Q 391.488 849.460 393.813 849.990 Q 396.138 850.520 397.809 851.795 Q 399.479 853.070 400.761 854.765 Q 402.042 856.459 402.896 858.688 Q 403.749 860.917 403.770 862.952 Q 403.790 864.987 403.275 866.074 Q 402.760 867.161 402.024 867.912 Q 401.288 868.664 400.099 868.643 Q 398.911 868.622 396.391 867.183 Q 393.871 865.744 390.419 858.706 "></path>
    <path id="STROKE_5256e4be-9843-4e7c-8e46-40ae0f55143c" opacity="1.000" fill="none" stroke="#0097c9" stroke-width="2.720" stroke-opacity="1.000" stroke-linecap="round" stroke-linejoin="round" d="M 386.079 837.986 Q 385.931 837.438 385.966 837.573 Q 385.921 837.502 386.048 837.027 Q 386.098 837.100 387.232 838.530 Q 388.366 839.959 389.896 840.911 Q 391.425 841.863 392.678 841.729 Q 393.930 841.595 394.745 840.584 Q 395.560 839.573 395.467 836.729 Q 395.373 833.886 393.248 830.343 Q 392.668 830.198 393.627 831.912 Q 394.585 833.627 395.921 834.405 Q 397.256 835.184 398.541 834.907 Q 399.826 834.630 400.639 833.840 Q 401.452 833.049 401.324 828.956 "></path>
    <path id="STROKE_8fab6c91-04a7-43e3-809c-9c01bed0c56c" opacity="1.000" fill="none" stroke="#0097c9" stroke-width="2.720" stroke-opacity="1.000" stroke-linecap="round" stroke-linejoin="round" d="M 368.019 833.988 L 367.999 834.001 Q 368.137 834.283 369.185 835.842 Q 368.861 835.410 368.888 834.830 "></path>
    <path id="STROKE_00dd8b7c-7ed5-4afd-98d3-f49b81e82430" opacity="1.000" fill="none" stroke="#a26b98" stroke-width="2.295" stroke-opacity="1.000" stroke-linecap="round" stroke-linejoin="round" d="M 472.685 824.000 Q 472.670 823.978 472.630 823.919 Q 473.036 824.600 476.910 831.771 Q 480.785 838.942 491.880 853.702 Q 491.561 853.054 488.570 849.524 Q 485.579 845.994 482.825 839.966 Q 480.071 833.937 478.935 830.722 Q 477.799 827.506 477.266 825.877 Q 476.734 824.247 476.627 823.264 Q 476.521 822.281 477.219 821.585 Q 477.916 820.890 478.661 820.777 Q 479.406 820.664 480.372 820.745 Q 481.338 820.825 483.470 822.292 Q 485.602 823.760 489.316 828.471 Q 493.029 833.182 496.017 837.762 Q 499.005 842.341 500.748 846.646 Q 500.599 847.011 498.307 844.110 "></path>
    <path id="STROKE_13a0d416-f8d6-44da-a265-9bc2faa770e7" opacity="1.000" fill="none" stroke="#a26b98" stroke-width="2.720" stroke-opacity="1.000" stroke-linecap="round" stroke-linejoin="round" d="M 494.526 835.047 Q 495.083 835.409 495.360 835.795 Q 495.641 835.549 494.316 836.852 Q 492.990 838.155 486.764 842.954 L 486.751 842.936 Q 486.847 842.784 487.357 841.963 "></path>
    <path id="STROKE_3436cec4-3c11-47eb-a56a-41e1f2c9ea61" opacity="1.000" fill="none" stroke="#a26b98" stroke-width="2.681" stroke-opacity="1.000" stroke-linecap="round" stroke-linejoin="round" d="M 500.390 826.243 Q 501.272 825.719 501.002 825.911 Q 501.643 826.206 501.645 826.255 Q 501.647 826.303 501.693 826.320 Q 501.740 826.338 501.805 826.336 Q 501.870 826.335 502.469 828.754 Q 503.068 831.172 504.145 833.115 Q 505.223 835.057 505.973 836.002 Q 506.723 836.947 507.767 837.663 Q 508.812 838.378 509.891 838.210 Q 510.970 838.041 511.711 836.958 Q 512.453 835.875 511.578 831.392 Q 510.703 826.909 507.071 820.989 Q 507.033 821.016 506.912 821.132 Q 507.316 821.717 507.196 821.543 Q 507.898 822.558 507.667 822.225 Q 508.143 822.699 508.105 822.650 Q 508.437 822.908 509.679 824.233 Q 510.921 825.557 515.616 833.600 L 515.577 833.627 Q 515.855 833.944 513.617 830.886 Q 511.380 827.827 510.139 825.550 Q 508.897 823.274 508.559 822.226 Q 508.220 821.178 508.199 820.470 Q 508.179 819.762 508.761 819.227 Q 509.344 818.693 509.596 818.553 Q 509.847 818.414 510.956 818.405 Q 512.064 818.397 512.883 819.146 Q 513.703 819.895 514.015 822.125 Q 514.327 824.356 513.299 829.126 Q 513.520 829.124 515.327 827.614 Q 517.135 826.104 519.308 825.244 Q 521.482 824.384 522.664 823.978 Q 523.847 823.571 524.552 823.216 Q 525.257 822.861 525.101 821.141 "></path>
    <path id="STROKE_f9a3ef28-eb11-4df5-901e-5a5ab1390d30" opacity="1.000" fill="none" stroke="#a26b98" stroke-width="2.720" stroke-opacity="1.000" stroke-linecap="round" stroke-linejoin="round" d="M 493.633 814.949 Q 493.739 815.162 495.457 817.340 Q 495.438 817.138 495.013 814.868 "></path>
  </g>
</svg>