<?xml version="1.0" encoding="UTF-8" standalone="yes"?>
<svg xmlns="http://www.w3.org/2000/svg" xmlns:xlink="http://www.w3.org/1999/xlink" width="885.518pt" height="697.159pt" version="1.1" viewBox="-507.711 407.541 885.518 697.159">
  <!--
	Exported with Concepts: Smarter Sketching
	Version: 1505 on iOS 15.3
	https://concepts.app/
	-->
  <title>339CAEAD-9C50-4609-B5E4-E877B4F1C870</title>
  <desc>Drawing exported from Concepts: Smarter Sketching</desc>
  <defs></defs>
  <g id="Stylo" opacity="1.000">
    <path id="STROKE_4ba325f5-ed52-4d1a-8d0f-94f81328809b" opacity="1.000" fill="none" stroke="#171612" stroke-width="1.644" stroke-opacity="1.000" stroke-linecap="round" stroke-linejoin="round" d="M -448.000 452.657 Q -448.000 452.854 -448.000 453.386 L -448.000 448.000 Q -448.000 455.103 -448.000 464.000 Q -448.000 473.816 -448.000 480.000 Q -448.000 488.883 -448.000 496.000 Q -448.000 506.804 -448.000 512.000 Q -448.000 520.153 -448.000 528.000 Q -448.000 537.864 -448.000 544.000 Q -448.000 553.326 -448.000 560.000 Q -448.000 569.393 -448.000 576.000 Q -448.000 586.178 -448.000 592.000 Q -448.000 603.444 -448.000 624.000 Q -448.000 636.358 -448.000 656.000 Q -448.000 664.426 -448.000 672.000 Q -448.000 684.614 -448.000 720.000 Q -448.000 728.276 -448.000 736.000 Q -448.000 746.531 -448.000 768.000 Q -448.000 779.915 -448.000 784.000 Q -448.000 792.781 -448.000 800.000 Q -448.000 810.703 -448.000 816.000 Q -448.000 826.911 -448.000 848.000 Q -448.000 856.371 -448.000 864.000 Q -448.000 874.750 -448.000 880.000 Q -448.000 889.680 -448.000 896.000 Q -448.000 906.539 -448.000 912.000 Q -448.000 922.471 -448.000 928.000 Q -448.000 936.870 -448.000 944.000 Q -448.000 952.727 -448.000 960.000 Q -448.000 968.325 -448.000 976.000 Q -448.000 985.381 -448.000 992.000 Q -448.000 1000.979 -448.000 1008.000 Q -448.000 1016.929 -448.000 1024.000 Q -448.000 1033.497 -448.000 1040.000 Q -448.000 1048.440 -448.000 1056.000 Q -448.000 1064.965 -448.000 1072.000 Q -448.000 1080.721 -448.000 1088.000 L -448.000 1094.158 "></path>
    <path id="STROKE_cd22e848-a269-4b6a-9b72-3d8155d55150" opacity="1.000" fill="none" stroke="#171612" stroke-width="2.711" stroke-opacity="1.000" stroke-linecap="round" stroke-linejoin="round" d="M -448.000 768.000 Q -439.440 768.000 -432.000 768.000 Q -423.405 768.000 -416.000 768.000 Q -407.041 768.000 -400.000 768.000 Q -391.138 768.000 -384.000 768.000 Q -375.763 768.000 -368.000 768.000 Q -359.860 768.000 -352.000 768.000 Q -342.980 768.000 -336.000 768.000 Q -327.264 768.000 -320.000 768.000 Q -311.625 768.000 -304.000 768.000 Q -295.458 768.000 -288.000 768.000 Q -279.951 768.000 -272.000 768.000 Q -263.109 768.000 -256.000 768.000 Q -247.207 768.000 -240.000 768.000 Q -231.238 768.000 -224.000 768.000 Q -215.813 768.000 -208.000 768.000 Q -199.844 768.000 -192.000 768.000 Q -183.876 768.000 -176.000 768.000 Q -167.627 768.000 -160.000 768.000 Q -151.873 768.000 -144.000 768.000 Q -135.756 768.000 -128.000 768.000 Q -119.326 768.000 -112.000 768.000 Q -103.159 768.000 -96.000 768.000 Q -87.388 768.000 -80.000 768.000 Q -71.815 768.000 -64.000 768.000 Q -55.847 768.000 -48.000 768.000 Q -39.351 768.000 -32.000 768.000 Q -23.712 768.000 -16.000 768.000 Q -7.348 768.000 0.000 768.000 Q 8.423 768.000 16.000 768.000 Q 24.656 768.000 32.000 768.000 Q 40.888 768.000 48.000 768.000 Q 57.081 768.000 64.000 768.000 Q 72.825 768.000 80.000 768.000 Q 89.014 768.000 96.000 768.000 Q 105.949 768.000 112.000 768.000 Q 121.258 768.000 128.000 768.000 Q 137.557 768.000 144.000 768.000 Q 152.800 768.000 160.000 768.000 Q 168.967 768.000 176.000 768.000 Q 184.474 768.000 192.000 768.000 Q 200.508 768.000 208.000 768.000 Q 216.016 768.000 224.000 768.000 Q 232.643 768.000 240.000 768.000 Q 248.216 768.000 256.000 768.000 Q 264.383 768.000 272.000 768.000 Q 280.549 768.000 288.000 768.000 Q 296.320 768.000 304.000 768.000 Q 312.289 768.000 320.000 768.000 "></path>
    <path id="STROKE_aae430fa-e7bb-47fa-9ade-88db4e2b1fa7" opacity="1.000" fill="none" stroke="#171612" stroke-width="2.710" stroke-opacity="1.000" stroke-linecap="round" stroke-linejoin="round" d="M 319.370 769.185 Q 319.090 769.185 321.875 769.185 Q 320.886 768.898 311.477 779.042 Q 312.091 779.828 315.328 777.371 Q 318.564 774.914 320.088 773.403 Q 321.612 771.891 322.318 770.640 Q 323.024 769.388 323.670 767.843 Q 324.315 766.297 323.857 764.117 Q 323.399 761.936 320.032 758.639 Q 316.665 755.342 305.643 751.004 "></path>
    <path id="STROKE_1ab1b24b-564d-4cde-9b33-36602a6c7e30" opacity="1.000" fill="none" stroke="#171612" stroke-width="2.367" stroke-opacity="1.000" stroke-linecap="round" stroke-linejoin="round" d="M -450.189 451.147 Q -450.475 451.427 -448.145 449.528 Q -448.658 448.531 -452.075 452.402 Q -455.492 456.273 -457.751 459.320 Q -460.011 462.367 -460.653 465.021 Q -459.551 465.998 -456.611 463.542 Q -453.671 461.085 -451.880 458.582 Q -450.089 456.079 -448.571 452.878 Q -447.053 449.677 -446.213 446.851 Q -445.374 444.025 -442.872 437.873 Q -442.303 436.936 -438.977 446.123 Q -435.650 455.310 -433.133 465.361 Q -433.363 465.361 -434.286 464.557 "></path>
    <path id="STROKE_a8b254b8-01ac-4a15-ab25-0627dacd6062" opacity="1.000" fill="none" stroke="#f66640" stroke-width="2.720" stroke-opacity="1.000" stroke-linecap="round" stroke-linejoin="round" d="M -442.971 576.000 Q -443.169 576.000 -443.432 576.000 Q -443.491 576.000 -442.919 576.000 Q -442.346 576.000 -432.000 576.000 Q -423.558 576.000 -416.000 576.000 Q -407.128 576.000 -400.000 576.000 Q -391.884 576.000 -384.000 576.000 Q -374.993 576.000 -368.000 576.000 Q -359.683 576.000 -352.000 576.000 Q -343.649 576.000 -336.000 576.000 Q -327.153 576.000 -320.000 576.000 Q -311.316 576.000 -304.000 576.000 Q -295.743 576.000 -288.000 576.000 Q -279.774 576.000 -272.000 576.000 Q -263.134 576.000 -256.000 576.000 "></path>
    <path id="STROKE_012704c8-fef0-4a13-9e81-2db10daf6ff6" opacity="1.000" fill="none" stroke="#f66640" stroke-width="2.720" stroke-opacity="1.000" stroke-linecap="round" stroke-linejoin="round" d="M -256.000 960.000 Q -253.520 960.000 -240.000 960.000 Q -231.934 960.000 -224.000 960.000 Q -215.224 960.000 -208.000 960.000 Q -199.058 960.000 -192.000 960.000 Q -183.897 960.000 -176.000 960.000 Q -167.187 960.000 -160.000 960.000 Q -151.877 960.000 -144.000 960.000 Q -135.117 960.000 -128.000 960.000 Q -119.281 960.000 -112.000 960.000 Q -103.510 960.000 -96.000 960.000 Q -87.409 960.000 -80.000 960.000 Q -71.638 960.000 -64.000 960.000 "></path>
    <path id="STROKE_a004f84d-e209-4704-b0a2-eafb334629f5" opacity="1.000" fill="none" stroke="#f66640" stroke-width="2.720" stroke-opacity="1.000" stroke-linecap="round" stroke-linejoin="round" d="M -64.000 576.000 Q -61.619 576.000 -48.000 576.000 Q -38.976 576.000 -32.000 576.000 Q -23.271 576.000 -16.000 576.000 Q -7.302 576.000 0.000 576.000 Q 8.996 576.000 16.000 576.000 Q 24.371 576.000 32.000 576.000 Q 40.933 576.000 48.000 576.000 Q 56.242 576.000 64.000 576.000 Q 72.013 576.000 80.000 576.000 Q 88.839 576.000 96.000 576.000 Q 104.478 576.000 112.000 576.000 Q 120.223 576.000 128.000 576.000 "></path>
    <path id="STROKE_2fa101fd-9d33-4b13-b987-1eda101e1150" opacity="1.000" fill="none" stroke="#f66640" stroke-width="2.715" stroke-opacity="1.000" stroke-linecap="round" stroke-linejoin="round" d="M 128.000 960.000 Q 128.000 960.889 128.000 960.796 Q 128.000 960.994 128.000 961.192 L 128.000 960.000 Q 136.613 960.000 144.000 960.000 Q 153.373 960.000 160.000 960.000 Q 168.550 960.000 176.000 960.000 Q 184.914 960.000 192.000 960.000 Q 200.817 960.000 208.000 960.000 Q 216.324 960.000 224.000 960.000 Q 232.095 960.000 240.000 960.000 Q 248.789 960.000 256.000 960.000 Q 264.098 960.000 272.000 960.000 Q 280.462 960.000 288.000 960.000 Q 296.431 960.000 304.000 960.000 Q 312.466 960.000 320.000 960.000 "></path>
    <path id="STROKE_0ba39e02-2e9b-4852-8553-1499ff958d78" opacity="1.000" fill="none" stroke="#f66640" stroke-width="2.514" stroke-opacity="1.000" stroke-linecap="round" stroke-linejoin="round" d="M 128.000 576.000 L 130.054 576.000 L 128.000 576.000 Q 128.000 584.878 128.000 592.000 Q 128.000 601.403 128.000 608.000 Q 128.000 616.148 128.000 624.000 Q 128.000 633.328 128.000 640.000 Q 128.000 649.655 128.000 656.000 Q 128.000 664.128 128.000 672.000 Q 128.000 680.789 128.000 688.000 Q 128.000 697.178 128.000 704.000 Q 128.000 713.764 128.000 720.000 Q 128.000 728.967 128.000 736.000 Q 128.000 745.492 128.000 752.000 Q 128.000 760.162 128.000 768.000 Q 128.000 777.219 128.000 784.000 Q 128.000 792.878 128.000 800.000 Q 128.000 809.008 128.000 816.000 Q 128.000 824.469 128.000 832.000 Q 128.000 840.735 128.000 848.000 Q 128.000 856.394 128.000 864.000 Q 128.000 873.117 128.000 880.000 Q 128.000 888.455 128.000 896.000 Q 128.000 904.313 128.000 912.000 Q 128.000 920.776 128.000 928.000 Q 128.000 936.040 128.000 944.000 Q 128.000 952.231 128.000 960.000 "></path>
    <path id="STROKE_a52381b0-7639-46c1-aa1c-0d7380c1f8a9" opacity="1.000" fill="none" stroke="#f66640" stroke-width="2.488" stroke-opacity="1.000" stroke-linecap="round" stroke-linejoin="round" d="M -64.000 576.000 Q -64.000 580.112 -64.000 582.629 L -64.000 576.000 L -64.000 592.000 Q -64.000 600.414 -64.000 608.000 Q -64.000 618.534 -64.000 624.000 Q -64.000 633.464 -64.000 640.000 Q -64.000 648.790 -64.000 656.000 Q -64.000 664.796 -64.000 672.000 Q -64.000 682.111 -64.000 688.000 Q -64.000 697.240 -64.000 704.000 Q -64.000 713.443 -64.000 720.000 Q -64.000 728.299 -64.000 736.000 Q -64.000 744.367 -64.000 752.000 Q -64.000 761.028 -64.000 768.000 Q -64.000 777.886 -64.000 784.000 Q -64.000 793.150 -64.000 800.000 Q -64.000 809.799 -64.000 816.000 Q -64.000 824.803 -64.000 832.000 Q -64.000 840.797 -64.000 848.000 Q -64.000 857.655 -64.000 864.000 Q -64.000 872.128 -64.000 880.000 Q -64.000 888.517 -64.000 896.000 Q -64.000 904.510 -64.000 912.000 Q -64.000 920.899 -64.000 928.000 Q -64.000 936.238 -64.000 944.000 Q -64.000 952.626 -64.000 960.000 "></path>
    <path id="STROKE_290963e1-48dd-454a-91a1-44e9384950ac" opacity="1.000" fill="none" stroke="#f66640" stroke-width="2.720" stroke-opacity="1.000" stroke-linecap="round" stroke-linejoin="round" d="M -255.638 576.000 L -256.000 576.000 L -255.638 576.000 "></path>
    <path id="STROKE_789a2a10-82b0-4750-821d-e1129e1c96f0" opacity="1.000" fill="none" stroke="#f66640" stroke-width="2.652" stroke-opacity="1.000" stroke-linecap="round" stroke-linejoin="round" d="M -255.638 576.000 L -256.000 576.000 Q -256.000 584.285 -256.000 592.000 Q -256.000 600.748 -256.000 608.000 Q -256.000 617.137 -256.000 624.000 Q -256.000 634.131 -256.000 640.000 Q -256.000 648.469 -256.000 656.000 Q -256.000 664.388 -256.000 672.000 Q -256.000 680.912 -256.000 688.000 Q -256.000 697.240 -256.000 704.000 Q -256.000 712.640 -256.000 720.000 Q -256.000 728.769 -256.000 736.000 Q -256.000 744.293 -256.000 752.000 Q -256.000 761.485 -256.000 768.000 Q -256.000 776.156 -256.000 784.000 Q -256.000 792.817 -256.000 800.000 Q -256.000 808.006 -256.000 816.000 Q -256.000 824.272 -256.000 832.000 Q -256.000 840.599 -256.000 848.000 Q -256.000 856.530 -256.000 864.000 Q -256.000 873.512 -256.000 880.000 Q -256.000 888.183 -256.000 896.000 Q -256.000 904.510 -256.000 912.000 Q -256.000 920.566 -256.000 928.000 Q -256.000 936.040 -256.000 944.000 Q -256.000 952.293 -256.000 960.000 Q -256.000 957.607 -256.000 957.274 L -256.000 960.000 "></path>
    <path id="STROKE_db1916ad-9628-426a-8b28-95ba371ae0ac" opacity="1.000" fill="none" stroke="#171612" stroke-width="2.329" stroke-opacity="1.000" stroke-linecap="round" stroke-linejoin="round" d="M 335.133 808.489 Q 334.539 809.876 334.732 809.590 Q 334.695 809.918 334.732 810.622 Q 335.877 811.379 340.104 804.489 Q 344.331 797.600 346.316 792.274 Q 348.302 786.948 349.043 783.891 Q 349.783 780.833 349.948 779.083 Q 350.113 777.332 350.209 775.818 Q 350.305 774.303 349.904 770.809 L 349.868 770.809 Q 349.868 772.317 349.868 772.101 Q 350.055 774.213 349.757 782.877 Q 349.459 791.542 349.415 795.788 Q 349.371 800.033 349.534 801.956 Q 349.697 803.878 351.051 806.774 Q 352.404 809.671 355.461 809.038 Q 358.518 808.406 361.212 806.302 Q 363.906 804.199 367.319 796.371 "></path>
    <path id="STROKE_e6ee3e73-d1fa-46a6-a7e5-5adadb98ba9d" opacity="1.000" fill="none" stroke="#171612" stroke-width="2.720" stroke-opacity="1.000" stroke-linecap="round" stroke-linejoin="round" d="M 347.661 788.370 Q 347.720 787.848 347.659 788.773 Q 347.597 789.698 349.267 790.113 Q 350.937 790.527 352.448 790.133 Q 353.959 789.740 356.405 788.324 Q 358.851 786.908 361.374 785.361 "></path>
    <path id="STROKE_089089d7-b91d-41a0-afd3-993058eed11b" opacity="1.000" fill="none" stroke="#171612" stroke-width="2.091" stroke-opacity="1.000" stroke-linecap="round" stroke-linejoin="round" d="M -495.696 420.132 Q -494.760 421.294 -495.076 420.980 Q -494.942 421.053 -492.541 461.696 Q -492.537 462.443 -492.541 455.050 Q -492.544 447.657 -492.524 441.841 Q -492.503 436.025 -492.604 431.671 Q -492.705 427.317 -490.899 418.081 Q -489.478 417.472 -487.020 427.131 Q -484.561 436.789 -479.794 456.786 Q -479.794 456.526 -480.159 454.133 "></path>
    <path id="STROKE_6fdf1dc0-4aee-4401-8aa1-33bd288b9774" opacity="1.000" fill="none" stroke="#171612" stroke-width="2.720" stroke-opacity="1.000" stroke-linecap="round" stroke-linejoin="round" d="M -482.857 440.251 Q -482.975 440.871 -483.568 442.968 Q -484.161 445.066 -487.699 446.523 Q -491.237 447.981 -497.173 447.089 "></path>
  </g>
</svg>